<?xml version="1.0" standalone="no"?>
<!DOCTYPE svg PUBLIC "-//W3C//DTD SVG 20010904//EN"
 "http://www.w3.org/TR/2001/REC-SVG-20010904/DTD/svg10.dtd">
<svg version="1.0" xmlns="http://www.w3.org/2000/svg"
 width="700.000000pt" height="700.000000pt" viewBox="0 0 700.000000 700.000000"
 preserveAspectRatio="xMidYMid meet">
<metadata>
Created by potrace 1.11, written by Peter Selinger 2001-2013
</metadata>
<g transform="translate(0.000000,700.000000) scale(0.100000,-0.100000)"
fill="#000000" stroke="none">
<path d="M3450 6938 c-135 -23 -262 -122 -371 -287 l-52 -79 -46 33 c-65 47
-196 111 -261 128 -71 18 -169 15 -216 -8 -101 -48 -220 -226 -265 -395 -16
-62 -17 -71 -18 -103 -1 -28 -2 -29 -48 -22 -27 3 -68 11 -93 17 -64 14 -324
19 -389 7 -87 -17 -156 -47 -204 -89 -51 -45 -73 -85 -88 -162 -11 -55 -15
-250 -5 -266 3 -5 8 -24 11 -42 11 -62 65 -187 109 -250 87 -125 195 -217 323
-275 l61 -28 -55 -56 c-58 -59 -117 -139 -150 -206 -47 -92 -62 -232 -36 -315
41 -129 178 -239 342 -275 11 -3 31 -8 44 -11 39 -10 250 -12 317 -3 149 20
338 78 472 145 37 19 69 30 71 26 3 -4 21 -47 42 -97 98 -239 253 -435 398
-504 l67 -32 0 -657 0 -657 -22 35 c-27 45 -86 132 -127 191 -31 44 -32 48
-18 75 30 59 38 186 16 267 -49 182 -227 349 -454 424 -130 44 -302 84 -415
99 -19 2 -60 9 -90 14 -30 5 -86 12 -125 15 -66 6 -72 5 -97 -20 -16 -14 -28
-36 -28 -49 0 -30 112 -274 179 -390 157 -270 344 -460 520 -527 100 -38 247
-35 339 8 18 9 34 14 36 12 105 -134 201 -315 258 -482 l31 -92 1 -970 c1
-912 2 -973 19 -998 25 -38 86 -39 116 -1 21 26 21 36 21 529 0 500 0 502 24
581 47 155 145 372 235 519 55 89 168 252 181 260 5 3 27 -3 48 -14 136 -69
348 -64 514 12 196 91 434 340 619 647 109 181 279 537 279 584 0 8 -10 27
-23 42 -30 35 -43 34 -312 -2 -22 -3 -62 -10 -90 -15 -27 -5 -66 -12 -85 -15
-71 -11 -263 -55 -369 -84 -196 -53 -292 -95 -433 -192 -221 -151 -332 -342
-331 -568 0 -88 27 -199 59 -248 15 -23 15 -26 -7 -55 -60 -81 -147 -206 -166
-237 -23 -37 -109 -189 -129 -229 -10 -19 -12 200 -12 1080 l0 1104 82 39 c96
46 207 150 278 261 53 82 127 228 153 301 l18 51 81 -38 c331 -155 663 -191
911 -98 113 42 196 116 242 214 39 86 39 200 -2 300 -35 88 -92 173 -166 250
l-58 60 62 28 c260 120 439 393 440 672 1 154 -18 234 -71 295 -109 128 -363
158 -729 86 -17 -4 -24 0 -27 17 -39 209 -113 363 -225 465 -112 102 -320 73
-535 -75 -47 -32 -51 -33 -63 -16 -134 188 -205 259 -306 307 -66 31 -147 44
-207 34z m147 -180 c60 -30 138 -109 199 -203 l52 -80 -83 -85 c-115 -117
-171 -188 -232 -292 -16 -27 -31 -48 -34 -48 -4 0 -14 15 -23 34 -28 60 -136
198 -232 295 l-92 95 37 59 c49 80 155 194 205 219 80 41 129 43 203 6z m-823
-216 c185 -92 405 -294 540 -496 48 -72 48 -86 0 -86 -39 0 -110 -39 -157 -85
l-47 -45 -78 19 c-161 41 -245 50 -439 47 l-171 -3 -16 36 c-44 106 -52 225
-21 346 23 94 84 209 141 269 l47 48 58 -4 c42 -3 81 -16 143 -46z m1691 11
c147 -152 202 -393 134 -588 l-25 -69 -184 1 c-204 2 -314 -11 -456 -52 l-54
-16 -31 36 c-41 46 -101 81 -166 96 l-51 12 31 51 c39 66 171 229 200 249 12
8 45 36 72 62 112 105 276 212 368 241 23 7 61 13 84 13 36 1 47 -5 78 -36z
m-2485 -478 c36 -4 74 -9 85 -11 11 -3 36 -7 55 -10 47 -8 102 -27 102 -36 -1
-4 8 -40 19 -79 11 -39 18 -72 17 -73 -2 -2 -23 -8 -48 -15 -251 -69 -363
-188 -346 -370 4 -36 13 -92 22 -124 8 -33 13 -61 11 -63 -2 -2 -37 18 -79 46
-67 44 -103 78 -161 152 -29 37 -84 159 -96 213 -24 109 -16 255 15 303 22 34
93 62 172 69 37 3 68 7 70 8 4 3 84 -2 162 -10z m3290 0 c19 -3 45 -7 57 -9
40 -7 90 -45 104 -79 9 -21 14 -72 13 -152 0 -97 -4 -132 -22 -182 -49 -140
-157 -271 -272 -332 l-57 -31 19 68 c28 96 28 214 1 273 -43 95 -155 173 -307
214 -36 10 -66 23 -65 29 1 19 34 140 42 152 4 7 28 15 54 19 27 5 55 10 63
12 102 24 282 33 370 18z m-1836 -275 c14 -5 35 -19 47 -31 l21 -21 29 28 c41
39 120 45 168 12 79 -53 97 -146 46 -234 -33 -56 -132 -157 -199 -204 l-46
-31 -47 32 c-63 44 -167 150 -198 203 -35 60 -39 114 -12 168 38 74 116 107
191 78z m-664 -64 c89 -8 166 -22 236 -43 l50 -15 10 -65 10 -64 -46 -13
c-131 -39 -242 -129 -273 -220 -25 -73 -18 -216 17 -315 16 -47 14 -49 -74
-58 -200 -22 -365 33 -501 167 -108 107 -166 231 -176 376 -5 80 -5 82 23 111
43 45 137 88 238 109 96 21 138 26 256 31 74 3 137 7 139 9 2 2 7 2 10 0 3 -2
40 -6 81 -10z m1716 0 c72 -4 145 -11 162 -16 18 -5 33 -8 35 -8 12 6 155 -40
202 -65 80 -43 104 -80 98 -149 -13 -152 -68 -272 -173 -379 -138 -141 -315
-202 -510 -176 -83 12 -84 13 -64 88 12 42 18 101 18 175 1 111 1 111 -34 163
-50 73 -126 126 -230 160 -45 15 -55 22 -54 39 4 117 -1 107 57 125 68 21 153
35 252 43 44 3 82 7 83 9 2 2 9 2 15 0 7 -2 71 -6 143 -9z m-1270 -389 c151
-163 264 -221 349 -179 52 26 130 89 204 163 l72 73 67 -22 c79 -25 154 -70
177 -106 14 -20 16 -39 11 -88 -3 -35 -7 -70 -9 -78 -28 -117 -80 -213 -157
-291 -322 -325 -873 -190 -1004 245 -26 84 -31 182 -12 210 31 48 172 122 237
125 9 1 38 -23 65 -52z m-1156 -317 c0 -13 117 -108 183 -148 50 -30 156 -74
216 -89 14 -3 78 -7 143 -9 88 -3 133 1 188 15 l71 18 22 -31 c12 -17 38 -48
58 -68 43 -43 44 -41 -65 -108 -168 -102 -369 -175 -536 -196 -150 -18 -346 7
-424 55 -171 107 -151 298 54 502 66 65 90 81 90 59z m2961 -52 c216 -204 235
-413 48 -516 -77 -43 -291 -67 -414 -47 -223 36 -444 125 -603 242 l-32 24 55
61 c30 34 55 65 55 69 0 4 21 0 48 -8 49 -16 289 -24 347 -12 62 14 194 68
247 101 30 20 81 60 114 91 66 62 65 62 135 -5z m-1713 -469 c172 -44 384 -24
533 52 32 16 59 25 61 21 2 -4 18 -18 35 -30 l32 -23 -15 -42 c-35 -90 -119
-255 -166 -324 -127 -184 -256 -249 -377 -191 -120 57 -285 292 -356 507 -15
47 -16 55 -3 62 8 5 25 17 38 27 23 19 24 19 82 -10 33 -16 94 -38 136 -49z
m-953 -1094 c44 -7 96 -16 115 -20 97 -17 292 -70 348 -96 206 -93 305 -227
293 -393 -1 -15 -14 -7 -63 40 -118 112 -289 243 -336 258 -35 11 -69 -4 -88
-40 -18 -33 -18 -35 0 -66 10 -19 55 -59 103 -93 105 -73 278 -234 265 -247
-15 -15 -105 -16 -163 -1 -116 29 -273 170 -393 352 -55 83 -176 300 -176 316
0 7 4 7 95 -10z m2895 -327 c0 -16 -145 -299 -195 -383 -187 -309 -403 -533
-583 -604 -58 -23 -171 -39 -232 -34 -49 5 -113 26 -117 39 -4 13 210 224 307
304 100 82 101 82 135 104 16 11 34 23 40 28 5 5 29 23 53 40 52 37 65 66 51
108 -13 34 -35 50 -74 50 -55 0 -338 -216 -522 -399 -61 -61 -114 -111 -116
-111 -10 0 -21 86 -19 144 5 157 93 313 239 425 55 42 199 115 276 140 91 29
284 77 427 105 125 25 151 29 245 42 28 3 51 7 53 8 6 7 32 1 32 -6z"/>
</g>
</svg>
