<?xml version="1.0" encoding="utf-8"?>
<!-- Generator: Adobe Illustrator 22.0.0, SVG Export Plug-In . SVG Version: 6.00 Build 0)  -->
<svg version="1.1" id="Layer_1" xmlns="http://www.w3.org/2000/svg" xmlns:xlink="http://www.w3.org/1999/xlink" x="0px" y="0px"
	 viewBox="0 0 65 50" style="enable-background:new 0 0 65 50;" xml:space="preserve">
<style type="text/css">
	.st0{fill:none;stroke:#C99340;stroke-width:2;stroke-linecap:round;stroke-linejoin:round;stroke-miterlimit:10;}
</style>
<g>
	<path class="st0" d="M2.9,20.6c0-1.6,1.3-2.9,2.9-2.9c1.6,0,2.9,1.3,2.9,2.9c0,5.4,7.7,12.9,23.8,12.9c16.1,0,23.8-7.5,23.8-12.9
		c0-1.6,1.3-2.9,2.9-2.9c1.6,0,2.9,1.3,2.9,2.9"/>
	<line class="st0" x1="56.3" y1="20.6" x2="8.7" y2="20.6"/>
	<g>
		<line class="st0" x1="32.5" y1="8.5" x2="32.5" y2="47.2"/>
		<polyline class="st0" points="38.2,41.5 32.5,47.2 26.8,41.5 		"/>
		<polyline class="st0" points="38.2,2.8 32.5,8.5 26.8,2.8 		"/>
		<polyline class="st0" points="38.2,6.6 32.5,12.3 26.8,6.6 		"/>
		<polyline class="st0" points="38.2,10.4 32.5,16.1 26.8,10.4 		"/>
	</g>
</g>
</svg>
