<?xml version="1.0" encoding="utf-8"?>
<!-- Generator: Adobe Illustrator 22.0.0, SVG Export Plug-In . SVG Version: 6.00 Build 0)  -->
<svg version="1.1" id="Layer_1" xmlns="http://www.w3.org/2000/svg" xmlns:xlink="http://www.w3.org/1999/xlink" x="0px" y="0px"
	 viewBox="0 0 105 155" style="enable-background:new 0 0 105 155;" xml:space="preserve">
<style type="text/css">
	.st0{fill:#FAF2E5;}
	.st1{fill:#C99340;}
</style>
<g>
	<g>
		<g>
			<g>
				<path class="st0" d="M102.5,0v90.2c0,27.6-22.4,50-50,50h0c-27.6,0-50-22.4-50-50V0"/>
			</g>
			<g>
				<path class="st1" d="M52.5,141.2c-28.1,0-51-22.9-51-51V0h2v90.2c0,27,22,49,49,49s49-22,49-49V0h2v90.2
					C103.5,118.3,80.6,141.2,52.5,141.2z"/>
			</g>
		</g>
		<g>
			<path class="st1" d="M52.5,151.5c-3.4,0-6.1-2.8-6.1-6.1c0-3.4,2.8-6.2,6.1-6.2s6.1,2.8,6.1,6.2
				C58.6,148.8,55.9,151.5,52.5,151.5z M52.5,141.2c-2.3,0-4.1,1.9-4.1,4.2s1.9,4.1,4.1,4.1s4.1-1.9,4.1-4.1S54.8,141.2,52.5,141.2z
				"/>
		</g>
	</g>
	<g>
		<g>
			<g>
				<path class="st1" d="M32.9,114.2c-1.1-0.3-2-1.2-2.3-2.3c0-0.2-0.2-0.3-0.4-0.3c-0.2,0-0.3,0.1-0.4,0.3c-0.3,1.1-1.2,2-2.3,2.3
					c-0.2,0-0.3,0.2-0.3,0.4c0,0.2,0.1,0.3,0.3,0.4c1.1,0.3,2,1.2,2.3,2.3c0,0.2,0.2,0.3,0.4,0.3c0.2,0,0.3-0.1,0.4-0.3
					c0.3-1.1,1.2-2,2.3-2.3c0.2,0,0.3-0.2,0.3-0.4C33.2,114.4,33,114.2,32.9,114.2z"/>
			</g>
			<g>
				<g>
					<path class="st0" d="M20.5,93.9v1.6c0,2.3,1.9,4.2,4.2,4.2h1.4l0,0h-1.4c-2.3,0-4.2,1.9-4.2,4.2v1.6V104c0-2.3-1.9-4.2-4.2-4.2
						h-1.4l0,0h1.4c2.3,0,4.2-1.9,4.2-4.2V93.9z"/>
					<path class="st1" d="M20.5,106.6c-0.6,0-1-0.4-1-1V104c0-1.8-1.5-3.2-3.2-3.2h-1.4c-0.6,0-1-0.4-1-1s0.4-1,1-1h1.4
						c1.8,0,3.2-1.5,3.2-3.2v-1.6c0-0.6,0.4-1,1-1s1,0.4,1,1v1.6c0,1.8,1.5,3.2,3.2,3.2h1.4c0.6,0,1,0.4,1,1s-0.4,1-1,1h-1.4
						c-1.8,0-3.2,1.5-3.2,3.2v1.6C21.5,106.2,21.1,106.6,20.5,106.6z M19.4,99.7c0.4,0.3,0.8,0.7,1.2,1.2c0.3-0.4,0.7-0.8,1.2-1.2
						c-0.4-0.3-0.8-0.7-1.2-1.2C20.2,99,19.8,99.4,19.4,99.7z"/>
				</g>
			</g>
		</g>
		<g>
			<g>
				<g>
					<path class="st0" d="M90.2,62.7v1.6c0,2.3,1.9,4.2,4.2,4.2h1.4l0,0h-1.4c-2.3,0-4.2,1.9-4.2,4.2v1.6v-1.6
						c0-2.3-1.9-4.2-4.2-4.2h-1.4l0,0H86c2.3,0,4.2-1.9,4.2-4.2V62.7z"/>
					<path class="st1" d="M90.2,75.4c-0.6,0-1-0.4-1-1v-1.6c0-1.8-1.5-3.2-3.2-3.2h-1.4c-0.6,0-1-0.4-1-1s0.4-1,1-1H86
						c1.8,0,3.2-1.5,3.2-3.2v-1.6c0-0.6,0.4-1,1-1s1,0.4,1,1v1.6c0,1.8,1.5,3.2,3.2,3.2h1.4c0.6,0,1,0.4,1,1s-0.4,1-1,1h-1.4
						c-1.8,0-3.2,1.5-3.2,3.2v1.6C91.2,75,90.8,75.4,90.2,75.4z M89,68.5c0.4,0.3,0.8,0.7,1.2,1.2c0.3-0.4,0.7-0.8,1.2-1.2
						c-0.4-0.3-0.8-0.7-1.2-1.2C89.9,67.8,89.5,68.2,89,68.5z"/>
				</g>
			</g>
			<g>
				<path class="st1" d="M83.2,53.4c-1.1-0.3-2-1.2-2.3-2.3c0-0.2-0.2-0.3-0.4-0.3c-0.2,0-0.3,0.1-0.4,0.3c-0.3,1.1-1.2,2-2.3,2.3
					c-0.2,0-0.3,0.2-0.3,0.4c0,0.2,0.1,0.3,0.3,0.4c1.1,0.3,2,1.2,2.3,2.3c0,0.2,0.2,0.3,0.4,0.3c0.2,0,0.3-0.1,0.4-0.3
					c0.3-1.1,1.2-2,2.3-2.3c0.2,0,0.3-0.2,0.3-0.4C83.5,53.6,83.4,53.4,83.2,53.4z"/>
			</g>
		</g>
	</g>
	<g>
		<g>
			<g>
				<path class="st0" d="M60.4,80.6c0,4.2-3.4,12.5-7.6,12.5c-4.2,0-7.6-8.3-7.6-12.5c0-4.2,3.4-7.6,7.6-7.6
					C57,72.9,60.4,76.4,60.4,80.6z"/>
			</g>
			<g>
				<path class="st1" d="M52.8,94.1c-5,0-8.6-8.9-8.6-13.5c0-4.8,3.9-8.6,8.6-8.6c4.7,0,8.6,3.9,8.6,8.6
					C61.4,85.2,57.8,94.1,52.8,94.1z M52.8,73.9c-3.6,0-6.6,3-6.6,6.6c0,4.1,3.3,11.5,6.6,11.5c3.3,0,6.6-7.4,6.6-11.5
					C59.4,76.9,56.4,73.9,52.8,73.9z"/>
			</g>
		</g>
		<g>
			<g>
				<path class="st0" d="M45.2,67.8c0-4.2,3.4-12.5,7.6-12.5c4.2,0,7.6,8.3,7.6,12.5c0,4.2-3.4,7.6-7.6,7.6
					C48.6,75.4,45.2,72,45.2,67.8z"/>
			</g>
			<g>
				<path class="st1" d="M52.8,76.4c-4.7,0-8.6-3.9-8.6-8.6c0-4.6,3.6-13.5,8.6-13.5c5,0,8.6,8.9,8.6,13.5
					C61.4,72.5,57.5,76.4,52.8,76.4z M52.8,56.2c-3.3,0-6.6,7.4-6.6,11.5c0,3.6,3,6.6,6.6,6.6c3.6,0,6.6-3,6.6-6.6
					C59.4,63.6,56.1,56.2,52.8,56.2z"/>
			</g>
		</g>
		<g>
			<g>
				<path class="st0" d="M42.5,86.1c-5.4,2.1-10.7,1.4-11.9-1.6c-1.2-3,2.2-7.2,7.6-9.4c5.4-2.1,10.7-1.4,11.9,1.7
					C51.3,79.7,47.9,83.9,42.5,86.1z"/>
			</g>
			<g>
				<path class="st1" d="M36.5,88.3c-3.3,0-6-1.2-6.9-3.5c-1.4-3.6,2.2-8.3,8.2-10.7c6-2.4,11.8-1.4,13.2,2.2c0.7,1.8,0.2,4-1.5,6
					c-1.5,1.9-3.9,3.5-6.7,4.6C40.6,87.9,38.4,88.3,36.5,88.3z M44.1,74.8c-1.7,0-3.7,0.4-5.7,1.1c-4.8,1.9-8,5.6-7,8.1
					c1,2.5,5.9,3,10.6,1.1l0,0c2.5-1,4.5-2.4,5.9-4c1.2-1.5,1.6-2.9,1.2-4C48.6,75.6,46.6,74.8,44.1,74.8z"/>
			</g>
		</g>
		<g>
			<g>
				<path class="st0" d="M63.4,86.1c5.4,2.1,10.7,1.4,11.9-1.6c1.2-3-2.2-7.2-7.6-9.4c-5.4-2.1-10.7-1.4-11.9,1.7
					C54.6,79.7,58,83.9,63.4,86.1z"/>
			</g>
			<g>
				<path class="st1" d="M69.3,88.3c-2,0-4.1-0.4-6.4-1.3l0,0c-2.8-1.1-5.1-2.7-6.7-4.6c-1.7-2.1-2.2-4.2-1.5-6
					c1.4-3.6,7.2-4.6,13.2-2.2c6,2.4,9.6,7.1,8.2,10.7C75.3,87.1,72.7,88.3,69.3,88.3z M61.7,74.8c-2.5,0-4.4,0.8-5,2.2
					c-0.4,1.1,0,2.6,1.2,4c1.3,1.6,3.4,3.1,5.9,4l0,0c4.8,1.9,9.7,1.4,10.6-1.1c1-2.5-2.2-6.2-7-8.1C65.4,75.2,63.4,74.8,61.7,74.8z
					"/>
			</g>
		</g>
		<g>
			<g>
				<path class="st0" d="M78.2,66.1c1.1,4.6-1.7,9.3-6.3,10.4c-4.6,1.1-9.3-1.7-10.4-6.3C60.4,65.6,77.1,61.5,78.2,66.1z"/>
			</g>
			<g>
				<path class="st1" d="M69.8,77.7c-1.7,0-3.4-0.5-4.9-1.4c-2.2-1.3-3.7-3.4-4.4-5.9c-0.2-0.8-0.1-2.1,1.3-3.4
					c3-2.9,10.7-4.8,14.7-3.6c1.9,0.5,2.5,1.6,2.7,2.4c0.6,2.5,0.2,5.1-1.1,7.3c-1.3,2.2-3.4,3.7-5.9,4.4
					C71.4,77.6,70.6,77.7,69.8,77.7z M73.7,65.1c-3.6,0-8.5,1.5-10.5,3.4c-0.6,0.6-0.8,1.1-0.7,1.5c0.5,2,1.7,3.6,3.5,4.7
					c1.7,1,3.8,1.4,5.7,0.9c2-0.5,3.6-1.7,4.7-3.4c1.1-1.7,1.4-3.8,0.9-5.7c0,0,0,0,0,0c-0.1-0.4-0.6-0.8-1.3-1
					C75.3,65.2,74.5,65.1,73.7,65.1z"/>
			</g>
		</g>
		<g>
			<g>
				<path class="st0" d="M65.5,58.3c3.4,3.4,3.4,8.8,0,12.2c-3.4,3.4-8.8,3.4-12.2,0C50,67.1,62.2,54.9,65.5,58.3z"/>
			</g>
			<g>
				<path class="st1" d="M59.4,73.9c-2.6,0-5-1-6.8-2.8c-0.6-0.6-1.2-1.7-0.7-3.6c1.1-4,6.7-9.6,10.7-10.7c1.9-0.5,3,0.1,3.6,0.7
					c1.8,1.8,2.8,4.2,2.8,6.8c0,2.6-1,5-2.8,6.8C64.4,72.9,62,73.9,59.4,73.9z M64,58.7c-0.2,0-0.5,0-0.8,0.1
					c-3.3,0.9-8.4,6-9.3,9.3c-0.2,0.8-0.2,1.3,0.2,1.6c1.4,1.4,3.3,2.2,5.4,2.2c2,0,3.9-0.8,5.4-2.2c1.4-1.4,2.2-3.4,2.2-5.4
					c0-2-0.8-3.9-2.2-5.4c0,0,0,0,0,0C64.6,58.8,64.3,58.7,64,58.7z"/>
			</g>
		</g>
		<g>
			<g>
				<path class="st0" d="M27.3,66.1c-1.1,4.6,1.7,9.3,6.3,10.4c4.6,1.1,9.3-1.7,10.4-6.3C45.2,65.6,28.5,61.5,27.3,66.1z"/>
			</g>
			<g>
				<path class="st1" d="M35.7,77.7c-0.8,0-1.6-0.1-2.3-0.3c-2.5-0.6-4.6-2.2-5.9-4.4c-1.3-2.2-1.7-4.8-1.1-7.3
					c0.2-0.8,0.8-1.9,2.7-2.4c4-1.2,11.7,0.7,14.7,3.6c1.4,1.4,1.5,2.6,1.3,3.4c-0.6,2.5-2.2,4.6-4.4,5.9
					C39.1,77.3,37.4,77.7,35.7,77.7z M31.8,65.1c-0.8,0-1.6,0.1-2.2,0.3c-0.8,0.2-1.2,0.6-1.3,1c0,0,0,0,0,0c-0.5,2-0.2,4,0.9,5.7
					c1.1,1.7,2.7,3,4.7,3.4c2,0.5,4,0.2,5.7-0.9c1.7-1.1,3-2.7,3.4-4.7c0.1-0.4-0.1-0.9-0.7-1.5C40.4,66.6,35.4,65.1,31.8,65.1z
					 M27.3,66.1L27.3,66.1L27.3,66.1z"/>
			</g>
		</g>
		<g>
			<g>
				<path class="st0" d="M40,58.3c-3.4,3.4-3.4,8.8,0,12.2c3.4,3.4,8.8,3.4,12.2,0C55.6,67.1,43.4,54.9,40,58.3z"/>
			</g>
			<g>
				<path class="st1" d="M46.1,73.9c-2.6,0-5-1-6.8-2.8c-1.8-1.8-2.8-4.2-2.8-6.8c0-2.6,1-5,2.8-6.8l0,0c0.6-0.6,1.7-1.2,3.6-0.7
					c4,1.1,9.6,6.7,10.7,10.7c0.5,1.9-0.1,3-0.7,3.6C51.1,72.9,48.7,73.9,46.1,73.9z M41.6,58.7c-0.4,0-0.6,0.1-0.8,0.3c0,0,0,0,0,0
					c-1.4,1.4-2.2,3.3-2.2,5.4c0,2,0.8,3.9,2.2,5.4c1.4,1.4,3.3,2.2,5.4,2.2s3.9-0.8,5.4-2.2c0.3-0.3,0.4-0.9,0.2-1.6
					c-0.9-3.3-6-8.4-9.3-9.3C42.1,58.7,41.8,58.7,41.6,58.7z M40,58.3L40,58.3L40,58.3z"/>
			</g>
		</g>
		<g>
			<g>
				<path class="st0" d="M50.3,72c0,4.7-3.8,8.6-8.6,8.6c-4.7,0-8.6-3.8-8.6-8.6C33.1,67.2,50.3,67.2,50.3,72z"/>
			</g>
			<g>
				<path class="st1" d="M41.7,81.6c-5.3,0-9.6-4.3-9.6-9.6c0-3.4,5.2-4.6,9.6-4.6c4.4,0,9.6,1.2,9.6,4.6
					C51.3,77.3,47,81.6,41.7,81.6z M41.7,69.4c-4.2,0-7.6,1.1-7.6,2.6c0,4.2,3.4,7.6,7.6,7.6c4.2,0,7.6-3.4,7.6-7.6
					c0-0.9-1.3-1.5-2-1.7C45.8,69.7,43.8,69.4,41.7,69.4z"/>
			</g>
		</g>
		<g>
			<g>
				<path class="st0" d="M72.7,72c0,4.7-3.8,8.6-8.6,8.6c-4.8,0-8.6-3.8-8.6-8.6C55.5,67.2,72.7,67.2,72.7,72z"/>
			</g>
			<g>
				<path class="st1" d="M64.1,81.6c-5.3,0-9.6-4.3-9.6-9.6c0-3.4,5.2-4.6,9.6-4.6s9.6,1.2,9.6,4.6C73.7,77.3,69.4,81.6,64.1,81.6z
					 M64.1,69.4c-4.2,0-7.6,1.1-7.6,2.6c0,4.2,3.4,7.6,7.6,7.6c4.2,0,7.6-3.4,7.6-7.6c0-0.9-1.3-1.5-2-1.7
					C68.3,69.7,66.2,69.4,64.1,69.4z"/>
			</g>
		</g>
		<g>
			<g>
				<path class="st0" d="M61.4,75.8c0,4.7-3.8,8.6-8.6,8.6c-4.7,0-8.6-3.9-8.6-8.6C44.2,71,61.4,71,61.4,75.8z"/>
			</g>
			<g>
				<path class="st1" d="M52.8,85.4c-5.3,0-9.6-4.3-9.6-9.6c0-3.4,5.2-4.6,9.6-4.6s9.6,1.2,9.6,4.6C62.4,81.1,58.1,85.4,52.8,85.4z
					 M52.8,73.2c-4.2,0-7.6,1.1-7.6,2.6c0,4.2,3.4,7.6,7.6,7.6s7.6-3.4,7.6-7.6c0-0.9-1.3-1.5-2-1.7C56.9,73.5,54.9,73.2,52.8,73.2z
					"/>
			</g>
		</g>
		<g>
			<g>
				<path class="st0" d="M52.8,75.8c-0.8,0-4.5-2.9-4.5-5.2c0,0,0-0.2,0-0.2c0-1.6,1.3-2.9,2.9-2.9c0.6,0,1.1,0.2,1.6,0.5
					c0.5-0.3,1-0.5,1.6-0.5c1.6,0,2.9,1.3,2.9,2.9c0,0,0,0.2,0,0.2C57.3,72.9,53.6,75.8,52.8,75.8z"/>
			</g>
			<g>
				<path class="st1" d="M54.4,68.5c1.1,0,1.9,0.9,1.9,1.9c0,0,0,0.1,0,0.1c0,0,0,0.1,0,0.1c0,2-3.5,4.2-3.5,4.2
					c0,0-3.5-2.3-3.5-4.2c0,0,0-0.1,0-0.1c0,0,0-0.1,0-0.1c0-1.1,0.9-1.9,1.9-1.9c0.7,0,1.2,0.3,1.6,0.8
					C53.1,68.9,53.7,68.5,54.4,68.5 M54.4,66.5c-0.6,0-1.1,0.1-1.6,0.3c-0.5-0.2-1-0.3-1.6-0.3c-2.2,0-3.9,1.8-3.9,3.9
					c0,0,0,0.1,0,0.1c0,0,0,0.1,0,0.1c0,2.8,4,6.2,5.5,6.2c1.5,0,5.5-3.5,5.5-6.2c0,0,0-0.1,0-0.1c0,0,0-0.1,0-0.1
					C58.3,68.3,56.5,66.5,54.4,66.5L54.4,66.5z"/>
			</g>
		</g>
		<g>
			<path class="st1" d="M52.6,141.2c-0.6,0-1-0.4-1-1V93.1c0-0.6,0.4-1,1-1s1,0.4,1,1v47.2C53.6,140.8,53.2,141.2,52.6,141.2z"/>
		</g>
		<g>
			<g>
				<path class="st0" d="M58.3,114.4c-0.1-0.3-0.3-0.6-0.3-1c-1.1-5.2,3.7-8.6,7.9-9.8c3.5-1,7.1-1.7,10.7-2
					c-2.1,5-5.3,11.3-10.2,14.2C63.8,117.4,59.6,117.3,58.3,114.4z"/>
			</g>
			<g>
				<path class="st1" d="M62.7,117.8c-0.7,0-1.4-0.1-2.1-0.3c-1.5-0.5-2.7-1.4-3.3-2.7c0,0,0,0,0,0c-0.2-0.4-0.3-0.8-0.4-1.2
					c-1.2-5.5,3.5-9.5,8.6-11c3.5-1,7.2-1.7,10.9-2c0.3,0,0.7,0.1,0.9,0.4c0.2,0.3,0.3,0.7,0.1,1c-2,4.8-5.3,11.6-10.6,14.7
					C65.7,117.4,64.2,117.8,62.7,117.8z M59.2,113.9c0.4,0.8,1.1,1.4,2.1,1.7c1.5,0.4,3.3,0.2,4.7-0.6c3.3-2,6.3-6,9.1-12.2
					c-3,0.4-6,1-8.9,1.8c-3.2,0.9-8.3,3.7-7.2,8.6C59,113.5,59.1,113.7,59.2,113.9z"/>
			</g>
		</g>
		<g>
			<path class="st1" d="M52.6,128.8c-0.1,0-0.1,0-0.2,0c-0.5-0.1-0.9-0.6-0.8-1.2c0.1-0.5,2.3-11.8,15-20.1c0.5-0.3,1.1-0.2,1.4,0.3
				c0.3,0.5,0.2,1.1-0.3,1.4c-12,7.9-14.1,18.7-14.1,18.8C53.5,128.4,53.1,128.8,52.6,128.8z"/>
		</g>
		<g>
			<g>
				<path class="st0" d="M48.6,106.5c0.1-0.2,0.2-0.4,0.2-0.7c0.8-3.7-2.7-6.2-5.7-7c-2.5-0.7-5.1-1.2-7.7-1.4
					c1.5,3.6,3.8,8.1,7.3,10.2C44.6,108.7,47.6,108.6,48.6,106.5z"/>
			</g>
			<g>
				<path class="st1" d="M45.4,109.3c-1.1,0-2.2-0.3-3.2-0.9c-3.8-2.3-6.2-7.2-7.7-10.7c-0.1-0.3-0.1-0.7,0.1-1s0.5-0.4,0.9-0.4
					c2.7,0.3,5.4,0.8,7.9,1.5c3.7,1.1,7.3,4.1,6.4,8.2c-0.1,0.3-0.2,0.6-0.3,0.9c0,0,0,0,0,0c-0.5,1-1.4,1.8-2.5,2.1
					C46.4,109.2,45.9,109.3,45.4,109.3z M37.1,98.6c1.9,4.1,3.9,6.8,6.2,8.1c0.9,0.5,2.2,0.7,3.1,0.4c0.6-0.2,1.1-0.5,1.3-1l0,0
					c0.1-0.2,0.1-0.3,0.2-0.5c0.7-3.3-2.8-5.2-5-5.8C41,99.2,39.1,98.8,37.1,98.6z M48.6,106.5L48.6,106.5L48.6,106.5z"/>
			</g>
		</g>
		<g>
			<path class="st1" d="M52.6,117.1c-0.5,0-0.9-0.4-1-0.9c0-0.1-1.3-7.5-9.6-13c-0.5-0.3-0.6-0.9-0.3-1.4c0.3-0.5,0.9-0.6,1.4-0.3
				c9.2,6,10.5,14.1,10.5,14.4c0.1,0.5-0.3,1.1-0.8,1.1C52.7,117.1,52.7,117.1,52.6,117.1z"/>
		</g>
	</g>
</g>
</svg>
