<?xml version="1.0" encoding="utf-8"?>
<!-- Generator: Adobe Illustrator 22.0.0, SVG Export Plug-In . SVG Version: 6.00 Build 0)  -->
<svg version="1.1" id="Layer_1" xmlns="http://www.w3.org/2000/svg" xmlns:xlink="http://www.w3.org/1999/xlink" x="0px" y="0px"
	 viewBox="0 0 35 45" style="enable-background:new 0 0 35 45;" xml:space="preserve">
<style type="text/css">
	.st0{fill:#FAF2E5;stroke:#C99340;stroke-width:2;stroke-linecap:round;stroke-linejoin:round;stroke-miterlimit:10;}
	.st1{fill:none;stroke:#C99340;stroke-width:2;stroke-linecap:round;stroke-linejoin:round;stroke-miterlimit:10;}
</style>
<g>
	<path class="st0" d="M11,19.4c-1.9,3.3-0.8,7.6,2.6,9.6c3.3,1.9,7.6,0.8,9.6-2.6L33,7.2L22.8,1.2L11,19.4z"/>
	<line class="st1" x1="13.6" y1="29" x2="6.6" y2="41.2"/>
	<line class="st1" x1="11.1" y1="43.8" x2="2" y2="38.5"/>
	<line class="st1" x1="18.2" y1="8.4" x2="29.2" y2="14.6"/>
	<path class="st0" d="M16.7,23c-0.5,0.8-0.2,1.9,0.6,2.4s1.9,0.2,2.4-0.6c0.5-0.8,0.2-1.9-0.6-2.4C18.3,21.9,17.2,22.1,16.7,23z"/>
	<path class="st0" d="M17.8,15.9c-0.4,0.7-0.2,1.6,0.5,2s1.6,0.2,2-0.5s0.2-1.6-0.5-2C19.1,14.9,18.2,15.1,17.8,15.9z"/>
</g>
</svg>
