<?xml version="1.0" encoding="utf-8"?>
<!-- Generator: Adobe Illustrator 22.0.0, SVG Export Plug-In . SVG Version: 6.00 Build 0)  -->
<svg version="1.1" id="Layer_1" xmlns="http://www.w3.org/2000/svg" xmlns:xlink="http://www.w3.org/1999/xlink" x="0px" y="0px"
	 viewBox="0 0 35 45" style="enable-background:new 0 0 35 45;" xml:space="preserve">
<style type="text/css">
	.st0{fill:#FAF2E5;stroke:#C99340;stroke-width:2;stroke-linecap:round;stroke-linejoin:round;stroke-miterlimit:10;}
	.st1{fill:none;stroke:#C99340;stroke-width:2;stroke-linecap:round;stroke-linejoin:round;stroke-miterlimit:10;}
</style>
<g>
	<path class="st0" d="M24,19.4c1.9,3.3,0.8,7.6-2.6,9.6c-3.3,1.9-7.6,0.8-9.6-2.6L2,7.1l10.2-5.9L24,19.4z"/>
	<line class="st1" x1="21.4" y1="28.9" x2="28.4" y2="41.1"/>
	<line class="st1" x1="23.9" y1="43.8" x2="33" y2="38.5"/>
	<line class="st1" x1="16.8" y1="8.3" x2="5.8" y2="14.7"/>
	<path class="st0" d="M18.3,22.9c0.5,0.8,0.2,1.9-0.6,2.4c-0.8,0.5-1.9,0.2-2.4-0.6c-0.5-0.8-0.2-1.9,0.6-2.4
		C16.7,21.8,17.8,22.1,18.3,22.9z"/>
	<path class="st0" d="M17.2,15.8c0.4,0.7,0.2,1.6-0.5,2c-0.7,0.4-1.6,0.2-2-0.5c-0.4-0.7-0.2-1.6,0.5-2
		C15.9,14.9,16.8,15.1,17.2,15.8z"/>
</g>
</svg>
