<?xml version="1.0" encoding="utf-8"?>
<!-- Generator: Adobe Illustrator 22.0.0, SVG Export Plug-In . SVG Version: 6.00 Build 0)  -->
<svg version="1.1" id="Layer_1" xmlns="http://www.w3.org/2000/svg" xmlns:xlink="http://www.w3.org/1999/xlink" x="0px" y="0px"
	 viewBox="0 0 1640 10" style="enable-background:new 0 0 1640 10;" xml:space="preserve">
<style type="text/css">
	.st0{fill:#C99340;}
	.st1{fill:#DAB678;}
</style>
<g>
	<g>
		<g>
			<polygon class="st0" points="42.5,0 34.1,10 59.7,10 68.1,0 			"/>
			<polygon class="st0" points="145.1,0 136.6,10 162.2,10 170.6,0 			"/>
			<polygon class="st0" points="247.6,0 239.2,10 264.7,10 273.2,0 			"/>
			<polygon class="st0" points="350.1,0 341.7,10 367.3,10 375.7,0 			"/>
			<polygon class="st0" points="452.6,0 444.2,10 469.8,10 478.2,0 			"/>
			<polygon class="st0" points="555.2,0 546.7,10 572.3,10 580.7,0 			"/>
			<polygon class="st0" points="657.7,0 649.3,10 674.8,10 683.3,0 			"/>
			<polygon class="st0" points="760.2,0 751.8,10 777.4,10 785.8,0 			"/>
		</g>
	</g>
	<g>
		<polygon class="st1" points="0,0 0,10 8.4,10 16.9,0 		"/>
		<g>
			<polygon class="st1" points="93.8,0 85.4,10 111,10 119.4,0 			"/>
			<polygon class="st1" points="196.3,0 187.9,10 213.5,10 221.9,0 			"/>
			<polygon class="st1" points="298.8,0 290.4,10 316,10 324.4,0 			"/>
			<polygon class="st1" points="401.4,0 392.9,10 418.5,10 427,0 			"/>
			<polygon class="st1" points="503.9,0 495.5,10 521.1,10 529.5,0 			"/>
			<polygon class="st1" points="606.4,0 598,10 623.6,10 632,0 			"/>
			<polygon class="st1" points="708.9,0 700.5,10 726.1,10 734.5,0 			"/>
		</g>
	</g>
</g>
<g>
	<g>
		<g>
			<polygon class="st0" points="862.5,0 854.1,10 879.7,10 888.1,0 			"/>
			<polygon class="st0" points="965.1,0 956.6,10 982.2,10 990.6,0 			"/>
			<polygon class="st0" points="1067.6,0 1059.2,10 1084.7,10 1093.2,0 			"/>
			<polygon class="st0" points="1170.1,0 1161.7,10 1187.3,10 1195.7,0 			"/>
			<polygon class="st0" points="1272.6,0 1264.2,10 1289.8,10 1298.2,0 			"/>
			<polygon class="st0" points="1375.2,0 1366.7,10 1392.3,10 1400.7,0 			"/>
			<polygon class="st0" points="1477.7,0 1469.3,10 1494.8,10 1503.3,0 			"/>
			<polygon class="st0" points="1580.2,0 1571.8,10 1597.4,10 1605.8,0 			"/>
		</g>
	</g>
	<g>
		<g>
			<polygon class="st1" points="913.8,0 905.4,10 931,10 939.4,0 			"/>
			<polygon class="st1" points="1016.3,0 1007.9,10 1033.5,10 1041.9,0 			"/>
			<polygon class="st1" points="1118.8,0 1110.4,10 1136,10 1144.4,0 			"/>
			<polygon class="st1" points="1221.4,0 1212.9,10 1238.5,10 1247,0 			"/>
			<polygon class="st1" points="1323.9,0 1315.5,10 1341.1,10 1349.5,0 			"/>
			<polygon class="st1" points="1426.4,0 1418,10 1443.6,10 1452,0 			"/>
			<polygon class="st1" points="1528.9,0 1520.5,10 1546.1,10 1554.5,0 			"/>
		</g>
		<polygon class="st1" points="1631.5,0 1623,10 1640,10 1640,0 		"/>
	</g>
</g>
<polygon class="st1" points="820,0 811.5,0 803,10 820,10 828.4,10 836.9,0 "/>
</svg>
