<?xml version="1.0" encoding="utf-8"?>
<!-- Generator: Adobe Illustrator 22.0.0, SVG Export Plug-In . SVG Version: 6.00 Build 0)  -->
<svg version="1.1" id="Layer_1" xmlns="http://www.w3.org/2000/svg" xmlns:xlink="http://www.w3.org/1999/xlink" x="0px" y="0px"
	 viewBox="0 0 137 90" style="enable-background:new 0 0 137 90;" xml:space="preserve">
<style type="text/css">
	.st0{fill:#FAF2E5;stroke:#C99340;stroke-width:2;stroke-linecap:round;stroke-linejoin:round;stroke-miterlimit:10;}
	.st1{fill:#B1AB9E;}
</style>
<g>
	<g>
		<g>
			<rect x="32.5" y="19.8" class="st0" width="77.2" height="14"/>
			<rect x="35.7" y="33.8" class="st0" width="70.3" height="54.6"/>
			<g>
				<path class="st0" d="M70.3,18.8c5.3,0,13.5-12.4,22.8-10.3c5.7,1.3,4.4,10.3-7.4,10.3C76.6,18.8,65,18.8,70.3,18.8z"/>
				<path class="st0" d="M70.6,18.2C74,16.3,72,7,78.8,5.2c4.1-1.1,6.4,5.2-1.3,9.3C71.6,17.6,67.1,20,70.6,18.2z"/>
				<path class="st0" d="M70.6,18.2c-3.4-1.8-1.3-11.1-8-13c-4.1-1.1-6.4,5.2,1.3,9.3C69.7,17.6,74,20,70.6,18.2z"/>
				<path class="st0" d="M71.4,18.8C66.1,18.8,58,6.4,48.6,8.5c-5.7,1.3-4.4,10.3,7.4,10.3C65.1,18.8,76.7,18.8,71.4,18.8z"/>
				<path class="st0" d="M70.5,17.2c0,0-9.1-15.7,0-15.7C79.5,1.6,70.5,17.2,70.5,17.2z"/>
			</g>
			<rect x="35.7" y="33.8" class="st0" width="70.3" height="54.6"/>
			<rect x="65.9" y="33.8" class="st0" width="10" height="54.6"/>
			<rect x="32.5" y="19.8" class="st0" width="77.2" height="14"/>
			<rect x="65.9" y="19.6" class="st0" width="10" height="14.2"/>
		</g>
		<g>
			<rect x="60.9" y="55.6" class="st0" width="71.6" height="32.8"/>
			<g>
				<path class="st1" d="M73.6,63.8c0,2.4-1.9,4.3-4.3,4.3c-2.4,0-4.3-1.9-4.3-4.3c0-2.4,1.9-4.3,4.3-4.3
					C71.7,59.5,73.6,61.4,73.6,63.8z"/>
				<path class="st1" d="M73.6,80.6c0,2.4-1.9,4.3-4.3,4.3c-2.4,0-4.3-1.9-4.3-4.3c0-2.4,1.9-4.3,4.3-4.3
					C71.7,76.3,73.6,78.2,73.6,80.6z"/>
				<path class="st1" d="M86.3,72c0,2.4-1.9,4.3-4.3,4.3c-2.4,0-4.3-1.9-4.3-4.3c0-2.4,1.9-4.3,4.3-4.3C84.4,67.7,86.3,69.6,86.3,72
					z"/>
				<path class="st1" d="M100.7,63.8c0,2.4-1.9,4.3-4.3,4.3c-2.4,0-4.3-1.9-4.3-4.3c0-2.4,1.9-4.3,4.3-4.3
					C98.8,59.5,100.7,61.4,100.7,63.8z"/>
				<path class="st1" d="M100.7,80.6c0,2.4-1.9,4.3-4.3,4.3c-2.4,0-4.3-1.9-4.3-4.3c0-2.4,1.9-4.3,4.3-4.3
					C98.8,76.3,100.7,78.2,100.7,80.6z"/>
				<path class="st1" d="M113.4,72c0,2.4-1.9,4.3-4.3,4.3c-2.4,0-4.3-1.9-4.3-4.3c0-2.4,1.9-4.3,4.3-4.3
					C111.5,67.7,113.4,69.6,113.4,72z"/>
				<path class="st1" d="M128.1,63.8c0,2.4-1.9,4.3-4.3,4.3c-2.4,0-4.3-1.9-4.3-4.3c0-2.4,1.9-4.3,4.3-4.3
					C126.2,59.5,128.1,61.4,128.1,63.8z"/>
				<path class="st1" d="M128.1,80.6c0,2.4-1.9,4.3-4.3,4.3c-2.4,0-4.3-1.9-4.3-4.3c0-2.4,1.9-4.3,4.3-4.3
					C126.2,76.3,128.1,78.2,128.1,80.6z"/>
			</g>
			<line class="st0" x1="96.6" y1="55.2" x2="96.6" y2="88.4"/>
			<line class="st0" x1="59.2" y1="72" x2="134.1" y2="72"/>
			<g>
				<line class="st0" x1="96.7" y1="55.6" x2="96.7" y2="43.6"/>
				<line class="st0" x1="96.7" y1="55.2" x2="89.8" y2="48.3"/>
				<line class="st0" x1="96.6" y1="55.2" x2="103.5" y2="48.3"/>
			</g>
		</g>
	</g>
	<g>
		<g>
			<rect x="1.9" y="56.3" class="st0" width="40" height="11"/>
			<rect x="4.5" y="67.3" class="st0" width="34.7" height="21.1"/>
			<line class="st0" x1="21.9" y1="88.4" x2="21.9" y2="56.3"/>
			<path class="st0" d="M27,56.3c2.8,0,5.1-2.3,5.1-5.1c0-2.8-2.3-5.1-5.1-5.1c-2.8,0-5.1,2.3-5.1,5.1v5.1H27z"/>
			<path class="st0" d="M15.8,56.3c-3.4,0-6.1-2.7-6.1-6.1c0-3.4,2.7-6.1,6.1-6.1c3.4,0,6.1,2.7,6.1,6.1v6.1H15.8z"/>
		</g>
	</g>
</g>
</svg>
