<?xml version="1.0" encoding="utf-8"?>
<!-- Generator: Adobe Illustrator 22.0.0, SVG Export Plug-In . SVG Version: 6.00 Build 0)  -->
<svg version="1.1" id="Layer_1" xmlns="http://www.w3.org/2000/svg" xmlns:xlink="http://www.w3.org/1999/xlink" x="0px" y="0px"
	 viewBox="0 0 170 150" style="enable-background:new 0 0 170 150;" xml:space="preserve">
<style type="text/css">
	.st0{fill:none;stroke:#C99340;stroke-width:2;stroke-linecap:round;stroke-linejoin:round;stroke-miterlimit:10;}
	.st1{fill:#C99340;stroke:#C99340;stroke-width:2;stroke-linecap:round;stroke-linejoin:round;stroke-miterlimit:10;}
	.st2{fill:#EAE7DA;stroke:#C99340;stroke-width:2;stroke-linecap:round;stroke-linejoin:round;stroke-miterlimit:10;}
	.st3{fill:#C99340;}
</style>
<g>
	<path class="st0" d="M134.2,35.2h27.4c0,0-3.1,8.7-14.9,8.7h10.8c0,0-2.3,7.8-14.8,7.8h11.2c0,0-2.7,7.6-13.7,7.6
		c-11,0-34.2,0-34.2,0S103.6,35.2,134.2,35.2z"/>
	<path class="st0" d="M41.8,35.2H14.4c0,0,3.1,8.7,14.9,8.7H18.4c0,0,2.3,7.8,14.8,7.8H22c0,0,2.7,7.6,13.7,7.6c11,0,34.2,0,34.2,0
		S72.4,35.2,41.8,35.2z"/>
	<line class="st0" x1="26.2" y1="43.8" x2="39.2" y2="43.8"/>
	<line class="st0" x1="27.2" y1="51.8" x2="36.9" y2="51.8"/>
	<line class="st0" x1="133.2" y1="43.8" x2="146.3" y2="43.8"/>
	<line class="st0" x1="138" y1="51.8" x2="147.3" y2="51.8"/>
	<g>
		<polygon class="st0" points="84.5,95.3 94.3,85.5 87,85.8 87.4,78.6 77.6,88.4 77.2,95.6 		"/>
		<polyline class="st0" points="28.2,137.7 27.9,144.9 35.2,144.7 		"/>
		<line class="st0" x1="87" y1="85.8" x2="27.9" y2="144.9"/>
	</g>
	<path class="st0" d="M30.5,84c-10.1,1-27.5,6.5-27.5,6.5S7.3,80.4,19,73.4c-6.1-5.2-16.1-7.8-16.1-7.8s14.6-7.1,36.1-6
		c0,0,2.5,0,4,20.9L30.5,84z"/>
	<path class="st1" d="M39.1,59.6c0,0,2.5,0,4,20.9l0,0.1c-7.2-1.8-12.3-3.8-12.3-3.8C32,68.8,43.6,63.9,39.1,59.6"/>
	<g>
		<path class="st2" d="M132.6,51.5L132.6,51.5c-10.3-10.3-26.9-10.2-37.1,0c-4.1,4.1-6.6,9.3-7.4,14.6C87.3,60.9,84.9,56,80.9,52
			c-10-10-26.2-10-36.1,0c-10,10-10,26.2,0,36.1L87.6,131l0.9,0.9l0.3,0.3l0.1,0.1l0.2-0.2l43.4-43.4
			C142.8,78.4,142.8,61.7,132.6,51.5z"/>
		<path class="st0" d="M47,68.8c0-8,6.5-14.5,14.5-14.5"/>
	</g>
	<path class="st0" d="M126.3,100.7l-4.9,12.8c0,0-3.4,8.7,6.1,8.7c28.1,0,39.1,5.4,39.1,5.4s-4.3-10.2-16.1-17.1
		c6.1-5.2,16.1-7.8,16.1-7.8s-8.7-4.2-22.5-5.7L126.3,100.7z"/>
	<path class="st1" d="M120.8,117.4c-0.2-2,0.6-3.9,0.6-3.9l4.9-12.8v0c5.6,1.3,10.6,3.1,14.1,4.6
		C137.8,109.7,120.7,112.5,120.8,117.4L120.8,117.4z"/>
	<path class="st2" d="M34.4,102.4c5.2,1.7,10.2,5.5,28.4,5.5c18.2,0,33.6-8.7,50.4-8.7c10.8,0,21.2,3.6,27.2,6.2c0,0,2.9-4.1,4.3-11
		c1.4-6.8,0-11.3,0-11.3s-15.9-8.7-32.7-8.7c-16.8,0-35.1,8.7-50.4,8.7c-15.3,0-30.9-6.4-30.9-6.4s-1.2,5.7,0,13.9
		C32,98.7,34.4,102.4,34.4,102.4z"/>
	<g>
		<polygon class="st0" points="157.2,21.8 167.1,12 159.8,12.3 160.1,5.1 150.3,14.9 149.9,22.1 		"/>
		<line class="st0" x1="159.8" y1="12.3" x2="108.3" y2="63.8"/>
	</g>
	<g>
		<path class="st3" d="M50.7,88.9c-0.2,0-0.3,0.1-0.4,0.3S50.1,89.6,50,90l-1.5,5.7l-0.2,0.9c-0.2,0.7-0.4,1.3-0.5,1.8
			s-0.4,0.9-0.6,1.3c-0.3,0.4-0.6,0.8-1.1,1.1c-0.5,0.3-1,0.5-1.6,0.5c-0.6,0.1-1.2,0-1.9-0.1c-0.7-0.2-1.2-0.4-1.5-0.7
			c-0.4-0.4-0.6-0.8-0.5-1.3c0.1-0.3,0.3-0.5,0.5-0.7c0.3-0.1,0.6-0.2,1-0.1c0.4,0.1,0.6,0.3,0.8,0.5c0.2,0.2,0.2,0.5,0.1,0.8
			c-0.1,0.2-0.2,0.4-0.4,0.6c-0.2,0.1-0.4,0.2-0.7,0.2c0.1,0.1,0.3,0.2,0.5,0.3c0.4,0.1,0.7,0.1,1.1,0c0.3-0.1,0.6-0.3,0.8-0.7
			c0.2-0.2,0.3-0.5,0.4-0.8s0.2-0.6,0.4-1c0.1-0.4,0.3-1,0.5-1.8l1.8-7.1c0.1-0.4,0.1-0.7,0.1-0.9s-0.1-0.3-0.2-0.4
			c-0.1-0.1-0.4-0.2-0.7-0.3l0.1-0.3c0.5,0.2,1.3,0.4,2.3,0.7c1,0.3,1.9,0.5,2.4,0.6L51.5,89C51.1,88.9,50.9,88.8,50.7,88.9z"/>
		<path class="st3" d="M58.6,100.2c0.1,0.2,0.4,0.4,0.8,0.4l0,0.3c-0.3-0.1-0.7-0.1-1-0.1c-0.9-0.1-1.7-0.1-2.3,0l0.1-1.4
			c-0.6,0.9-1.5,1.3-2.7,1.2c-0.8-0.1-1.3-0.3-1.7-0.8c-0.2-0.2-0.3-0.5-0.3-0.8s0-0.8,0-1.3l0.4-4c0-0.5,0-0.9-0.1-1.1
			s-0.4-0.4-0.8-0.4l0-0.3c0.3,0.1,0.7,0.1,1,0.1c0.9,0.1,1.7,0.1,2.3,0l-0.7,6.6c0,0.4,0,0.8,0.1,1c0.1,0.2,0.3,0.4,0.7,0.4
			c0.3,0,0.5,0,0.8-0.2c0.3-0.1,0.5-0.3,0.6-0.6c0.2-0.3,0.3-0.6,0.3-0.9l0.4-4.2c0-0.5,0-0.9-0.1-1.1s-0.4-0.4-0.8-0.4l0-0.3
			c0.3,0.1,0.7,0.1,1,0.1c0.9,0.1,1.7,0.1,2.3,0l-0.7,6.7C58.4,99.6,58.4,99.9,58.6,100.2z"/>
		<path class="st3" d="M64,100.1c0.1,0.2,0.2,0.3,0.3,0.4s0.3,0.1,0.6,0.1l0,0.3c-1.1-0.1-1.8-0.1-2.1-0.1c-0.4,0-1.1,0-2.2,0l0-0.3
			c0.3,0,0.5,0,0.6-0.1c0.1-0.1,0.3-0.2,0.3-0.3c0.1-0.2,0.1-0.4,0.1-0.7l0.1-9.1c0-0.5-0.1-0.9-0.2-1.1c-0.2-0.2-0.4-0.3-0.8-0.3
			l0-0.3c0.3,0,0.7,0.1,1,0.1c0.9,0,1.7,0,2.3-0.2l-0.2,11C63.9,99.7,63.9,99.9,64,100.1z"/>
		<path class="st3" d="M69.5,99.9c0.1,0.2,0.2,0.3,0.3,0.3c0.1,0.1,0.4,0.1,0.6,0.1l0,0.3c-1.1,0-1.8,0-2.1,0.1
			c-0.3,0-1.1,0.1-2.2,0.2l0-0.3c0.3,0,0.5-0.1,0.6-0.1s0.2-0.2,0.3-0.4c0.1-0.2,0.1-0.4,0.1-0.7l-0.3-5c0-0.5-0.1-0.8-0.3-1.1
			C66.3,93.1,66,93,65.6,93l0-0.3c0.3,0,0.7,0,1,0c0.9-0.1,1.7-0.2,2.3-0.4l0.4,6.9C69.4,99.5,69.4,99.8,69.5,99.9z M68.5,88.7
			c0.3,0.2,0.4,0.5,0.4,0.9c0,0.4-0.1,0.7-0.3,0.9c-0.2,0.2-0.6,0.4-1,0.4c-0.5,0-0.8-0.1-1.1-0.3c-0.3-0.2-0.4-0.5-0.4-0.9
			c0-0.4,0.1-0.7,0.3-0.9c0.2-0.2,0.6-0.4,1-0.4C67.9,88.4,68.3,88.5,68.5,88.7z"/>
		<path class="st3" d="M86.9,89.9c-0.4,0.6-1.1,1.1-2.1,1.5l-0.3,0.2c0.5,0.1,1,0.3,1.3,0.7c0.4,0.4,0.6,0.9,0.7,1.5
			c0.2,0.7,0.1,1.4-0.2,2.1c-0.3,0.7-0.8,1.3-1.6,1.8c-0.7,0.5-1.6,0.9-2.7,1.2C81,99.2,80,99.2,79,99.1c-0.9-0.1-1.7-0.4-2.3-0.9
			c-0.6-0.5-1-1.1-1.2-1.9c-0.2-0.7-0.1-1.3,0.1-1.9c0.3-0.6,0.6-1,1-1.4c0.4-0.4,0.8-0.6,1.2-0.8c-1.3-0.2-2-0.7-2.2-1.5
			c-0.1-0.4,0-0.8,0.2-1.2s0.5-0.7,1-1c0.4-0.3,0.9-0.5,1.5-0.6c0.4-0.1,0.7-0.1,1-0.1s0.5,0,0.7,0.1c0.7,0.2,1.1,0.5,1.2,1
			c0,0.2,0,0.4,0,0.6c-0.1,0.2-0.2,0.3-0.4,0.5c-0.2,0.1-0.4,0.2-0.6,0.3c-0.3,0.1-0.6,0.1-0.9-0.1c-0.3-0.1-0.4-0.3-0.5-0.6
			c-0.1-0.3,0-0.5,0.1-0.8c0.1-0.3,0.3-0.4,0.6-0.6c-0.1-0.1-0.3-0.1-0.5-0.1c-0.2,0-0.4,0-0.6,0.1c-0.4,0.1-0.7,0.2-0.9,0.5
			c-0.3,0.2-0.4,0.5-0.5,0.9c-0.1,0.3-0.1,0.7,0,1.2c0.1,0.6,0.5,1.1,1,1.4c0.4-0.2,0.6-0.3,0.8-0.3c0.2,0,0.3,0,0.5,0
			c0.1,0.1,0.2,0.1,0.2,0.3c0,0.1,0,0.2-0.1,0.3s-0.2,0.1-0.3,0.2c-0.1,0-0.3,0-0.4,0c-0.2,0-0.3-0.1-0.4-0.1s-0.2-0.1-0.2-0.1
			c-0.5,0.4-0.8,0.8-1,1.3s-0.2,1-0.1,1.6c0.2,1,0.8,1.7,1.7,2c0.9,0.3,2.1,0.3,3.5,0c0.7-0.2,1.4-0.4,2-0.8
			c0.6-0.4,1.1-0.8,1.4-1.3c0.3-0.5,0.4-1,0.3-1.6c-0.2-0.9-0.8-1.5-1.7-1.7c-0.3,0.2-0.6,0.3-1,0.5s-0.6,0.3-0.8,0.4
			c-0.5,0.3-1,0.5-1.3,0.7c-0.3,0.2-0.6,0.4-0.7,0.7c-0.1,0.2-0.2,0.5-0.1,0.7c0.1,0.2,0.2,0.4,0.4,0.6c0.2,0.2,0.5,0.2,0.7,0.3
			c0.3,0,0.6,0,0.8,0c0.1,0,0.2-0.1,0.3-0.1c0.1-0.1,0.2-0.1,0.2-0.2c-0.3,0-0.5-0.1-0.7-0.3c-0.2-0.1-0.3-0.3-0.3-0.6
			c-0.1-0.3,0-0.6,0.2-0.8c0.2-0.2,0.5-0.4,0.8-0.5c0.4-0.1,0.7-0.1,0.9,0.1c0.3,0.1,0.4,0.4,0.5,0.7c0.1,0.5,0,0.9-0.4,1.2
			s-0.9,0.6-1.5,0.7C82.1,96,81.7,96,81.3,96c-0.4-0.1-0.7-0.2-1-0.5s-0.5-0.6-0.6-1c-0.2-0.8,0-1.5,0.5-2.1s1.3-1.1,2.4-1.6
			c0.2-0.1,0.5-0.3,1-0.5c0.5-0.2,0.9-0.5,1.2-0.7c0.8-0.4,1.3-0.7,1.6-1.1c0.3-0.3,0.5-0.7,0.4-1c-0.1-0.3-0.2-0.5-0.4-0.7
			c-0.2-0.2-0.5-0.3-0.8-0.4c-0.3-0.1-0.6-0.1-0.9,0c-0.2,0-0.3,0.1-0.4,0.2c0.3,0,0.5,0.1,0.7,0.3c0.2,0.2,0.3,0.3,0.3,0.5
			c0.1,0.3,0,0.6-0.2,0.8c-0.2,0.2-0.5,0.4-0.8,0.5c-0.4,0.1-0.7,0.1-0.9-0.1s-0.4-0.4-0.5-0.7c-0.1-0.4,0-0.8,0.3-1.1
			c0.3-0.3,0.7-0.5,1.3-0.7c0.5-0.1,0.9-0.1,1.4,0c0.4,0.1,0.8,0.3,1,0.6s0.5,0.7,0.6,1.1C87.5,88.7,87.4,89.3,86.9,89.9z"/>
		<path class="st3" d="M104.1,82.1c-0.1,0.1-0.2,0.2-0.2,0.4c0,0.2,0,0.5,0.1,0.9l1.7,7.7c0.1,0.4,0.2,0.7,0.3,0.8
			c0.1,0.2,0.2,0.3,0.4,0.3s0.4,0,0.8,0l0.1,0.3c-0.6,0.1-1.4,0.3-2.5,0.5c-1.1,0.2-1.9,0.4-2.5,0.6l-0.1-0.3
			c0.4-0.1,0.6-0.2,0.8-0.3c0.2-0.1,0.2-0.3,0.3-0.4c0-0.2,0-0.5-0.1-0.9l-1.8-8.2l-1.6,10.7l-0.3,0.1l-6.5-9.1l1.7,7.5
			c0.1,0.6,0.3,1.1,0.4,1.3c0.1,0.3,0.3,0.5,0.5,0.5c0.2,0.1,0.6,0.1,1.1,0l0.1,0.3c-0.4,0.1-1,0.2-1.7,0.3c-0.6,0.1-1,0.2-1.3,0.3
			l-0.1-0.3c0.3-0.1,0.6-0.3,0.7-0.4c0.1-0.2,0.2-0.4,0.2-0.7c0-0.3-0.1-0.7-0.2-1.2l-1.6-7c-0.1-0.4-0.2-0.7-0.3-0.8
			s-0.2-0.3-0.4-0.3c-0.2,0-0.4,0-0.8,0l-0.1-0.3c0.3,0,0.8-0.1,1.4-0.3c1-0.2,1.8-0.4,2.5-0.6l4.8,6.9l1.2-8.2l1.1-0.2
			c1.1-0.2,1.9-0.4,2.4-0.6l0.1,0.3C104.4,81.9,104.2,82,104.1,82.1z"/>
		<path class="st3" d="M111.1,84.5c-0.2-0.2-0.6-0.3-1-0.3c-0.2,0-0.4,0.1-0.6,0.1c-0.2,0.1-0.4,0.2-0.5,0.3
			c0.3,0.1,0.5,0.2,0.7,0.4c0.2,0.2,0.3,0.5,0.3,0.8c0,0.2,0,0.4-0.1,0.6c-0.1,0.2-0.2,0.3-0.4,0.4c-0.2,0.1-0.4,0.2-0.7,0.2
			c-0.3,0-0.6-0.1-0.8-0.3c-0.2-0.2-0.3-0.5-0.4-0.9c0-0.5,0.2-1,0.8-1.4c0.6-0.4,1.4-0.6,2.4-0.7c1.1-0.1,1.9,0.1,2.4,0.5
			c0.2,0.2,0.4,0.5,0.5,0.8c0.1,0.3,0.2,0.8,0.2,1.4l0.3,4.3c0,0.3,0.1,0.4,0.1,0.5s0.1,0.1,0.3,0.1c0.2,0,0.4-0.1,0.6-0.3l0.2,0.3
			c-0.2,0.2-0.5,0.4-0.8,0.5c-0.3,0.1-0.6,0.2-1,0.2c-0.5,0-0.9,0-1.2-0.3c-0.3-0.2-0.4-0.5-0.4-0.9c-0.2,0.5-0.5,0.8-0.9,1
			c-0.4,0.2-0.8,0.4-1.3,0.4c-0.6,0-1.1-0.1-1.5-0.4c-0.4-0.3-0.6-0.7-0.6-1.3c0-0.6,0.1-1,0.4-1.4c0.3-0.4,0.9-0.8,1.6-1.1
			c0.1,0,0.3-0.2,0.8-0.4c0.4-0.2,0.8-0.4,0.9-0.6c0.2-0.2,0.3-0.4,0.3-0.6l-0.1-1.2C111.5,85.1,111.4,84.7,111.1,84.5z M111.4,87.8
			c-0.1,0.1-0.4,0.3-0.6,0.5c-0.3,0.3-0.6,0.5-0.7,0.8s-0.2,0.7-0.2,1.1c0,0.4,0.1,0.7,0.3,0.9c0.2,0.2,0.4,0.3,0.7,0.3
			c0.4,0,0.8-0.3,1-0.7l-0.2-3.3C111.6,87.5,111.5,87.7,111.4,87.8z"/>
		<path class="st3" d="M120.2,84.3c0.4-0.3,0.8-0.4,1.3-0.3c0.3,0,0.6,0.1,0.8,0.3c0.2,0.2,0.4,0.3,0.4,0.6c0.1,0.2,0.1,0.5,0.1,0.7
			c0,0.4-0.2,0.7-0.4,0.9s-0.6,0.3-0.9,0.3c-0.4,0-0.6-0.1-0.8-0.3c-0.2-0.2-0.3-0.5-0.3-0.8c0-0.5,0.3-0.9,0.8-1.2
			c-0.1,0-0.1,0-0.2,0c-0.1,0-0.2,0-0.3,0c-0.3,0-0.5,0.1-0.8,0.3c-0.2,0.2-0.4,0.4-0.6,0.7s-0.2,0.6-0.3,0.9l-0.3,4.2
			c0,0.5,0.1,0.8,0.3,1.1c0.2,0.2,0.6,0.3,1.1,0.4l0,0.3c-1.3-0.1-2.2-0.2-2.5-0.2c-0.3,0-1.1-0.1-2.3-0.1l0-0.3
			c0.3,0,0.5,0,0.6-0.1c0.2-0.1,0.3-0.2,0.3-0.3c0.1-0.2,0.1-0.4,0.1-0.7l0.4-5c0-0.5,0-0.9-0.2-1.1c-0.1-0.2-0.4-0.4-0.8-0.4l0-0.3
			c0.3,0.1,0.7,0.1,1,0.1c0.9,0.1,1.7,0,2.3-0.1l-0.1,1.5C119.5,84.9,119.8,84.6,120.2,84.3z"/>
		<path class="st3" d="M129.2,85.4l-0.1,0.3l-1.9-0.3l-1.1,6.4c-0.1,0.3,0,0.5,0.1,0.7s0.3,0.2,0.5,0.3c0.4,0.1,0.9-0.2,1.2-0.8
			l0.2,0.2c-0.6,1-1.4,1.4-2.4,1.2c-0.7-0.1-1.2-0.4-1.5-0.8c-0.2-0.3-0.3-0.6-0.3-0.9s0-0.8,0.1-1.4L125,85l-1.3-0.2l0.1-0.3
			l1.3,0.2l0.4-2.1c0.9,0.2,1.7,0.1,2.4-0.1l-0.5,2.6L129.2,85.4z"/>
		<path class="st3" d="M136.6,88.2c0.5,0.9,0.5,2,0.1,3.5c-0.4,1.5-1,2.4-1.9,2.9s-1.9,0.6-3,0.2c-1.2-0.3-2-0.9-2.5-1.8
			c-0.5-0.9-0.5-2-0.1-3.5c0.4-1.5,1-2.4,1.9-2.9s1.9-0.6,3.1-0.2C135.3,86.8,136.1,87.3,136.6,88.2z M132.7,87.4
			c-0.4,0.6-0.8,1.5-1.2,2.8c-0.4,1.3-0.5,2.3-0.4,3c0.1,0.7,0.4,1.1,0.8,1.2c0.4,0.1,0.9-0.1,1.3-0.7c0.4-0.6,0.8-1.5,1.2-2.8
			c0.4-1.3,0.5-2.3,0.4-3.1c-0.1-0.7-0.3-1.1-0.8-1.3C133.6,86.6,133.2,86.8,132.7,87.4z"/>
	</g>
</g>
</svg>
