<?xml version="1.0" encoding="utf-8"?>
<!-- Generator: Adobe Illustrator 22.0.0, SVG Export Plug-In . SVG Version: 6.00 Build 0)  -->
<svg version="1.1" id="Layer_1" xmlns="http://www.w3.org/2000/svg" xmlns:xlink="http://www.w3.org/1999/xlink" x="0px" y="0px"
	 viewBox="0 0 210 55" style="enable-background:new 0 0 210 55;" xml:space="preserve">
<style type="text/css">
	.st0{fill:#2F2F30;stroke:#C99340;stroke-width:2;stroke-linecap:round;stroke-linejoin:round;stroke-miterlimit:10;}
	.st1{fill:#C99340;}
	.st2{fill:none;stroke:#C99340;stroke-width:2;stroke-linecap:round;stroke-linejoin:round;stroke-miterlimit:10;}
</style>
<g>
	<g>
		<path class="st0" d="M106,5.5c4.9,0,8.9,4,8.9,8.9v9.6H95.1v-9.6c0-4.9,4-8.9,8.9-8.9H106 M106.2,1.1h-2.4
			c-7.3,0-13.3,5.9-13.3,13.3v14.2h29V14.3C119.5,7,113.5,1.1,106.2,1.1L106.2,1.1z"/>
		<g>
			<path class="st0" d="M124.1,29.8c0-5.8-4.7-10.5-10.5-10.5c-3.6,0-6.7,1.8-8.6,4.5c-1.9-2.7-5-4.5-8.6-4.5
				c-5.8,0-10.5,4.7-10.5,10.5c0,0.1,0,0.3,0,0.4c0,0.1,0,0.3,0,0.4c0,10.7,18.9,23.3,19.1,23.3c0.2,0,19.1-12.6,19.1-23.3
				c0-0.1,0-0.3,0-0.4C124.1,30.1,124.1,29.9,124.1,29.8z"/>
			<path class="st0" d="M124.1,29.8c0-5.8-4.7-10.5-10.5-10.5c-3.6,0-6.7,1.8-8.6,4.5c-1.9-2.7-5-4.5-8.6-4.5
				c-5.8,0-10.5,4.7-10.5,10.5c0,0.1,0,0.3,0,0.4c0,0.1,0,0.3,0,0.4c0,10.7,18.9,23.3,19.1,23.3c0.2,0,19.1-12.6,19.1-23.3
				c0-0.1,0-0.3,0-0.4C124.1,30.1,124.1,29.9,124.1,29.8z"/>
		</g>
		<path class="st1" d="M107.6,33.3c0-1.4-1.2-2.6-2.6-2.6c-1.4,0-2.6,1.2-2.6,2.6c0,1,0.6,1.9,1.4,2.3V40c0,0.6,0.5,1.2,1.2,1.2
			c0.6,0,1.2-0.5,1.2-1.2l0-4.3C107,35.3,107.6,34.4,107.6,33.3z"/>
	</g>
	<g>
		<g>
			<g>
				<g>
					<g>
						<path class="st2" d="M202.1,38.9c0.2-0.1,0.5,0,0.7,0.2c0.1,0.2,0,0.5-0.2,0.7c-0.2,0.1-0.5,0-0.7-0.2
							C201.7,39.4,201.8,39.1,202.1,38.9z"/>
						<path class="st2" d="M162.4,34.5c0.5-0.2,1-0.1,1.3,0.4c0.2,0.5,0.1,1-0.4,1.3c-0.5,0.2-1,0.1-1.3-0.4
							C161.7,35.3,161.9,34.7,162.4,34.5z"/>
						<path class="st2" d="M162.6,34.3c3.4-1.7,7.8,0.6,7.6,5.2c-0.1,3-2,5.6-4.9,6.4c-3.7,1.1-7.7-0.6-9.5-4.1
							c-2.6-5-0.6-11.2,4.4-13.7c0,0,6.3-3.6,14.3,2c0,0,16.4,10.9,24.4,15.2c2,1.1,4.5,1.2,6.5,0.1c0.3-0.2,0.6-0.4,0.9-0.7
							c1.7-1.5,1.8-4.1,0.3-5.7c-1.2-1.3-3.2-1.4-4.6-0.2"/>
					</g>
				</g>
				<g>
					<path class="st2" d="M187.6,35c0.9-1.2,2.7-1.5,3.9-0.6c1.2,0.9,1.5,2.7,0.6,3.9s-2.7,1.5-3.9,0.6"/>
					<path class="st2" d="M187.8,35c0.2,0,0.3,0.2,0.3,0.4c0,0.2-0.2,0.3-0.4,0.3c-0.2,0-0.3-0.2-0.3-0.4
						C187.5,35,187.7,34.9,187.8,35z"/>
				</g>
			</g>
			<g>
				<g>
					<g>
						<path class="st2" d="M7.9,38.9c-0.2-0.1-0.5,0-0.7,0.2c-0.1,0.2,0,0.5,0.2,0.7c0.2,0.1,0.5,0,0.7-0.2
							C8.3,39.4,8.2,39.1,7.9,38.9z"/>
						<path class="st2" d="M47.6,34.5c-0.5-0.2-1-0.1-1.3,0.4c-0.2,0.5-0.1,1,0.4,1.3c0.5,0.2,1,0.1,1.3-0.4
							C48.3,35.3,48.1,34.7,47.6,34.5z"/>
						<path class="st2" d="M47.4,34.3c-3.4-1.7-7.8,0.6-7.6,5.2c0.1,3,2,5.6,4.9,6.4c3.7,1.1,7.7-0.6,9.5-4.1
							c2.6-5,0.6-11.2-4.4-13.7c0,0-6.3-3.6-14.3,2c0,0-16.4,10.9-24.4,15.2c-2,1.1-4.5,1.2-6.5,0.1c-0.3-0.2-0.6-0.4-0.9-0.7
							c-1.7-1.5-1.8-4.1-0.3-5.7c1.2-1.3,3.2-1.4,4.6-0.2"/>
					</g>
				</g>
				<g>
					<path class="st2" d="M22.4,35c-0.9-1.2-2.7-1.5-3.9-0.6c-1.2,0.9-1.5,2.7-0.6,3.9c0.9,1.2,2.7,1.5,3.9,0.6"/>
					<path class="st2" d="M22.2,35c-0.2,0-0.3,0.2-0.3,0.4c0,0.2,0.2,0.3,0.4,0.3c0.2,0,0.3-0.2,0.3-0.4C22.5,35,22.3,34.9,22.2,35z
						"/>
				</g>
			</g>
		</g>
	</g>
</g>
</svg>
