<?xml version="1.0" encoding="utf-8"?>
<!-- Generator: Adobe Illustrator 22.0.0, SVG Export Plug-In . SVG Version: 6.00 Build 0)  -->
<svg version="1.1" id="Layer_1" xmlns="http://www.w3.org/2000/svg" xmlns:xlink="http://www.w3.org/1999/xlink" x="0px" y="0px"
	 viewBox="0 0 360 410" style="enable-background:new 0 0 360 410;" xml:space="preserve">
<style type="text/css">
	.st0{fill:none;}
	.st1{fill:#C99340;}
	
		.st2{fill:url(#SVGID_1_);fill-opacity:0.2;stroke:#C99340;stroke-width:3;stroke-linecap:round;stroke-linejoin:round;stroke-miterlimit:10;}
	.st3{fill:#EAE7DA;stroke:#C99340;stroke-width:3;stroke-linecap:round;stroke-linejoin:round;stroke-miterlimit:10;}
	.st4{fill:#EAE7DA;stroke:#C99340;stroke-width:2;stroke-linecap:round;stroke-linejoin:round;stroke-miterlimit:10;}
	.st5{fill:none;stroke:#C99340;stroke-width:3;stroke-linecap:round;stroke-linejoin:round;stroke-miterlimit:10;}
	.st6{fill:#FDD9C0;}
	.st7{opacity:0.2;fill:#E2BA9E;}
	.st8{fill:#EAE7DA;}
	.st9{fill:none;stroke:#E35427;stroke-width:2.5;stroke-linecap:round;stroke-linejoin:round;stroke-miterlimit:10;}
	.st10{opacity:0.2;fill:#C99340;}
	.st11{fill:none;stroke:#C99340;stroke-width:2.5;stroke-linecap:round;stroke-linejoin:round;stroke-miterlimit:10;}
</style>
<pattern  x="-120" y="-95" width="600" height="600" patternUnits="userSpaceOnUse" id="New_Pattern_Swatch_2" viewBox="0 -600 600 600" style="overflow:visible;">
	<g>
		<rect y="-600" class="st0" width="600" height="600"/>
		<g>
			<path class="st1" d="M580.5-575v3.4c2.9-1.2,5.9-2.2,9-2.8v-0.6c0-5.8,4.7-10.5,10.5-10.5v1c-5.2,0-9.5,4.3-9.5,9.5v0.4
				c3.1-0.6,6.3-0.9,9.5-0.9v1c-27.3,0-49.5,22.2-49.5,49.5v40c1.5-7.4,4.6-14.3,9-20.1V-525c0-22.3,18.2-40.5,40.5-40.5v1
				c-21.8,0-39.5,17.7-39.5,39.5v18.6c2.6-3.3,5.6-6.2,9-8.8v-9.8c0-16.8,13.7-30.5,30.5-30.5v1c-16.3,0-29.5,13.2-29.5,29.5v9
				c2.8-2,5.8-3.8,9-5.2v-3.9c0-11.3,9.2-20.5,20.5-20.5v1c-10.8,0-19.5,8.7-19.5,19.5v3.4c2.9-1.2,5.9-2.2,9-2.8v-0.6
				c0-5.8,4.7-10.5,10.5-10.5v1c-5.2,0-9.5,4.3-9.5,9.5v0.4c3.1-0.6,6.3-0.9,9.5-0.9v1c-27.3,0-49.5,22.2-49.5,49.5v40
				c1.5-7.4,4.6-14.3,9-20.1V-475c0-22.3,18.2-40.5,40.5-40.5v1c-21.8,0-39.5,17.7-39.5,39.5v18.6c2.6-3.3,5.6-6.2,9-8.8v-9.8
				c0-16.8,13.7-30.5,30.5-30.5v1c-16.3,0-29.5,13.2-29.5,29.5v9c2.8-2,5.8-3.8,9-5.2v-3.9c0-11.3,9.2-20.5,20.5-20.5v1
				c-10.8,0-19.5,8.7-19.5,19.5v3.4c2.9-1.2,5.9-2.2,9-2.8v-0.6c0-5.8,4.7-10.5,10.5-10.5v1c-5.2,0-9.5,4.3-9.5,9.5v0.4
				c3.1-0.6,6.3-0.9,9.5-0.9v1c-27.3,0-49.5,22.2-49.5,49.5v40c1.5-7.4,4.6-14.3,9-20.1V-425c0-22.3,18.2-40.5,40.5-40.5v1
				c-21.8,0-39.5,17.7-39.5,39.5v18.6c2.6-3.3,5.6-6.2,9-8.8v-9.8c0-16.8,13.7-30.5,30.5-30.5v1c-16.3,0-29.5,13.2-29.5,29.5v9
				c2.8-2,5.8-3.8,9-5.2v-3.9c0-11.3,9.2-20.5,20.5-20.5v1c-10.8,0-19.5,8.7-19.5,19.5v3.4c2.9-1.2,5.9-2.2,9-2.8v-0.6
				c0-5.8,4.7-10.5,10.5-10.5v1c-5.2,0-9.5,4.3-9.5,9.5v0.4c3.1-0.6,6.3-0.9,9.5-0.9v1c-27.3,0-49.5,22.2-49.5,49.5v40
				c1.5-7.4,4.6-14.3,9-20.1V-375c0-22.3,18.2-40.5,40.5-40.5v1c-21.8,0-39.5,17.7-39.5,39.5v18.6c2.6-3.3,5.6-6.2,9-8.8v-9.8
				c0-16.8,13.7-30.5,30.5-30.5v1c-16.3,0-29.5,13.2-29.5,29.5v9c2.8-2,5.8-3.8,9-5.2v-3.9c0-11.3,9.2-20.5,20.5-20.5v1
				c-10.8,0-19.5,8.7-19.5,19.5v3.4c2.9-1.2,5.9-2.2,9-2.8v-0.6c0-5.8,4.7-10.5,10.5-10.5v1c-5.2,0-9.5,4.3-9.5,9.5v0.4
				c3.1-0.6,6.3-0.9,9.5-0.9v1c-27.3,0-49.5,22.2-49.5,49.5v40c1.5-7.4,4.6-14.3,9-20.1V-325c0-22.3,18.2-40.5,40.5-40.5v1
				c-21.8,0-39.5,17.7-39.5,39.5v18.6c2.6-3.3,5.6-6.2,9-8.8v-9.8c0-16.8,13.7-30.5,30.5-30.5v1c-16.3,0-29.5,13.2-29.5,29.5v9
				c2.8-2,5.8-3.8,9-5.2v-3.9c0-11.3,9.2-20.5,20.5-20.5v1c-10.8,0-19.5,8.7-19.5,19.5v3.4c2.9-1.2,5.9-2.2,9-2.8v-0.6
				c0-5.8,4.7-10.5,10.5-10.5v1c-5.2,0-9.5,4.3-9.5,9.5v0.4c3.1-0.6,6.3-0.9,9.5-0.9v1c-27.3,0-49.5,22.2-49.5,49.5v40
				c1.5-7.4,4.6-14.3,9-20.1V-275c0-22.3,18.2-40.5,40.5-40.5v1c-21.8,0-39.5,17.7-39.5,39.5v18.6c2.6-3.3,5.6-6.2,9-8.8v-9.8
				c0-16.8,13.7-30.5,30.5-30.5v1c-16.3,0-29.5,13.2-29.5,29.5v9c2.8-2,5.8-3.8,9-5.2v-3.9c0-11.3,9.2-20.5,20.5-20.5v1
				c-10.8,0-19.5,8.7-19.5,19.5v3.4c2.9-1.2,5.9-2.2,9-2.8v-0.6c0-5.8,4.7-10.5,10.5-10.5v1c-5.2,0-9.5,4.3-9.5,9.5v0.4
				c3.1-0.6,6.3-0.9,9.5-0.9v1c-27.3,0-49.5,22.2-49.5,49.5v40c1.5-7.4,4.6-14.3,9-20.1V-225c0-22.3,18.2-40.5,40.5-40.5v1
				c-21.8,0-39.5,17.7-39.5,39.5v18.6c2.6-3.3,5.6-6.2,9-8.8v-9.8c0-16.8,13.7-30.5,30.5-30.5v1c-16.3,0-29.5,13.2-29.5,29.5v9
				c2.8-2,5.8-3.8,9-5.2v-3.9c0-11.3,9.2-20.5,20.5-20.5v1c-10.8,0-19.5,8.7-19.5,19.5v3.4c2.9-1.2,5.9-2.2,9-2.8v-0.6
				c0-5.8,4.7-10.5,10.5-10.5v1c-5.2,0-9.5,4.3-9.5,9.5v0.4c3.1-0.6,6.3-0.9,9.5-0.9v1c-27.3,0-49.5,22.2-49.5,49.5v40
				c1.5-7.4,4.6-14.3,9-20.1V-175c0-22.3,18.2-40.5,40.5-40.5v1c-21.8,0-39.5,17.7-39.5,39.5v18.6c2.6-3.3,5.6-6.2,9-8.8v-9.8
				c0-16.8,13.7-30.5,30.5-30.5v1c-16.3,0-29.5,13.2-29.5,29.5v9c2.8-2,5.8-3.8,9-5.2v-3.9c0-11.3,9.2-20.5,20.5-20.5v1
				c-10.8,0-19.5,8.7-19.5,19.5v3.4c2.9-1.2,5.9-2.2,9-2.8v-0.6c0-5.8,4.7-10.5,10.5-10.5v1c-5.2,0-9.5,4.3-9.5,9.5v0.4
				c3.1-0.6,6.3-0.9,9.5-0.9v1c-27.3,0-49.5,22.2-49.5,49.5v40c1.5-7.4,4.6-14.3,9-20.1V-125c0-22.3,18.2-40.5,40.5-40.5v1
				c-21.8,0-39.5,17.7-39.5,39.5v18.6c2.6-3.3,5.6-6.2,9-8.8v-9.8c0-16.8,13.7-30.5,30.5-30.5v1c-16.3,0-29.5,13.2-29.5,29.5v9
				c2.8-2,5.8-3.8,9-5.2v-3.9c0-11.3,9.2-20.5,20.5-20.5v1c-10.8,0-19.5,8.7-19.5,19.5v3.4c2.9-1.2,5.9-2.2,9-2.8v-0.6
				c0-5.8,4.7-10.5,10.5-10.5v1c-5.2,0-9.5,4.3-9.5,9.5v0.4c3.1-0.6,6.3-0.9,9.5-0.9v1c-27.3,0-49.5,22.2-49.5,49.5v40
				c1.5-7.4,4.6-14.3,9-20.1V-75c0-22.3,18.2-40.5,40.5-40.5v1c-21.8,0-39.5,17.7-39.5,39.5v18.6c2.6-3.3,5.6-6.2,9-8.8V-75
				c0-16.8,13.7-30.5,30.5-30.5v1c-16.3,0-29.5,13.2-29.5,29.5v9c2.8-2,5.8-3.8,9-5.2V-75c0-11.3,9.2-20.5,20.5-20.5v1
				c-10.8,0-19.5,8.7-19.5,19.5v3.4c2.9-1.2,5.9-2.2,9-2.8V-75c0-5.8,4.7-10.5,10.5-10.5v1c-5.2,0-9.5,4.3-9.5,9.5v0.4
				c3.1-0.6,6.3-0.9,9.5-0.9v1c-27.3,0-49.5,22.2-49.5,49.5V0h-1v-25c0-27.3-22.2-49.5-49.5-49.5c-27.3,0-49.5,22.2-49.5,49.5V0h-1
				v-25c0-27.3-22.2-49.5-49.5-49.5c-27.3,0-49.5,22.2-49.5,49.5V0h-1v-25c0-27.3-22.2-49.5-49.5-49.5c-27.3,0-49.5,22.2-49.5,49.5
				V0h-1v-25c0-27.3-22.2-49.5-49.5-49.5S150.5-52.3,150.5-25V0h-1v-25c0-27.3-22.2-49.5-49.5-49.5S50.5-52.3,50.5-25V0h-1v-25
				c0-27.3-22.2-49.5-49.5-49.5v-1c3.2,0,6.4,0.3,9.5,0.9V-75c0-5.2-4.3-9.5-9.5-9.5v-1c5.8,0,10.5,4.7,10.5,10.5v0.6
				c3.1,0.7,6.1,1.6,9,2.8V-75c0-10.8-8.7-19.5-19.5-19.5v-1c11.3,0,20.5,9.2,20.5,20.5v3.9c3.2,1.4,6.2,3.2,9,5.2v-9
				c0-16.3-13.2-29.5-29.5-29.5v-1c16.8,0,30.5,13.7,30.5,30.5v9.8c3.4,2.5,6.4,5.5,9,8.8V-75c0-21.8-17.7-39.5-39.5-39.5v-1
				c22.3,0,40.5,18.2,40.5,40.5v19.9c4.4,5.9,7.5,12.7,9,20.1v-40c0-27.3-22.2-49.5-49.5-49.5v-1c3.2,0,6.4,0.3,9.5,0.9v-0.4
				c0-5.2-4.3-9.5-9.5-9.5v-1c5.8,0,10.5,4.7,10.5,10.5v0.6c3.1,0.7,6.1,1.6,9,2.8v-3.4c0-10.8-8.7-19.5-19.5-19.5v-1
				c11.3,0,20.5,9.2,20.5,20.5v3.9c3.2,1.4,6.2,3.2,9,5.2v-9c0-16.3-13.2-29.5-29.5-29.5v-1c16.8,0,30.5,13.7,30.5,30.5v9.8
				c3.4,2.5,6.4,5.5,9,8.8V-125c0-21.8-17.7-39.5-39.5-39.5v-1c22.3,0,40.5,18.2,40.5,40.5v19.9c4.4,5.9,7.5,12.7,9,20.1v-40
				c0-27.3-22.2-49.5-49.5-49.5v-1c3.2,0,6.4,0.3,9.5,0.9v-0.4c0-5.2-4.3-9.5-9.5-9.5v-1c5.8,0,10.5,4.7,10.5,10.5v0.6
				c3.1,0.7,6.1,1.6,9,2.8v-3.4c0-10.8-8.7-19.5-19.5-19.5v-1c11.3,0,20.5,9.2,20.5,20.5v3.9c3.2,1.4,6.2,3.2,9,5.2v-9
				c0-16.3-13.2-29.5-29.5-29.5v-1c16.8,0,30.5,13.7,30.5,30.5v9.8c3.4,2.5,6.4,5.5,9,8.8V-175c0-21.8-17.7-39.5-39.5-39.5v-1
				c22.3,0,40.5,18.2,40.5,40.5v19.9c4.4,5.9,7.5,12.7,9,20.1v-40c0-27.3-22.2-49.5-49.5-49.5v-1c3.2,0,6.4,0.3,9.5,0.9v-0.4
				c0-5.2-4.3-9.5-9.5-9.5v-1c5.8,0,10.5,4.7,10.5,10.5v0.6c3.1,0.7,6.1,1.6,9,2.8v-3.4c0-10.8-8.7-19.5-19.5-19.5v-1
				c11.3,0,20.5,9.2,20.5,20.5v3.9c3.2,1.4,6.2,3.2,9,5.2v-9c0-16.3-13.2-29.5-29.5-29.5v-1c16.8,0,30.5,13.7,30.5,30.5v9.8
				c3.4,2.5,6.4,5.5,9,8.8V-225c0-21.8-17.7-39.5-39.5-39.5v-1c22.3,0,40.5,18.2,40.5,40.5v19.9c4.4,5.9,7.5,12.7,9,20.1v-40
				c0-27.3-22.2-49.5-49.5-49.5v-1c3.2,0,6.4,0.3,9.5,0.9v-0.4c0-5.2-4.3-9.5-9.5-9.5v-1c5.8,0,10.5,4.7,10.5,10.5v0.6
				c3.1,0.7,6.1,1.6,9,2.8v-3.4c0-10.8-8.7-19.5-19.5-19.5v-1c11.3,0,20.5,9.2,20.5,20.5v3.9c3.2,1.4,6.2,3.2,9,5.2v-9
				c0-16.3-13.2-29.5-29.5-29.5v-1c16.8,0,30.5,13.7,30.5,30.5v9.8c3.4,2.5,6.4,5.5,9,8.8V-275c0-21.8-17.7-39.5-39.5-39.5v-1
				c22.3,0,40.5,18.2,40.5,40.5v19.9c4.4,5.9,7.5,12.7,9,20.1v-40c0-27.3-22.2-49.5-49.5-49.5v-1c3.2,0,6.4,0.3,9.5,0.9v-0.4
				c0-5.2-4.3-9.5-9.5-9.5v-1c5.8,0,10.5,4.7,10.5,10.5v0.6c3.1,0.7,6.1,1.6,9,2.8v-3.4c0-10.8-8.7-19.5-19.5-19.5v-1
				c11.3,0,20.5,9.2,20.5,20.5v3.9c3.2,1.4,6.2,3.2,9,5.2v-9c0-16.3-13.2-29.5-29.5-29.5v-1c16.8,0,30.5,13.7,30.5,30.5v9.8
				c3.4,2.5,6.4,5.5,9,8.8V-325c0-21.8-17.7-39.5-39.5-39.5v-1c22.3,0,40.5,18.2,40.5,40.5v19.9c4.4,5.9,7.5,12.7,9,20.1v-40
				c0-27.3-22.2-49.5-49.5-49.5v-1c3.2,0,6.4,0.3,9.5,0.9v-0.4c0-5.2-4.3-9.5-9.5-9.5v-1c5.8,0,10.5,4.7,10.5,10.5v0.6
				c3.1,0.7,6.1,1.6,9,2.8v-3.4c0-10.8-8.7-19.5-19.5-19.5v-1c11.3,0,20.5,9.2,20.5,20.5v3.9c3.2,1.4,6.2,3.2,9,5.2v-9
				c0-16.3-13.2-29.5-29.5-29.5v-1c16.8,0,30.5,13.7,30.5,30.5v9.8c3.4,2.5,6.4,5.5,9,8.8V-375c0-21.8-17.7-39.5-39.5-39.5v-1
				c22.3,0,40.5,18.2,40.5,40.5v19.9c4.4,5.9,7.5,12.7,9,20.1v-40c0-27.3-22.2-49.5-49.5-49.5v-1c3.2,0,6.4,0.3,9.5,0.9v-0.4
				c0-5.2-4.3-9.5-9.5-9.5v-1c5.8,0,10.5,4.7,10.5,10.5v0.6c3.1,0.7,6.1,1.6,9,2.8v-3.4c0-10.8-8.7-19.5-19.5-19.5v-1
				c11.3,0,20.5,9.2,20.5,20.5v3.9c3.2,1.4,6.2,3.2,9,5.2v-9c0-16.3-13.2-29.5-29.5-29.5v-1c16.8,0,30.5,13.7,30.5,30.5v9.8
				c3.4,2.5,6.4,5.5,9,8.8V-425c0-21.8-17.7-39.5-39.5-39.5v-1c22.3,0,40.5,18.2,40.5,40.5v19.9c4.4,5.9,7.5,12.7,9,20.1v-40
				c0-27.3-22.2-49.5-49.5-49.5v-1c3.2,0,6.4,0.3,9.5,0.9v-0.4c0-5.2-4.3-9.5-9.5-9.5v-1c5.8,0,10.5,4.7,10.5,10.5v0.6
				c3.1,0.7,6.1,1.6,9,2.8v-3.4c0-10.8-8.7-19.5-19.5-19.5v-1c11.3,0,20.5,9.2,20.5,20.5v3.9c3.2,1.4,6.2,3.2,9,5.2v-9
				c0-16.3-13.2-29.5-29.5-29.5v-1c16.8,0,30.5,13.7,30.5,30.5v9.8c3.4,2.5,6.4,5.5,9,8.8V-475c0-21.8-17.7-39.5-39.5-39.5v-1
				c22.3,0,40.5,18.2,40.5,40.5v19.9c4.4,5.9,7.5,12.7,9,20.1v-40c0-27.3-22.2-49.5-49.5-49.5v-1c3.2,0,6.4,0.3,9.5,0.9v-0.4
				c0-5.2-4.3-9.5-9.5-9.5v-1c5.8,0,10.5,4.7,10.5,10.5v0.6c3.1,0.7,6.1,1.6,9,2.8v-3.4c0-10.8-8.7-19.5-19.5-19.5v-1
				c11.3,0,20.5,9.2,20.5,20.5v3.9c3.2,1.4,6.2,3.2,9,5.2v-9c0-16.3-13.2-29.5-29.5-29.5v-1c16.8,0,30.5,13.7,30.5,30.5v9.8
				c3.4,2.5,6.4,5.5,9,8.8V-525c0-21.8-17.7-39.5-39.5-39.5v-1c22.3,0,40.5,18.2,40.5,40.5v19.9c4.4,5.9,7.5,12.7,9,20.1v-40
				c0-27.3-22.2-49.5-49.5-49.5v-1c3.2,0,6.4,0.3,9.5,0.9v-0.4c0-5.2-4.3-9.5-9.5-9.5v-1c5.8,0,10.5,4.7,10.5,10.5v0.6
				c3.1,0.7,6.1,1.6,9,2.8v-3.4c0-10.8-8.7-19.5-19.5-19.5v-1c11.3,0,20.5,9.2,20.5,20.5v3.9c3.2,1.4,6.2,3.2,9,5.2v-9
				c0-10.5-5.5-19.8-13.9-25h1.8c7.9,5.5,13.1,14.7,13.1,25v9.8c3.4,2.5,6.4,5.5,9,8.8V-575c0-9.5-3.4-18.2-8.9-25h1.3
				c5.4,6.9,8.7,15.6,8.7,25v19.9c4.4,5.9,7.5,12.7,9,20.1v-40c0-9.1-2.5-17.7-6.8-25h1.2c2.6,4.6,4.6,9.6,5.6,15v-15h1v15
				c1.1-5.3,3-10.4,5.6-15h1.2c-4.3,7.3-6.8,15.9-6.8,25v40c1.5-7.4,4.6-14.3,9-20.1V-575c0-9.4,3.2-18.1,8.7-25h1.3
				c-5.6,6.8-8.9,15.5-8.9,25v18.6c2.6-3.3,5.6-6.2,9-8.8v-9.8c0-10.3,5.2-19.5,13.1-25h1.8c-8.3,5.2-13.9,14.5-13.9,25v9
				c2.8-2,5.8-3.8,9-5.2v-3.9c0-11.3,9.2-20.5,20.5-20.5s20.5,9.2,20.5,20.5v3.9c3.2,1.4,6.2,3.2,9,5.2v-9c0-10.5-5.5-19.8-13.9-25
				h1.8c7.9,5.5,13.1,14.7,13.1,25v9.8c3.4,2.5,6.4,5.5,9,8.8V-575c0-9.5-3.4-18.2-8.9-25h1.3c5.4,6.9,8.7,15.6,8.7,25v19.9
				c4.4,5.9,7.5,12.7,9,20.1v-40c0-9.1-2.5-17.7-6.8-25h1.2c2.6,4.6,4.6,9.6,5.6,15v-15h1v15c1.1-5.3,3-10.4,5.6-15h1.2
				c-4.3,7.3-6.8,15.9-6.8,25v40c1.5-7.4,4.6-14.3,9-20.1V-575c0-9.4,3.2-18.1,8.7-25h1.3c-5.6,6.8-8.9,15.5-8.9,25v18.6
				c2.6-3.3,5.6-6.2,9-8.8v-9.8c0-10.3,5.2-19.5,13.1-25h1.8c-8.3,5.2-13.9,14.5-13.9,25v9c2.8-2,5.8-3.8,9-5.2v-3.9
				c0-11.3,9.2-20.5,20.5-20.5c11.3,0,20.5,9.2,20.5,20.5v3.9c3.2,1.4,6.2,3.2,9,5.2v-9c0-10.5-5.5-19.8-13.9-25h1.8
				c7.9,5.5,13.1,14.7,13.1,25v9.8c3.4,2.5,6.4,5.5,9,8.8V-575c0-9.5-3.4-18.2-8.9-25h1.3c5.4,6.9,8.7,15.6,8.7,25v19.9
				c4.4,5.9,7.5,12.7,9,20.1v-40c0-9.1-2.5-17.7-6.8-25h1.2c2.6,4.6,4.6,9.6,5.6,15v-15h1v15c1.1-5.3,3-10.4,5.6-15h1.2
				c-4.3,7.3-6.8,15.9-6.8,25v40c1.5-7.4,4.6-14.3,9-20.1V-575c0-9.4,3.2-18.1,8.7-25h1.3c-5.6,6.8-8.9,15.5-8.9,25v18.6
				c2.6-3.3,5.6-6.2,9-8.8v-9.8c0-10.3,5.2-19.5,13.1-25h1.8c-8.3,5.2-13.9,14.5-13.9,25v9c2.8-2,5.8-3.8,9-5.2v-3.9
				c0-11.3,9.2-20.5,20.5-20.5c11.3,0,20.5,9.2,20.5,20.5v3.9c3.2,1.4,6.2,3.2,9,5.2v-9c0-10.5-5.5-19.8-13.9-25h1.8
				c7.9,5.5,13.1,14.7,13.1,25v9.8c3.4,2.5,6.4,5.5,9,8.8V-575c0-9.5-3.4-18.2-8.9-25h1.3c5.4,6.9,8.7,15.6,8.7,25v19.9
				c4.4,5.9,7.5,12.7,9,20.1v-40c0-9.1-2.5-17.7-6.8-25h1.2c2.6,4.6,4.6,9.6,5.6,15v-15h1v15c1.1-5.3,3-10.4,5.6-15h1.2
				c-4.3,7.3-6.8,15.9-6.8,25v40c1.5-7.4,4.6-14.3,9-20.1V-575c0-9.4,3.2-18.1,8.7-25h1.3c-5.6,6.8-8.9,15.5-8.9,25v18.6
				c2.6-3.3,5.6-6.2,9-8.8v-9.8c0-10.3,5.2-19.5,13.1-25h1.8c-8.3,5.2-13.9,14.5-13.9,25v9c2.8-2,5.8-3.8,9-5.2v-3.9
				c0-11.3,9.2-20.5,20.5-20.5c11.3,0,20.5,9.2,20.5,20.5v3.9c3.2,1.4,6.2,3.2,9,5.2v-9c0-10.5-5.5-19.8-13.9-25h1.8
				c7.9,5.5,13.1,14.7,13.1,25v9.8c3.4,2.5,6.4,5.5,9,8.8V-575c0-9.5-3.4-18.2-8.9-25h1.3c5.4,6.9,8.7,15.6,8.7,25v19.9
				c4.4,5.9,7.5,12.7,9,20.1v-40c0-9.1-2.5-17.7-6.8-25h1.2c2.6,4.6,4.6,9.6,5.6,15v-15h1v15c1.1-5.3,3-10.4,5.6-15h1.2
				c-4.3,7.3-6.8,15.9-6.8,25v40c1.5-7.4,4.6-14.3,9-20.1V-575c0-9.4,3.2-18.1,8.7-25h1.3c-5.6,6.8-8.9,15.5-8.9,25v18.6
				c2.6-3.3,5.6-6.2,9-8.8v-9.8c0-10.3,5.2-19.5,13.1-25h1.8c-8.3,5.2-13.9,14.5-13.9,25v9c2.8-2,5.8-3.8,9-5.2v-3.9
				c0-11.3,9.2-20.5,20.5-20.5c11.3,0,20.5,9.2,20.5,20.5v3.9c3.2,1.4,6.2,3.2,9,5.2v-9c0-10.5-5.5-19.8-13.9-25h1.8
				c7.9,5.5,13.1,14.7,13.1,25v9.8c3.4,2.5,6.4,5.5,9,8.8V-575c0-9.5-3.4-18.2-8.9-25h1.3c5.4,6.9,8.7,15.6,8.7,25v19.9
				c4.4,5.9,7.5,12.7,9,20.1v-40c0-9.1-2.5-17.7-6.8-25h1.2c2.6,4.6,4.6,9.6,5.6,15v-15h1v15c1.1-5.3,3-10.4,5.6-15h1.2
				c-4.3,7.3-6.8,15.9-6.8,25v40c1.5-7.4,4.6-14.3,9-20.1V-575c0-9.4,3.2-18.1,8.7-25h1.3c-5.6,6.8-8.9,15.5-8.9,25v18.6
				c2.6-3.3,5.6-6.2,9-8.8v-9.8c0-10.3,5.2-19.5,13.1-25h1.8c-8.3,5.2-13.9,14.5-13.9,25v9c2.8-2,5.8-3.8,9-5.2v-3.9
				c0-11.3,9.2-20.5,20.5-20.5v1C589.2-594.5,580.5-585.8,580.5-575z M480.5-571.6c2.9-1.2,5.9-2.2,9-2.8v-0.6
				c0-5.8,4.7-10.5,10.5-10.5c5.8,0,10.5,4.7,10.5,10.5v0.6c3.1,0.7,6.1,1.6,9,2.8v-3.4c0-10.8-8.7-19.5-19.5-19.5
				c-10.8,0-19.5,8.7-19.5,19.5V-571.6z M509.5-575c0-5.2-4.3-9.5-9.5-9.5c-5.2,0-9.5,4.3-9.5,9.5v0.4c3.1-0.6,6.3-0.9,9.5-0.9
				c3.2,0,6.4,0.3,9.5,0.9V-575z M450.5-525v40c1.5-7.4,4.6-14.3,9-20.1V-525c0-22.3,18.2-40.5,40.5-40.5
				c22.3,0,40.5,18.2,40.5,40.5v19.9c4.4,5.9,7.5,12.7,9,20.1v-40c0-27.3-22.2-49.5-49.5-49.5C472.7-574.5,450.5-552.3,450.5-525z
				 M549.5-475c0-27.3-22.2-49.5-49.5-49.5c-27.3,0-49.5,22.2-49.5,49.5v40c1.5-7.4,4.6-14.3,9-20.1V-475
				c0-22.3,18.2-40.5,40.5-40.5c22.3,0,40.5,18.2,40.5,40.5v19.9c4.4,5.9,7.5,12.7,9,20.1V-475z M549.5-425
				c0-27.3-22.2-49.5-49.5-49.5c-27.3,0-49.5,22.2-49.5,49.5v40c1.5-7.4,4.6-14.3,9-20.1V-425c0-22.3,18.2-40.5,40.5-40.5
				c22.3,0,40.5,18.2,40.5,40.5v19.9c4.4,5.9,7.5,12.7,9,20.1V-425z M549.5-375c0-27.3-22.2-49.5-49.5-49.5
				c-27.3,0-49.5,22.2-49.5,49.5v40c1.5-7.4,4.6-14.3,9-20.1V-375c0-22.3,18.2-40.5,40.5-40.5c22.3,0,40.5,18.2,40.5,40.5v19.9
				c4.4,5.9,7.5,12.7,9,20.1V-375z M549.5-325c0-27.3-22.2-49.5-49.5-49.5c-27.3,0-49.5,22.2-49.5,49.5v40c1.5-7.4,4.6-14.3,9-20.1
				V-325c0-22.3,18.2-40.5,40.5-40.5c22.3,0,40.5,18.2,40.5,40.5v19.9c4.4,5.9,7.5,12.7,9,20.1V-325z M549.5-275
				c0-27.3-22.2-49.5-49.5-49.5c-27.3,0-49.5,22.2-49.5,49.5v40c1.5-7.4,4.6-14.3,9-20.1V-275c0-22.3,18.2-40.5,40.5-40.5
				c22.3,0,40.5,18.2,40.5,40.5v19.9c4.4,5.9,7.5,12.7,9,20.1V-275z M549.5-225c0-27.3-22.2-49.5-49.5-49.5
				c-27.3,0-49.5,22.2-49.5,49.5v40c1.5-7.4,4.6-14.3,9-20.1V-225c0-22.3,18.2-40.5,40.5-40.5c22.3,0,40.5,18.2,40.5,40.5v19.9
				c4.4,5.9,7.5,12.7,9,20.1V-225z M549.5-175c0-27.3-22.2-49.5-49.5-49.5c-27.3,0-49.5,22.2-49.5,49.5v40c1.5-7.4,4.6-14.3,9-20.1
				V-175c0-22.3,18.2-40.5,40.5-40.5c22.3,0,40.5,18.2,40.5,40.5v19.9c4.4,5.9,7.5,12.7,9,20.1V-175z M549.5-125
				c0-27.3-22.2-49.5-49.5-49.5c-27.3,0-49.5,22.2-49.5,49.5v40c1.5-7.4,4.6-14.3,9-20.1V-125c0-22.3,18.2-40.5,40.5-40.5
				c22.3,0,40.5,18.2,40.5,40.5v19.9c4.4,5.9,7.5,12.7,9,20.1V-125z M509.5-125c0-5.2-4.3-9.5-9.5-9.5c-5.2,0-9.5,4.3-9.5,9.5v0.4
				c3.1-0.6,6.3-0.9,9.5-0.9c3.2,0,6.4,0.3,9.5,0.9V-125z M510.5-125v0.6c3.1,0.7,6.1,1.6,9,2.8v-3.4c0-10.8-8.7-19.5-19.5-19.5
				c-10.8,0-19.5,8.7-19.5,19.5v3.4c2.9-1.2,5.9-2.2,9-2.8v-0.6c0-5.8,4.7-10.5,10.5-10.5C505.8-135.5,510.5-130.8,510.5-125z
				 M520.5-125v3.9c3.2,1.4,6.2,3.2,9,5.2v-9c0-16.3-13.2-29.5-29.5-29.5s-29.5,13.2-29.5,29.5v9c2.8-2,5.8-3.8,9-5.2v-3.9
				c0-11.3,9.2-20.5,20.5-20.5C511.3-145.5,520.5-136.3,520.5-125z M530.5-125v9.8c3.4,2.5,6.4,5.5,9,8.8V-125
				c0-21.8-17.7-39.5-39.5-39.5s-39.5,17.7-39.5,39.5v18.6c2.6-3.3,5.6-6.2,9-8.8v-9.8c0-16.8,13.7-30.5,30.5-30.5
				S530.5-141.8,530.5-125z M409.5-125c0-5.2-4.3-9.5-9.5-9.5c-5.2,0-9.5,4.3-9.5,9.5v0.4c3.1-0.6,6.3-0.9,9.5-0.9
				c3.2,0,6.4,0.3,9.5,0.9V-125z M410.5-125v0.6c3.1,0.7,6.1,1.6,9,2.8v-3.4c0-10.8-8.7-19.5-19.5-19.5c-10.8,0-19.5,8.7-19.5,19.5
				v3.4c2.9-1.2,5.9-2.2,9-2.8v-0.6c0-5.8,4.7-10.5,10.5-10.5S410.5-130.8,410.5-125z M420.5-125v3.9c3.2,1.4,6.2,3.2,9,5.2v-9
				c0-16.3-13.2-29.5-29.5-29.5c-16.3,0-29.5,13.2-29.5,29.5v9c2.8-2,5.8-3.8,9-5.2v-3.9c0-11.3,9.2-20.5,20.5-20.5
				C411.3-145.5,420.5-136.3,420.5-125z M430.5-125v9.8c3.4,2.5,6.4,5.5,9,8.8V-125c0-21.8-17.7-39.5-39.5-39.5
				c-21.8,0-39.5,17.7-39.5,39.5v18.6c2.6-3.3,5.6-6.2,9-8.8v-9.8c0-16.8,13.7-30.5,30.5-30.5C416.8-155.5,430.5-141.8,430.5-125z
				 M440.5-125v19.9c4.4,5.9,7.5,12.7,9,20.1v-40c0-27.3-22.2-49.5-49.5-49.5c-27.3,0-49.5,22.2-49.5,49.5v40
				c1.5-7.4,4.6-14.3,9-20.1V-125c0-22.3,18.2-40.5,40.5-40.5C422.3-165.5,440.5-147.3,440.5-125z M309.5-125c0-5.2-4.3-9.5-9.5-9.5
				c-5.2,0-9.5,4.3-9.5,9.5v0.4c3.1-0.6,6.3-0.9,9.5-0.9c3.2,0,6.4,0.3,9.5,0.9V-125z M310.5-125v0.6c3.1,0.7,6.1,1.6,9,2.8v-3.4
				c0-10.8-8.7-19.5-19.5-19.5c-10.8,0-19.5,8.7-19.5,19.5v3.4c2.9-1.2,5.9-2.2,9-2.8v-0.6c0-5.8,4.7-10.5,10.5-10.5
				S310.5-130.8,310.5-125z M320.5-125v3.9c3.2,1.4,6.2,3.2,9,5.2v-9c0-16.3-13.2-29.5-29.5-29.5c-16.3,0-29.5,13.2-29.5,29.5v9
				c2.8-2,5.8-3.8,9-5.2v-3.9c0-11.3,9.2-20.5,20.5-20.5C311.3-145.5,320.5-136.3,320.5-125z M330.5-125v9.8c3.4,2.5,6.4,5.5,9,8.8
				V-125c0-21.8-17.7-39.5-39.5-39.5s-39.5,17.7-39.5,39.5v18.6c2.6-3.3,5.6-6.2,9-8.8v-9.8c0-16.8,13.7-30.5,30.5-30.5
				C316.8-155.5,330.5-141.8,330.5-125z M340.5-125v19.9c4.4,5.9,7.5,12.7,9,20.1v-40c0-27.3-22.2-49.5-49.5-49.5
				c-27.3,0-49.5,22.2-49.5,49.5v40c1.5-7.4,4.6-14.3,9-20.1V-125c0-22.3,18.2-40.5,40.5-40.5C322.3-165.5,340.5-147.3,340.5-125z
				 M209.5-125c0-5.2-4.3-9.5-9.5-9.5c-5.2,0-9.5,4.3-9.5,9.5v0.4c3.1-0.6,6.3-0.9,9.5-0.9s6.4,0.3,9.5,0.9V-125z M210.5-125v0.6
				c3.1,0.7,6.1,1.6,9,2.8v-3.4c0-10.8-8.7-19.5-19.5-19.5c-10.8,0-19.5,8.7-19.5,19.5v3.4c2.9-1.2,5.9-2.2,9-2.8v-0.6
				c0-5.8,4.7-10.5,10.5-10.5C205.8-135.5,210.5-130.8,210.5-125z M220.5-125v3.9c3.2,1.4,6.2,3.2,9,5.2v-9
				c0-16.3-13.2-29.5-29.5-29.5s-29.5,13.2-29.5,29.5v9c2.8-2,5.8-3.8,9-5.2v-3.9c0-11.3,9.2-20.5,20.5-20.5
				C211.3-145.5,220.5-136.3,220.5-125z M230.5-125v9.8c3.4,2.5,6.4,5.5,9,8.8V-125c0-21.8-17.7-39.5-39.5-39.5
				s-39.5,17.7-39.5,39.5v18.6c2.6-3.3,5.6-6.2,9-8.8v-9.8c0-16.8,13.7-30.5,30.5-30.5S230.5-141.8,230.5-125z M240.5-125v19.9
				c4.4,5.9,7.5,12.7,9,20.1v-40c0-27.3-22.2-49.5-49.5-49.5s-49.5,22.2-49.5,49.5v40c1.5-7.4,4.6-14.3,9-20.1V-125
				c0-22.3,18.2-40.5,40.5-40.5S240.5-147.3,240.5-125z M109.5-125c0-5.2-4.3-9.5-9.5-9.5c-5.2,0-9.5,4.3-9.5,9.5v0.4
				c3.1-0.6,6.3-0.9,9.5-0.9c3.2,0,6.4,0.3,9.5,0.9V-125z M110.5-125v0.6c3.1,0.7,6.1,1.6,9,2.8v-3.4c0-10.8-8.7-19.5-19.5-19.5
				s-19.5,8.7-19.5,19.5v3.4c2.9-1.2,5.9-2.2,9-2.8v-0.6c0-5.8,4.7-10.5,10.5-10.5C105.8-135.5,110.5-130.8,110.5-125z M120.5-125
				v3.9c3.2,1.4,6.2,3.2,9,5.2v-9c0-16.3-13.2-29.5-29.5-29.5S70.5-141.3,70.5-125v9c2.8-2,5.8-3.8,9-5.2v-3.9
				c0-11.3,9.2-20.5,20.5-20.5S120.5-136.3,120.5-125z M130.5-125v9.8c3.4,2.5,6.4,5.5,9,8.8V-125c0-21.8-17.7-39.5-39.5-39.5
				S60.5-146.8,60.5-125v18.6c2.6-3.3,5.6-6.2,9-8.8v-9.8c0-16.8,13.7-30.5,30.5-30.5S130.5-141.8,130.5-125z M140.5-125v19.9
				c4.4,5.9,7.5,12.7,9,20.1v-40c0-27.3-22.2-49.5-49.5-49.5S50.5-152.3,50.5-125v40c1.5-7.4,4.6-14.3,9-20.1V-125
				c0-22.3,18.2-40.5,40.5-40.5S140.5-147.3,140.5-125z M50.5-435c1.5-7.4,4.6-14.3,9-20.1V-475c0-22.3,18.2-40.5,40.5-40.5
				s40.5,18.2,40.5,40.5v19.9c4.4,5.9,7.5,12.7,9,20.1v-40c0-27.3-22.2-49.5-49.5-49.5S50.5-502.3,50.5-475V-435z M139.5-525
				c0-21.8-17.7-39.5-39.5-39.5S60.5-546.8,60.5-525v18.6c2.6-3.3,5.6-6.2,9-8.8v-9.8c0-16.8,13.7-30.5,30.5-30.5
				s30.5,13.7,30.5,30.5v9.8c3.4,2.5,6.4,5.5,9,8.8V-525z M109.5-525c0-5.2-4.3-9.5-9.5-9.5c-5.2,0-9.5,4.3-9.5,9.5v0.4
				c3.1-0.6,6.3-0.9,9.5-0.9c3.2,0,6.4,0.3,9.5,0.9V-525z M110.5-525v0.6c3.1,0.7,6.1,1.6,9,2.8v-3.4c0-10.8-8.7-19.5-19.5-19.5
				s-19.5,8.7-19.5,19.5v3.4c2.9-1.2,5.9-2.2,9-2.8v-0.6c0-5.8,4.7-10.5,10.5-10.5C105.8-535.5,110.5-530.8,110.5-525z M120.5-525
				v3.9c3.2,1.4,6.2,3.2,9,5.2v-9c0-16.3-13.2-29.5-29.5-29.5S70.5-541.3,70.5-525v9c2.8-2,5.8-3.8,9-5.2v-3.9
				c0-11.3,9.2-20.5,20.5-20.5S120.5-536.3,120.5-525z M239.5-525c0-21.8-17.7-39.5-39.5-39.5s-39.5,17.7-39.5,39.5v18.6
				c2.6-3.3,5.6-6.2,9-8.8v-9.8c0-16.8,13.7-30.5,30.5-30.5s30.5,13.7,30.5,30.5v9.8c3.4,2.5,6.4,5.5,9,8.8V-525z M209.5-525
				c0-5.2-4.3-9.5-9.5-9.5c-5.2,0-9.5,4.3-9.5,9.5v0.4c3.1-0.6,6.3-0.9,9.5-0.9s6.4,0.3,9.5,0.9V-525z M210.5-525v0.6
				c3.1,0.7,6.1,1.6,9,2.8v-3.4c0-10.8-8.7-19.5-19.5-19.5c-10.8,0-19.5,8.7-19.5,19.5v3.4c2.9-1.2,5.9-2.2,9-2.8v-0.6
				c0-5.8,4.7-10.5,10.5-10.5C205.8-535.5,210.5-530.8,210.5-525z M220.5-525v3.9c3.2,1.4,6.2,3.2,9,5.2v-9
				c0-16.3-13.2-29.5-29.5-29.5s-29.5,13.2-29.5,29.5v9c2.8-2,5.8-3.8,9-5.2v-3.9c0-11.3,9.2-20.5,20.5-20.5
				C211.3-545.5,220.5-536.3,220.5-525z M150.5-475v40c1.5-7.4,4.6-14.3,9-20.1V-475c0-22.3,18.2-40.5,40.5-40.5
				s40.5,18.2,40.5,40.5v19.9c4.4,5.9,7.5,12.7,9,20.1v-40c0-27.3-22.2-49.5-49.5-49.5S150.5-502.3,150.5-475z M339.5-525
				c0-21.8-17.7-39.5-39.5-39.5s-39.5,17.7-39.5,39.5v18.6c2.6-3.3,5.6-6.2,9-8.8v-9.8c0-16.8,13.7-30.5,30.5-30.5
				c16.8,0,30.5,13.7,30.5,30.5v9.8c3.4,2.5,6.4,5.5,9,8.8V-525z M309.5-525c0-5.2-4.3-9.5-9.5-9.5c-5.2,0-9.5,4.3-9.5,9.5v0.4
				c3.1-0.6,6.3-0.9,9.5-0.9c3.2,0,6.4,0.3,9.5,0.9V-525z M310.5-525v0.6c3.1,0.7,6.1,1.6,9,2.8v-3.4c0-10.8-8.7-19.5-19.5-19.5
				c-10.8,0-19.5,8.7-19.5,19.5v3.4c2.9-1.2,5.9-2.2,9-2.8v-0.6c0-5.8,4.7-10.5,10.5-10.5S310.5-530.8,310.5-525z M320.5-525v3.9
				c3.2,1.4,6.2,3.2,9,5.2v-9c0-16.3-13.2-29.5-29.5-29.5c-16.3,0-29.5,13.2-29.5,29.5v9c2.8-2,5.8-3.8,9-5.2v-3.9
				c0-11.3,9.2-20.5,20.5-20.5C311.3-545.5,320.5-536.3,320.5-525z M250.5-475v40c1.5-7.4,4.6-14.3,9-20.1V-475
				c0-22.3,18.2-40.5,40.5-40.5c22.3,0,40.5,18.2,40.5,40.5v19.9c4.4,5.9,7.5,12.7,9,20.1v-40c0-27.3-22.2-49.5-49.5-49.5
				C272.7-524.5,250.5-502.3,250.5-475z M439.5-525c0-21.8-17.7-39.5-39.5-39.5c-21.8,0-39.5,17.7-39.5,39.5v18.6
				c2.6-3.3,5.6-6.2,9-8.8v-9.8c0-16.8,13.7-30.5,30.5-30.5c16.8,0,30.5,13.7,30.5,30.5v9.8c3.4,2.5,6.4,5.5,9,8.8V-525z M409.5-525
				c0-5.2-4.3-9.5-9.5-9.5c-5.2,0-9.5,4.3-9.5,9.5v0.4c3.1-0.6,6.3-0.9,9.5-0.9c3.2,0,6.4,0.3,9.5,0.9V-525z M410.5-525v0.6
				c3.1,0.7,6.1,1.6,9,2.8v-3.4c0-10.8-8.7-19.5-19.5-19.5c-10.8,0-19.5,8.7-19.5,19.5v3.4c2.9-1.2,5.9-2.2,9-2.8v-0.6
				c0-5.8,4.7-10.5,10.5-10.5S410.5-530.8,410.5-525z M420.5-525v3.9c3.2,1.4,6.2,3.2,9,5.2v-9c0-16.3-13.2-29.5-29.5-29.5
				c-16.3,0-29.5,13.2-29.5,29.5v9c2.8-2,5.8-3.8,9-5.2v-3.9c0-11.3,9.2-20.5,20.5-20.5C411.3-545.5,420.5-536.3,420.5-525z
				 M350.5-475v40c1.5-7.4,4.6-14.3,9-20.1V-475c0-22.3,18.2-40.5,40.5-40.5c22.3,0,40.5,18.2,40.5,40.5v19.9
				c4.4,5.9,7.5,12.7,9,20.1v-40c0-27.3-22.2-49.5-49.5-49.5C372.7-524.5,350.5-502.3,350.5-475z M409.5-175c0-5.2-4.3-9.5-9.5-9.5
				c-5.2,0-9.5,4.3-9.5,9.5v0.4c3.1-0.6,6.3-0.9,9.5-0.9c3.2,0,6.4,0.3,9.5,0.9V-175z M410.5-175v0.6c3.1,0.7,6.1,1.6,9,2.8v-3.4
				c0-10.8-8.7-19.5-19.5-19.5c-10.8,0-19.5,8.7-19.5,19.5v3.4c2.9-1.2,5.9-2.2,9-2.8v-0.6c0-5.8,4.7-10.5,10.5-10.5
				S410.5-180.8,410.5-175z M420.5-175v3.9c3.2,1.4,6.2,3.2,9,5.2v-9c0-16.3-13.2-29.5-29.5-29.5c-16.3,0-29.5,13.2-29.5,29.5v9
				c2.8-2,5.8-3.8,9-5.2v-3.9c0-11.3,9.2-20.5,20.5-20.5C411.3-195.5,420.5-186.3,420.5-175z M430.5-175v9.8c3.4,2.5,6.4,5.5,9,8.8
				V-175c0-21.8-17.7-39.5-39.5-39.5c-21.8,0-39.5,17.7-39.5,39.5v18.6c2.6-3.3,5.6-6.2,9-8.8v-9.8c0-16.8,13.7-30.5,30.5-30.5
				C416.8-205.5,430.5-191.8,430.5-175z M440.5-175v19.9c4.4,5.9,7.5,12.7,9,20.1v-40c0-27.3-22.2-49.5-49.5-49.5
				c-27.3,0-49.5,22.2-49.5,49.5v40c1.5-7.4,4.6-14.3,9-20.1V-175c0-22.3,18.2-40.5,40.5-40.5C422.3-215.5,440.5-197.3,440.5-175z
				 M309.5-175c0-5.2-4.3-9.5-9.5-9.5c-5.2,0-9.5,4.3-9.5,9.5v0.4c3.1-0.6,6.3-0.9,9.5-0.9c3.2,0,6.4,0.3,9.5,0.9V-175z M310.5-175
				v0.6c3.1,0.7,6.1,1.6,9,2.8v-3.4c0-10.8-8.7-19.5-19.5-19.5c-10.8,0-19.5,8.7-19.5,19.5v3.4c2.9-1.2,5.9-2.2,9-2.8v-0.6
				c0-5.8,4.7-10.5,10.5-10.5S310.5-180.8,310.5-175z M320.5-175v3.9c3.2,1.4,6.2,3.2,9,5.2v-9c0-16.3-13.2-29.5-29.5-29.5
				c-16.3,0-29.5,13.2-29.5,29.5v9c2.8-2,5.8-3.8,9-5.2v-3.9c0-11.3,9.2-20.5,20.5-20.5C311.3-195.5,320.5-186.3,320.5-175z
				 M330.5-175v9.8c3.4,2.5,6.4,5.5,9,8.8V-175c0-21.8-17.7-39.5-39.5-39.5s-39.5,17.7-39.5,39.5v18.6c2.6-3.3,5.6-6.2,9-8.8v-9.8
				c0-16.8,13.7-30.5,30.5-30.5C316.8-205.5,330.5-191.8,330.5-175z M340.5-175v19.9c4.4,5.9,7.5,12.7,9,20.1v-40
				c0-27.3-22.2-49.5-49.5-49.5c-27.3,0-49.5,22.2-49.5,49.5v40c1.5-7.4,4.6-14.3,9-20.1V-175c0-22.3,18.2-40.5,40.5-40.5
				C322.3-215.5,340.5-197.3,340.5-175z M209.5-175c0-5.2-4.3-9.5-9.5-9.5c-5.2,0-9.5,4.3-9.5,9.5v0.4c3.1-0.6,6.3-0.9,9.5-0.9
				s6.4,0.3,9.5,0.9V-175z M210.5-175v0.6c3.1,0.7,6.1,1.6,9,2.8v-3.4c0-10.8-8.7-19.5-19.5-19.5c-10.8,0-19.5,8.7-19.5,19.5v3.4
				c2.9-1.2,5.9-2.2,9-2.8v-0.6c0-5.8,4.7-10.5,10.5-10.5C205.8-185.5,210.5-180.8,210.5-175z M220.5-175v3.9c3.2,1.4,6.2,3.2,9,5.2
				v-9c0-16.3-13.2-29.5-29.5-29.5s-29.5,13.2-29.5,29.5v9c2.8-2,5.8-3.8,9-5.2v-3.9c0-11.3,9.2-20.5,20.5-20.5
				C211.3-195.5,220.5-186.3,220.5-175z M230.5-175v9.8c3.4,2.5,6.4,5.5,9,8.8V-175c0-21.8-17.7-39.5-39.5-39.5
				s-39.5,17.7-39.5,39.5v18.6c2.6-3.3,5.6-6.2,9-8.8v-9.8c0-16.8,13.7-30.5,30.5-30.5S230.5-191.8,230.5-175z M240.5-175v19.9
				c4.4,5.9,7.5,12.7,9,20.1v-40c0-27.3-22.2-49.5-49.5-49.5s-49.5,22.2-49.5,49.5v40c1.5-7.4,4.6-14.3,9-20.1V-175
				c0-22.3,18.2-40.5,40.5-40.5S240.5-197.3,240.5-175z M239.5-475c0-21.8-17.7-39.5-39.5-39.5s-39.5,17.7-39.5,39.5v18.6
				c2.6-3.3,5.6-6.2,9-8.8v-9.8c0-16.8,13.7-30.5,30.5-30.5s30.5,13.7,30.5,30.5v9.8c3.4,2.5,6.4,5.5,9,8.8V-475z M209.5-475
				c0-5.2-4.3-9.5-9.5-9.5c-5.2,0-9.5,4.3-9.5,9.5v0.4c3.1-0.6,6.3-0.9,9.5-0.9s6.4,0.3,9.5,0.9V-475z M210.5-475v0.6
				c3.1,0.7,6.1,1.6,9,2.8v-3.4c0-10.8-8.7-19.5-19.5-19.5c-10.8,0-19.5,8.7-19.5,19.5v3.4c2.9-1.2,5.9-2.2,9-2.8v-0.6
				c0-5.8,4.7-10.5,10.5-10.5C205.8-485.5,210.5-480.8,210.5-475z M220.5-475v3.9c3.2,1.4,6.2,3.2,9,5.2v-9
				c0-16.3-13.2-29.5-29.5-29.5s-29.5,13.2-29.5,29.5v9c2.8-2,5.8-3.8,9-5.2v-3.9c0-11.3,9.2-20.5,20.5-20.5
				C211.3-495.5,220.5-486.3,220.5-475z M150.5-425v40c1.5-7.4,4.6-14.3,9-20.1V-425c0-22.3,18.2-40.5,40.5-40.5
				s40.5,18.2,40.5,40.5v19.9c4.4,5.9,7.5,12.7,9,20.1v-40c0-27.3-22.2-49.5-49.5-49.5S150.5-452.3,150.5-425z M339.5-475
				c0-21.8-17.7-39.5-39.5-39.5s-39.5,17.7-39.5,39.5v18.6c2.6-3.3,5.6-6.2,9-8.8v-9.8c0-16.8,13.7-30.5,30.5-30.5
				c16.8,0,30.5,13.7,30.5,30.5v9.8c3.4,2.5,6.4,5.5,9,8.8V-475z M309.5-475c0-5.2-4.3-9.5-9.5-9.5c-5.2,0-9.5,4.3-9.5,9.5v0.4
				c3.1-0.6,6.3-0.9,9.5-0.9c3.2,0,6.4,0.3,9.5,0.9V-475z M310.5-475v0.6c3.1,0.7,6.1,1.6,9,2.8v-3.4c0-10.8-8.7-19.5-19.5-19.5
				c-10.8,0-19.5,8.7-19.5,19.5v3.4c2.9-1.2,5.9-2.2,9-2.8v-0.6c0-5.8,4.7-10.5,10.5-10.5S310.5-480.8,310.5-475z M320.5-475v3.9
				c3.2,1.4,6.2,3.2,9,5.2v-9c0-16.3-13.2-29.5-29.5-29.5c-16.3,0-29.5,13.2-29.5,29.5v9c2.8-2,5.8-3.8,9-5.2v-3.9
				c0-11.3,9.2-20.5,20.5-20.5C311.3-495.5,320.5-486.3,320.5-475z M250.5-425v40c1.5-7.4,4.6-14.3,9-20.1V-425
				c0-22.3,18.2-40.5,40.5-40.5c22.3,0,40.5,18.2,40.5,40.5v19.9c4.4,5.9,7.5,12.7,9,20.1v-40c0-27.3-22.2-49.5-49.5-49.5
				C272.7-474.5,250.5-452.3,250.5-425z M439.5-475c0-21.8-17.7-39.5-39.5-39.5c-21.8,0-39.5,17.7-39.5,39.5v18.6
				c2.6-3.3,5.6-6.2,9-8.8v-9.8c0-16.8,13.7-30.5,30.5-30.5c16.8,0,30.5,13.7,30.5,30.5v9.8c3.4,2.5,6.4,5.5,9,8.8V-475z M409.5-475
				c0-5.2-4.3-9.5-9.5-9.5c-5.2,0-9.5,4.3-9.5,9.5v0.4c3.1-0.6,6.3-0.9,9.5-0.9c3.2,0,6.4,0.3,9.5,0.9V-475z M410.5-475v0.6
				c3.1,0.7,6.1,1.6,9,2.8v-3.4c0-10.8-8.7-19.5-19.5-19.5c-10.8,0-19.5,8.7-19.5,19.5v3.4c2.9-1.2,5.9-2.2,9-2.8v-0.6
				c0-5.8,4.7-10.5,10.5-10.5S410.5-480.8,410.5-475z M420.5-475v3.9c3.2,1.4,6.2,3.2,9,5.2v-9c0-16.3-13.2-29.5-29.5-29.5
				c-16.3,0-29.5,13.2-29.5,29.5v9c2.8-2,5.8-3.8,9-5.2v-3.9c0-11.3,9.2-20.5,20.5-20.5C411.3-495.5,420.5-486.3,420.5-475z
				 M350.5-425v40c1.5-7.4,4.6-14.3,9-20.1V-425c0-22.3,18.2-40.5,40.5-40.5c22.3,0,40.5,18.2,40.5,40.5v19.9
				c4.4,5.9,7.5,12.7,9,20.1v-40c0-27.3-22.2-49.5-49.5-49.5C372.7-474.5,350.5-452.3,350.5-425z M449.5-375
				c0-27.3-22.2-49.5-49.5-49.5c-27.3,0-49.5,22.2-49.5,49.5v40c1.5-7.4,4.6-14.3,9-20.1V-375c0-22.3,18.2-40.5,40.5-40.5
				c22.3,0,40.5,18.2,40.5,40.5v19.9c4.4,5.9,7.5,12.7,9,20.1V-375z M449.5-325c0-27.3-22.2-49.5-49.5-49.5
				c-27.3,0-49.5,22.2-49.5,49.5v40c1.5-7.4,4.6-14.3,9-20.1V-325c0-22.3,18.2-40.5,40.5-40.5c22.3,0,40.5,18.2,40.5,40.5v19.9
				c4.4,5.9,7.5,12.7,9,20.1V-325z M449.5-275c0-27.3-22.2-49.5-49.5-49.5c-27.3,0-49.5,22.2-49.5,49.5v40c1.5-7.4,4.6-14.3,9-20.1
				V-275c0-22.3,18.2-40.5,40.5-40.5c22.3,0,40.5,18.2,40.5,40.5v19.9c4.4,5.9,7.5,12.7,9,20.1V-275z M449.5-225
				c0-27.3-22.2-49.5-49.5-49.5c-27.3,0-49.5,22.2-49.5,49.5v40c1.5-7.4,4.6-14.3,9-20.1V-225c0-22.3,18.2-40.5,40.5-40.5
				c22.3,0,40.5,18.2,40.5,40.5v19.9c4.4,5.9,7.5,12.7,9,20.1V-225z M409.5-225c0-5.2-4.3-9.5-9.5-9.5c-5.2,0-9.5,4.3-9.5,9.5v0.4
				c3.1-0.6,6.3-0.9,9.5-0.9c3.2,0,6.4,0.3,9.5,0.9V-225z M410.5-225v0.6c3.1,0.7,6.1,1.6,9,2.8v-3.4c0-10.8-8.7-19.5-19.5-19.5
				c-10.8,0-19.5,8.7-19.5,19.5v3.4c2.9-1.2,5.9-2.2,9-2.8v-0.6c0-5.8,4.7-10.5,10.5-10.5S410.5-230.8,410.5-225z M420.5-225v3.9
				c3.2,1.4,6.2,3.2,9,5.2v-9c0-16.3-13.2-29.5-29.5-29.5c-16.3,0-29.5,13.2-29.5,29.5v9c2.8-2,5.8-3.8,9-5.2v-3.9
				c0-11.3,9.2-20.5,20.5-20.5C411.3-245.5,420.5-236.3,420.5-225z M430.5-225v9.8c3.4,2.5,6.4,5.5,9,8.8V-225
				c0-21.8-17.7-39.5-39.5-39.5c-21.8,0-39.5,17.7-39.5,39.5v18.6c2.6-3.3,5.6-6.2,9-8.8v-9.8c0-16.8,13.7-30.5,30.5-30.5
				C416.8-255.5,430.5-241.8,430.5-225z M309.5-225c0-5.2-4.3-9.5-9.5-9.5c-5.2,0-9.5,4.3-9.5,9.5v0.4c3.1-0.6,6.3-0.9,9.5-0.9
				c3.2,0,6.4,0.3,9.5,0.9V-225z M310.5-225v0.6c3.1,0.7,6.1,1.6,9,2.8v-3.4c0-10.8-8.7-19.5-19.5-19.5c-10.8,0-19.5,8.7-19.5,19.5
				v3.4c2.9-1.2,5.9-2.2,9-2.8v-0.6c0-5.8,4.7-10.5,10.5-10.5S310.5-230.8,310.5-225z M320.5-225v3.9c3.2,1.4,6.2,3.2,9,5.2v-9
				c0-16.3-13.2-29.5-29.5-29.5c-16.3,0-29.5,13.2-29.5,29.5v9c2.8-2,5.8-3.8,9-5.2v-3.9c0-11.3,9.2-20.5,20.5-20.5
				C311.3-245.5,320.5-236.3,320.5-225z M330.5-225v9.8c3.4,2.5,6.4,5.5,9,8.8V-225c0-21.8-17.7-39.5-39.5-39.5
				s-39.5,17.7-39.5,39.5v18.6c2.6-3.3,5.6-6.2,9-8.8v-9.8c0-16.8,13.7-30.5,30.5-30.5C316.8-255.5,330.5-241.8,330.5-225z
				 M340.5-225v19.9c4.4,5.9,7.5,12.7,9,20.1v-40c0-27.3-22.2-49.5-49.5-49.5c-27.3,0-49.5,22.2-49.5,49.5v40
				c1.5-7.4,4.6-14.3,9-20.1V-225c0-22.3,18.2-40.5,40.5-40.5C322.3-265.5,340.5-247.3,340.5-225z M209.5-225c0-5.2-4.3-9.5-9.5-9.5
				c-5.2,0-9.5,4.3-9.5,9.5v0.4c3.1-0.6,6.3-0.9,9.5-0.9s6.4,0.3,9.5,0.9V-225z M210.5-225v0.6c3.1,0.7,6.1,1.6,9,2.8v-3.4
				c0-10.8-8.7-19.5-19.5-19.5c-10.8,0-19.5,8.7-19.5,19.5v3.4c2.9-1.2,5.9-2.2,9-2.8v-0.6c0-5.8,4.7-10.5,10.5-10.5
				C205.8-235.5,210.5-230.8,210.5-225z M220.5-225v3.9c3.2,1.4,6.2,3.2,9,5.2v-9c0-16.3-13.2-29.5-29.5-29.5s-29.5,13.2-29.5,29.5
				v9c2.8-2,5.8-3.8,9-5.2v-3.9c0-11.3,9.2-20.5,20.5-20.5C211.3-245.5,220.5-236.3,220.5-225z M230.5-225v9.8
				c3.4,2.5,6.4,5.5,9,8.8V-225c0-21.8-17.7-39.5-39.5-39.5s-39.5,17.7-39.5,39.5v18.6c2.6-3.3,5.6-6.2,9-8.8v-9.8
				c0-16.8,13.7-30.5,30.5-30.5S230.5-241.8,230.5-225z M240.5-225v19.9c4.4,5.9,7.5,12.7,9,20.1v-40c0-27.3-22.2-49.5-49.5-49.5
				s-49.5,22.2-49.5,49.5v40c1.5-7.4,4.6-14.3,9-20.1V-225c0-22.3,18.2-40.5,40.5-40.5S240.5-247.3,240.5-225z M150.5-335
				c1.5-7.4,4.6-14.3,9-20.1V-375c0-22.3,18.2-40.5,40.5-40.5s40.5,18.2,40.5,40.5v19.9c4.4,5.9,7.5,12.7,9,20.1v-40
				c0-27.3-22.2-49.5-49.5-49.5s-49.5,22.2-49.5,49.5V-335z M239.5-425c0-21.8-17.7-39.5-39.5-39.5s-39.5,17.7-39.5,39.5v18.6
				c2.6-3.3,5.6-6.2,9-8.8v-9.8c0-16.8,13.7-30.5,30.5-30.5s30.5,13.7,30.5,30.5v9.8c3.4,2.5,6.4,5.5,9,8.8V-425z M209.5-425
				c0-5.2-4.3-9.5-9.5-9.5c-5.2,0-9.5,4.3-9.5,9.5v0.4c3.1-0.6,6.3-0.9,9.5-0.9s6.4,0.3,9.5,0.9V-425z M210.5-425v0.6
				c3.1,0.7,6.1,1.6,9,2.8v-3.4c0-10.8-8.7-19.5-19.5-19.5c-10.8,0-19.5,8.7-19.5,19.5v3.4c2.9-1.2,5.9-2.2,9-2.8v-0.6
				c0-5.8,4.7-10.5,10.5-10.5C205.8-435.5,210.5-430.8,210.5-425z M220.5-425v3.9c3.2,1.4,6.2,3.2,9,5.2v-9
				c0-16.3-13.2-29.5-29.5-29.5s-29.5,13.2-29.5,29.5v9c2.8-2,5.8-3.8,9-5.2v-3.9c0-11.3,9.2-20.5,20.5-20.5
				C211.3-445.5,220.5-436.3,220.5-425z M339.5-425c0-21.8-17.7-39.5-39.5-39.5s-39.5,17.7-39.5,39.5v18.6c2.6-3.3,5.6-6.2,9-8.8
				v-9.8c0-16.8,13.7-30.5,30.5-30.5c16.8,0,30.5,13.7,30.5,30.5v9.8c3.4,2.5,6.4,5.5,9,8.8V-425z M309.5-425c0-5.2-4.3-9.5-9.5-9.5
				c-5.2,0-9.5,4.3-9.5,9.5v0.4c3.1-0.6,6.3-0.9,9.5-0.9c3.2,0,6.4,0.3,9.5,0.9V-425z M310.5-425v0.6c3.1,0.7,6.1,1.6,9,2.8v-3.4
				c0-10.8-8.7-19.5-19.5-19.5c-10.8,0-19.5,8.7-19.5,19.5v3.4c2.9-1.2,5.9-2.2,9-2.8v-0.6c0-5.8,4.7-10.5,10.5-10.5
				S310.5-430.8,310.5-425z M320.5-425v3.9c3.2,1.4,6.2,3.2,9,5.2v-9c0-16.3-13.2-29.5-29.5-29.5c-16.3,0-29.5,13.2-29.5,29.5v9
				c2.8-2,5.8-3.8,9-5.2v-3.9c0-11.3,9.2-20.5,20.5-20.5C311.3-445.5,320.5-436.3,320.5-425z M250.5-375v40c1.5-7.4,4.6-14.3,9-20.1
				V-375c0-22.3,18.2-40.5,40.5-40.5c22.3,0,40.5,18.2,40.5,40.5v19.9c4.4,5.9,7.5,12.7,9,20.1v-40c0-27.3-22.2-49.5-49.5-49.5
				C272.7-424.5,250.5-402.3,250.5-375z M309.5-275c0-5.2-4.3-9.5-9.5-9.5c-5.2,0-9.5,4.3-9.5,9.5v0.4c3.1-0.6,6.3-0.9,9.5-0.9
				c3.2,0,6.4,0.3,9.5,0.9V-275z M310.5-275v0.6c3.1,0.7,6.1,1.6,9,2.8v-3.4c0-10.8-8.7-19.5-19.5-19.5c-10.8,0-19.5,8.7-19.5,19.5
				v3.4c2.9-1.2,5.9-2.2,9-2.8v-0.6c0-5.8,4.7-10.5,10.5-10.5S310.5-280.8,310.5-275z M320.5-275v3.9c3.2,1.4,6.2,3.2,9,5.2v-9
				c0-16.3-13.2-29.5-29.5-29.5c-16.3,0-29.5,13.2-29.5,29.5v9c2.8-2,5.8-3.8,9-5.2v-3.9c0-11.3,9.2-20.5,20.5-20.5
				C311.3-295.5,320.5-286.3,320.5-275z M330.5-275v9.8c3.4,2.5,6.4,5.5,9,8.8V-275c0-21.8-17.7-39.5-39.5-39.5
				s-39.5,17.7-39.5,39.5v18.6c2.6-3.3,5.6-6.2,9-8.8v-9.8c0-16.8,13.7-30.5,30.5-30.5C316.8-305.5,330.5-291.8,330.5-275z
				 M340.5-275v19.9c4.4,5.9,7.5,12.7,9,20.1v-40c0-27.3-22.2-49.5-49.5-49.5c-27.3,0-49.5,22.2-49.5,49.5v40
				c1.5-7.4,4.6-14.3,9-20.1V-275c0-22.3,18.2-40.5,40.5-40.5C322.3-315.5,340.5-297.3,340.5-275z M339.5-375
				c0-21.8-17.7-39.5-39.5-39.5s-39.5,17.7-39.5,39.5v18.6c2.6-3.3,5.6-6.2,9-8.8v-9.8c0-16.8,13.7-30.5,30.5-30.5
				c16.8,0,30.5,13.7,30.5,30.5v9.8c3.4,2.5,6.4,5.5,9,8.8V-375z M309.5-375c0-5.2-4.3-9.5-9.5-9.5c-5.2,0-9.5,4.3-9.5,9.5v0.4
				c3.1-0.6,6.3-0.9,9.5-0.9c3.2,0,6.4,0.3,9.5,0.9V-375z M310.5-375v0.6c3.1,0.7,6.1,1.6,9,2.8v-3.4c0-10.8-8.7-19.5-19.5-19.5
				c-10.8,0-19.5,8.7-19.5,19.5v3.4c2.9-1.2,5.9-2.2,9-2.8v-0.6c0-5.8,4.7-10.5,10.5-10.5S310.5-380.8,310.5-375z M320.5-375v3.9
				c3.2,1.4,6.2,3.2,9,5.2v-9c0-16.3-13.2-29.5-29.5-29.5c-16.3,0-29.5,13.2-29.5,29.5v9c2.8-2,5.8-3.8,9-5.2v-3.9
				c0-11.3,9.2-20.5,20.5-20.5C311.3-395.5,320.5-386.3,320.5-375z M250.5-325v40c1.5-7.4,4.6-14.3,9-20.1V-325
				c0-22.3,18.2-40.5,40.5-40.5c22.3,0,40.5,18.2,40.5,40.5v19.9c4.4,5.9,7.5,12.7,9,20.1v-40c0-27.3-22.2-49.5-49.5-49.5
				C272.7-374.5,250.5-352.3,250.5-325z M309.5-325c0-5.2-4.3-9.5-9.5-9.5c-5.2,0-9.5,4.3-9.5,9.5v0.4c3.1-0.6,6.3-0.9,9.5-0.9
				c3.2,0,6.4,0.3,9.5,0.9V-325z M310.5-325v0.6c3.1,0.7,6.1,1.6,9,2.8v-3.4c0-10.8-8.7-19.5-19.5-19.5c-10.8,0-19.5,8.7-19.5,19.5
				v3.4c2.9-1.2,5.9-2.2,9-2.8v-0.6c0-5.8,4.7-10.5,10.5-10.5S310.5-330.8,310.5-325z M320.5-325v3.9c3.2,1.4,6.2,3.2,9,5.2v-9
				c0-16.3-13.2-29.5-29.5-29.5c-16.3,0-29.5,13.2-29.5,29.5v9c2.8-2,5.8-3.8,9-5.2v-3.9c0-11.3,9.2-20.5,20.5-20.5
				C311.3-345.5,320.5-336.3,320.5-325z M330.5-325v9.8c3.4,2.5,6.4,5.5,9,8.8V-325c0-21.8-17.7-39.5-39.5-39.5
				s-39.5,17.7-39.5,39.5v18.6c2.6-3.3,5.6-6.2,9-8.8v-9.8c0-16.8,13.7-30.5,30.5-30.5C316.8-355.5,330.5-341.8,330.5-325z
				 M209.5-375c0-5.2-4.3-9.5-9.5-9.5c-5.2,0-9.5,4.3-9.5,9.5v0.4c3.1-0.6,6.3-0.9,9.5-0.9s6.4,0.3,9.5,0.9V-375z M210.5-375v0.6
				c3.1,0.7,6.1,1.6,9,2.8v-3.4c0-10.8-8.7-19.5-19.5-19.5c-10.8,0-19.5,8.7-19.5,19.5v3.4c2.9-1.2,5.9-2.2,9-2.8v-0.6
				c0-5.8,4.7-10.5,10.5-10.5C205.8-385.5,210.5-380.8,210.5-375z M220.5-375v3.9c3.2,1.4,6.2,3.2,9,5.2v-9
				c0-16.3-13.2-29.5-29.5-29.5s-29.5,13.2-29.5,29.5v9c2.8-2,5.8-3.8,9-5.2v-3.9c0-11.3,9.2-20.5,20.5-20.5
				C211.3-395.5,220.5-386.3,220.5-375z M230.5-375v9.8c3.4,2.5,6.4,5.5,9,8.8V-375c0-21.8-17.7-39.5-39.5-39.5
				s-39.5,17.7-39.5,39.5v18.6c2.6-3.3,5.6-6.2,9-8.8v-9.8c0-16.8,13.7-30.5,30.5-30.5S230.5-391.8,230.5-375z M150.5-285
				c1.5-7.4,4.6-14.3,9-20.1V-325c0-22.3,18.2-40.5,40.5-40.5s40.5,18.2,40.5,40.5v19.9c4.4,5.9,7.5,12.7,9,20.1v-40
				c0-27.3-22.2-49.5-49.5-49.5s-49.5,22.2-49.5,49.5V-285z M209.5-325c0-5.2-4.3-9.5-9.5-9.5c-5.2,0-9.5,4.3-9.5,9.5v0.4
				c3.1-0.6,6.3-0.9,9.5-0.9s6.4,0.3,9.5,0.9V-325z M210.5-325v0.6c3.1,0.7,6.1,1.6,9,2.8v-3.4c0-10.8-8.7-19.5-19.5-19.5
				c-10.8,0-19.5,8.7-19.5,19.5v3.4c2.9-1.2,5.9-2.2,9-2.8v-0.6c0-5.8,4.7-10.5,10.5-10.5C205.8-335.5,210.5-330.8,210.5-325z
				 M220.5-325v3.9c3.2,1.4,6.2,3.2,9,5.2v-9c0-16.3-13.2-29.5-29.5-29.5s-29.5,13.2-29.5,29.5v9c2.8-2,5.8-3.8,9-5.2v-3.9
				c0-11.3,9.2-20.5,20.5-20.5C211.3-345.5,220.5-336.3,220.5-325z M230.5-325v9.8c3.4,2.5,6.4,5.5,9,8.8V-325
				c0-21.8-17.7-39.5-39.5-39.5s-39.5,17.7-39.5,39.5v18.6c2.6-3.3,5.6-6.2,9-8.8v-9.8c0-16.8,13.7-30.5,30.5-30.5
				S230.5-341.8,230.5-325z M150.5-235c1.5-7.4,4.6-14.3,9-20.1V-275c0-22.3,18.2-40.5,40.5-40.5s40.5,18.2,40.5,40.5v19.9
				c4.4,5.9,7.5,12.7,9,20.1v-40c0-27.3-22.2-49.5-49.5-49.5s-49.5,22.2-49.5,49.5V-235z M209.5-275c0-5.2-4.3-9.5-9.5-9.5
				c-5.2,0-9.5,4.3-9.5,9.5v0.4c3.1-0.6,6.3-0.9,9.5-0.9s6.4,0.3,9.5,0.9V-275z M210.5-275v0.6c3.1,0.7,6.1,1.6,9,2.8v-3.4
				c0-10.8-8.7-19.5-19.5-19.5c-10.8,0-19.5,8.7-19.5,19.5v3.4c2.9-1.2,5.9-2.2,9-2.8v-0.6c0-5.8,4.7-10.5,10.5-10.5
				C205.8-285.5,210.5-280.8,210.5-275z M220.5-275v3.9c3.2,1.4,6.2,3.2,9,5.2v-9c0-16.3-13.2-29.5-29.5-29.5s-29.5,13.2-29.5,29.5
				v9c2.8-2,5.8-3.8,9-5.2v-3.9c0-11.3,9.2-20.5,20.5-20.5C211.3-295.5,220.5-286.3,220.5-275z M230.5-275v9.8
				c3.4,2.5,6.4,5.5,9,8.8V-275c0-21.8-17.7-39.5-39.5-39.5s-39.5,17.7-39.5,39.5v18.6c2.6-3.3,5.6-6.2,9-8.8v-9.8
				c0-16.8,13.7-30.5,30.5-30.5S230.5-291.8,230.5-275z M439.5-275c0-21.8-17.7-39.5-39.5-39.5c-21.8,0-39.5,17.7-39.5,39.5v18.6
				c2.6-3.3,5.6-6.2,9-8.8v-9.8c0-16.8,13.7-30.5,30.5-30.5c16.8,0,30.5,13.7,30.5,30.5v9.8c3.4,2.5,6.4,5.5,9,8.8V-275z M409.5-275
				c0-5.2-4.3-9.5-9.5-9.5c-5.2,0-9.5,4.3-9.5,9.5v0.4c3.1-0.6,6.3-0.9,9.5-0.9c3.2,0,6.4,0.3,9.5,0.9V-275z M410.5-275v0.6
				c3.1,0.7,6.1,1.6,9,2.8v-3.4c0-10.8-8.7-19.5-19.5-19.5c-10.8,0-19.5,8.7-19.5,19.5v3.4c2.9-1.2,5.9-2.2,9-2.8v-0.6
				c0-5.8,4.7-10.5,10.5-10.5S410.5-280.8,410.5-275z M420.5-275v3.9c3.2,1.4,6.2,3.2,9,5.2v-9c0-16.3-13.2-29.5-29.5-29.5
				c-16.3,0-29.5,13.2-29.5,29.5v9c2.8-2,5.8-3.8,9-5.2v-3.9c0-11.3,9.2-20.5,20.5-20.5C411.3-295.5,420.5-286.3,420.5-275z
				 M439.5-325c0-21.8-17.7-39.5-39.5-39.5c-21.8,0-39.5,17.7-39.5,39.5v18.6c2.6-3.3,5.6-6.2,9-8.8v-9.8
				c0-16.8,13.7-30.5,30.5-30.5c16.8,0,30.5,13.7,30.5,30.5v9.8c3.4,2.5,6.4,5.5,9,8.8V-325z M409.5-325c0-5.2-4.3-9.5-9.5-9.5
				c-5.2,0-9.5,4.3-9.5,9.5v0.4c3.1-0.6,6.3-0.9,9.5-0.9c3.2,0,6.4,0.3,9.5,0.9V-325z M410.5-325v0.6c3.1,0.7,6.1,1.6,9,2.8v-3.4
				c0-10.8-8.7-19.5-19.5-19.5c-10.8,0-19.5,8.7-19.5,19.5v3.4c2.9-1.2,5.9-2.2,9-2.8v-0.6c0-5.8,4.7-10.5,10.5-10.5
				S410.5-330.8,410.5-325z M420.5-325v3.9c3.2,1.4,6.2,3.2,9,5.2v-9c0-16.3-13.2-29.5-29.5-29.5c-16.3,0-29.5,13.2-29.5,29.5v9
				c2.8-2,5.8-3.8,9-5.2v-3.9c0-11.3,9.2-20.5,20.5-20.5C411.3-345.5,420.5-336.3,420.5-325z M439.5-375c0-21.8-17.7-39.5-39.5-39.5
				c-21.8,0-39.5,17.7-39.5,39.5v18.6c2.6-3.3,5.6-6.2,9-8.8v-9.8c0-16.8,13.7-30.5,30.5-30.5c16.8,0,30.5,13.7,30.5,30.5v9.8
				c3.4,2.5,6.4,5.5,9,8.8V-375z M409.5-375c0-5.2-4.3-9.5-9.5-9.5c-5.2,0-9.5,4.3-9.5,9.5v0.4c3.1-0.6,6.3-0.9,9.5-0.9
				c3.2,0,6.4,0.3,9.5,0.9V-375z M410.5-375v0.6c3.1,0.7,6.1,1.6,9,2.8v-3.4c0-10.8-8.7-19.5-19.5-19.5c-10.8,0-19.5,8.7-19.5,19.5
				v3.4c2.9-1.2,5.9-2.2,9-2.8v-0.6c0-5.8,4.7-10.5,10.5-10.5S410.5-380.8,410.5-375z M420.5-375v3.9c3.2,1.4,6.2,3.2,9,5.2v-9
				c0-16.3-13.2-29.5-29.5-29.5c-16.3,0-29.5,13.2-29.5,29.5v9c2.8-2,5.8-3.8,9-5.2v-3.9c0-11.3,9.2-20.5,20.5-20.5
				C411.3-395.5,420.5-386.3,420.5-375z M439.5-425c0-21.8-17.7-39.5-39.5-39.5c-21.8,0-39.5,17.7-39.5,39.5v18.6
				c2.6-3.3,5.6-6.2,9-8.8v-9.8c0-16.8,13.7-30.5,30.5-30.5c16.8,0,30.5,13.7,30.5,30.5v9.8c3.4,2.5,6.4,5.5,9,8.8V-425z M409.5-425
				c0-5.2-4.3-9.5-9.5-9.5c-5.2,0-9.5,4.3-9.5,9.5v0.4c3.1-0.6,6.3-0.9,9.5-0.9c3.2,0,6.4,0.3,9.5,0.9V-425z M410.5-425v0.6
				c3.1,0.7,6.1,1.6,9,2.8v-3.4c0-10.8-8.7-19.5-19.5-19.5c-10.8,0-19.5,8.7-19.5,19.5v3.4c2.9-1.2,5.9-2.2,9-2.8v-0.6
				c0-5.8,4.7-10.5,10.5-10.5S410.5-430.8,410.5-425z M420.5-425v3.9c3.2,1.4,6.2,3.2,9,5.2v-9c0-16.3-13.2-29.5-29.5-29.5
				c-16.3,0-29.5,13.2-29.5,29.5v9c2.8-2,5.8-3.8,9-5.2v-3.9c0-11.3,9.2-20.5,20.5-20.5C411.3-445.5,420.5-436.3,420.5-425z
				 M109.5-475c0-5.2-4.3-9.5-9.5-9.5c-5.2,0-9.5,4.3-9.5,9.5v0.4c3.1-0.6,6.3-0.9,9.5-0.9c3.2,0,6.4,0.3,9.5,0.9V-475z M110.5-475
				v0.6c3.1,0.7,6.1,1.6,9,2.8v-3.4c0-10.8-8.7-19.5-19.5-19.5s-19.5,8.7-19.5,19.5v3.4c2.9-1.2,5.9-2.2,9-2.8v-0.6
				c0-5.8,4.7-10.5,10.5-10.5C105.8-485.5,110.5-480.8,110.5-475z M120.5-475v3.9c3.2,1.4,6.2,3.2,9,5.2v-9
				c0-16.3-13.2-29.5-29.5-29.5S70.5-491.3,70.5-475v9c2.8-2,5.8-3.8,9-5.2v-3.9c0-11.3,9.2-20.5,20.5-20.5S120.5-486.3,120.5-475z
				 M130.5-475v9.8c3.4,2.5,6.4,5.5,9,8.8V-475c0-21.8-17.7-39.5-39.5-39.5S60.5-496.8,60.5-475v18.6c2.6-3.3,5.6-6.2,9-8.8v-9.8
				c0-16.8,13.7-30.5,30.5-30.5S130.5-491.8,130.5-475z M50.5-385c1.5-7.4,4.6-14.3,9-20.1V-425c0-22.3,18.2-40.5,40.5-40.5
				s40.5,18.2,40.5,40.5v19.9c4.4,5.9,7.5,12.7,9,20.1v-40c0-27.3-22.2-49.5-49.5-49.5S50.5-452.3,50.5-425V-385z M109.5-425
				c0-5.2-4.3-9.5-9.5-9.5c-5.2,0-9.5,4.3-9.5,9.5v0.4c3.1-0.6,6.3-0.9,9.5-0.9c3.2,0,6.4,0.3,9.5,0.9V-425z M110.5-425v0.6
				c3.1,0.7,6.1,1.6,9,2.8v-3.4c0-10.8-8.7-19.5-19.5-19.5s-19.5,8.7-19.5,19.5v3.4c2.9-1.2,5.9-2.2,9-2.8v-0.6
				c0-5.8,4.7-10.5,10.5-10.5C105.8-435.5,110.5-430.8,110.5-425z M120.5-425v3.9c3.2,1.4,6.2,3.2,9,5.2v-9
				c0-16.3-13.2-29.5-29.5-29.5S70.5-441.3,70.5-425v9c2.8-2,5.8-3.8,9-5.2v-3.9c0-11.3,9.2-20.5,20.5-20.5S120.5-436.3,120.5-425z
				 M130.5-425v9.8c3.4,2.5,6.4,5.5,9,8.8V-425c0-21.8-17.7-39.5-39.5-39.5S60.5-446.8,60.5-425v18.6c2.6-3.3,5.6-6.2,9-8.8v-9.8
				c0-16.8,13.7-30.5,30.5-30.5S130.5-441.8,130.5-425z M50.5-335c1.5-7.4,4.6-14.3,9-20.1V-375c0-22.3,18.2-40.5,40.5-40.5
				s40.5,18.2,40.5,40.5v19.9c4.4,5.9,7.5,12.7,9,20.1v-40c0-27.3-22.2-49.5-49.5-49.5S50.5-402.3,50.5-375V-335z M109.5-375
				c0-5.2-4.3-9.5-9.5-9.5c-5.2,0-9.5,4.3-9.5,9.5v0.4c3.1-0.6,6.3-0.9,9.5-0.9c3.2,0,6.4,0.3,9.5,0.9V-375z M110.5-375v0.6
				c3.1,0.7,6.1,1.6,9,2.8v-3.4c0-10.8-8.7-19.5-19.5-19.5s-19.5,8.7-19.5,19.5v3.4c2.9-1.2,5.9-2.2,9-2.8v-0.6
				c0-5.8,4.7-10.5,10.5-10.5C105.8-385.5,110.5-380.8,110.5-375z M120.5-375v3.9c3.2,1.4,6.2,3.2,9,5.2v-9
				c0-16.3-13.2-29.5-29.5-29.5S70.5-391.3,70.5-375v9c2.8-2,5.8-3.8,9-5.2v-3.9c0-11.3,9.2-20.5,20.5-20.5S120.5-386.3,120.5-375z
				 M130.5-375v9.8c3.4,2.5,6.4,5.5,9,8.8V-375c0-21.8-17.7-39.5-39.5-39.5S60.5-396.8,60.5-375v18.6c2.6-3.3,5.6-6.2,9-8.8v-9.8
				c0-16.8,13.7-30.5,30.5-30.5S130.5-391.8,130.5-375z M50.5-285c1.5-7.4,4.6-14.3,9-20.1V-325c0-22.3,18.2-40.5,40.5-40.5
				s40.5,18.2,40.5,40.5v19.9c4.4,5.9,7.5,12.7,9,20.1v-40c0-27.3-22.2-49.5-49.5-49.5S50.5-352.3,50.5-325V-285z M109.5-325
				c0-5.2-4.3-9.5-9.5-9.5c-5.2,0-9.5,4.3-9.5,9.5v0.4c3.1-0.6,6.3-0.9,9.5-0.9c3.2,0,6.4,0.3,9.5,0.9V-325z M110.5-325v0.6
				c3.1,0.7,6.1,1.6,9,2.8v-3.4c0-10.8-8.7-19.5-19.5-19.5s-19.5,8.7-19.5,19.5v3.4c2.9-1.2,5.9-2.2,9-2.8v-0.6
				c0-5.8,4.7-10.5,10.5-10.5C105.8-335.5,110.5-330.8,110.5-325z M120.5-325v3.9c3.2,1.4,6.2,3.2,9,5.2v-9
				c0-16.3-13.2-29.5-29.5-29.5S70.5-341.3,70.5-325v9c2.8-2,5.8-3.8,9-5.2v-3.9c0-11.3,9.2-20.5,20.5-20.5S120.5-336.3,120.5-325z
				 M130.5-325v9.8c3.4,2.5,6.4,5.5,9,8.8V-325c0-21.8-17.7-39.5-39.5-39.5S60.5-346.8,60.5-325v18.6c2.6-3.3,5.6-6.2,9-8.8v-9.8
				c0-16.8,13.7-30.5,30.5-30.5S130.5-341.8,130.5-325z M50.5-235c1.5-7.4,4.6-14.3,9-20.1V-275c0-22.3,18.2-40.5,40.5-40.5
				s40.5,18.2,40.5,40.5v19.9c4.4,5.9,7.5,12.7,9,20.1v-40c0-27.3-22.2-49.5-49.5-49.5S50.5-302.3,50.5-275V-235z M109.5-275
				c0-5.2-4.3-9.5-9.5-9.5c-5.2,0-9.5,4.3-9.5,9.5v0.4c3.1-0.6,6.3-0.9,9.5-0.9c3.2,0,6.4,0.3,9.5,0.9V-275z M110.5-275v0.6
				c3.1,0.7,6.1,1.6,9,2.8v-3.4c0-10.8-8.7-19.5-19.5-19.5s-19.5,8.7-19.5,19.5v3.4c2.9-1.2,5.9-2.2,9-2.8v-0.6
				c0-5.8,4.7-10.5,10.5-10.5C105.8-285.5,110.5-280.8,110.5-275z M120.5-275v3.9c3.2,1.4,6.2,3.2,9,5.2v-9
				c0-16.3-13.2-29.5-29.5-29.5S70.5-291.3,70.5-275v9c2.8-2,5.8-3.8,9-5.2v-3.9c0-11.3,9.2-20.5,20.5-20.5S120.5-286.3,120.5-275z
				 M130.5-275v9.8c3.4,2.5,6.4,5.5,9,8.8V-275c0-21.8-17.7-39.5-39.5-39.5S60.5-296.8,60.5-275v18.6c2.6-3.3,5.6-6.2,9-8.8v-9.8
				c0-16.8,13.7-30.5,30.5-30.5S130.5-291.8,130.5-275z M50.5-185c1.5-7.4,4.6-14.3,9-20.1V-225c0-22.3,18.2-40.5,40.5-40.5
				s40.5,18.2,40.5,40.5v19.9c4.4,5.9,7.5,12.7,9,20.1v-40c0-27.3-22.2-49.5-49.5-49.5S50.5-252.3,50.5-225V-185z M109.5-225
				c0-5.2-4.3-9.5-9.5-9.5c-5.2,0-9.5,4.3-9.5,9.5v0.4c3.1-0.6,6.3-0.9,9.5-0.9c3.2,0,6.4,0.3,9.5,0.9V-225z M110.5-225v0.6
				c3.1,0.7,6.1,1.6,9,2.8v-3.4c0-10.8-8.7-19.5-19.5-19.5s-19.5,8.7-19.5,19.5v3.4c2.9-1.2,5.9-2.2,9-2.8v-0.6
				c0-5.8,4.7-10.5,10.5-10.5C105.8-235.5,110.5-230.8,110.5-225z M120.5-225v3.9c3.2,1.4,6.2,3.2,9,5.2v-9
				c0-16.3-13.2-29.5-29.5-29.5S70.5-241.3,70.5-225v9c2.8-2,5.8-3.8,9-5.2v-3.9c0-11.3,9.2-20.5,20.5-20.5S120.5-236.3,120.5-225z
				 M130.5-225v9.8c3.4,2.5,6.4,5.5,9,8.8V-225c0-21.8-17.7-39.5-39.5-39.5S60.5-246.8,60.5-225v18.6c2.6-3.3,5.6-6.2,9-8.8v-9.8
				c0-16.8,13.7-30.5,30.5-30.5S130.5-241.8,130.5-225z M50.5-135c1.5-7.4,4.6-14.3,9-20.1V-175c0-22.3,18.2-40.5,40.5-40.5
				s40.5,18.2,40.5,40.5v19.9c4.4,5.9,7.5,12.7,9,20.1v-40c0-27.3-22.2-49.5-49.5-49.5S50.5-202.3,50.5-175V-135z M109.5-175
				c0-5.2-4.3-9.5-9.5-9.5c-5.2,0-9.5,4.3-9.5,9.5v0.4c3.1-0.6,6.3-0.9,9.5-0.9c3.2,0,6.4,0.3,9.5,0.9V-175z M110.5-175v0.6
				c3.1,0.7,6.1,1.6,9,2.8v-3.4c0-10.8-8.7-19.5-19.5-19.5s-19.5,8.7-19.5,19.5v3.4c2.9-1.2,5.9-2.2,9-2.8v-0.6
				c0-5.8,4.7-10.5,10.5-10.5C105.8-185.5,110.5-180.8,110.5-175z M120.5-175v3.9c3.2,1.4,6.2,3.2,9,5.2v-9
				c0-16.3-13.2-29.5-29.5-29.5S70.5-191.3,70.5-175v9c2.8-2,5.8-3.8,9-5.2v-3.9c0-11.3,9.2-20.5,20.5-20.5S120.5-186.3,120.5-175z
				 M130.5-175v9.8c3.4,2.5,6.4,5.5,9,8.8V-175c0-21.8-17.7-39.5-39.5-39.5S60.5-196.8,60.5-175v18.6c2.6-3.3,5.6-6.2,9-8.8v-9.8
				c0-16.8,13.7-30.5,30.5-30.5S130.5-191.8,130.5-175z M539.5-175c0-21.8-17.7-39.5-39.5-39.5s-39.5,17.7-39.5,39.5v18.6
				c2.6-3.3,5.6-6.2,9-8.8v-9.8c0-16.8,13.7-30.5,30.5-30.5s30.5,13.7,30.5,30.5v9.8c3.4,2.5,6.4,5.5,9,8.8V-175z M509.5-175
				c0-5.2-4.3-9.5-9.5-9.5c-5.2,0-9.5,4.3-9.5,9.5v0.4c3.1-0.6,6.3-0.9,9.5-0.9c3.2,0,6.4,0.3,9.5,0.9V-175z M510.5-175v0.6
				c3.1,0.7,6.1,1.6,9,2.8v-3.4c0-10.8-8.7-19.5-19.5-19.5c-10.8,0-19.5,8.7-19.5,19.5v3.4c2.9-1.2,5.9-2.2,9-2.8v-0.6
				c0-5.8,4.7-10.5,10.5-10.5C505.8-185.5,510.5-180.8,510.5-175z M520.5-175v3.9c3.2,1.4,6.2,3.2,9,5.2v-9
				c0-16.3-13.2-29.5-29.5-29.5s-29.5,13.2-29.5,29.5v9c2.8-2,5.8-3.8,9-5.2v-3.9c0-11.3,9.2-20.5,20.5-20.5
				C511.3-195.5,520.5-186.3,520.5-175z M539.5-225c0-21.8-17.7-39.5-39.5-39.5s-39.5,17.7-39.5,39.5v18.6c2.6-3.3,5.6-6.2,9-8.8
				v-9.8c0-16.8,13.7-30.5,30.5-30.5s30.5,13.7,30.5,30.5v9.8c3.4,2.5,6.4,5.5,9,8.8V-225z M509.5-225c0-5.2-4.3-9.5-9.5-9.5
				c-5.2,0-9.5,4.3-9.5,9.5v0.4c3.1-0.6,6.3-0.9,9.5-0.9c3.2,0,6.4,0.3,9.5,0.9V-225z M510.5-225v0.6c3.1,0.7,6.1,1.6,9,2.8v-3.4
				c0-10.8-8.7-19.5-19.5-19.5c-10.8,0-19.5,8.7-19.5,19.5v3.4c2.9-1.2,5.9-2.2,9-2.8v-0.6c0-5.8,4.7-10.5,10.5-10.5
				C505.8-235.5,510.5-230.8,510.5-225z M520.5-225v3.9c3.2,1.4,6.2,3.2,9,5.2v-9c0-16.3-13.2-29.5-29.5-29.5s-29.5,13.2-29.5,29.5
				v9c2.8-2,5.8-3.8,9-5.2v-3.9c0-11.3,9.2-20.5,20.5-20.5C511.3-245.5,520.5-236.3,520.5-225z M539.5-275
				c0-21.8-17.7-39.5-39.5-39.5s-39.5,17.7-39.5,39.5v18.6c2.6-3.3,5.6-6.2,9-8.8v-9.8c0-16.8,13.7-30.5,30.5-30.5
				s30.5,13.7,30.5,30.5v9.8c3.4,2.5,6.4,5.5,9,8.8V-275z M509.5-275c0-5.2-4.3-9.5-9.5-9.5c-5.2,0-9.5,4.3-9.5,9.5v0.4
				c3.1-0.6,6.3-0.9,9.5-0.9c3.2,0,6.4,0.3,9.5,0.9V-275z M510.5-275v0.6c3.1,0.7,6.1,1.6,9,2.8v-3.4c0-10.8-8.7-19.5-19.5-19.5
				c-10.8,0-19.5,8.7-19.5,19.5v3.4c2.9-1.2,5.9-2.2,9-2.8v-0.6c0-5.8,4.7-10.5,10.5-10.5C505.8-285.5,510.5-280.8,510.5-275z
				 M520.5-275v3.9c3.2,1.4,6.2,3.2,9,5.2v-9c0-16.3-13.2-29.5-29.5-29.5s-29.5,13.2-29.5,29.5v9c2.8-2,5.8-3.8,9-5.2v-3.9
				c0-11.3,9.2-20.5,20.5-20.5C511.3-295.5,520.5-286.3,520.5-275z M539.5-325c0-21.8-17.7-39.5-39.5-39.5s-39.5,17.7-39.5,39.5
				v18.6c2.6-3.3,5.6-6.2,9-8.8v-9.8c0-16.8,13.7-30.5,30.5-30.5s30.5,13.7,30.5,30.5v9.8c3.4,2.5,6.4,5.5,9,8.8V-325z M509.5-325
				c0-5.2-4.3-9.5-9.5-9.5c-5.2,0-9.5,4.3-9.5,9.5v0.4c3.1-0.6,6.3-0.9,9.5-0.9c3.2,0,6.4,0.3,9.5,0.9V-325z M510.5-325v0.6
				c3.1,0.7,6.1,1.6,9,2.8v-3.4c0-10.8-8.7-19.5-19.5-19.5c-10.8,0-19.5,8.7-19.5,19.5v3.4c2.9-1.2,5.9-2.2,9-2.8v-0.6
				c0-5.8,4.7-10.5,10.5-10.5C505.8-335.5,510.5-330.8,510.5-325z M520.5-325v3.9c3.2,1.4,6.2,3.2,9,5.2v-9
				c0-16.3-13.2-29.5-29.5-29.5s-29.5,13.2-29.5,29.5v9c2.8-2,5.8-3.8,9-5.2v-3.9c0-11.3,9.2-20.5,20.5-20.5
				C511.3-345.5,520.5-336.3,520.5-325z M539.5-375c0-21.8-17.7-39.5-39.5-39.5s-39.5,17.7-39.5,39.5v18.6c2.6-3.3,5.6-6.2,9-8.8
				v-9.8c0-16.8,13.7-30.5,30.5-30.5s30.5,13.7,30.5,30.5v9.8c3.4,2.5,6.4,5.5,9,8.8V-375z M509.5-375c0-5.2-4.3-9.5-9.5-9.5
				c-5.2,0-9.5,4.3-9.5,9.5v0.4c3.1-0.6,6.3-0.9,9.5-0.9c3.2,0,6.4,0.3,9.5,0.9V-375z M510.5-375v0.6c3.1,0.7,6.1,1.6,9,2.8v-3.4
				c0-10.8-8.7-19.5-19.5-19.5c-10.8,0-19.5,8.7-19.5,19.5v3.4c2.9-1.2,5.9-2.2,9-2.8v-0.6c0-5.8,4.7-10.5,10.5-10.5
				C505.8-385.5,510.5-380.8,510.5-375z M520.5-375v3.9c3.2,1.4,6.2,3.2,9,5.2v-9c0-16.3-13.2-29.5-29.5-29.5s-29.5,13.2-29.5,29.5
				v9c2.8-2,5.8-3.8,9-5.2v-3.9c0-11.3,9.2-20.5,20.5-20.5C511.3-395.5,520.5-386.3,520.5-375z M539.5-425
				c0-21.8-17.7-39.5-39.5-39.5s-39.5,17.7-39.5,39.5v18.6c2.6-3.3,5.6-6.2,9-8.8v-9.8c0-16.8,13.7-30.5,30.5-30.5
				s30.5,13.7,30.5,30.5v9.8c3.4,2.5,6.4,5.5,9,8.8V-425z M509.5-425c0-5.2-4.3-9.5-9.5-9.5c-5.2,0-9.5,4.3-9.5,9.5v0.4
				c3.1-0.6,6.3-0.9,9.5-0.9c3.2,0,6.4,0.3,9.5,0.9V-425z M510.5-425v0.6c3.1,0.7,6.1,1.6,9,2.8v-3.4c0-10.8-8.7-19.5-19.5-19.5
				c-10.8,0-19.5,8.7-19.5,19.5v3.4c2.9-1.2,5.9-2.2,9-2.8v-0.6c0-5.8,4.7-10.5,10.5-10.5C505.8-435.5,510.5-430.8,510.5-425z
				 M520.5-425v3.9c3.2,1.4,6.2,3.2,9,5.2v-9c0-16.3-13.2-29.5-29.5-29.5s-29.5,13.2-29.5,29.5v9c2.8-2,5.8-3.8,9-5.2v-3.9
				c0-11.3,9.2-20.5,20.5-20.5C511.3-445.5,520.5-436.3,520.5-425z M539.5-475c0-21.8-17.7-39.5-39.5-39.5s-39.5,17.7-39.5,39.5
				v18.6c2.6-3.3,5.6-6.2,9-8.8v-9.8c0-16.8,13.7-30.5,30.5-30.5s30.5,13.7,30.5,30.5v9.8c3.4,2.5,6.4,5.5,9,8.8V-475z M509.5-475
				c0-5.2-4.3-9.5-9.5-9.5c-5.2,0-9.5,4.3-9.5,9.5v0.4c3.1-0.6,6.3-0.9,9.5-0.9c3.2,0,6.4,0.3,9.5,0.9V-475z M510.5-475v0.6
				c3.1,0.7,6.1,1.6,9,2.8v-3.4c0-10.8-8.7-19.5-19.5-19.5c-10.8,0-19.5,8.7-19.5,19.5v3.4c2.9-1.2,5.9-2.2,9-2.8v-0.6
				c0-5.8,4.7-10.5,10.5-10.5C505.8-485.5,510.5-480.8,510.5-475z M520.5-475v3.9c3.2,1.4,6.2,3.2,9,5.2v-9
				c0-16.3-13.2-29.5-29.5-29.5s-29.5,13.2-29.5,29.5v9c2.8-2,5.8-3.8,9-5.2v-3.9c0-11.3,9.2-20.5,20.5-20.5
				C511.3-495.5,520.5-486.3,520.5-475z M539.5-525c0-21.8-17.7-39.5-39.5-39.5s-39.5,17.7-39.5,39.5v18.6c2.6-3.3,5.6-6.2,9-8.8
				v-9.8c0-16.8,13.7-30.5,30.5-30.5s30.5,13.7,30.5,30.5v9.8c3.4,2.5,6.4,5.5,9,8.8V-525z M509.5-525c0-5.2-4.3-9.5-9.5-9.5
				c-5.2,0-9.5,4.3-9.5,9.5v0.4c3.1-0.6,6.3-0.9,9.5-0.9c3.2,0,6.4,0.3,9.5,0.9V-525z M510.5-525v0.6c3.1,0.7,6.1,1.6,9,2.8v-3.4
				c0-10.8-8.7-19.5-19.5-19.5c-10.8,0-19.5,8.7-19.5,19.5v3.4c2.9-1.2,5.9-2.2,9-2.8v-0.6c0-5.8,4.7-10.5,10.5-10.5
				C505.8-535.5,510.5-530.8,510.5-525z M520.5-525v3.9c3.2,1.4,6.2,3.2,9,5.2v-9c0-16.3-13.2-29.5-29.5-29.5s-29.5,13.2-29.5,29.5
				v9c2.8-2,5.8-3.8,9-5.2v-3.9c0-11.3,9.2-20.5,20.5-20.5C511.3-545.5,520.5-536.3,520.5-525z M380.5-571.6c2.9-1.2,5.9-2.2,9-2.8
				v-0.6c0-5.8,4.7-10.5,10.5-10.5s10.5,4.7,10.5,10.5v0.6c3.1,0.7,6.1,1.6,9,2.8v-3.4c0-10.8-8.7-19.5-19.5-19.5
				c-10.8,0-19.5,8.7-19.5,19.5V-571.6z M409.5-575c0-5.2-4.3-9.5-9.5-9.5c-5.2,0-9.5,4.3-9.5,9.5v0.4c3.1-0.6,6.3-0.9,9.5-0.9
				c3.2,0,6.4,0.3,9.5,0.9V-575z M350.5-525v40c1.5-7.4,4.6-14.3,9-20.1V-525c0-22.3,18.2-40.5,40.5-40.5
				c22.3,0,40.5,18.2,40.5,40.5v19.9c4.4,5.9,7.5,12.7,9,20.1v-40c0-27.3-22.2-49.5-49.5-49.5C372.7-574.5,350.5-552.3,350.5-525z
				 M280.5-571.6c2.9-1.2,5.9-2.2,9-2.8v-0.6c0-5.8,4.7-10.5,10.5-10.5s10.5,4.7,10.5,10.5v0.6c3.1,0.7,6.1,1.6,9,2.8v-3.4
				c0-10.8-8.7-19.5-19.5-19.5c-10.8,0-19.5,8.7-19.5,19.5V-571.6z M309.5-575c0-5.2-4.3-9.5-9.5-9.5c-5.2,0-9.5,4.3-9.5,9.5v0.4
				c3.1-0.6,6.3-0.9,9.5-0.9c3.2,0,6.4,0.3,9.5,0.9V-575z M250.5-525v40c1.5-7.4,4.6-14.3,9-20.1V-525c0-22.3,18.2-40.5,40.5-40.5
				c22.3,0,40.5,18.2,40.5,40.5v19.9c4.4,5.9,7.5,12.7,9,20.1v-40c0-27.3-22.2-49.5-49.5-49.5C272.7-574.5,250.5-552.3,250.5-525z
				 M180.5-571.6c2.9-1.2,5.9-2.2,9-2.8v-0.6c0-5.8,4.7-10.5,10.5-10.5c5.8,0,10.5,4.7,10.5,10.5v0.6c3.1,0.7,6.1,1.6,9,2.8v-3.4
				c0-10.8-8.7-19.5-19.5-19.5c-10.8,0-19.5,8.7-19.5,19.5V-571.6z M209.5-575c0-5.2-4.3-9.5-9.5-9.5c-5.2,0-9.5,4.3-9.5,9.5v0.4
				c3.1-0.6,6.3-0.9,9.5-0.9s6.4,0.3,9.5,0.9V-575z M150.5-525v40c1.5-7.4,4.6-14.3,9-20.1V-525c0-22.3,18.2-40.5,40.5-40.5
				s40.5,18.2,40.5,40.5v19.9c4.4,5.9,7.5,12.7,9,20.1v-40c0-27.3-22.2-49.5-49.5-49.5S150.5-552.3,150.5-525z M80.5-571.6
				c2.9-1.2,5.9-2.2,9-2.8v-0.6c0-5.8,4.7-10.5,10.5-10.5c5.8,0,10.5,4.7,10.5,10.5v0.6c3.1,0.7,6.1,1.6,9,2.8v-3.4
				c0-10.8-8.7-19.5-19.5-19.5s-19.5,8.7-19.5,19.5V-571.6z M109.5-575c0-5.2-4.3-9.5-9.5-9.5c-5.2,0-9.5,4.3-9.5,9.5v0.4
				c3.1-0.6,6.3-0.9,9.5-0.9c3.2,0,6.4,0.3,9.5,0.9V-575z M50.5-525v40c1.5-7.4,4.6-14.3,9-20.1V-525c0-22.3,18.2-40.5,40.5-40.5
				s40.5,18.2,40.5,40.5v19.9c4.4,5.9,7.5,12.7,9,20.1v-40c0-27.3-22.2-49.5-49.5-49.5S50.5-552.3,50.5-525z M109.5-74.6V-75
				c0-5.2-4.3-9.5-9.5-9.5c-5.2,0-9.5,4.3-9.5,9.5v0.4c3.1-0.6,6.3-0.9,9.5-0.9C103.2-75.5,106.4-75.2,109.5-74.6z M119.5-71.6V-75
				c0-10.8-8.7-19.5-19.5-19.5S80.5-85.8,80.5-75v3.4c2.9-1.2,5.9-2.2,9-2.8V-75c0-5.8,4.7-10.5,10.5-10.5c5.8,0,10.5,4.7,10.5,10.5
				v0.6C113.6-73.7,116.6-72.8,119.5-71.6z M129.5-66v-9c0-16.3-13.2-29.5-29.5-29.5S70.5-91.3,70.5-75v9c2.8-2,5.8-3.8,9-5.2V-75
				c0-11.3,9.2-20.5,20.5-20.5s20.5,9.2,20.5,20.5v3.9C123.7-69.7,126.7-68,129.5-66z M139.5-56.4V-75c0-21.8-17.7-39.5-39.5-39.5
				S60.5-96.8,60.5-75v18.6c2.6-3.3,5.6-6.2,9-8.8V-75c0-16.8,13.7-30.5,30.5-30.5s30.5,13.7,30.5,30.5v9.8
				C133.9-62.7,136.9-59.7,139.5-56.4z M149.5-35v-40c0-27.3-22.2-49.5-49.5-49.5S50.5-102.3,50.5-75v40c1.5-7.4,4.6-14.3,9-20.1
				V-75c0-22.3,18.2-40.5,40.5-40.5s40.5,18.2,40.5,40.5v19.9C144.9-49.3,148-42.4,149.5-35z M209.5-74.6V-75c0-5.2-4.3-9.5-9.5-9.5
				c-5.2,0-9.5,4.3-9.5,9.5v0.4c3.1-0.6,6.3-0.9,9.5-0.9S206.4-75.2,209.5-74.6z M219.5-71.6V-75c0-10.8-8.7-19.5-19.5-19.5
				c-10.8,0-19.5,8.7-19.5,19.5v3.4c2.9-1.2,5.9-2.2,9-2.8V-75c0-5.8,4.7-10.5,10.5-10.5c5.8,0,10.5,4.7,10.5,10.5v0.6
				C213.6-73.7,216.6-72.8,219.5-71.6z M229.5-66v-9c0-16.3-13.2-29.5-29.5-29.5S170.5-91.3,170.5-75v9c2.8-2,5.8-3.8,9-5.2V-75
				c0-11.3,9.2-20.5,20.5-20.5c11.3,0,20.5,9.2,20.5,20.5v3.9C223.7-69.7,226.7-68,229.5-66z M239.5-56.4V-75
				c0-21.8-17.7-39.5-39.5-39.5S160.5-96.8,160.5-75v18.6c2.6-3.3,5.6-6.2,9-8.8V-75c0-16.8,13.7-30.5,30.5-30.5
				s30.5,13.7,30.5,30.5v9.8C233.9-62.7,236.9-59.7,239.5-56.4z M249.5-35v-40c0-27.3-22.2-49.5-49.5-49.5s-49.5,22.2-49.5,49.5v40
				c1.5-7.4,4.6-14.3,9-20.1V-75c0-22.3,18.2-40.5,40.5-40.5s40.5,18.2,40.5,40.5v19.9C244.9-49.3,248-42.4,249.5-35z M309.5-74.6
				V-75c0-5.2-4.3-9.5-9.5-9.5c-5.2,0-9.5,4.3-9.5,9.5v0.4c3.1-0.6,6.3-0.9,9.5-0.9C303.2-75.5,306.4-75.2,309.5-74.6z M319.5-71.6
				V-75c0-10.8-8.7-19.5-19.5-19.5c-10.8,0-19.5,8.7-19.5,19.5v3.4c2.9-1.2,5.9-2.2,9-2.8V-75c0-5.8,4.7-10.5,10.5-10.5
				s10.5,4.7,10.5,10.5v0.6C313.6-73.7,316.6-72.8,319.5-71.6z M329.5-66v-9c0-16.3-13.2-29.5-29.5-29.5
				c-16.3,0-29.5,13.2-29.5,29.5v9c2.8-2,5.8-3.8,9-5.2V-75c0-11.3,9.2-20.5,20.5-20.5c11.3,0,20.5,9.2,20.5,20.5v3.9
				C323.7-69.7,326.7-68,329.5-66z M339.5-56.4V-75c0-21.8-17.7-39.5-39.5-39.5S260.5-96.8,260.5-75v18.6c2.6-3.3,5.6-6.2,9-8.8V-75
				c0-16.8,13.7-30.5,30.5-30.5c16.8,0,30.5,13.7,30.5,30.5v9.8C333.9-62.7,336.9-59.7,339.5-56.4z M349.5-35v-40
				c0-27.3-22.2-49.5-49.5-49.5c-27.3,0-49.5,22.2-49.5,49.5v40c1.5-7.4,4.6-14.3,9-20.1V-75c0-22.3,18.2-40.5,40.5-40.5
				c22.3,0,40.5,18.2,40.5,40.5v19.9C344.9-49.3,348-42.4,349.5-35z M409.5-74.6V-75c0-5.2-4.3-9.5-9.5-9.5c-5.2,0-9.5,4.3-9.5,9.5
				v0.4c3.1-0.6,6.3-0.9,9.5-0.9C403.2-75.5,406.4-75.2,409.5-74.6z M419.5-71.6V-75c0-10.8-8.7-19.5-19.5-19.5
				c-10.8,0-19.5,8.7-19.5,19.5v3.4c2.9-1.2,5.9-2.2,9-2.8V-75c0-5.8,4.7-10.5,10.5-10.5s10.5,4.7,10.5,10.5v0.6
				C413.6-73.7,416.6-72.8,419.5-71.6z M429.5-66v-9c0-16.3-13.2-29.5-29.5-29.5c-16.3,0-29.5,13.2-29.5,29.5v9c2.8-2,5.8-3.8,9-5.2
				V-75c0-11.3,9.2-20.5,20.5-20.5c11.3,0,20.5,9.2,20.5,20.5v3.9C423.7-69.7,426.7-68,429.5-66z M439.5-56.4V-75
				c0-21.8-17.7-39.5-39.5-39.5c-21.8,0-39.5,17.7-39.5,39.5v18.6c2.6-3.3,5.6-6.2,9-8.8V-75c0-16.8,13.7-30.5,30.5-30.5
				c16.8,0,30.5,13.7,30.5,30.5v9.8C433.9-62.7,436.9-59.7,439.5-56.4z M449.5-35v-40c0-27.3-22.2-49.5-49.5-49.5
				c-27.3,0-49.5,22.2-49.5,49.5v40c1.5-7.4,4.6-14.3,9-20.1V-75c0-22.3,18.2-40.5,40.5-40.5c22.3,0,40.5,18.2,40.5,40.5v19.9
				C444.9-49.3,448-42.4,449.5-35z M509.5-74.6V-75c0-5.2-4.3-9.5-9.5-9.5c-5.2,0-9.5,4.3-9.5,9.5v0.4c3.1-0.6,6.3-0.9,9.5-0.9
				C503.2-75.5,506.4-75.2,509.5-74.6z M519.5-71.6V-75c0-10.8-8.7-19.5-19.5-19.5c-10.8,0-19.5,8.7-19.5,19.5v3.4
				c2.9-1.2,5.9-2.2,9-2.8V-75c0-5.8,4.7-10.5,10.5-10.5c5.8,0,10.5,4.7,10.5,10.5v0.6C513.6-73.7,516.6-72.8,519.5-71.6z M529.5-66
				v-9c0-16.3-13.2-29.5-29.5-29.5S470.5-91.3,470.5-75v9c2.8-2,5.8-3.8,9-5.2V-75c0-11.3,9.2-20.5,20.5-20.5
				c11.3,0,20.5,9.2,20.5,20.5v3.9C523.7-69.7,526.7-68,529.5-66z M539.5-56.4V-75c0-21.8-17.7-39.5-39.5-39.5S460.5-96.8,460.5-75
				v18.6c2.6-3.3,5.6-6.2,9-8.8V-75c0-16.8,13.7-30.5,30.5-30.5s30.5,13.7,30.5,30.5v9.8C533.9-62.7,536.9-59.7,539.5-56.4z
				 M549.5-35v-40c0-27.3-22.2-49.5-49.5-49.5c-27.3,0-49.5,22.2-49.5,49.5v40c1.5-7.4,4.6-14.3,9-20.1V-75
				c0-22.3,18.2-40.5,40.5-40.5c22.3,0,40.5,18.2,40.5,40.5v19.9C544.9-49.3,548-42.4,549.5-35z"/>
			<path class="st1" d="M40.5-25c0-22.3-18.2-40.5-40.5-40.5v1c21.8,0,39.5,17.7,39.5,39.5v18.6c-2.6-3.3-5.6-6.2-9-8.8V-25
				c0-16.8-13.7-30.5-30.5-30.5v1c16.3,0,29.5,13.2,29.5,29.5v9c-2.8-2-5.8-3.8-9-5.2V-25c0-11.3-9.2-20.5-20.5-20.5v1
				c10.8,0,19.5,8.7,19.5,19.5v3.4c-2.9-1.2-5.9-2.2-9-2.8V-25c0-5.8-4.7-10.5-10.5-10.5v1c5.2,0,9.5,4.3,9.5,9.5v0.4
				c-3.1-0.6-6.3-0.9-9.5-0.9v1c18.2,0,34.1,9.9,42.7,24.5h1.2c-1-1.8-2.1-3.5-3.4-5.1V-25z"/>
			<path class="st1" d="M140.5-5.1c1.2,1.6,2.3,3.4,3.4,5.1h-1.2c-8.6-14.6-24.5-24.5-42.7-24.5S65.9-14.6,57.3,0h-1.2
				c1-1.8,2.1-3.5,3.4-5.1V-25c0-22.3,18.2-40.5,40.5-40.5s40.5,18.2,40.5,40.5V-5.1z M109.5-24.6V-25c0-5.2-4.3-9.5-9.5-9.5
				c-5.2,0-9.5,4.3-9.5,9.5v0.4c3.1-0.6,6.3-0.9,9.5-0.9C103.2-25.5,106.4-25.2,109.5-24.6z M119.5-21.6V-25
				c0-10.8-8.7-19.5-19.5-19.5S80.5-35.8,80.5-25v3.4c2.9-1.2,5.9-2.2,9-2.8V-25c0-5.8,4.7-10.5,10.5-10.5c5.8,0,10.5,4.7,10.5,10.5
				v0.6C113.6-23.7,116.6-22.8,119.5-21.6z M129.5-16v-9c0-16.3-13.2-29.5-29.5-29.5S70.5-41.3,70.5-25v9c2.8-2,5.8-3.8,9-5.2V-25
				c0-11.3,9.2-20.5,20.5-20.5s20.5,9.2,20.5,20.5v3.9C123.7-19.7,126.7-18,129.5-16z M139.5-6.4V-25c0-21.8-17.7-39.5-39.5-39.5
				S60.5-46.8,60.5-25v18.6c2.6-3.3,5.6-6.2,9-8.8V-25c0-16.8,13.7-30.5,30.5-30.5s30.5,13.7,30.5,30.5v9.8
				C133.9-12.7,136.9-9.7,139.5-6.4z"/>
			<path class="st1" d="M240.5-5.1c1.2,1.6,2.3,3.4,3.4,5.1h-1.2c-8.6-14.6-24.5-24.5-42.7-24.5S165.9-14.6,157.3,0h-1.2
				c1-1.8,2.1-3.5,3.4-5.1V-25c0-22.3,18.2-40.5,40.5-40.5s40.5,18.2,40.5,40.5V-5.1z M209.5-24.6V-25c0-5.2-4.3-9.5-9.5-9.5
				c-5.2,0-9.5,4.3-9.5,9.5v0.4c3.1-0.6,6.3-0.9,9.5-0.9S206.4-25.2,209.5-24.6z M219.5-21.6V-25c0-10.8-8.7-19.5-19.5-19.5
				c-10.8,0-19.5,8.7-19.5,19.5v3.4c2.9-1.2,5.9-2.2,9-2.8V-25c0-5.8,4.7-10.5,10.5-10.5c5.8,0,10.5,4.7,10.5,10.5v0.6
				C213.6-23.7,216.6-22.8,219.5-21.6z M229.5-16v-9c0-16.3-13.2-29.5-29.5-29.5S170.5-41.3,170.5-25v9c2.8-2,5.8-3.8,9-5.2V-25
				c0-11.3,9.2-20.5,20.5-20.5c11.3,0,20.5,9.2,20.5,20.5v3.9C223.7-19.7,226.7-18,229.5-16z M239.5-6.4V-25
				c0-21.8-17.7-39.5-39.5-39.5S160.5-46.8,160.5-25v18.6c2.6-3.3,5.6-6.2,9-8.8V-25c0-16.8,13.7-30.5,30.5-30.5
				s30.5,13.7,30.5,30.5v9.8C233.9-12.7,236.9-9.7,239.5-6.4z"/>
			<path class="st1" d="M340.5-5.1c1.2,1.6,2.3,3.4,3.4,5.1h-1.2c-8.6-14.6-24.5-24.5-42.7-24.5S265.9-14.6,257.3,0h-1.2
				c1-1.8,2.1-3.5,3.4-5.1V-25c0-22.3,18.2-40.5,40.5-40.5c22.3,0,40.5,18.2,40.5,40.5V-5.1z M309.5-24.6V-25c0-5.2-4.3-9.5-9.5-9.5
				c-5.2,0-9.5,4.3-9.5,9.5v0.4c3.1-0.6,6.3-0.9,9.5-0.9C303.2-25.5,306.4-25.2,309.5-24.6z M319.5-21.6V-25
				c0-10.8-8.7-19.5-19.5-19.5c-10.8,0-19.5,8.7-19.5,19.5v3.4c2.9-1.2,5.9-2.2,9-2.8V-25c0-5.8,4.7-10.5,10.5-10.5
				s10.5,4.7,10.5,10.5v0.6C313.6-23.7,316.6-22.8,319.5-21.6z M329.5-16v-9c0-16.3-13.2-29.5-29.5-29.5
				c-16.3,0-29.5,13.2-29.5,29.5v9c2.8-2,5.8-3.8,9-5.2V-25c0-11.3,9.2-20.5,20.5-20.5c11.3,0,20.5,9.2,20.5,20.5v3.9
				C323.7-19.7,326.7-18,329.5-16z M339.5-6.4V-25c0-21.8-17.7-39.5-39.5-39.5S260.5-46.8,260.5-25v18.6c2.6-3.3,5.6-6.2,9-8.8V-25
				c0-16.8,13.7-30.5,30.5-30.5c16.8,0,30.5,13.7,30.5,30.5v9.8C333.9-12.7,336.9-9.7,339.5-6.4z"/>
			<path class="st1" d="M440.5-5.1c1.2,1.6,2.3,3.4,3.4,5.1h-1.2c-8.6-14.6-24.5-24.5-42.7-24.5c-18.2,0-34.1,9.9-42.7,24.5h-1.2
				c1-1.8,2.1-3.5,3.4-5.1V-25c0-22.3,18.2-40.5,40.5-40.5c22.3,0,40.5,18.2,40.5,40.5V-5.1z M409.5-24.6V-25c0-5.2-4.3-9.5-9.5-9.5
				c-5.2,0-9.5,4.3-9.5,9.5v0.4c3.1-0.6,6.3-0.9,9.5-0.9C403.2-25.5,406.4-25.2,409.5-24.6z M419.5-21.6V-25
				c0-10.8-8.7-19.5-19.5-19.5c-10.8,0-19.5,8.7-19.5,19.5v3.4c2.9-1.2,5.9-2.2,9-2.8V-25c0-5.8,4.7-10.5,10.5-10.5
				s10.5,4.7,10.5,10.5v0.6C413.6-23.7,416.6-22.8,419.5-21.6z M429.5-16v-9c0-16.3-13.2-29.5-29.5-29.5
				c-16.3,0-29.5,13.2-29.5,29.5v9c2.8-2,5.8-3.8,9-5.2V-25c0-11.3,9.2-20.5,20.5-20.5c11.3,0,20.5,9.2,20.5,20.5v3.9
				C423.7-19.7,426.7-18,429.5-16z M439.5-6.4V-25c0-21.8-17.7-39.5-39.5-39.5c-21.8,0-39.5,17.7-39.5,39.5v18.6
				c2.6-3.3,5.6-6.2,9-8.8V-25c0-16.8,13.7-30.5,30.5-30.5c16.8,0,30.5,13.7,30.5,30.5v9.8C433.9-12.7,436.9-9.7,439.5-6.4z"/>
			<path class="st1" d="M540.5-5.1c1.2,1.6,2.3,3.4,3.4,5.1h-1.2c-8.6-14.6-24.5-24.5-42.7-24.5c-18.2,0-34.1,9.9-42.7,24.5h-1.2
				c1-1.8,2.1-3.5,3.4-5.1V-25c0-22.3,18.2-40.5,40.5-40.5c22.3,0,40.5,18.2,40.5,40.5V-5.1z M509.5-24.6V-25c0-5.2-4.3-9.5-9.5-9.5
				c-5.2,0-9.5,4.3-9.5,9.5v0.4c3.1-0.6,6.3-0.9,9.5-0.9C503.2-25.5,506.4-25.2,509.5-24.6z M519.5-21.6V-25
				c0-10.8-8.7-19.5-19.5-19.5c-10.8,0-19.5,8.7-19.5,19.5v3.4c2.9-1.2,5.9-2.2,9-2.8V-25c0-5.8,4.7-10.5,10.5-10.5
				c5.8,0,10.5,4.7,10.5,10.5v0.6C513.6-23.7,516.6-22.8,519.5-21.6z M529.5-16v-9c0-16.3-13.2-29.5-29.5-29.5S470.5-41.3,470.5-25
				v9c2.8-2,5.8-3.8,9-5.2V-25c0-11.3,9.2-20.5,20.5-20.5c11.3,0,20.5,9.2,20.5,20.5v3.9C523.7-19.7,526.7-18,529.5-16z M539.5-6.4
				V-25c0-21.8-17.7-39.5-39.5-39.5S460.5-46.8,460.5-25v18.6c2.6-3.3,5.6-6.2,9-8.8V-25c0-16.8,13.7-30.5,30.5-30.5
				s30.5,13.7,30.5,30.5v9.8C533.9-12.7,536.9-9.7,539.5-6.4z"/>
			<path class="st1" d="M559.5-25v19.9c-1.2,1.6-2.3,3.4-3.4,5.1h1.2c8.6-14.6,24.5-24.5,42.7-24.5v-1c-3.2,0-6.4,0.3-9.5,0.9V-25
				c0-5.2,4.3-9.5,9.5-9.5v-1c-5.8,0-10.5,4.7-10.5,10.5v0.6c-3.1,0.7-6.1,1.6-9,2.8V-25c0-10.8,8.7-19.5,19.5-19.5v-1
				c-11.3,0-20.5,9.2-20.5,20.5v3.9c-3.2,1.4-6.2,3.2-9,5.2v-9c0-16.3,13.2-29.5,29.5-29.5v-1c-16.8,0-30.5,13.7-30.5,30.5v9.8
				c-3.4,2.5-6.4,5.5-9,8.8V-25c0-21.8,17.7-39.5,39.5-39.5v-1C577.7-65.5,559.5-47.3,559.5-25z"/>
			<path class="st1" d="M0-15.5v1c12.3,0,23.3,5.7,30.6,14.5h1.3C24.4-9.4,12.9-15.5,0-15.5z"/>
			<path class="st1" d="M0-4.5c5.7,0,11.1,1.7,15.6,4.5h1.8C12.5-3.5,6.5-5.5,0-5.5V-4.5z"/>
			<path class="st1" d="M100-15.5C87.1-15.5,75.6-9.4,68.2,0h1.3c7.2-8.8,18.3-14.5,30.6-14.5S123.3-8.8,130.6,0h1.3
				C124.4-9.4,112.9-15.5,100-15.5z"/>
			<path class="st1" d="M82.6,0h1.8c4.5-2.8,9.9-4.5,15.6-4.5c5.7,0,11.1,1.7,15.6,4.5h1.8c-4.9-3.5-11-5.5-17.4-5.5
				C93.5-5.5,87.5-3.5,82.6,0z"/>
			<path class="st1" d="M200-15.5c-12.9,0-24.4,6.1-31.8,15.5h1.3c7.2-8.8,18.3-14.5,30.6-14.5c12.3,0,23.3,5.7,30.6,14.5h1.3
				C224.4-9.4,212.9-15.5,200-15.5z"/>
			<path class="st1" d="M182.6,0h1.8c4.5-2.8,9.9-4.5,15.6-4.5c5.7,0,11.1,1.7,15.6,4.5h1.8c-4.9-3.5-11-5.5-17.4-5.5
				C193.5-5.5,187.5-3.5,182.6,0z"/>
			<path class="st1" d="M300-15.5c-12.9,0-24.4,6.1-31.8,15.5h1.3c7.2-8.8,18.3-14.5,30.6-14.5S323.3-8.8,330.6,0h1.3
				C324.4-9.4,312.9-15.5,300-15.5z"/>
			<path class="st1" d="M282.6,0h1.8c4.5-2.8,9.9-4.5,15.6-4.5s11.1,1.7,15.6,4.5h1.8c-4.9-3.5-11-5.5-17.4-5.5S287.5-3.5,282.6,0z"
				/>
			<path class="st1" d="M400-15.5c-12.9,0-24.4,6.1-31.8,15.5h1.3c7.2-8.8,18.3-14.5,30.6-14.5c12.3,0,23.3,5.7,30.6,14.5h1.3
				C424.4-9.4,412.9-15.5,400-15.5z"/>
			<path class="st1" d="M382.6,0h1.8c4.5-2.8,9.9-4.5,15.6-4.5s11.1,1.7,15.6,4.5h1.8c-4.9-3.5-11-5.5-17.4-5.5
				C393.5-5.5,387.5-3.5,382.6,0z"/>
			<path class="st1" d="M500-15.5c-12.9,0-24.4,6.1-31.8,15.5h1.3c7.2-8.8,18.3-14.5,30.6-14.5c12.3,0,23.3,5.7,30.6,14.5h1.3
				C524.4-9.4,512.9-15.5,500-15.5z"/>
			<path class="st1" d="M482.6,0h1.8c4.5-2.8,9.9-4.5,15.6-4.5c5.7,0,11.1,1.7,15.6,4.5h1.8c-4.9-3.5-11-5.5-17.4-5.5
				S487.5-3.5,482.6,0z"/>
			<path class="st1" d="M568.2,0h1.3c7.2-8.8,18.3-14.5,30.6-14.5v-1C587.1-15.5,575.6-9.4,568.2,0z"/>
			<path class="st1" d="M584.4,0c4.5-2.8,9.9-4.5,15.6-4.5v-1c-6.5,0-12.5,2-17.4,5.5H584.4z"/>
		</g>
	</g>
</pattern>
<g>
	<pattern  id="SVGID_1_" xlink:href="#New_Pattern_Swatch_2" patternTransform="matrix(1 0 0 1 -185 -507)">
	</pattern>
	<circle class="st2" cx="180" cy="180.9" r="175"/>
	<circle class="st3" cx="180" cy="180.9" r="142.5"/>
	<circle class="st4" cx="180" cy="180.9" r="135.4"/>
	<g>
		<path class="st3" d="M178.3,109.7c-1.5-1.4-3.2-2.5-5-3.3c-1.2-0.5-2.4-0.8-3.6-1.1c-35.2-7.2-58.9,29.5-61.1,59.9
			c-1.9,26.7,10.9,53.4,3.2,79.1c-5.8,19.5-23.4,42.9-10.9,63.2l88.8-4"/>
		<g>
			<g id="XMLID_511_">
				<g id="XMLID_512_">
					<path class="st3" d="M180,361.1c-88.1,0-113.7-16.9-114.8-17.6l-1-0.7l0.1-1.2c4.5-38.9,30.5-43,53.1-46.4
						c8.5-1.3,16.5-2.4,22.8-5.2c22.3-9.7,13.1-45.3,13-45.7l-0.4-1.4l27.1-15.2l29.1,15.2l-0.4,1.4c-0.1,0.4-9.3,36,13,45.7l0,0
						c6.3,2.7,14.3,3.9,22.8,5.2c22.6,3.3,46.6,7.5,51.1,46.4l0.1,1.2l-1,0.7C293.7,344.3,268.1,361.1,180,361.1z"/>
				</g>
			</g>
			<line class="st3" x1="180" y1="361.1" x2="180" y2="351.6"/>
			<g>
				<line class="st5" x1="117.5" y1="295.3" x2="144.6" y2="360.1"/>
				<path class="st5" d="M77.3,310.8c1.3,16.3,6.9,40.3,6.9,40.3"/>
				<circle class="st1" cx="83.1" cy="321.7" r="1.1"/>
				<circle class="st1" cx="84.3" cy="314" r="1.1"/>
				<circle class="st1" cx="83.1" cy="310.2" r="1.1"/>
				<circle class="st1" cx="88" cy="317.3" r="1.1"/>
				<circle class="st1" cx="86" cy="324.8" r="1.1"/>
				<circle class="st1" cx="83.1" cy="317.4" r="1.1"/>
				<circle class="st1" cx="92.7" cy="315.5" r="1.1"/>
				<circle class="st1" cx="92" cy="320.2" r="1.1"/>
				<circle class="st1" cx="92" cy="310.8" r="1.1"/>
				<circle class="st1" cx="105.1" cy="302.4" r="1.1"/>
				<circle class="st1" cx="108.8" cy="306.1" r="1.1"/>
				<circle class="st1" cx="109.5" cy="301.4" r="1.1"/>
				<circle class="st1" cx="118.9" cy="309.2" r="1.1"/>
				<circle class="st1" cx="121" cy="313.6" r="1.1"/>
				<circle class="st1" cx="122.6" cy="316.3" r="1.1"/>
				<circle class="st1" cx="118.6" cy="304.5" r="1.1"/>
				<circle class="st1" cx="115" cy="302" r="1.1"/>
				<circle class="st1" cx="111.8" cy="304.4" r="1.1"/>
				<circle class="st1" cx="115.2" cy="307.6" r="1.1"/>
				<circle class="st1" cx="120.6" cy="319.4" r="1.1"/>
				<circle class="st1" cx="114.3" cy="320.6" r="1.1"/>
				<circle class="st1" cx="111" cy="325" r="1.1"/>
				<circle class="st1" cx="123.3" cy="324.6" r="1.1"/>
				<circle class="st1" cx="117.2" cy="324.6" r="1.1"/>
				<circle class="st1" cx="122.6" cy="334.6" r="1.1"/>
				<circle class="st1" cx="125.1" cy="328.9" r="1.1"/>
				<circle class="st1" cx="116.3" cy="314" r="1.1"/>
				<circle class="st1" cx="117.5" cy="317.5" r="1.1"/>
				<circle class="st1" cx="113.1" cy="310.8" r="1.1"/>
				<circle class="st1" cx="110.4" cy="314.6" r="1.1"/>
				<circle class="st1" cx="92.7" cy="337" r="1.1"/>
				<circle class="st1" cx="85.7" cy="333.5" r="1.1"/>
				<circle class="st1" cx="101.8" cy="309.9" r="1.1"/>
				<circle class="st1" cx="97" cy="314.8" r="1.1"/>
				<circle class="st1" cx="104.2" cy="306.1" r="1.1"/>
				<circle class="st1" cx="108.3" cy="309.3" r="1.1"/>
				<circle class="st1" cx="106.4" cy="313.3" r="1.1"/>
				<circle class="st1" cx="90.1" cy="326.1" r="1.1"/>
				<circle class="st1" cx="97.2" cy="327.1" r="1.1"/>
				<circle class="st1" cx="96.4" cy="332.1" r="1.1"/>
				<circle class="st1" cx="103.5" cy="325.6" r="1.1"/>
				<circle class="st1" cx="116.3" cy="347" r="1.1"/>
				<circle class="st1" cx="112.7" cy="340.4" r="1.1"/>
				<circle class="st1" cx="109.7" cy="346" r="1.1"/>
				<circle class="st1" cx="105.1" cy="339.6" r="1.1"/>
				<circle class="st1" cx="100.4" cy="346.7" r="1.1"/>
				<circle class="st1" cx="119.4" cy="340.6" r="1.1"/>
				<circle class="st1" cx="122.7" cy="353" r="1.1"/>
				<circle class="st1" cx="128.9" cy="343.7" r="1.1"/>
				<circle class="st1" cx="136.9" cy="355.4" r="1.1"/>
				<circle class="st1" cx="127.8" cy="337.3" r="1.1"/>
				<circle class="st1" cx="123.7" cy="345.6" r="1.1"/>
				<circle class="st1" cx="130.3" cy="351.6" r="1.1"/>
				<circle class="st1" cx="117.2" cy="330.9" r="1.1"/>
				<circle class="st1" cx="110.2" cy="333.7" r="1.1"/>
				<circle class="st1" cx="99.2" cy="337.8" r="1.1"/>
				<circle class="st1" cx="90.8" cy="346.2" r="1.1"/>
				<circle class="st1" cx="104.5" cy="330.7" r="1.1"/>
				<circle class="st1" cx="105.7" cy="321.6" r="1.1"/>
				<circle class="st1" cx="110.8" cy="318.6" r="1.1"/>
				<circle class="st1" cx="101.9" cy="314" r="1.1"/>
				<circle class="st1" cx="101.8" cy="320.8" r="1.1"/>
				<circle class="st1" cx="104.5" cy="317.3" r="1.1"/>
				<circle class="st1" cx="108.9" cy="298.1" r="1.1"/>
				<circle class="st1" cx="114.3" cy="298.1" r="1.1"/>
				<circle class="st1" cx="97.2" cy="310.2" r="1.1"/>
				<circle class="st1" cx="97.6" cy="319.1" r="1.1"/>
				<circle class="st1" cx="95.1" cy="306.5" r="1.1"/>
				<circle class="st1" cx="101.8" cy="299.8" r="1.1"/>
				<circle class="st1" cx="100" cy="304.2" r="1.1"/>
				<circle class="st1" cx="96.8" cy="302.7" r="1.1"/>
				<circle class="st1" cx="92" cy="304.5" r="1.1"/>
				<circle class="st1" cx="87.7" cy="308.4" r="1.1"/>
				<circle class="st1" cx="88.4" cy="313" r="1.1"/>
			</g>
			<g>
				<line class="st5" x1="243.1" y1="295.1" x2="215.9" y2="360.1"/>
				<path class="st5" d="M283.2,310.6c-1.3,16.3-6.9,40.3-6.9,40.3"/>
				<circle class="st1" cx="277.3" cy="321.7" r="1.1"/>
				<circle class="st1" cx="276.2" cy="314" r="1.1"/>
				<circle class="st1" cx="277.3" cy="310.2" r="1.1"/>
				<circle class="st1" cx="272.5" cy="317.3" r="1.1"/>
				<circle class="st1" cx="274.4" cy="324.8" r="1.1"/>
				<circle class="st1" cx="277.3" cy="317.4" r="1.1"/>
				<circle class="st1" cx="267.7" cy="315.5" r="1.1"/>
				<circle class="st1" cx="268.5" cy="320.2" r="1.1"/>
				<circle class="st1" cx="268.5" cy="310.8" r="1.1"/>
				<circle class="st1" cx="255.4" cy="302.4" r="1.1"/>
				<circle class="st1" cx="251.7" cy="306.1" r="1.1"/>
				<circle class="st1" cx="251" cy="301.4" r="1.1"/>
				<circle class="st1" cx="241.6" cy="309.2" r="1.1"/>
				<circle class="st1" cx="239.5" cy="313.6" r="1.1"/>
				<circle class="st1" cx="237.8" cy="316.3" r="1.1"/>
				<circle class="st1" cx="241.9" cy="304.5" r="1.1"/>
				<circle class="st1" cx="245.5" cy="302" r="1.1"/>
				<circle class="st1" cx="248.7" cy="304.4" r="1.1"/>
				<circle class="st1" cx="245.2" cy="307.6" r="1.1"/>
				<circle class="st1" cx="239.9" cy="319.4" r="1.1"/>
				<circle class="st1" cx="246.2" cy="320.6" r="1.1"/>
				<circle class="st1" cx="249.5" cy="325" r="1.1"/>
				<circle class="st1" cx="237.1" cy="324.6" r="1.1"/>
				<circle class="st1" cx="243.3" cy="324.6" r="1.1"/>
				<circle class="st1" cx="237.8" cy="334.6" r="1.1"/>
				<circle class="st1" cx="235.3" cy="328.9" r="1.1"/>
				<circle class="st1" cx="244.1" cy="314" r="1.1"/>
				<circle class="st1" cx="243" cy="317.5" r="1.1"/>
				<circle class="st1" cx="247.3" cy="310.8" r="1.1"/>
				<circle class="st1" cx="250.1" cy="314.6" r="1.1"/>
				<circle class="st1" cx="267.7" cy="337" r="1.1"/>
				<circle class="st1" cx="274.8" cy="333.5" r="1.1"/>
				<circle class="st1" cx="258.6" cy="309.9" r="1.1"/>
				<circle class="st1" cx="263.5" cy="314.8" r="1.1"/>
				<circle class="st1" cx="256.3" cy="306.1" r="1.1"/>
				<circle class="st1" cx="252.2" cy="309.3" r="1.1"/>
				<circle class="st1" cx="254" cy="313.3" r="1.1"/>
				<circle class="st1" cx="270.4" cy="326.1" r="1.1"/>
				<circle class="st1" cx="263.2" cy="327.1" r="1.1"/>
				<circle class="st1" cx="264.1" cy="332.1" r="1.1"/>
				<circle class="st1" cx="256.9" cy="325.6" r="1.1"/>
				<circle class="st1" cx="244.1" cy="347" r="1.1"/>
				<circle class="st1" cx="247.8" cy="340.4" r="1.1"/>
				<circle class="st1" cx="250.7" cy="346" r="1.1"/>
				<circle class="st1" cx="255.4" cy="339.6" r="1.1"/>
				<circle class="st1" cx="260" cy="346.7" r="1.1"/>
				<circle class="st1" cx="241.1" cy="340.6" r="1.1"/>
				<circle class="st1" cx="237.7" cy="353" r="1.1"/>
				<circle class="st1" cx="231.6" cy="343.7" r="1.1"/>
				<circle class="st1" cx="223.6" cy="355.4" r="1.1"/>
				<circle class="st1" cx="232.7" cy="337.3" r="1.1"/>
				<circle class="st1" cx="236.7" cy="345.6" r="1.1"/>
				<circle class="st1" cx="230.2" cy="351.6" r="1.1"/>
				<circle class="st1" cx="243.3" cy="330.9" r="1.1"/>
				<circle class="st1" cx="250.3" cy="333.7" r="1.1"/>
				<circle class="st1" cx="261.2" cy="337.8" r="1.1"/>
				<circle class="st1" cx="269.7" cy="346.2" r="1.1"/>
				<circle class="st1" cx="256" cy="330.7" r="1.1"/>
				<circle class="st1" cx="254.7" cy="321.6" r="1.1"/>
				<circle class="st1" cx="249.6" cy="318.6" r="1.1"/>
				<circle class="st1" cx="258.6" cy="314" r="1.1"/>
				<circle class="st1" cx="258.6" cy="320.8" r="1.1"/>
				<circle class="st1" cx="256" cy="317.3" r="1.1"/>
				<circle class="st1" cx="251.6" cy="298.1" r="1.1"/>
				<circle class="st1" cx="246.2" cy="298.1" r="1.1"/>
				<circle class="st1" cx="263.2" cy="310.2" r="1.1"/>
				<circle class="st1" cx="262.9" cy="319.1" r="1.1"/>
				<circle class="st1" cx="265.4" cy="306.5" r="1.1"/>
				<circle class="st1" cx="258.6" cy="299.8" r="1.1"/>
				<circle class="st1" cx="260.5" cy="304.2" r="1.1"/>
				<circle class="st1" cx="263.6" cy="302.7" r="1.1"/>
				<circle class="st1" cx="268.5" cy="304.5" r="1.1"/>
				<circle class="st1" cx="272.7" cy="308.4" r="1.1"/>
				<circle class="st1" cx="272.1" cy="313" r="1.1"/>
			</g>
		</g>
		<g>
			<path class="st6" d="M233.5,189.2c0.8,0.1,1.7,0.2,2.3,0.8c0.4,0.4,0.6,0.9,0.8,1.3c1,2.8,1.3,5.9,0.8,8.9
				c-2.9,4.3-6.3,8.4-8.2,13.2c-0.6,1.4-1.8,4-3.5,4.2c-1.9,0.2-2.5-2.2-2.6-3.6c-0.6-7.2,0.5-14.4,1.5-21.6
				c0.1-0.5,0.2-1.1,0.5-1.5c0.3-0.4,0.9-0.7,1.4-0.8C228.7,189.4,231.1,189.1,233.5,189.2z"/>
			<path class="st7" d="M233.5,189.2c0.8,0.1,1.7,0.2,2.3,0.8c0.4,0.4,0.6,0.9,0.8,1.3c1,2.8,1.3,5.9,0.8,8.9
				c-2.9,4.3-6.3,8.4-8.2,13.2c-0.6,1.4-1.8,4-3.5,4.2c-1.9,0.2-2.5-2.2-2.6-3.6c-0.6-7.2,0.5-14.4,1.5-21.6
				c0.1-0.5,0.2-1.1,0.5-1.5c0.3-0.4,0.9-0.7,1.4-0.8C228.7,189.4,231.1,189.1,233.5,189.2z"/>
		</g>
		<path class="st3" d="M220.5,147.6c-7.3-10.9-23.7-16.7-35.5-17.8c-1.6-0.2-3.3-0.2-4.9-0.3c-1.6,0-3.3,0.1-4.9,0.3
			c-11.8,1.1-28.2,6.9-35.5,17.8c-7.5,11.1-14.2,25.5-9.3,41.7c5.6,18.4,4.7,38.5,15.1,55.3c9.5,15.3,27,27.5,45.4,20.7
			c15-5.5,26-20.4,30.5-35.2c4-13.3,5.2-27.3,8.4-40.8C231.5,175.8,227.9,158.7,220.5,147.6z"/>
		<path class="st8" d="M130.3,189.3c-0.5-15.7,9-30.8,21.1-40.3c7.7-6,26.9-10.1,26.9-21.9l-9.5-10L130.3,134l-14.5,46.2
			L130.3,189.3z"/>
		<path class="st3" d="M178.3,125.1c4.9,20.3,25.2,20,36.6,34.3c10.1,12.7,9.8,34,4.3,48.6c-11.1,29.6-20.5,58.5-13.6,90.4
			c3.9,17.8,9.2,35.5,10.4,53.8c1.3,20.6-7,38.2-23.4,50.7c3.2,0.8,6.6,0.9,9.9,1c12.7,0.4,23.5-2.5,32.6-7.8
			c32.1-18.8,37.2-61.5,27.4-94.1c-4.1-13.6-6.3-27.7-8-41.8c-2.3-19.7-1.2-38.5,0.6-58.2c1.8-20,2.3-40.4-5.9-59.2
			c-6.9-15.7-18.1-30.4-34-37c-12.5-5.2-26.1-4-36.9,3.7"/>
		<path class="st3" d="M126.3,189.3c-10.3,4.8,3.3,34.4,10,26.7l-6-26.7C130,188.1,128.1,188.5,126.3,189.3z"/>
		<path class="st9" d="M138.2,198.8"/>
		<g>
			<path class="st10" d="M147.2,205.7c-10,6.4,10.1,17.5,16.3,10.3C169.8,208.4,152.8,202.1,147.2,205.7z"/>
			<path class="st11" d="M174.8,192.9c3.3,9.3,0,20.2-0.3,23.3c-0.4,4.2-0.1,8.5,9.9,8.4"/>
			<path class="st11" d="M139.9,185.4c8.4-5.4,21-8.2,29.9,0"/>
			<g>
				<path class="st1" d="M160,193.1c0.1,0.4,0.1,0.8,0.1,1.2c-0.1,3.4-3.1,6.7-6.7,5c-3.2-1.5-3.5-5.7-1.8-8.5
					C157.4,189.2,160,193.1,160,193.1z"/>
				<path class="st11" d="M141.8,192.4c0,0,6.1-4.4,14.2-2.5c9.4,2.2,11.9,10.8,11.9,10.8"/>
			</g>
			<path class="st10" d="M211.6,205.7c10,6.4-10.1,17.5-16.3,10.3C189,208.4,206,202.1,211.6,205.7z"/>
			<path class="st11" d="M218.8,185.4c-8.4-5.4-21-8.2-29.9,0"/>
			<g>
				<path class="st1" d="M198.8,193.1c-0.1,0.4-0.1,0.8-0.1,1.2c0.1,3.4,3.1,6.7,6.7,5c3.2-1.5,3.5-5.7,1.8-8.5
					C201.4,189.2,198.8,193.1,198.8,193.1z"/>
				<path class="st11" d="M217,192.4c0,0-6.1-4.4-14.2-2.5c-9.4,2.2-11.9,10.8-11.9,10.8"/>
			</g>
			<path class="st11" d="M194.8,233.9c0,3.9-6.9,11.2-15.4,11.2s-15.4-7.2-15.4-11.2H194.8z"/>
		</g>
		<path class="st5" d="M178.3,125.1c0,9.3-11,14.7-18,18.5c-16.6,9.1-34.4,24.8-30,45.7"/>
	</g>
</g>
</svg>
