<?xml version="1.0" encoding="utf-8"?>
<!-- Generator: Adobe Illustrator 22.0.0, SVG Export Plug-In . SVG Version: 6.00 Build 0)  -->
<svg version="1.1" id="Layer_1" xmlns="http://www.w3.org/2000/svg" xmlns:xlink="http://www.w3.org/1999/xlink" x="0px" y="0px"
	 viewBox="0 0 20 30" style="enable-background:new 0 0 20 30;" xml:space="preserve">
<style type="text/css">
	.st0{fill:none;stroke:#C99340;stroke-width:2;stroke-linecap:round;stroke-linejoin:round;stroke-miterlimit:10;}
</style>
<g>
	<path class="st0" d="M18.3,10.8c0,1.2-0.2,2.2-0.5,2.9l-5.9,12.6c-0.2,0.4-0.4,0.6-0.8,0.8c-0.3,0.2-0.7,0.3-1.1,0.3
		c-0.4,0-0.8-0.1-1.1-0.3c-0.3-0.2-0.6-0.5-0.8-0.8L2.2,13.7C1.8,13,1.7,12,1.7,10.8c0-2.3,0.8-4.3,2.4-5.9C5.7,3.3,7.7,2.5,10,2.5
		c2.3,0,4.3,0.8,5.9,2.4C17.5,6.6,18.3,8.5,18.3,10.8z M12.9,13.8c0.8-0.8,1.2-1.8,1.2-2.9c0-1.2-0.4-2.1-1.2-2.9
		c-0.8-0.8-1.8-1.2-2.9-1.2S7.9,7.1,7.1,7.9c-0.8,0.8-1.2,1.8-1.2,2.9c0,1.2,0.4,2.1,1.2,2.9C7.9,14.6,8.8,15,10,15
		S12.1,14.6,12.9,13.8z"/>
</g>
</svg>
