<?xml version="1.0" encoding="utf-8"?>
<!-- Generator: Adobe Illustrator 22.0.0, SVG Export Plug-In . SVG Version: 6.00 Build 0)  -->
<svg version="1.1" id="Layer_1" xmlns="http://www.w3.org/2000/svg" xmlns:xlink="http://www.w3.org/1999/xlink" x="0px" y="0px"
	 viewBox="0 0 26 39.1" style="enable-background:new 0 0 26 39.1;" xml:space="preserve">
<style type="text/css">
	.st0{fill:#C99340;}
</style>
<g>
	<path class="st0" d="M26,13c0,1.8-0.3,3.4-0.8,4.6l-9.3,19.7c-0.3,0.6-0.7,1-1.2,1.3c-0.5,0.3-1.1,0.5-1.7,0.5
		c-0.6,0-1.2-0.2-1.7-0.5c-0.5-0.3-0.9-0.8-1.2-1.3L0.8,17.6C0.3,16.4,0,14.9,0,13c0-3.6,1.3-6.7,3.8-9.2C6.4,1.3,9.4,0,13,0
		c3.6,0,6.7,1.3,9.2,3.8C24.8,6.4,26,9.4,26,13z M17.6,17.6c1.3-1.3,1.9-2.8,1.9-4.6c0-1.8-0.6-3.3-1.9-4.6
		c-1.3-1.3-2.8-1.9-4.6-1.9S9.7,7.1,8.4,8.4C7.1,9.7,6.5,11.2,6.5,13c0,1.8,0.6,3.3,1.9,4.6c1.3,1.3,2.8,1.9,4.6,1.9
		S16.4,18.9,17.6,17.6z"/>
</g>
</svg>
