<?xml version="1.0" encoding="utf-8"?>
<!-- Generator: Adobe Illustrator 22.0.0, SVG Export Plug-In . SVG Version: 6.00 Build 0)  -->
<svg version="1.1" id="Layer_1" xmlns="http://www.w3.org/2000/svg" xmlns:xlink="http://www.w3.org/1999/xlink" x="0px" y="0px"
	 viewBox="0 0 72 70" style="enable-background:new 0 0 72 70;" xml:space="preserve">
<style type="text/css">
	.st0{fill:#FAF2E5;stroke:#B1AB9E;stroke-width:2;stroke-linecap:round;stroke-linejoin:round;stroke-miterlimit:10;}
	.st1{fill:#FAF2E5;stroke:#C99340;stroke-width:2;stroke-linecap:round;stroke-linejoin:round;stroke-miterlimit:10;}
	.st2{fill:none;stroke:#C99340;stroke-width:2;stroke-linecap:round;stroke-linejoin:round;stroke-miterlimit:10;}
	.st3{fill:#C99340;}
</style>
<g>
	<g>
		<path class="st0" d="M70.4,63.7c0,2.7-2.2,5-5,5H6.6c-2.7,0-5-2.2-5-5v0.1c0,0,24-19.4,28.8-23.2c4.7-3.8,7.9-2.7,11.2,0
			C44.9,43.3,70.4,63.7,70.4,63.7L70.4,63.7z"/>
		<path class="st0" d="M70.4,26.8c0,2.7-34.4,26.1-34.4,26.1S1.8,29.6,1.8,26.8v0.1c0,0,24-19.4,28.8-23.2c4.7-3.8,7.9-2.7,11.2,0
			C44.9,6.5,70.4,26.8,70.4,26.8L70.4,26.8z"/>
		<g>
			<rect x="10.3" y="15" class="st1" width="51" height="28.6"/>
			<rect x="10.3" y="11.9" class="st1" width="51" height="28.6"/>
			<rect x="10.3" y="8.8" class="st1" width="51" height="28.6"/>
			<path class="st2" d="M54.7,11.6h-38c0,2-1.6,3.6-3.6,3.6l0,0V31l0,0c2,0,3.6,1.6,3.6,3.6h38c0-2,1.6-3.6,3.6-3.6V15.2
				C56.4,15.2,54.7,13.6,54.7,11.6z"/>
			<g>
				<path class="st3" d="M37.4,25.8c0-0.4-0.1-0.8-0.3-1s-0.6-0.5-1.2-0.7s-1-0.4-1.4-0.6s-0.8-0.4-1-0.7s-0.5-0.6-0.7-0.9
					s-0.2-0.8-0.2-1.3c0-0.9,0.3-1.6,0.8-2.1s1.3-0.9,2.2-1v-1.6h1.2v1.7c0.9,0.1,1.6,0.5,2.1,1.1s0.8,1.4,0.8,2.4h-2.2
					c0-0.6-0.1-1.1-0.4-1.4s-0.6-0.5-1-0.5s-0.7,0.1-1,0.4s-0.3,0.6-0.3,1s0.1,0.7,0.3,0.9s0.6,0.5,1.3,0.7s1.1,0.5,1.5,0.7
					s0.7,0.5,1,0.7s0.5,0.6,0.6,0.9s0.2,0.8,0.2,1.2c0,0.9-0.3,1.6-0.8,2.1s-1.3,0.9-2.2,1v1.5h-1.2v-1.5c-1.1-0.1-1.9-0.5-2.4-1.1
					s-0.9-1.5-0.9-2.5h2.2c0,0.6,0.1,1.1,0.4,1.4s0.7,0.5,1.2,0.5s0.8-0.1,1.1-0.4S37.4,26.2,37.4,25.8z"/>
			</g>
			<g>
				<circle class="st2" cx="47.6" cy="23.1" r="2.6"/>
				<circle class="st2" cx="23.8" cy="23.1" r="2.6"/>
			</g>
		</g>
		<polyline class="st0" points="70.4,27.6 47.4,45.1 70.4,63.7 70.4,27.2 		"/>
		<polyline class="st0" points="1.8,27.6 24.8,45.1 1.8,63.7 1.8,27.2 		"/>
		<g>
			<g>
				<path class="st0" d="M45.6,43.3L45.6,43.3c-2.3-2.3-5.9-2.3-8.2,0c-0.9,0.9-1.4,2-1.6,3.2c-0.2-1.1-0.7-2.2-1.6-3.1
					c-2.2-2.2-5.8-2.2-8,0c-2.2,2.2-2.2,5.8,0,7.9l9.4,9.4l0.2,0.2L36,61l0,0l0.1-0.1l9.6-9.6C48,49.2,48,45.6,45.6,43.3z"/>
			</g>
		</g>
	</g>
</g>
</svg>
