<?xml version="1.0" encoding="utf-8"?>
<!-- Generator: Adobe Illustrator 22.0.0, SVG Export Plug-In . SVG Version: 6.00 Build 0)  -->
<svg version="1.1" id="Layer_1" xmlns="http://www.w3.org/2000/svg" xmlns:xlink="http://www.w3.org/1999/xlink" x="0px" y="0px"
	 viewBox="0 0 185 90" style="enable-background:new 0 0 185 90;" xml:space="preserve">
<style type="text/css">
	.st0{fill:#FAF2E5;stroke:#C99340;stroke-width:2;stroke-linecap:round;stroke-linejoin:round;stroke-miterlimit:10;}
	.st1{fill:#B1AB9E;}
	.st2{fill:#FAF2E5;stroke:#B1AB9E;stroke-width:2;stroke-linecap:round;stroke-linejoin:round;stroke-miterlimit:10;}
	.st3{fill:none;stroke:#C99340;stroke-width:2;stroke-linecap:round;stroke-linejoin:round;stroke-miterlimit:10;}
	.st4{fill:#C99340;}
</style>
<g>
	<g>
		<g>
			<g>
				<rect x="82" y="19.6" class="st0" width="77.2" height="14"/>
				<rect x="85.2" y="33.6" class="st0" width="70.3" height="54.6"/>
				<g>
					<path class="st0" d="M119.8,18.5c5.3,0,13.5-12.4,22.8-10.3c5.7,1.3,4.4,10.3-7.4,10.3C126.1,18.5,114.5,18.5,119.8,18.5z"/>
					<path class="st0" d="M120.1,17.9c3.4-1.8,1.5-11.1,8.2-13c4.1-1.1,6.4,5.2-1.3,9.3C121.1,17.3,116.6,19.7,120.1,17.9z"/>
					<path class="st0" d="M120.1,17.9c-3.4-1.8-1.3-11.1-8-13c-4.1-1.1-6.4,5.2,1.3,9.3C119.2,17.3,123.5,19.7,120.1,17.9z"/>
					<path class="st0" d="M120.9,18.5c-5.3,0-13.5-12.4-22.8-10.3c-5.7,1.3-4.4,10.3,7.4,10.3C114.6,18.5,126.2,18.5,120.9,18.5z"/>
					<path class="st0" d="M120,17c0,0-9.1-15.7,0-15.7C129,1.3,120,17,120,17z"/>
				</g>
				<rect x="85.2" y="33.6" class="st0" width="70.3" height="54.6"/>
				<rect x="115.4" y="33.6" class="st0" width="10" height="54.6"/>
				<rect x="82" y="19.6" class="st0" width="77.2" height="14"/>
				<rect x="115.4" y="19.3" class="st0" width="10" height="14.2"/>
			</g>
			<g>
				<rect x="110.4" y="55.3" class="st0" width="71.6" height="32.8"/>
				<g>
					<path class="st1" d="M123.1,63.5c0,2.4-1.9,4.3-4.3,4.3c-2.4,0-4.3-1.9-4.3-4.3c0-2.4,1.9-4.3,4.3-4.3
						C121.2,59.2,123.1,61.1,123.1,63.5z"/>
					<path class="st1" d="M123.1,80.4c0,2.4-1.9,4.3-4.3,4.3c-2.4,0-4.3-1.9-4.3-4.3c0-2.4,1.9-4.3,4.3-4.3
						C121.2,76.1,123.1,78,123.1,80.4z"/>
					<path class="st1" d="M135.8,71.8c0,2.4-1.9,4.3-4.3,4.3c-2.4,0-4.3-1.9-4.3-4.3c0-2.4,1.9-4.3,4.3-4.3
						C133.9,67.4,135.8,69.4,135.8,71.8z"/>
					<path class="st1" d="M150.2,63.5c0,2.4-1.9,4.3-4.3,4.3c-2.4,0-4.3-1.9-4.3-4.3c0-2.4,1.9-4.3,4.3-4.3
						C148.3,59.2,150.2,61.1,150.2,63.5z"/>
					<path class="st1" d="M150.2,80.4c0,2.4-1.9,4.3-4.3,4.3c-2.4,0-4.3-1.9-4.3-4.3c0-2.4,1.9-4.3,4.3-4.3
						C148.3,76.1,150.2,78,150.2,80.4z"/>
					<path class="st1" d="M162.9,71.8c0,2.4-1.9,4.3-4.3,4.3c-2.4,0-4.3-1.9-4.3-4.3c0-2.4,1.9-4.3,4.3-4.3
						C161,67.4,162.9,69.4,162.9,71.8z"/>
					<path class="st1" d="M177.6,63.5c0,2.4-1.9,4.3-4.3,4.3c-2.4,0-4.3-1.9-4.3-4.3c0-2.4,1.9-4.3,4.3-4.3
						C175.7,59.2,177.6,61.1,177.6,63.5z"/>
					<path class="st1" d="M177.6,80.4c0,2.4-1.9,4.3-4.3,4.3c-2.4,0-4.3-1.9-4.3-4.3c0-2.4,1.9-4.3,4.3-4.3
						C175.7,76.1,177.6,78,177.6,80.4z"/>
				</g>
				<line class="st0" x1="146.1" y1="54.9" x2="146.1" y2="88.2"/>
				<line class="st0" x1="108.7" y1="71.8" x2="183.6" y2="71.8"/>
				<g>
					<line class="st0" x1="146.2" y1="55.3" x2="146.2" y2="43.4"/>
					<line class="st0" x1="146.2" y1="54.9" x2="139.3" y2="48.1"/>
					<line class="st0" x1="146.1" y1="54.9" x2="153" y2="48.1"/>
				</g>
			</g>
		</g>
		<g>
			<g>
				<path class="st0" d="M26.5,56c2.8,0,5.1-2.3,5.1-5.1c0-2.8-2.3-5.1-5.1-5.1c-2.8,0-5.1,2.3-5.1,5.1V56H26.5z"/>
				<path class="st0" d="M15.3,56c-3.4,0-6.1-2.7-6.1-6.1c0-3.4,2.7-6.1,6.1-6.1c3.4,0,6.1,2.7,6.1,6.1V56H15.3z"/>
				<rect x="1.4" y="56" class="st0" width="40" height="11"/>
				<rect x="4" y="67" class="st0" width="34.7" height="21.1"/>
				<line class="st0" x1="21.4" y1="88.2" x2="21.4" y2="56"/>
			</g>
		</g>
	</g>
	<g>
		<g>
			<path class="st2" d="M101.8,83.7c0,2.7-2.2,5-5,5H38.1c-2.7,0-5-2.2-5-5l0,0.1c0,0,24-19.4,28.8-23.2c4.7-3.8,7.9-2.7,11.2,0
				C76.3,63.3,101.8,83.7,101.8,83.7L101.8,83.7z"/>
			<path class="st2" d="M101.8,46.8c0,2.7-34.4,26.1-34.4,26.1S33.2,49.6,33.2,46.8l0,0.1c0,0,24-19.4,28.8-23.2
				c4.7-3.8,7.9-2.7,11.2,0C76.3,26.5,101.8,46.8,101.8,46.8L101.8,46.8z"/>
			<g>
				<rect x="41.8" y="35" class="st0" width="51" height="28.6"/>
				<rect x="41.8" y="31.9" class="st0" width="51" height="28.6"/>
				<rect x="41.8" y="28.8" class="st0" width="51" height="28.6"/>
				<path class="st3" d="M86.2,31.6h-38c0,2-1.6,3.6-3.6,3.6h0V51h0c2,0,3.6,1.6,3.6,3.6h38c0-2,1.6-3.6,3.6-3.6V35.2
					C87.8,35.2,86.2,33.6,86.2,31.6z"/>
				<g>
					<path class="st4" d="M68.8,45.8c0-0.4-0.1-0.8-0.3-1s-0.6-0.5-1.2-0.7s-1-0.4-1.4-0.6s-0.8-0.4-1-0.7s-0.5-0.6-0.7-0.9
						s-0.2-0.8-0.2-1.3c0-0.9,0.3-1.6,0.8-2.1s1.3-0.9,2.2-1v-1.6h1.2v1.7c0.9,0.1,1.6,0.5,2.1,1.1s0.8,1.4,0.8,2.4h-2.2
						c0-0.6-0.1-1.1-0.4-1.4s-0.6-0.5-1-0.5c-0.4,0-0.7,0.1-1,0.4s-0.3,0.6-0.3,1c0,0.4,0.1,0.7,0.3,0.9s0.6,0.5,1.3,0.7
						s1.1,0.5,1.5,0.7s0.7,0.5,1,0.7s0.5,0.6,0.6,0.9s0.2,0.8,0.2,1.2c0,0.9-0.3,1.6-0.8,2.1s-1.3,0.9-2.2,1v1.5h-1.2v-1.5
						c-1.1-0.1-1.9-0.5-2.4-1.1s-0.9-1.5-0.9-2.5h2.2c0,0.6,0.1,1.1,0.4,1.4s0.7,0.5,1.2,0.5c0.5,0,0.8-0.1,1.1-0.4
						S68.8,46.2,68.8,45.8z"/>
				</g>
				<g>
					<circle class="st3" cx="79.1" cy="43.1" r="2.6"/>
					<circle class="st3" cx="55.3" cy="43.1" r="2.6"/>
				</g>
			</g>
			<polyline class="st2" points="101.8,47.6 78.8,65.1 101.8,83.7 101.8,47.2 			"/>
			<polyline class="st2" points="33.2,47.6 56.2,65.1 33.2,83.7 33.2,47.2 			"/>
			<g>
				<g>
					<path class="st2" d="M77.1,63.3L77.1,63.3c-2.3-2.3-5.9-2.3-8.2,0c-0.9,0.9-1.4,2-1.6,3.2c-0.2-1.1-0.7-2.2-1.6-3.1
						c-2.2-2.2-5.8-2.2-8,0c-2.2,2.2-2.2,5.8,0,7.9l9.4,9.4l0.2,0.2l0.1,0.1l0,0l0.1-0.1l9.6-9.6C79.4,69.2,79.4,65.6,77.1,63.3z"/>
				</g>
			</g>
		</g>
	</g>
</g>
</svg>
