<?xml version="1.0" encoding="utf-8"?>
<!-- Generator: Adobe Illustrator 22.0.0, SVG Export Plug-In . SVG Version: 6.00 Build 0)  -->
<svg version="1.1" id="Layer_1" xmlns="http://www.w3.org/2000/svg" xmlns:xlink="http://www.w3.org/1999/xlink" x="0px" y="0px"
	 viewBox="0 0 600 600" style="enable-background:new 0 0 600 600;" xml:space="preserve">
<style type="text/css">
	.st0{fill:#2F2F30;}
	.st1{fill:none;}
	.st2{fill:#2A2A2B;}
</style>
<rect class="st0" width="600" height="600"/>
<g>
	<rect class="st1" width="600" height="600"/>
	<polygon class="st2" points="99.3,0 99,0 0,99.3 0.1,99.4 	"/>
	<polygon class="st2" points="84.9,0 0,85.1 0,86.5 86.3,0 	"/>
	<polygon class="st2" points="70.8,0 0,71 0,72.4 72.2,0 	"/>
	<polygon class="st2" points="56.7,0 0,56.8 0,58.2 58.1,0 	"/>
	<polygon class="st2" points="42.5,0 0,42.7 0,44.1 44,0 	"/>
	<polygon class="st2" points="28.4,0 0,28.5 0,29.9 29.8,0 	"/>
	<polygon class="st2" points="14.3,0 0,14.3 0,15.8 15.7,0 	"/>
	<polygon class="st2" points="200.1,99.4 299.3,0 299,0 200,99.3 	"/>
	<polygon class="st2" points="200,99.3 101,0 100.7,0 199.9,99.4 	"/>
	<polygon class="st2" points="286.3,0 284.9,0 200,85.1 115.1,0 113.7,0 200,86.5 	"/>
	<polygon class="st2" points="272.2,0 270.8,0 200,71 129.2,0 127.8,0 200,72.4 	"/>
	<polygon class="st2" points="258.1,0 256.7,0 200,56.8 143.3,0 141.9,0 200,58.2 	"/>
	<polygon class="st2" points="244,0 242.5,0 200,42.7 157.5,0 156,0 200,44.1 	"/>
	<polygon class="st2" points="229.8,0 228.4,0 200,28.5 171.6,0 170.2,0 200,29.9 	"/>
	<polygon class="st2" points="215.7,0 214.3,0 200,14.3 185.7,0 184.3,0 200,15.8 	"/>
	<polygon class="st2" points="400.1,99.4 499.3,0 499,0 400,99.3 	"/>
	<polygon class="st2" points="400,99.3 301,0 300.7,0 399.9,99.4 	"/>
	<polygon class="st2" points="486.3,0 484.9,0 400,85.1 315.1,0 313.7,0 400,86.5 	"/>
	<polygon class="st2" points="472.2,0 470.8,0 400,71 329.2,0 327.8,0 400,72.4 	"/>
	<polygon class="st2" points="458.1,0 456.7,0 400,56.8 343.3,0 341.9,0 400,58.2 	"/>
	<polygon class="st2" points="444,0 442.5,0 400,42.7 357.5,0 356,0 400,44.1 	"/>
	<polygon class="st2" points="429.8,0 428.4,0 400,28.5 371.6,0 370.2,0 400,29.9 	"/>
	<polygon class="st2" points="415.7,0 414.3,0 400,14.3 385.7,0 384.3,0 400,15.8 	"/>
	<polygon class="st2" points="99.9,199.4 100,199.3 1,100 100,0.7 199,100 100,199.3 100.1,199.4 199.9,99.4 100.7,0 99.3,0 
		0.1,99.4 	"/>
	<path class="st2" d="M100,13.5L13.7,100l86.3,86.5l86.3-86.5L100,13.5z M15.1,100L100,14.9l84.9,85.1L100,185.1L15.1,100z"/>
	<path class="st2" d="M100,27.6L27.8,100l72.2,72.4l72.2-72.4L100,27.6z M29.2,100L100,29l70.8,71L100,171L29.2,100z"/>
	<path class="st2" d="M100,41.8L41.9,100l58.1,58.2l58.1-58.2L100,41.8z M43.3,100L100,43.2l56.7,56.8L100,156.8L43.3,100z"/>
	<path class="st2" d="M100,55.9L56,100l44,44.1l44-44.1L100,55.9z M57.5,100L100,57.3l42.5,42.7L100,142.7L57.5,100z"/>
	<path class="st2" d="M100,70.1L70.2,100l29.8,29.9l29.8-29.9L100,70.1z M71.6,100L100,71.5l28.4,28.5L100,128.5L71.6,100z"/>
	<path class="st2" d="M100,84.2L84.3,100l15.7,15.8l15.7-15.8L100,84.2z M85.7,100L100,85.7l14.3,14.3L100,114.3L85.7,100z"/>
	<polygon class="st2" points="299.9,199.4 300,199.3 201,100 300,0.7 399,100 300,199.3 300.1,199.4 399.9,99.4 300.7,0 299.3,0 
		200.1,99.4 	"/>
	<path class="st2" d="M300,13.5L213.7,100l86.3,86.5l86.3-86.5L300,13.5z M215.1,100L300,14.9l84.9,85.1L300,185.1L215.1,100z"/>
	<path class="st2" d="M300,27.6L227.8,100l72.2,72.4l72.2-72.4L300,27.6z M229.2,100L300,29l70.8,71L300,171L229.2,100z"/>
	<path class="st2" d="M300,41.8L241.9,100l58.1,58.2l58.1-58.2L300,41.8z M243.3,100L300,43.2l56.7,56.8L300,156.8L243.3,100z"/>
	<path class="st2" d="M300,55.9L256,100l44,44.1l44-44.1L300,55.9z M257.5,100L300,57.3l42.5,42.7L300,142.7L257.5,100z"/>
	<path class="st2" d="M300,70.1L270.2,100l29.8,29.9l29.8-29.9L300,70.1z M271.6,100L300,71.5l28.4,28.5L300,128.5L271.6,100z"/>
	<path class="st2" d="M300,84.2L284.3,100l15.7,15.8l15.7-15.8L300,84.2z M285.7,100L300,85.7l14.3,14.3L300,114.3L285.7,100z"/>
	<polygon class="st2" points="499.9,199.4 500,199.3 401,100 500,0.7 599,100 500,199.3 500.1,199.4 599.3,100 499.5,0 499.3,0 
		400.1,99.4 	"/>
	<path class="st2" d="M500,13.5L413.7,100l86.3,86.5l86.3-86.5L500,13.5z M415.1,100L500,14.9l84.9,85.1L500,185.1L415.1,100z"/>
	<path class="st2" d="M500,27.6L427.8,100l72.2,72.4l72.2-72.4L500,27.6z M429.2,100L500,29l70.8,71L500,171L429.2,100z"/>
	<path class="st2" d="M500,41.8L441.9,100l58.1,58.2l58.1-58.2L500,41.8z M443.3,100L500,43.2l56.7,56.8L500,156.8L443.3,100z"/>
	<path class="st2" d="M500,55.9L456,100l44,44.1l44-44.1L500,55.9z M457.5,100L500,57.3l42.5,42.7L500,142.7L457.5,100z"/>
	<path class="st2" d="M500,70.1L470.2,100l29.8,29.9l29.8-29.9L500,70.1z M471.6,100L500,71.5l28.4,28.5L500,128.5L471.6,100z"/>
	<path class="st2" d="M500,84.2L484.3,100l15.7,15.8l15.7-15.8L500,84.2z M485.7,100L500,85.7l14.3,14.3L500,114.3L485.7,100z"/>
	<polygon class="st2" points="599.3,100 600,99.3 501,0 499.5,0 	"/>
	<polygon class="st2" points="600,85.1 515.1,0 513.7,0 600,86.5 	"/>
	<polygon class="st2" points="600,71 529.2,0 527.8,0 600,72.4 	"/>
	<polygon class="st2" points="600,56.8 543.3,0 541.9,0 600,58.2 	"/>
	<polygon class="st2" points="600,42.7 557.5,0 556,0 600,44.1 	"/>
	<polygon class="st2" points="600,28.5 571.6,0 570.2,0 600,29.9 	"/>
	<polygon class="st2" points="600,14.3 585.7,0 584.3,0 600,15.8 	"/>
	<polygon class="st2" points="99.9,199.4 0.1,99.4 0,99.3 0,100.7 99,200 0,299.3 0.1,299.4 	"/>
	<polygon class="st2" points="0,113.5 0,114.9 84.9,200 0,285.1 0,286.5 86.3,200 	"/>
	<polygon class="st2" points="0,127.6 0,129 70.8,200 0,271 0,272.4 72.2,200 	"/>
	<polygon class="st2" points="0,141.8 0,143.2 56.7,200 0,256.8 0,258.2 58.1,200 	"/>
	<polygon class="st2" points="0,155.9 0,157.3 42.5,200 0,242.7 0,244.1 44,200 	"/>
	<polygon class="st2" points="0,170.1 0,171.5 28.4,200 0,228.5 0,229.9 29.8,200 	"/>
	<polygon class="st2" points="0,184.2 0,185.7 14.3,200 0,214.3 0,215.8 15.7,200 	"/>
	<polygon class="st2" points="199.9,299.4 200,299.3 101,200 200,100.7 299,200 200,299.3 200.1,299.4 299.9,199.4 200.1,99.4 
		200,99.3 199.9,99.4 100.1,199.4 	"/>
	<path class="st2" d="M200,113.5L113.7,200l86.3,86.5l86.3-86.5L200,113.5z M115.1,200l84.9-85.1l84.9,85.1L200,285.1L115.1,200z"/>
	<path class="st2" d="M200,127.6L127.8,200l72.2,72.4l72.2-72.4L200,127.6z M129.2,200l70.8-71l70.8,71L200,271L129.2,200z"/>
	<path class="st2" d="M200,141.8L141.9,200l58.1,58.2l58.1-58.2L200,141.8z M143.3,200l56.7-56.8l56.7,56.8L200,256.8L143.3,200z"/>
	<path class="st2" d="M200,155.9L156,200l44,44.1l44-44.1L200,155.9z M157.5,200l42.5-42.7l42.5,42.7L200,242.7L157.5,200z"/>
	<path class="st2" d="M200,170.1L170.2,200l29.8,29.9l29.8-29.9L200,170.1z M171.6,200l28.4-28.5l28.4,28.5L200,228.5L171.6,200z"/>
	<path class="st2" d="M200,184.2L184.3,200l15.7,15.8l15.7-15.8L200,184.2z M185.7,200l14.3-14.3l14.3,14.3L200,214.3L185.7,200z"/>
	<polygon class="st2" points="399.9,299.4 400,299.3 301,200 400,100.7 499,200 400,299.3 400.1,299.4 499.9,199.4 400.1,99.4 
		400,99.3 399.9,99.4 300.1,199.4 	"/>
	<path class="st2" d="M400,113.5L313.7,200l86.3,86.5l86.3-86.5L400,113.5z M315.1,200l84.9-85.1l84.9,85.1L400,285.1L315.1,200z"/>
	<path class="st2" d="M400,127.6L327.8,200l72.2,72.4l72.2-72.4L400,127.6z M329.2,200l70.8-71l70.8,71L400,271L329.2,200z"/>
	<path class="st2" d="M400,141.8L341.9,200l58.1,58.2l58.1-58.2L400,141.8z M343.3,200l56.7-56.8l56.7,56.8L400,256.8L343.3,200z"/>
	<path class="st2" d="M400,155.9L356,200l44,44.1l44-44.1L400,155.9z M357.5,200l42.5-42.7l42.5,42.7L400,242.7L357.5,200z"/>
	<path class="st2" d="M400,170.1L370.2,200l29.8,29.9l29.8-29.9L400,170.1z M371.6,200l28.4-28.5l28.4,28.5L400,228.5L371.6,200z"/>
	<path class="st2" d="M400,184.2L384.3,200l15.7,15.8l15.7-15.8L400,184.2z M385.7,200l14.3-14.3l14.3,14.3L400,214.3L385.7,200z"/>
	<polygon class="st2" points="1,300 100,200.7 199,300 100,399.3 100.1,399.4 199.9,299.4 100.1,199.4 100,199.3 99.9,199.4 
		0.1,299.4 99.9,399.4 100,399.3 	"/>
	<path class="st2" d="M100,213.5L13.7,300l86.3,86.5l86.3-86.5L100,213.5z M15.1,300l84.9-85.1l84.9,85.1L100,385.1L15.1,300z"/>
	<path class="st2" d="M100,227.6L27.8,300l72.2,72.4l72.2-72.4L100,227.6z M29.2,300l70.8-71l70.8,71L100,371L29.2,300z"/>
	<path class="st2" d="M100,241.8L41.9,300l58.1,58.2l58.1-58.2L100,241.8z M43.3,300l56.7-56.8l56.7,56.8L100,356.8L43.3,300z"/>
	<path class="st2" d="M100,255.9L56,300l44,44.1l44-44.1L100,255.9z M57.5,300l42.5-42.7l42.5,42.7L100,342.7L57.5,300z"/>
	<path class="st2" d="M100,270.1L70.2,300l29.8,29.9l29.8-29.9L100,270.1z M71.6,300l28.4-28.5l28.4,28.5L100,328.5L71.6,300z"/>
	<path class="st2" d="M100,284.2L84.3,300l15.7,15.8l15.7-15.8L100,284.2z M85.7,300l14.3-14.3l14.3,14.3L100,314.3L85.7,300z"/>
	<polygon class="st2" points="200.1,299.4 299.9,399.4 300,399.3 201,300 300,200.7 399,300 300,399.3 300.1,399.4 399.9,299.4 
		300.1,199.4 300,199.3 299.9,199.4 	"/>
	<path class="st2" d="M300,213.5L213.7,300l86.3,86.5l86.3-86.5L300,213.5z M215.1,300l84.9-85.1l84.9,85.1L300,385.1L215.1,300z"/>
	<path class="st2" d="M300,227.6L227.8,300l72.2,72.4l72.2-72.4L300,227.6z M229.2,300l70.8-71l70.8,71L300,371L229.2,300z"/>
	<path class="st2" d="M300,241.8L241.9,300l58.1,58.2l58.1-58.2L300,241.8z M243.3,300l56.7-56.8l56.7,56.8L300,356.8L243.3,300z"/>
	<path class="st2" d="M300,255.9L256,300l44,44.1l44-44.1L300,255.9z M257.5,300l42.5-42.7l42.5,42.7L300,342.7L257.5,300z"/>
	<path class="st2" d="M300,270.1L270.2,300l29.8,29.9l29.8-29.9L300,270.1z M271.6,300l28.4-28.5l28.4,28.5L300,328.5L271.6,300z"/>
	<path class="st2" d="M300,284.2L284.3,300l15.7,15.8l15.7-15.8L300,284.2z M285.7,300l14.3-14.3l14.3,14.3L300,314.3L285.7,300z"/>
	<polygon class="st2" points="400.1,299.4 499.9,399.4 500,399.3 401,300 500,200.7 599,300 500,399.3 500.1,399.4 599.3,300 
		499.5,200 499.9,199.6 500.1,199.4 500,199.3 499.9,199.4 	"/>
	<path class="st2" d="M500,213.5L413.7,300l86.3,86.5l86.3-86.5L500,213.5z M415.1,300l84.9-85.1l84.9,85.1L500,385.1L415.1,300z"/>
	<path class="st2" d="M500,227.6L427.8,300l72.2,72.4l72.2-72.4L500,227.6z M429.2,300l70.8-71l70.8,71L500,371L429.2,300z"/>
	<path class="st2" d="M500,241.8L441.9,300l58.1,58.2l58.1-58.2L500,241.8z M443.3,300l56.7-56.8l56.7,56.8L500,356.8L443.3,300z"/>
	<path class="st2" d="M500,255.9L456,300l44,44.1l44-44.1L500,255.9z M457.5,300l42.5-42.7l42.5,42.7L500,342.7L457.5,300z"/>
	<path class="st2" d="M500,270.1L470.2,300l29.8,29.9l29.8-29.9L500,270.1z M471.6,300l28.4-28.5l28.4,28.5L500,328.5L471.6,300z"/>
	<path class="st2" d="M500,284.2L484.3,300l15.7,15.8l15.7-15.8L500,284.2z M485.7,300l14.3-14.3l14.3,14.3L500,314.3L485.7,300z"/>
	<polygon class="st2" points="599.3,100 500.1,199.4 499.9,199.6 499.5,200 599.3,300 600,299.3 501,200 600,100.7 600,99.3 	"/>
	<polygon class="st2" points="600,286.5 600,285.1 515.1,200 600,114.9 600,113.5 513.7,200 	"/>
	<polygon class="st2" points="600,272.4 600,271 529.2,200 600,129 600,127.6 527.8,200 	"/>
	<polygon class="st2" points="600,258.2 600,256.8 543.3,200 600,143.2 600,141.8 541.9,200 	"/>
	<polygon class="st2" points="600,244.1 600,242.7 557.5,200 600,157.3 600,155.9 556,200 	"/>
	<polygon class="st2" points="600,229.9 600,228.5 571.6,200 600,171.5 600,170.1 570.2,200 	"/>
	<polygon class="st2" points="600,215.8 600,214.3 585.7,200 600,185.7 600,184.2 584.3,200 	"/>
	<polygon class="st2" points="99.9,399.4 0.1,299.4 0,299.3 0,300.7 99,400 0,499.3 0.1,499.4 	"/>
	<polygon class="st2" points="0,313.5 0,314.9 84.9,400 0,485.1 0,486.5 86.3,400 	"/>
	<polygon class="st2" points="0,327.6 0,329 70.8,400 0,471 0,472.4 72.2,400 	"/>
	<polygon class="st2" points="0,341.8 0,343.2 56.7,400 0,456.8 0,458.2 58.1,400 	"/>
	<polygon class="st2" points="0,355.9 0,357.3 42.5,400 0,442.7 0,444.1 44,400 	"/>
	<polygon class="st2" points="0,370.1 0,371.5 28.4,400 0,428.5 0,429.9 29.8,400 	"/>
	<polygon class="st2" points="0,384.2 0,385.7 14.3,400 0,414.3 0,415.8 15.7,400 	"/>
	<polygon class="st2" points="299.9,399.4 200.1,299.4 200,299.3 199.9,299.4 100.1,399.4 199.9,499.4 200,499.3 101,400 200,300.7 
		299,400 200,499.3 200.1,499.4 	"/>
	<path class="st2" d="M200,313.5L113.7,400l86.3,86.5l86.3-86.5L200,313.5z M115.1,400l84.9-85.1l84.9,85.1L200,485.1L115.1,400z"/>
	<path class="st2" d="M200,327.6L127.8,400l72.2,72.4l72.2-72.4L200,327.6z M129.2,400l70.8-71l70.8,71L200,471L129.2,400z"/>
	<path class="st2" d="M200,341.8L141.9,400l58.1,58.2l58.1-58.2L200,341.8z M143.3,400l56.7-56.8l56.7,56.8L200,456.8L143.3,400z"/>
	<path class="st2" d="M200,355.9L156,400l44,44.1l44-44.1L200,355.9z M157.5,400l42.5-42.7l42.5,42.7L200,442.7L157.5,400z"/>
	<path class="st2" d="M200,370.1L170.2,400l29.8,29.9l29.8-29.9L200,370.1z M171.6,400l28.4-28.5l28.4,28.5L200,428.5L171.6,400z"/>
	<path class="st2" d="M200,384.2L184.3,400l15.7,15.8l15.7-15.8L200,384.2z M185.7,400l14.3-14.3l14.3,14.3L200,414.3L185.7,400z"/>
	<polygon class="st2" points="499.9,399.4 400.1,299.4 400,299.3 399.9,299.4 300.1,399.4 399.9,499.4 400,499.3 301,400 400,300.7 
		499,400 400,499.3 400.1,499.4 	"/>
	<path class="st2" d="M400,313.5L313.7,400l86.3,86.5l86.3-86.5L400,313.5z M315.1,400l84.9-85.1l84.9,85.1L400,485.1L315.1,400z"/>
	<path class="st2" d="M400,327.6L327.8,400l72.2,72.4l72.2-72.4L400,327.6z M329.2,400l70.8-71l70.8,71L400,471L329.2,400z"/>
	<path class="st2" d="M400,341.8L341.9,400l58.1,58.2l58.1-58.2L400,341.8z M343.3,400l56.7-56.8l56.7,56.8L400,456.8L343.3,400z"/>
	<path class="st2" d="M400,355.9L356,400l44,44.1l44-44.1L400,355.9z M357.5,400l42.5-42.7l42.5,42.7L400,442.7L357.5,400z"/>
	<path class="st2" d="M400,370.1L370.2,400l29.8,29.9l29.8-29.9L400,370.1z M371.6,400l28.4-28.5l28.4,28.5L400,428.5L371.6,400z"/>
	<path class="st2" d="M400,384.2L384.3,400l15.7,15.8l15.7-15.8L400,384.2z M385.7,400l14.3-14.3l14.3,14.3L400,414.3L385.7,400z"/>
	<path class="st2" d="M100.1,399.4l-0.1-0.1l-0.1,0.1l-99.8,100L100,599.5l99.9-100.1L100.1,399.4z M100,599.3L1,500l99-99.3
		l99,99.3L100,599.3z"/>
	<path class="st2" d="M13.7,500l86.3,86.5l86.3-86.5L100,413.5L13.7,500z M100,585.1L15.1,500l84.9-85.1l84.9,85.1L100,585.1z"/>
	<path class="st2" d="M27.8,500l72.2,72.4l72.2-72.4L100,427.6L27.8,500z M100,571l-70.8-71l70.8-71l70.8,71L100,571z"/>
	<path class="st2" d="M41.9,500l58.1,58.2l58.1-58.2L100,441.8L41.9,500z M100,556.8L43.3,500l56.7-56.8l56.7,56.8L100,556.8z"/>
	<path class="st2" d="M56,500l44,44.1l44-44.1l-44-44.1L56,500z M100,542.7L57.5,500l42.5-42.7l42.5,42.7L100,542.7z"/>
	<path class="st2" d="M70.2,500l29.8,29.9l29.8-29.9L100,470.1L70.2,500z M100,528.5L71.6,500l28.4-28.5l28.4,28.5L100,528.5z"/>
	<path class="st2" d="M84.3,500l15.7,15.8l15.7-15.8L100,484.2L84.3,500z M100,514.3L85.7,500l14.3-14.3l14.3,14.3L100,514.3z"/>
	<path class="st2" d="M300.1,399.4l-0.1-0.1l-0.1,0.1l-99.8,100L300,599.5l99.9-100.1L300.1,399.4z M300,599.3L201,500l99-99.3
		l99,99.3L300,599.3z"/>
	<path class="st2" d="M213.7,500l86.3,86.5l86.3-86.5L300,413.5L213.7,500z M300,585.1L215.1,500l84.9-85.1l84.9,85.1L300,585.1z"/>
	<path class="st2" d="M227.8,500l72.2,72.4l72.2-72.4L300,427.6L227.8,500z M300,571l-70.8-71l70.8-71l70.8,71L300,571z"/>
	<path class="st2" d="M241.9,500l58.1,58.2l58.1-58.2L300,441.8L241.9,500z M300,556.8L243.3,500l56.7-56.8l56.7,56.8L300,556.8z"/>
	<path class="st2" d="M256,500l44,44.1l44-44.1l-44-44.1L256,500z M300,542.7L257.5,500l42.5-42.7l42.5,42.7L300,542.7z"/>
	<path class="st2" d="M270.2,500l29.8,29.9l29.8-29.9L300,470.1L270.2,500z M300,528.5L271.6,500l28.4-28.5l28.4,28.5L300,528.5z"/>
	<path class="st2" d="M284.3,500l15.7,15.8l15.7-15.8L300,484.2L284.3,500z M300,514.3L285.7,500l14.3-14.3l14.3,14.3L300,514.3z"/>
	<path class="st2" d="M499.5,400l0.4-0.4l0.2-0.2l-0.1-0.1l-0.1,0.1l-99.8,100L500,599.5l99.3-99.5L499.5,400z M500,599.3L401,500
		l99-99.3l99,99.3L500,599.3z"/>
	<path class="st2" d="M413.7,500l86.3,86.5l86.3-86.5L500,413.5L413.7,500z M500,585.1L415.1,500l84.9-85.1l84.9,85.1L500,585.1z"/>
	<path class="st2" d="M427.8,500l72.2,72.4l72.2-72.4L500,427.6L427.8,500z M500,571l-70.8-71l70.8-71l70.8,71L500,571z"/>
	<path class="st2" d="M441.9,500l58.1,58.2l58.1-58.2L500,441.8L441.9,500z M500,556.8L443.3,500l56.7-56.8l56.7,56.8L500,556.8z"/>
	<path class="st2" d="M456,500l44,44.1l44-44.1l-44-44.1L456,500z M500,542.7L457.5,500l42.5-42.7l42.5,42.7L500,542.7z"/>
	<path class="st2" d="M470.2,500l29.8,29.9l29.8-29.9L500,470.1L470.2,500z M500,528.5L471.6,500l28.4-28.5l28.4,28.5L500,528.5z"/>
	<path class="st2" d="M484.3,500l15.7,15.8l15.7-15.8L500,484.2L484.3,500z M500,514.3L485.7,500l14.3-14.3l14.3,14.3L500,514.3z"/>
	<polygon class="st2" points="599.3,300 500.1,399.4 499.9,399.6 499.5,400 599.3,500 600,499.3 501,400 600,300.7 600,299.3 	"/>
	<polygon class="st2" points="600,486.5 600,485.1 515.1,400 600,314.9 600,313.5 513.7,400 	"/>
	<polygon class="st2" points="600,472.4 600,471 529.2,400 600,329 600,327.6 527.8,400 	"/>
	<polygon class="st2" points="600,458.2 600,456.8 543.3,400 600,343.2 600,341.8 541.9,400 	"/>
	<polygon class="st2" points="600,444.1 600,442.7 557.5,400 600,357.3 600,355.9 556,400 	"/>
	<polygon class="st2" points="600,429.9 600,428.5 571.6,400 600,371.5 600,370.1 570.2,400 	"/>
	<polygon class="st2" points="600,415.8 600,414.3 585.7,400 600,385.7 600,384.2 584.3,400 	"/>
	<polygon class="st2" points="100,599.5 0.1,499.4 0,499.3 0,500.7 99,600 99.5,600 99.9,599.6 	"/>
	<polygon class="st2" points="0,514.9 84.9,600 86.3,600 0,513.5 	"/>
	<polygon class="st2" points="0,529 70.8,600 72.2,600 0,527.6 	"/>
	<polygon class="st2" points="0,543.2 56.7,600 58.1,600 0,541.8 	"/>
	<polygon class="st2" points="0,557.3 42.5,600 44,600 0,555.9 	"/>
	<polygon class="st2" points="0,571.5 28.4,600 29.8,600 0,570.1 	"/>
	<polygon class="st2" points="0,585.7 14.3,600 15.7,600 0,584.2 	"/>
	<polygon class="st2" points="300,599.5 200.1,499.4 200,499.3 199.9,499.4 100,599.5 99.9,599.6 99.5,600 101,600 200,500.7 
		299,600 299.5,600 299.9,599.6 	"/>
	<polygon class="st2" points="113.7,600 115.1,600 200,514.9 284.9,600 286.3,600 200,513.5 	"/>
	<polygon class="st2" points="127.8,600 129.2,600 200,529 270.8,600 272.2,600 200,527.6 	"/>
	<polygon class="st2" points="141.9,600 143.3,600 200,543.2 256.7,600 258.1,600 200,541.8 	"/>
	<polygon class="st2" points="156,600 157.5,600 200,557.3 242.5,600 244,600 200,555.9 	"/>
	<polygon class="st2" points="170.2,600 171.6,600 200,571.5 228.4,600 229.8,600 200,570.1 	"/>
	<polygon class="st2" points="184.3,600 185.7,600 200,585.7 214.3,600 215.7,600 200,584.2 	"/>
	<polygon class="st2" points="500,599.5 400.1,499.4 400,499.3 399.9,499.4 300,599.5 299.9,599.6 299.5,600 301,600 400,500.7 
		499,600 499.5,600 499.9,599.6 	"/>
	<polygon class="st2" points="313.7,600 315.1,600 400,514.9 484.9,600 486.3,600 400,513.5 	"/>
	<polygon class="st2" points="327.8,600 329.2,600 400,529 470.8,600 472.2,600 400,527.6 	"/>
	<polygon class="st2" points="341.9,600 343.3,600 400,543.2 456.7,600 458.1,600 400,541.8 	"/>
	<polygon class="st2" points="356,600 357.5,600 400,557.3 442.5,600 444,600 400,555.9 	"/>
	<polygon class="st2" points="370.2,600 371.6,600 400,571.5 428.4,600 429.8,600 400,570.1 	"/>
	<polygon class="st2" points="384.3,600 385.7,600 400,585.7 414.3,600 415.7,600 400,584.2 	"/>
	<polygon class="st2" points="600,499.3 599.3,500 500,599.5 499.9,599.6 499.5,600 501,600 600,500.7 	"/>
	<polygon class="st2" points="515.1,600 600,514.9 600,513.5 513.7,600 	"/>
	<polygon class="st2" points="529.2,600 600,529 600,527.6 527.8,600 	"/>
	<polygon class="st2" points="543.3,600 600,543.2 600,541.8 541.9,600 	"/>
	<polygon class="st2" points="557.5,600 600,557.3 600,555.9 556,600 	"/>
	<polygon class="st2" points="571.6,600 600,571.5 600,570.1 570.2,600 	"/>
	<polygon class="st2" points="585.7,600 600,585.7 600,584.2 584.3,600 	"/>
</g>
</svg>
