<?xml version="1.0" encoding="utf-8"?>
<!-- Generator: Adobe Illustrator 22.0.0, SVG Export Plug-In . SVG Version: 6.00 Build 0)  -->
<svg version="1.1" id="Layer_1" xmlns="http://www.w3.org/2000/svg" xmlns:xlink="http://www.w3.org/1999/xlink" x="0px" y="0px"
	 viewBox="0 0 720 185" style="enable-background:new 0 0 720 185;" xml:space="preserve">
<style type="text/css">
	.st0{fill:#FAF2E5;}
	.st1{fill:none;stroke:#C99340;stroke-width:2;stroke-linecap:round;stroke-linejoin:round;stroke-miterlimit:10;}
</style>
<g>
	<g>
		<path class="st0" d="M153.9,52.1c0-10.8-3.1-22-16-19.7c-13.7,2.4-26.5,19.1-35.8,33.3c2.3-6.4,4.7-13.1,4.7-15.9
			c0-8.5-6.7-10-13.9-8.7c-9.2,1.6-26.5,11.7-26.5,20c0,2.3,1.4,3.9,3.4,3.5c2-0.3,3.6-1.9,3.6-3.7c0-4.9,12.4-11.5,19.4-12.8
			c2.5-0.4,6.8-0.5,6.8,2.6c0,4-11.3,33-21.8,59.5l-6.7,17.4C64.4,144.8,60.1,156,58,162c-0.2,0.8-0.4,1.5-0.4,1.9
			c0,1.3,1.4,2.8,3.4,2.5c2-0.3,2.7-1.6,3.2-2.7c4.7-12.3,11-28.2,16-41.7l0.5-1.4c0.9,7,11,6.3,16.6,5.4
			c12.1-2.1,28.1-10.5,40.7-28.1C149,82.1,153.9,64.5,153.9,52.1z M97.4,118.8c-1.4,0.3-9.5,1.5-9.5-0.7c0-2-1.4-3.3-3.4-3
			c-0.7,0.1-1.1,0.4-1.6,0.6c13-30,38.5-73.4,54.7-76.2c7.4-1.3,9.4,5,9.4,13.1c0,11.5-4.3,28.3-14,41.7
			C122,109.6,107.4,117,97.4,118.8z"/>
		<path class="st0" d="M296.4,55.1c2.3-0.4,6.1-2.3,6.1-7.7c0-2.5-1.4-5-4.9-4.4c-3.2,0.6-5.9,3.9-5.9,7.5
			C291.9,53.4,293,55.7,296.4,55.1z"/>
		<path class="st0" d="M301.4,89.7c-1.1,0.2-2,0.7-2.7,1.6c-2.2,2.7-12.1,15.6-22.9,27.4c-1.6,1.7-3.8,3-4.7,3.2
			c-0.7,0.1-0.7-0.8-0.7-2.2c0-5.6,4-14.9,7.2-23c4.9-11.5,10.3-22,11.3-24c0.4-0.8,0.4-2,0.4-2.6c0-1.6-1.1-2.7-3.4-2.3
			c-1.1,0.2-2,1.1-2.7,1.9L262.8,97c-0.1,0.2-0.2,0.3-0.3,0.4c-0.1,0.1-0.2,0.1-0.2,0.2l-5.2,6.5c-10.6,13-18.5,22.7-23.6,23.6
			c-7,1.2-10.6-9.3-11.9-13.6c13.8-4.5,30.4-17.5,30.4-30.5c0-5.4-3.2-9.5-9.7-8.4c-7,1.2-15.7,9.6-22,17.6l2-5
			c9-12.4,17.5-24.1,23.9-33.6c11.2-16.2,17.3-27.5,17.3-33.3c0-4.9-2.9-9.4-8.5-8.4c-3.4,0.6-8.6,4.4-12.6,11
			c-5.2,8.7-14,29.8-26.1,61.7c-4.7,6.4-9.4,12.6-15.5,20.7c-0.4,0.6-0.7,1-2.3,2.9l0,0c-8.3,11-14.6,16.4-19.9,17.3l-0.5,0.1
			c5-8.6,9.4-18.2,9.4-28.3c0-5.2-1.6-13.8-9.2-12.4c-11.2,2-17.1,21.2-17.1,30.4c0,6.8,2.2,12.2,5.8,15c-4,4.5-10.1,10.6-15.7,11.6
			c-4.5,0.8-6.7-3.3-6.7-8.2c0-10.4,7.6-27.6,20.5-38.5c1.1-1.1,1.6-2.3,1.6-3.3c0-1.6-1.6-3.1-3.6-2.8c-0.5,0.1-1.4,0.8-2.3,1.3
			c-15.3,12.8-23.2,32.4-23.2,44.6c0,7.9,4.1,15.6,13.7,14c8.3-1.5,16-8.6,22-16.1c1.6,0.3,3.2,0.1,5.2-0.2
			c9.3-1.6,17.6-10.6,25.1-20.3c0.2-0.2,0.3-0.4,0.4-0.5l3.8-5l-7.6,20.8c-1.3,3.3-3.8,9.1-3.8,11.6c0,1.4,1.1,3,3.6,2.6
			c2.2-0.4,3.1-2.2,3.6-3.7l3.1-8.6c2-5.2,4.5-10.5,7.2-15.5l0.9,2.4c3.2,9,7.9,19.7,18,17.9c9.2-1.6,17.3-11.7,31.7-29.7l2.9-3.6
			l0,0c0.7-0.8,1.3-1.3,2.3-2.7c-3.2,8-6.3,16.8-6.3,22.5c0,4.1,2,8.5,7.6,7.5c2.7-0.5,6.5-2.6,9.5-6c13.1-14.4,21.4-25.4,23-27.5
			c0.5-0.8,1.3-2.2,1.3-2.9C304.8,91,303.6,89.3,301.4,89.7z M248.4,26.3c2.5-4.2,5-6.5,6.7-6.8c1.1-0.2,1.4,1.4,1.4,2.8
			c0,5.4-12.1,23.7-25.4,42.5C240.8,40.4,245,31.9,248.4,26.3z M171.3,124.6c-2.7-2.2-3.2-7.2-3.2-9.9c0-6.8,4.1-21.1,10.1-22.1
			c2-0.3,2.2,4.7,2.2,6.8C180.3,107.2,176,117,171.3,124.6z M242.4,82.2c1.8-0.3,2.5,0.6,2.5,2.6c0,5.8-6.1,12.1-13,16.5
			c-5.2,3.6-10.3,5.6-14.6,7.1C226.1,94.3,236,83.4,242.4,82.2z"/>
		<path class="st0" d="M510.4,50.6c-13.6,2.4-26.4,19-35.8,33.3c2.3-6.4,4.7-13.1,4.7-15.9c0-8.5-6.7-10-13.9-8.7
			c-9.2,1.6-26.5,11.7-26.5,20c0,2.3,1.4,3.9,3.4,3.5s3.6-1.9,3.6-3.7c0-4.9,12.4-11.5,19.4-12.8c2.5-0.4,6.8-0.5,6.8,2.6
			c0,4-11.3,33-21.8,59.5l-6.8,17.4c-6.7,17.2-11,28.4-13.1,34.4c-0.2,0.8-0.4,1.5-0.4,1.9c0,1.3,1.4,2.8,3.4,2.5
			c2-0.3,2.7-1.6,3.2-2.7c4.7-12.3,11-28.2,16-41.7l0.5-1.4c0.9,7,11,6.3,16.6,5.4c12.1-2.1,28.1-10.5,40.7-28.1
			c11-15.6,15.8-33.2,15.8-45.6C526.6,59.4,523.4,48.3,510.4,50.6z M505.4,112.5c-10.8,15.2-25.4,22.7-35.5,24.4
			c-1.4,0.3-9.5,1.5-9.5-0.7c0-2-1.4-3.3-3.4-3c-0.7,0.1-1.1,0.4-1.6,0.6c13-30,38.5-73.4,54.7-76.2c7.4-1.3,9.4,5,9.4,13.1
			C519.4,82.3,515.2,99.1,505.4,112.5z"/>
		<path class="st0" d="M547.8,94.6c2.3-0.4,6.1-2.3,6.1-7.7c0-2.5-1.4-5-4.9-4.4c-3.2,0.6-5.9,3.9-5.9,7.5
			C543.1,92.9,544.3,95.2,547.8,94.6z"/>
		<path class="st0" d="M641.3,113.5c-0.9,0.2-1.8,0.7-2.5,1.5c-10.1,13.1-23.4,29.5-28.1,30.3c-2.9,0.5-3.6-3.7-3.6-6.6
			c0-9.2,5.8-26.8,9.9-38.1l19.3-3.4c2-0.3,3.6-2.3,3.6-4.2s-1.6-3.1-3.6-2.8l-16.6,2.9l10.8-27.5c0.4-1,0.4-1.9,0.4-2.2
			c0-1.6-1.1-3.2-3.4-2.8c-1.4,0.3-2.7,1.4-3.2,2.7c0,0-2.7,6.2-9.7,25.1l-2.7,6.2l-10.4,1.8c-2,0.3-3.6,2.1-3.6,4.1s1.6,3.3,3.6,3
			l6.7-1.2c-3.6,6.6-7.7,13.1-13.9,20.6c-0.3,0.4-0.5,0.7-0.7,1.1c-10,12.9-22.7,28.4-27.2,29.2c-2.9,0.5-3.6-3.7-3.6-6.6
			c0-9.2,5.8-26.8,9.9-38.1l19.3-3.4c2-0.3,3.6-2.3,3.6-4.2s-1.6-3.1-3.6-2.8l-16.6,2.9l10.8-27.6c0.4-1,0.4-1.9,0.4-2.2
			c0-1.6-1.1-3.2-3.4-2.8c-1.4,0.3-2.7,1.4-3.2,2.7c0,0-2.7,6.2-9.7,25.1l-2.7,6.2l-10.4,1.8c-2,0.3-3.6,2.1-3.6,4.1s1.6,3.3,3.6,3
			l6.7-1.2c-3.6,6.6-7.7,13.1-13.9,20.6c-0.3,0.3-0.5,0.7-0.7,1.1c-3.3,4.2-12.3,15.7-22,26.3c-1.6,1.7-3.8,3-4.7,3.2
			c-0.7,0.1-0.7-0.8-0.7-2.2c0-5.6,4-14.9,7.2-23c4.9-11.5,10.3-22,11.3-24c0.4-0.8,0.4-2,0.4-2.6c0-1.6-1.1-2.7-3.4-2.3
			c-1.1,0.2-2,1.1-2.7,1.9l-20.3,27.3c-1.3,1.7-1.3,2-1.3,3.1c0,1.6,1.4,3.3,3.4,3c0.9-0.2,1.6-0.6,2.3-1.5c0.7-0.8,1.3-1.3,2.3-2.8
			c-3.2,8-6.3,16.8-6.3,22.5c0,4.1,2,8.5,7.6,7.5c2.7-0.5,6.5-2.6,9.5-6c13.1-14.4,21.4-25.4,23-27.5c0.1-0.2,0.3-0.5,0.5-0.8
			l3.5-4.4c-2,7.4-2.9,13.6-2.9,18.3c0,6.8,3.1,13.5,10.4,12.2c9.7-1.7,26.8-24.7,33.1-33.4c0.2-0.2,0.4-0.6,0.6-0.9l3.2-4.1
			c-2,7.4-2.9,13.6-2.9,18.3c0,6.8,3.1,13.5,10.4,12.2c9.7-1.7,26.8-24.7,33.1-33.4c0.5-0.6,1.1-2,1.1-2.7
			C644.9,114.7,643.3,113.2,641.3,113.5z"/>
		<path class="st0" d="M403.9,108.5c-1.6,0.3-2.9,2.1-3.6,4.1c-0.5,2.1-12.1,14.4-24.8,26.9c-3.2-9.5-7-21.1-9.4-32.2
			c10.1-8.6,34.9-31.2,34.9-47.7c0-9.7-8.1-16.8-18.5-14.9c-8.1,1.4-14.9,7.3-19.3,14c-5,7.7-6.8,16.7-6.8,26.9
			c0,6.7,0.5,13.4,1.8,20l-4.1,4c-11.7,10.7-25.4,23.6-33.3,37c-4,6.8-5.4,12.5-5.4,16.8c0,10.4,8.3,14.6,19.1,12.7
			c13-2.3,22.3-10.1,37.4-24.6c2.5,6.4,4.7,10.2,5.4,12c0.5,1.3,1.4,2.3,3.4,1.9c2-0.4,3.6-2.1,3.6-4.2c0-0.2-0.2-0.9-0.4-1.2
			c-0.2-0.5-2.7-6-6.1-14.2c13.1-12.6,28.3-28.2,29.5-33.3c0-0.2,0.2-0.8,0.2-0.9C407.5,109.9,405.9,108.2,403.9,108.5z M368.6,62
			c2.5-4.2,8.1-9.3,13.7-10.3c5.8-1,11.7,2.4,11.7,8.9c0,12.2-19.4,30.8-29.3,39.4c-0.9-5.2-1.4-10.9-1.4-15.8
			C363.2,77.9,364.5,69,368.6,62z M334.4,169c-5.9,1-11.9-0.4-11.9-6.9c0-3.1,1.8-8.2,4.3-12.8c6.8-12,20.3-24.5,33.1-36.1
			c2.9,11.9,6.1,23,9.5,31.8C360.8,153.8,347.9,166.7,334.4,169z"/>
	</g>
	<path class="st1" d="M340.4,72c0-3.3-2.7-6.1-6.1-6.1c-2.1,0-3.9,1-5,2.6c-1.1-1.6-2.9-2.6-5-2.6c-3.4,0-6.1,2.7-6.1,6.1
		c0,0.1,0,0.2,0,0.3c0,0.1,0,0.2,0,0.2c0,6.2,11,13.5,11.1,13.5s11.1-7.3,11.1-13.5c0-0.1,0-0.2,0-0.2
		C340.4,72.2,340.4,72.1,340.4,72z"/>
	<g>
		<path class="st1" d="M75,23.6h-6.3c-9.1,0-16.5-7.4-16.5-16.5V1.6l0,0v5.5c0,9.1-7.4,16.4-16.4,16.4h-6.3h6.3
			c9.1,0,16.4,7.4,16.4,16.4v5.7l0,0v-5.5c0-9.1,7.4-16.5,16.5-16.5H75z"/>
		<path class="st1" d="M30.9,39.3h-4.1c-5.9,0-10.6-4.7-10.6-10.6v-3.6l0,0v3.6c0,5.9-4.7,10.6-10.6,10.6h-4h4.1
			c5.9,0,10.6,4.7,10.6,10.6v3.6l0,0v-3.6c0-5.9,4.7-10.6,10.6-10.6C26.9,39.3,30.9,39.3,30.9,39.3z"/>
		<g>
			<path class="st1" d="M53,68.5h-4.1c-5.9,0-10.6-4.7-10.6-10.6v-3.6l0,0v3.6c0,5.9-4.7,10.6-10.6,10.6h-4.1h4.1
				c5.9,0,10.6,4.7,10.6,10.6v3.6l0,0v-3.6c0-5.9,4.7-10.6,10.6-10.6H53z"/>
		</g>
	</g>
	<g>
		<path class="st1" d="M644.9,64.1h6.3c9.1,0,16.5-7.4,16.5-16.4v-5.5l0,0v5.5c0,9.1,7.4,16.4,16.4,16.4h6.3h-6.3
			c-9.1,0-16.4,7.4-16.4,16.4V86l0,0v-5.4c0-9.1-7.4-16.4-16.5-16.4L644.9,64.1L644.9,64.1z"/>
		<path class="st1" d="M688.9,79.9h4.1c5.9,0,10.6-4.7,10.6-10.6v-3.6l0,0v3.6c0,5.9,4.7,10.6,10.6,10.6h4.1h-4.1
			c-5.9,0-10.6,4.7-10.6,10.6v3.6l0,0v-3.6c0-5.9-4.7-10.6-10.6-10.6H688.9z"/>
		<g>
			<path class="st1" d="M666.9,109.1h4.1c5.9,0,10.6-4.7,10.6-10.6v-3.6l0,0v3.6c0,5.9,4.7,10.6,10.6,10.6h4.1h-4.1
				c-5.9,0-10.6,4.7-10.6,10.6v3.6l0,0v-3.6c0-5.9-4.7-10.6-10.6-10.6H666.9z"/>
		</g>
	</g>
</g>
</svg>
