<?xml version="1.0" encoding="utf-8"?>
<!-- Generator: Adobe Illustrator 22.0.0, SVG Export Plug-In . SVG Version: 6.00 Build 0)  -->
<svg version="1.1" id="Layer_1" xmlns="http://www.w3.org/2000/svg" xmlns:xlink="http://www.w3.org/1999/xlink" x="0px" y="0px"
	 viewBox="0 0 430 430" style="enable-background:new 0 0 430 430;" xml:space="preserve">
<style type="text/css">
	.st0{fill:#C99340;}
	.st1{fill:#B1AB9E;}
	.st2{fill:#EAE7DA;}
	.st3{fill:#FAF2E5;stroke:#C99340;stroke-width:2;stroke-linecap:round;stroke-linejoin:round;stroke-miterlimit:10;}
</style>
<g>
	<g>
		<g>
			<path class="st0" d="M73.3,27c-0.8,0.3-1.3,0.8-1.6,1.6c-0.3,0.8-0.4,2.1-0.4,3.8v34.7c0,1.8,0.1,3,0.4,3.8
				c0.3,0.8,0.8,1.3,1.6,1.6c0.8,0.3,2,0.5,3.7,0.5v1.4c-2.1-0.1-5.1-0.2-8.9-0.2c-4,0-7,0.1-8.9,0.2v-1.4c1.7-0.1,2.9-0.3,3.7-0.5
				c0.8-0.3,1.3-0.8,1.6-1.6c0.3-0.8,0.4-2.1,0.4-3.8V32.5c0-1.8-0.1-3-0.4-3.8c-0.3-0.8-0.8-1.3-1.6-1.6c-0.8-0.3-2-0.5-3.7-0.5
				v-1.4c1.9,0.1,4.9,0.2,8.9,0.2c3.8,0,6.7-0.1,8.9-0.2v1.4C75.3,26.6,74.1,26.7,73.3,27z"/>
			<path class="st0" d="M134.4,52.8c2.2,2.3,3.3,5,3.3,8.2c0,2.6-0.7,5-2,7c-1.4,2-3.3,3.6-5.8,4.8c-2.5,1.1-5.5,1.7-8.9,1.7
				c-0.9,0-2.6,0-4.9-0.1c-2.3-0.1-4.7-0.1-7.1-0.1c-3.8,0-6.7,0.1-8.7,0.2v-1.4c1.7-0.1,2.9-0.3,3.7-0.5c0.8-0.3,1.3-0.8,1.6-1.6
				c0.3-0.8,0.4-2.1,0.4-3.8V32.5c0-1.8-0.1-3-0.4-3.8c-0.3-0.8-0.8-1.3-1.6-1.6c-0.8-0.3-2-0.5-3.7-0.5v-1.4
				c1.9,0.1,4.8,0.2,8.5,0.2c1.8,0,3.8,0,6-0.1c2.2,0,3.7-0.1,4.5-0.1c3.2,0,5.9,0.5,8.1,1.4c2.2,0.9,3.9,2.2,5,3.9
				c1.1,1.6,1.7,3.6,1.7,5.7c0,2.7-0.8,5.1-2.5,7.2c-1.7,2.1-4.4,3.8-8.1,4.9v0.1C128.6,49.1,132.3,50.6,134.4,52.8z M125.1,45.2
				c1.5-2.1,2.3-4.8,2.3-8.3c0-3.5-0.8-6.1-2.3-7.8c-1.5-1.7-4-2.6-7.5-2.6c-1.5,0-2.5,0.2-3.3,0.5c-0.7,0.3-1.2,0.9-1.5,1.8
				c-0.3,0.8-0.4,2.1-0.4,3.8v15.8h4.7C120.9,48.3,123.6,47.3,125.1,45.2z M112.8,70.9c0.3,0.8,0.8,1.3,1.5,1.6
				c0.7,0.3,1.8,0.4,3.3,0.4c8.7,0,13.1-4.1,13.1-12.2c0-3.7-1-6.4-3-8.4c-2-1.9-5.1-2.9-9.5-2.9h-5.9v17.7
				C112.4,68.8,112.5,70.1,112.8,70.9z"/>
			<path class="st0" d="M179.1,65.6c0,2.6,0.2,5.6,0.5,8.9c-3.2-0.1-8.5-0.2-16-0.2c-8.9,0-15.7,0.1-20.3,0.2v-1.4
				c1.7-0.1,2.9-0.3,3.7-0.5c0.8-0.3,1.3-0.8,1.6-1.6c0.3-0.8,0.4-2.1,0.4-3.8V32.5c0-1.8-0.1-3-0.4-3.8c-0.3-0.8-0.8-1.3-1.6-1.6
				c-0.8-0.3-2-0.5-3.7-0.5v-1.4c4.6,0.1,11.3,0.2,20.3,0.2c6.8,0,11.7-0.1,14.6-0.2c-0.3,3-0.5,5.8-0.5,8.3c0,1.8,0.1,3.3,0.2,4.3
				h-1.6c-0.3-3-0.8-5.3-1.3-6.8c-0.5-1.5-1.4-2.6-2.6-3.2c-1.2-0.7-3.1-1-5.5-1h-5.8c-1.7,0-2.9,0.1-3.7,0.4
				c-0.8,0.3-1.3,0.8-1.6,1.6c-0.3,0.8-0.4,2.1-0.4,3.8V49h4.6c2.3,0,3.9-0.7,4.7-2.1c0.8-1.4,1.3-2.8,1.4-4.3
				c0.2-1.5,0.3-2.4,0.4-2.8h1.6c-0.2,2.3-0.2,4.5-0.2,6.6l0,3.3c0,2.4,0.1,5.7,0.4,9.9h-1.6c0-0.3-0.2-1.4-0.4-3.4
				c-0.2-1.9-0.8-3.4-1.9-4.4c-1-1-2.5-1.5-4.4-1.5h-4.6v16.8c0,1.8,0.1,3,0.4,3.8c0.3,0.8,0.8,1.3,1.6,1.6c0.8,0.3,2,0.4,3.7,0.4
				h5.1c2.9,0,5.1-0.4,6.6-1.2c1.5-0.8,2.6-2,3.3-3.7c0.7-1.7,1.2-4.2,1.6-7.5h1.6C179.2,61.8,179.1,63.5,179.1,65.6z"/>
			<path class="st0" d="M200,27c-0.8,0.3-1.3,0.8-1.6,1.6c-0.3,0.8-0.4,2.1-0.4,3.8v34.7c0,1.8,0.1,3,0.4,3.8
				c0.3,0.8,0.8,1.3,1.6,1.6c0.8,0.3,2,0.4,3.7,0.4h5.1c2.9,0,5.1-0.4,6.6-1.2c1.5-0.8,2.6-2.1,3.3-3.9c0.7-1.8,1.2-4.4,1.6-7.9h1.6
				c-0.1,1.5-0.2,3.4-0.2,5.7c0,2.6,0.2,5.6,0.5,8.9c-3.2-0.1-8.5-0.2-16-0.2c-8.9,0-15.7,0.1-20.3,0.2v-1.4
				c1.7-0.1,2.9-0.3,3.7-0.5c0.8-0.3,1.3-0.8,1.6-1.6c0.3-0.8,0.4-2.1,0.4-3.8V32.5c0-1.8-0.1-3-0.4-3.8c-0.3-0.8-0.8-1.3-1.6-1.6
				c-0.8-0.3-2-0.5-3.7-0.5v-1.4c1.9,0.1,4.9,0.2,8.9,0.2c3.8,0,6.7-0.1,8.9-0.2v1.4C202,26.6,200.8,26.7,200,27z"/>
			<path class="st0" d="M261.6,27.1c3.3,2,5.9,4.9,7.7,8.7c1.8,3.8,2.7,8.3,2.7,13.6c0,5.1-0.9,9.7-2.8,13.6c-1.9,4-4.5,7-7.9,9.2
				s-7.2,3.3-11.5,3.3c-4.4,0-8.3-1-11.6-3c-3.3-2-5.9-4.9-7.7-8.7c-1.8-3.8-2.7-8.3-2.7-13.6c0-5.1,0.9-9.7,2.8-13.6
				c1.9-4,4.5-7,7.9-9.2c3.4-2.2,7.2-3.3,11.5-3.3C254.3,24.1,258.2,25.1,261.6,27.1z M241.8,28.5c-2.3,2.1-4,5-5.3,8.7
				c-1.2,3.7-1.8,8-1.8,12.8c0,4.8,0.7,9.1,2,12.8c1.4,3.7,3.2,6.5,5.6,8.5c2.4,2,5,3,7.8,3c3,0,5.6-1,7.9-3.1c2.3-2.1,4-5,5.2-8.7
				s1.8-8,1.8-12.8c0-4.8-0.7-9.1-2-12.8s-3.2-6.5-5.6-8.5c-2.3-2-4.9-3-7.8-3C246.7,25.4,244,26.4,241.8,28.5z"/>
			<path class="st0" d="M318.4,27.2c-0.8,0.4-1.3,1.1-1.6,2c-0.3,0.9-0.4,2.3-0.4,4.1v41.7h-1.6l-29.3-45.3v36.9
				c0,1.8,0.2,3.2,0.5,4.1c0.3,0.9,0.9,1.6,1.8,2c0.9,0.4,2.2,0.6,4.1,0.7v1.4c-1.7-0.1-4-0.2-7.1-0.2c-2.8,0-4.9,0.1-6.5,0.2v-1.4
				c1.6-0.1,2.8-0.3,3.6-0.7c0.8-0.4,1.3-1.1,1.6-2c0.3-0.9,0.4-2.3,0.4-4.1V32.5c0-1.8-0.1-3-0.4-3.8c-0.3-0.8-0.8-1.3-1.6-1.6
				c-0.8-0.3-2-0.5-3.7-0.5v-1.4c1.5,0.1,3.7,0.2,6.5,0.2c2.1,0,3.9-0.1,5.5-0.2l24.7,38V33.2c0-1.8-0.2-3.1-0.5-4.1
				c-0.3-0.9-0.9-1.6-1.8-2c-0.9-0.4-2.3-0.6-4.1-0.7v-1.4c1.7,0.1,4,0.2,7.1,0.2c2.8,0,4.9-0.1,6.5-0.2v1.4
				C320.4,26.6,319.2,26.8,318.4,27.2z"/>
			<path class="st0" d="M365.3,71.8c-0.3-0.9-0.8-1.3-1.3-1.3c-0.3,0-0.6,0.1-0.9,0.2c-0.3,0.1-0.7,0.5-1.4,1
				c-1.6,1.3-3.3,2.2-5.1,2.8c-1.7,0.6-3.7,1-5.9,1c-4.8,0-8.9-1-12.3-3c-3.4-2-6.1-4.8-7.9-8.6c-1.8-3.7-2.7-8.2-2.7-13.3
				c0-5.3,1-10,2.9-14c1.9-4,4.6-7.1,8-9.3c3.4-2.2,7.3-3.3,11.6-3.3c1.9,0,3.6,0.2,5,0.6c1.5,0.4,2.7,0.9,3.8,1.5
				c1.1,0.6,2.3,1.4,3.7,2.4c0.6,0.5,1.1,0.7,1.4,0.7c0.9,0,1.5-1.4,1.7-4.3h1.6c-0.2,3-0.3,8.4-0.3,16.1h-1.6
				c-0.4-2.5-0.9-4.6-1.3-6.2c-0.5-1.6-1.2-3-2.2-4.2c-1.4-1.7-3.1-3-5.3-4c-2.2-1-4.4-1.5-6.8-1.5c-3.1,0-5.8,1-8.1,3
				c-2.3,2-4.1,4.8-5.4,8.5c-1.3,3.7-1.9,8-1.9,13c0,5.6,0.6,10.2,1.8,13.7c1.2,3.6,3,6.2,5.5,7.9c2.4,1.7,5.6,2.6,9.4,2.6
				c2.8,0,5.2-0.7,7.3-2.2c0.8-0.6,1.4-1.1,1.6-1.6c0.3-0.5,0.4-1.3,0.4-2.2v-6.7c0-1.9-0.2-3.3-0.5-4.2c-0.4-0.9-1-1.5-2-1.8
				c-1-0.3-2.5-0.5-4.5-0.6v-1.4c2.3,0.2,5.6,0.2,9.9,0.2c3.3,0,5.7-0.1,7.3-0.2v1.4c-1.1,0.1-1.9,0.3-2.3,0.6
				c-0.5,0.3-0.8,0.8-1,1.6c-0.2,0.8-0.3,2.1-0.3,3.9v13.8h-1.4C365.8,73.6,365.6,72.7,365.3,71.8z"/>
		</g>
	</g>
	<g>
		<g>
			<path class="st0" d="M36.2,164.7c2.1,0,3.8-0.1,5.2-0.2v1.4c-0.9,0.2-1.8,0.8-2.7,1.8c-0.9,1-1.8,2.5-2.9,4.5l-11,21.7v12.7
				c0,1.8,0.1,3,0.4,3.8c0.3,0.8,0.8,1.3,1.6,1.6c0.8,0.3,2,0.5,3.7,0.5v1.4c-2.2-0.1-5.1-0.2-8.9-0.2c-4,0-7,0.1-9,0.2v-1.4
				c1.7-0.1,2.9-0.3,3.7-0.5c0.8-0.3,1.3-0.8,1.6-1.6c0.3-0.8,0.4-2.1,0.4-3.8V196L4.2,169.9c-0.9-1.6-1.6-2.6-2.2-3.1
				c-0.6-0.5-1.2-0.8-1.8-0.8v-1.5c1.8,0.1,3.9,0.2,6.1,0.2c4.5,0,7.8-0.1,9.8-0.2v1.5c-3.3,0-4.9,0.9-4.9,2.7
				c0,0.7,0.2,1.5,0.7,2.4l11.6,22.3l8.9-17.7c1.3-2.6,1.9-4.6,1.9-6c0-1.3-0.5-2.3-1.5-2.8c-1-0.6-2.6-0.9-4.6-0.9v-1.4
				C30.8,164.6,33.5,164.7,36.2,164.7z"/>
			<path class="st0" d="M77.5,166.5c3.3,2,5.9,4.9,7.7,8.7c1.8,3.8,2.7,8.3,2.7,13.6c0,5.1-0.9,9.7-2.8,13.6c-1.9,4-4.5,7-7.9,9.2
				c-3.4,2.2-7.2,3.3-11.5,3.3c-4.4,0-8.3-1-11.6-3c-3.3-2-5.9-4.9-7.7-8.7c-1.8-3.8-2.7-8.3-2.7-13.6c0-5.1,0.9-9.7,2.8-13.6
				c1.9-4,4.5-7,7.9-9.2c3.4-2.2,7.2-3.3,11.5-3.3C70.3,163.5,74.2,164.5,77.5,166.5z M57.7,167.9c-2.3,2.1-4,5-5.3,8.7
				c-1.2,3.7-1.8,8-1.8,12.8c0,4.8,0.7,9.1,2,12.8c1.4,3.7,3.2,6.5,5.6,8.5c2.4,2,5,3,7.8,3c3,0,5.6-1,7.9-3.1c2.3-2.1,4-5,5.2-8.7
				c1.2-3.7,1.8-8,1.8-12.8c0-4.8-0.7-9.1-2-12.8s-3.2-6.5-5.6-8.5c-2.3-2-4.9-3-7.8-3C62.6,164.7,60,165.8,57.7,167.9z"/>
			<path class="st0" d="M133.5,166.6c-0.8,0.4-1.3,1.1-1.6,2c-0.3,0.9-0.4,2.3-0.4,4.1v21c0,3.3-0.2,6.2-0.7,8.6
				c-0.4,2.4-1.2,4.5-2.2,6.2c-1.2,2-2.9,3.6-5.2,4.8c-2.3,1.2-4.8,1.8-7.6,1.8c-5.1,0-9-1.3-11.7-3.8c-1.4-1.3-2.5-2.7-3.2-4.1
				c-0.7-1.4-1.3-3.2-1.6-5.2c-0.3-2-0.4-4.7-0.4-8v-21.9c0-1.8-0.1-3-0.4-3.8c-0.3-0.8-0.8-1.3-1.6-1.6c-0.8-0.3-2-0.5-3.7-0.5
				v-1.4c2,0.1,5,0.2,8.9,0.2c3.8,0,6.7-0.1,8.9-0.2v1.4c-1.7,0.1-2.9,0.3-3.7,0.5c-0.8,0.3-1.3,0.8-1.6,1.6
				c-0.3,0.8-0.4,2.1-0.4,3.8V195c0,3.7,0.2,6.8,0.8,9.3c0.5,2.5,1.6,4.4,3.2,5.9c1.6,1.5,4,2.3,7.1,2.3c4.9,0,8.4-1.6,10.4-4.7
				c2-3.2,3-7.6,3-13.3v-21.8c0-1.7-0.2-3.1-0.6-4c-0.4-0.9-1-1.6-1.9-2c-0.9-0.4-2.2-0.6-3.8-0.7v-1.4c1.7,0.1,4.1,0.2,7.1,0.2
				c2.8,0,5-0.1,6.5-0.2v1.4C135.5,165.9,134.3,166.2,133.5,166.6z"/>
			<path class="st0" d="M193.5,192.2c2.2,2.3,3.3,5,3.3,8.2c0,2.6-0.7,5-2,7c-1.4,2-3.3,3.6-5.8,4.8c-2.5,1.1-5.5,1.7-8.9,1.7
				c-0.9,0-2.6,0-4.9-0.1c-2.3-0.1-4.7-0.1-7.1-0.1c-3.8,0-6.7,0.1-8.7,0.2v-1.4c1.7-0.1,2.9-0.3,3.7-0.5c0.8-0.3,1.3-0.8,1.6-1.6
				c0.3-0.8,0.4-2.1,0.4-3.8v-34.7c0-1.8-0.1-3-0.4-3.8c-0.3-0.8-0.8-1.3-1.6-1.6c-0.8-0.3-2-0.5-3.7-0.5v-1.4
				c1.9,0.1,4.8,0.2,8.5,0.2c1.8,0,3.8,0,6-0.1c2.2,0,3.7-0.1,4.5-0.1c3.2,0,5.9,0.5,8.1,1.4c2.2,0.9,3.9,2.2,5,3.9
				c1.1,1.6,1.7,3.6,1.7,5.7c0,2.7-0.8,5.1-2.5,7.2c-1.7,2.1-4.4,3.8-8.1,4.9v0.1C187.7,188.5,191.3,190,193.5,192.2z M184.2,184.6
				c1.5-2.1,2.3-4.8,2.3-8.3c0-3.5-0.8-6.1-2.3-7.8c-1.5-1.7-4-2.6-7.5-2.6c-1.5,0-2.5,0.2-3.3,0.5c-0.7,0.3-1.2,0.9-1.5,1.8
				c-0.3,0.8-0.4,2.1-0.4,3.8v15.8h4.7C180,187.7,182.6,186.6,184.2,184.6z M171.9,210.3c0.3,0.8,0.8,1.3,1.5,1.6
				c0.7,0.3,1.8,0.4,3.3,0.4c8.7,0,13.1-4.1,13.1-12.2c0-3.7-1-6.4-3-8.4c-2-1.9-5.1-2.9-9.5-2.9h-5.9v17.7
				C171.5,208.2,171.6,209.5,171.9,210.3z"/>
			<path class="st0" d="M238.2,205c0,2.6,0.2,5.6,0.5,8.9c-3.2-0.1-8.5-0.2-16-0.2c-8.9,0-15.7,0.1-20.3,0.2v-1.4
				c1.7-0.1,2.9-0.3,3.7-0.5c0.8-0.3,1.3-0.8,1.6-1.6c0.3-0.8,0.4-2.1,0.4-3.8v-34.7c0-1.8-0.1-3-0.4-3.8c-0.3-0.8-0.8-1.3-1.6-1.6
				c-0.8-0.3-2-0.5-3.7-0.5v-1.4c4.6,0.1,11.3,0.2,20.3,0.2c6.8,0,11.7-0.1,14.6-0.2c-0.3,3-0.5,5.8-0.5,8.3c0,1.8,0.1,3.3,0.2,4.3
				h-1.6c-0.3-3-0.8-5.3-1.3-6.8c-0.5-1.5-1.4-2.6-2.6-3.2c-1.2-0.7-3.1-1-5.5-1h-5.8c-1.7,0-2.9,0.1-3.7,0.4
				c-0.8,0.3-1.3,0.8-1.6,1.6c-0.3,0.8-0.4,2.1-0.4,3.8v16.5h4.6c2.3,0,3.9-0.7,4.7-2.1c0.8-1.4,1.3-2.8,1.4-4.3
				c0.2-1.5,0.3-2.4,0.4-2.8h1.6c-0.2,2.3-0.2,4.5-0.2,6.6l0,3.3c0,2.4,0.1,5.7,0.4,9.9h-1.6c0-0.3-0.2-1.4-0.4-3.4
				c-0.2-1.9-0.8-3.4-1.9-4.4c-1-1-2.5-1.5-4.4-1.5h-4.6v16.8c0,1.8,0.1,3,0.4,3.8c0.3,0.8,0.8,1.3,1.6,1.6c0.8,0.3,2,0.4,3.7,0.4
				h5.1c2.9,0,5.1-0.4,6.6-1.2c1.5-0.8,2.6-2,3.3-3.7c0.7-1.7,1.2-4.2,1.6-7.5h1.6C238.2,201.2,238.2,202.9,238.2,205z"/>
			<path class="st0" d="M259.1,166.4c-0.8,0.3-1.3,0.8-1.6,1.6c-0.3,0.8-0.4,2.1-0.4,3.8v34.7c0,1.8,0.1,3,0.4,3.8
				c0.3,0.8,0.8,1.3,1.6,1.6s2,0.4,3.7,0.4h5.1c2.9,0,5.1-0.4,6.6-1.2c1.5-0.8,2.6-2.1,3.3-3.9c0.7-1.8,1.2-4.4,1.6-7.9h1.6
				c-0.1,1.5-0.2,3.4-0.2,5.7c0,2.6,0.2,5.6,0.5,8.9c-3.2-0.1-8.5-0.2-16-0.2c-8.9,0-15.7,0.1-20.3,0.2v-1.4
				c1.7-0.1,2.9-0.3,3.7-0.5c0.8-0.3,1.3-0.8,1.6-1.6c0.3-0.8,0.4-2.1,0.4-3.8v-34.7c0-1.8-0.1-3-0.4-3.8c-0.3-0.8-0.8-1.3-1.6-1.6
				c-0.8-0.3-2-0.5-3.7-0.5v-1.4c1.9,0.1,4.9,0.2,8.9,0.2c3.8,0,6.7-0.1,8.9-0.2v1.4C261,165.9,259.8,166.1,259.1,166.4z"/>
			<path class="st0" d="M320.6,166.5c3.3,2,5.9,4.9,7.7,8.7c1.8,3.8,2.7,8.3,2.7,13.6c0,5.1-0.9,9.7-2.8,13.6c-1.9,4-4.5,7-7.9,9.2
				c-3.4,2.2-7.2,3.3-11.5,3.3c-4.4,0-8.3-1-11.6-3c-3.3-2-5.9-4.9-7.7-8.7c-1.8-3.8-2.7-8.3-2.7-13.6c0-5.1,0.9-9.7,2.8-13.6
				c1.9-4,4.5-7,7.9-9.2c3.4-2.2,7.2-3.3,11.5-3.3C313.4,163.5,317.3,164.5,320.6,166.5z M300.8,167.9c-2.3,2.1-4,5-5.3,8.7
				c-1.2,3.7-1.8,8-1.8,12.8c0,4.8,0.7,9.1,2,12.8c1.4,3.7,3.2,6.5,5.6,8.5c2.4,2,5,3,7.8,3c3,0,5.6-1,7.9-3.1c2.3-2.1,4-5,5.2-8.7
				s1.8-8,1.8-12.8c0-4.8-0.7-9.1-2-12.8s-3.2-6.5-5.6-8.5c-2.3-2-4.9-3-7.8-3C305.7,164.7,303.1,165.8,300.8,167.9z"/>
			<path class="st0" d="M377.5,166.6c-0.8,0.4-1.3,1.1-1.6,2c-0.3,0.9-0.4,2.3-0.4,4.1v41.7h-1.6l-29.3-45.3v36.9
				c0,1.8,0.2,3.2,0.5,4.1c0.3,0.9,0.9,1.6,1.8,2c0.9,0.4,2.2,0.6,4.1,0.7v1.4c-1.7-0.1-4-0.2-7.1-0.2c-2.8,0-4.9,0.1-6.5,0.2v-1.4
				c1.6-0.1,2.8-0.3,3.6-0.7c0.8-0.4,1.3-1.1,1.6-2c0.3-0.9,0.4-2.3,0.4-4.1v-33.9c0-1.8-0.1-3-0.4-3.8c-0.3-0.8-0.8-1.3-1.6-1.6
				c-0.8-0.3-2-0.5-3.7-0.5v-1.4c1.5,0.1,3.7,0.2,6.5,0.2c2.1,0,3.9-0.1,5.5-0.2l24.7,38v-29.9c0-1.8-0.2-3.1-0.5-4.1
				c-0.3-0.9-0.9-1.6-1.8-2c-0.9-0.4-2.3-0.6-4.1-0.7v-1.4c1.7,0.1,4,0.2,7.1,0.2c2.8,0,4.9-0.1,6.5-0.2v1.4
				C379.5,165.9,378.3,166.2,377.5,166.6z"/>
			<path class="st0" d="M424.3,211.2c-0.3-0.9-0.8-1.3-1.3-1.3c-0.3,0-0.6,0.1-0.9,0.2c-0.3,0.1-0.7,0.5-1.4,1
				c-1.6,1.3-3.3,2.2-5.1,2.8c-1.7,0.6-3.7,1-5.9,1c-4.8,0-8.9-1-12.3-3c-3.4-2-6.1-4.8-7.9-8.6c-1.8-3.7-2.7-8.2-2.7-13.3
				c0-5.3,1-10,2.9-14c1.9-4,4.6-7.1,8-9.3c3.4-2.2,7.3-3.3,11.6-3.3c1.9,0,3.6,0.2,5,0.6c1.5,0.4,2.7,0.9,3.8,1.5
				c1.1,0.6,2.3,1.4,3.7,2.4c0.6,0.5,1.1,0.7,1.4,0.7c0.9,0,1.5-1.4,1.7-4.3h1.6c-0.2,3-0.3,8.4-0.3,16.1h-1.6
				c-0.4-2.5-0.9-4.6-1.3-6.2c-0.5-1.6-1.2-3-2.2-4.2c-1.4-1.7-3.1-3-5.3-4c-2.2-1-4.4-1.5-6.8-1.5c-3.1,0-5.8,1-8.1,3
				c-2.3,2-4.1,4.8-5.4,8.5c-1.3,3.7-1.9,8-1.9,13c0,5.6,0.6,10.2,1.8,13.7c1.2,3.6,3,6.2,5.5,7.9c2.4,1.7,5.6,2.6,9.4,2.6
				c2.8,0,5.2-0.7,7.3-2.2c0.8-0.6,1.4-1.1,1.6-1.6c0.3-0.5,0.4-1.3,0.4-2.2v-6.7c0-1.9-0.2-3.3-0.5-4.2c-0.4-0.9-1-1.5-2-1.8
				c-1-0.3-2.5-0.5-4.5-0.6v-1.4c2.3,0.2,5.6,0.2,9.9,0.2c3.3,0,5.7-0.1,7.3-0.2v1.4c-1.1,0.1-1.9,0.3-2.3,0.6
				c-0.5,0.3-0.8,0.8-1,1.6c-0.2,0.8-0.3,2.1-0.3,3.9v13.8h-1.4C424.9,213,424.7,212.1,424.3,211.2z"/>
		</g>
	</g>
	<g>
		<g>
			<path class="st0" d="M69.5,305.4c2.1,0,3.8-0.1,5.2-0.2v1.4c-0.9,0.2-1.8,0.8-2.7,1.8c-0.9,1-1.8,2.5-2.9,4.5l-11,21.7v12.7
				c0,1.8,0.1,3,0.4,3.8c0.3,0.8,0.8,1.3,1.6,1.6c0.8,0.3,2,0.5,3.7,0.5v1.4c-2.2-0.1-5.1-0.2-8.9-0.2c-4,0-7,0.1-9,0.2v-1.4
				c1.7-0.1,2.9-0.2,3.7-0.5c0.8-0.3,1.3-0.8,1.6-1.6c0.3-0.8,0.4-2.1,0.4-3.8v-10.5l-14.2-26.1c-0.9-1.6-1.6-2.6-2.2-3.1
				c-0.6-0.5-1.2-0.8-1.8-0.8v-1.5c1.8,0.1,3.9,0.2,6.1,0.2c4.5,0,7.8-0.1,9.8-0.2v1.5c-3.3,0-4.9,0.9-4.9,2.7
				c0,0.7,0.2,1.5,0.7,2.4l11.6,22.3l8.9-17.7c1.3-2.6,1.9-4.6,1.9-6c0-1.3-0.5-2.3-1.5-2.8c-1-0.6-2.6-0.9-4.6-0.9v-1.4
				C64.1,305.3,66.8,305.4,69.5,305.4z"/>
			<path class="st0" d="M110.8,307.2c3.3,2,5.9,4.9,7.7,8.7c1.8,3.8,2.7,8.3,2.7,13.6c0,5.1-0.9,9.7-2.8,13.6c-1.9,4-4.5,7-7.9,9.2
				c-3.4,2.2-7.2,3.3-11.5,3.3c-4.4,0-8.3-1-11.6-3c-3.3-2-5.9-4.9-7.7-8.7c-1.8-3.8-2.7-8.3-2.7-13.6c0-5.1,0.9-9.7,2.8-13.6
				c1.9-4,4.5-7,7.9-9.2c3.4-2.2,7.2-3.3,11.5-3.3C103.6,304.2,107.5,305.2,110.8,307.2z M91,308.6c-2.3,2.1-4,5-5.3,8.7
				s-1.8,8-1.8,12.8c0,4.8,0.7,9.1,2,12.8c1.4,3.7,3.2,6.5,5.6,8.5c2.4,2,5,3,7.8,3c3,0,5.6-1,7.9-3.1c2.3-2.1,4-5,5.2-8.7
				c1.2-3.7,1.8-8,1.8-12.8c0-4.8-0.7-9.1-2-12.8c-1.4-3.7-3.2-6.5-5.6-8.5c-2.3-2-4.9-3-7.8-3C95.9,305.5,93.3,306.5,91,308.6z"/>
			<path class="st0" d="M166.8,307.3c-0.8,0.4-1.3,1.1-1.6,2c-0.3,0.9-0.4,2.3-0.4,4.1v21c0,3.3-0.2,6.2-0.7,8.6
				c-0.4,2.4-1.2,4.5-2.2,6.2c-1.2,2-2.9,3.6-5.2,4.8c-2.3,1.2-4.8,1.8-7.6,1.8c-5.1,0-9-1.3-11.7-3.8c-1.4-1.3-2.5-2.7-3.2-4.1
				c-0.7-1.4-1.3-3.2-1.6-5.2c-0.3-2-0.4-4.7-0.4-8v-21.9c0-1.8-0.1-3-0.4-3.8c-0.3-0.8-0.8-1.3-1.6-1.6c-0.8-0.3-2-0.5-3.7-0.5
				v-1.4c2,0.1,5,0.2,8.9,0.2c3.8,0,6.7-0.1,8.9-0.2v1.4c-1.7,0.1-2.9,0.3-3.7,0.5c-0.8,0.3-1.3,0.8-1.6,1.6
				c-0.3,0.8-0.4,2.1-0.4,3.8v23.1c0,3.7,0.2,6.8,0.8,9.3c0.5,2.5,1.6,4.4,3.2,5.9c1.6,1.5,4,2.3,7.1,2.3c4.9,0,8.4-1.6,10.4-4.7
				c2-3.2,3-7.6,3-13.3v-21.8c0-1.7-0.2-3.1-0.6-4c-0.4-0.9-1-1.6-1.9-2c-0.9-0.4-2.2-0.6-3.8-0.7v-1.4c1.7,0.1,4.1,0.2,7.1,0.2
				c2.8,0,5-0.1,6.5-0.2v1.4C168.8,306.7,167.6,306.9,166.8,307.3z"/>
			<path class="st0" d="M181.8,317.7c1-1.3,1.6-2.6,1.6-4c0-0.6-0.1-1.1-0.2-1.5c-0.8,0.6-1.7,0.9-2.6,0.9c-1.3,0-2.3-0.4-3.2-1.2
				c-0.9-0.8-1.3-1.9-1.3-3.3c0-1.3,0.4-2.3,1.3-3.2c0.9-0.9,1.9-1.3,3.2-1.3c1.8,0,3.2,0.7,4.1,2.2c0.8,1.2,1.2,2.8,1.2,4.6
				c0,2.3-0.6,4.4-1.8,6.3c-1.2,1.9-3,3.3-5.4,4.5l-0.6-1.3C179.5,320,180.7,319,181.8,317.7z"/>
			<path class="st0" d="M232.3,354.6c-1.1,0.7-2.5,1.1-4.2,1.1c-1.9,0-3.5-0.6-4.7-1.7c-1.2-1.1-2.2-3.1-2.8-5.9l-1.5-7
				c-0.5-2.4-1.1-4.3-1.6-5.6c-0.5-1.3-1.2-2.4-2.2-3.1c-1-0.8-2.4-1.2-4.1-1.2h-6.7v16.1c0,1.8,0.1,3,0.4,3.8
				c0.3,0.8,0.8,1.3,1.6,1.6c0.8,0.3,2,0.5,3.7,0.5v1.4c-2.1-0.1-5.1-0.2-8.9-0.2c-4,0-7,0.1-8.9,0.2v-1.4c1.7-0.1,2.9-0.2,3.7-0.5
				c0.8-0.3,1.3-0.8,1.6-1.6c0.3-0.8,0.4-2.1,0.4-3.8v-34.7c0-1.8-0.1-3-0.4-3.8c-0.3-0.8-0.8-1.3-1.6-1.6c-0.8-0.3-2-0.5-3.7-0.5
				v-1.4c2,0.1,4.8,0.2,8.5,0.2c1.8,0,3.8,0,6-0.1c2.2,0,3.7-0.1,4.5-0.1c3.6,0,6.7,0.5,9.2,1.6c2.5,1.1,4.4,2.5,5.7,4.3
				c1.3,1.8,1.9,3.9,1.9,6.2c0,1.8-0.4,3.7-1.3,5.5c-0.9,1.9-2.3,3.5-4.3,5c-2,1.5-4.7,2.5-8,3l0.9,0.1c2.1,0.3,3.8,0.9,5,1.6
				c1.3,0.7,2.2,1.6,3,2.8c0.7,1.2,1.3,2.8,1.8,4.8l1.7,7.1c0.3,1.4,0.6,2.6,0.9,3.4c0.3,0.8,0.7,1.4,1.1,1.8
				c0.4,0.4,0.9,0.6,1.6,0.6c0.8,0,1.4-0.2,1.9-0.6c0.5-0.4,1.1-1.1,1.9-2.1l1.1,0.8C234.4,352.8,233.4,353.9,232.3,354.6z
				 M216.6,328.3c1.8-1,3-2.3,3.7-4c0.7-1.7,1-3.7,1-6.1c0-3.8-0.9-6.7-2.7-8.7c-1.8-2-4.8-2.9-8.9-2.9c-1.5,0-2.5,0.2-3.3,0.5
				c-0.7,0.3-1.2,0.9-1.5,1.8c-0.3,0.8-0.4,2.1-0.4,3.8v17.2h4.7C212.3,329.8,214.8,329.3,216.6,328.3z"/>
			<path class="st0" d="M273.4,345.7c0,2.6,0.2,5.6,0.5,8.9c-3.2-0.1-8.5-0.2-16-0.2c-8.9,0-15.7,0.1-20.3,0.2v-1.4
				c1.7-0.1,2.9-0.2,3.7-0.5c0.8-0.3,1.3-0.8,1.6-1.6c0.3-0.8,0.4-2.1,0.4-3.8v-34.7c0-1.8-0.1-3-0.4-3.8c-0.3-0.8-0.8-1.3-1.6-1.6
				c-0.8-0.3-2-0.5-3.7-0.5v-1.4c4.6,0.1,11.3,0.2,20.3,0.2c6.8,0,11.7-0.1,14.6-0.2c-0.3,3-0.5,5.8-0.5,8.3c0,1.8,0.1,3.3,0.2,4.3
				h-1.6c-0.3-3-0.8-5.3-1.3-6.8c-0.5-1.5-1.4-2.6-2.6-3.2c-1.2-0.7-3.1-1-5.5-1h-5.8c-1.7,0-2.9,0.1-3.7,0.4
				c-0.8,0.3-1.3,0.8-1.6,1.6c-0.3,0.8-0.4,2.1-0.4,3.8v16.5h4.6c2.3,0,3.9-0.7,4.7-2.1c0.8-1.4,1.3-2.8,1.4-4.3
				c0.2-1.5,0.3-2.4,0.4-2.8h1.6c-0.2,2.3-0.2,4.5-0.2,6.6l0,3.3c0,2.4,0.1,5.7,0.4,9.9h-1.6c0-0.3-0.2-1.4-0.4-3.4
				c-0.2-1.9-0.8-3.4-1.9-4.4c-1-1-2.5-1.5-4.4-1.5h-4.6v16.8c0,1.8,0.1,3,0.4,3.8c0.3,0.8,0.8,1.3,1.6,1.6c0.8,0.3,2,0.4,3.7,0.4
				h5.1c2.9,0,5.1-0.4,6.6-1.2c1.5-0.8,2.6-2,3.3-3.7c0.7-1.7,1.2-4.2,1.6-7.5h1.6C273.5,341.9,273.4,343.6,273.4,345.7z"/>
			<path class="st0" d="M348.9,307.2c-0.8,0.3-1.3,0.8-1.6,1.6c-0.3,0.8-0.4,2.1-0.4,3.8v34.7c0,1.8,0.1,3,0.4,3.8
				c0.3,0.8,0.8,1.3,1.6,1.6c0.8,0.3,2,0.5,3.7,0.5v1.4c-2.2-0.1-5.1-0.2-8.9-0.2c-4,0-7,0.1-8.9,0.2v-1.4c1.7-0.1,2.9-0.2,3.7-0.5
				c0.8-0.3,1.3-0.8,1.6-1.6c0.3-0.8,0.4-2.1,0.4-3.8v-37.4L323.5,355h-1.1l-17.6-45.3v36.9c0,1.8,0.2,3.2,0.5,4.1
				c0.3,0.9,0.9,1.6,1.8,2c0.9,0.4,2.2,0.6,4.1,0.7v1.4c-1.7-0.1-4-0.2-7.1-0.2c-2.8,0-4.9,0.1-6.5,0.2v-1.4
				c1.6-0.1,2.8-0.3,3.6-0.7c0.8-0.4,1.3-1.1,1.6-2c0.3-0.9,0.4-2.3,0.4-4.1v-33.9c0-1.8-0.1-3-0.4-3.8c-0.3-0.8-0.8-1.3-1.6-1.6
				c-0.8-0.3-2-0.5-3.7-0.5v-1.4c1.5,0.1,3.7,0.2,6.5,0.2c2.5,0,4.4-0.1,6-0.2l15.4,40.5l15-40.3h3.3c3.7,0,6.7-0.1,8.9-0.2v1.4
				C350.9,306.7,349.6,306.9,348.9,307.2z"/>
			<path class="st0" d="M391.4,305.4c2.1,0,3.8-0.1,5.2-0.2v1.4c-0.9,0.2-1.8,0.8-2.7,1.8c-0.9,1-1.8,2.5-2.9,4.5l-11,21.7v12.7
				c0,1.8,0.1,3,0.4,3.8c0.3,0.8,0.8,1.3,1.6,1.6c0.8,0.3,2,0.5,3.7,0.5v1.4c-2.2-0.1-5.1-0.2-8.9-0.2c-4,0-7,0.1-9,0.2v-1.4
				c1.7-0.1,2.9-0.2,3.7-0.5c0.8-0.3,1.3-0.8,1.6-1.6c0.3-0.8,0.4-2.1,0.4-3.8v-10.5l-14.2-26.1c-0.9-1.6-1.6-2.6-2.2-3.1
				c-0.6-0.5-1.2-0.8-1.8-0.8v-1.5c1.8,0.1,3.9,0.2,6.1,0.2c4.5,0,7.8-0.1,9.8-0.2v1.5c-3.3,0-4.9,0.9-4.9,2.7
				c0,0.7,0.2,1.5,0.7,2.4l11.6,22.3l8.9-17.7c1.3-2.6,1.9-4.6,1.9-6c0-1.3-0.5-2.3-1.5-2.8c-1-0.6-2.6-0.9-4.6-0.9v-1.4
				C386,305.3,388.7,305.4,391.4,305.4z"/>
		</g>
	</g>
	<g>
		<g>
			<path class="st1" d="M61,422.5c-3.9,0-8-1.6-11.4-4.4l-1.6,1.6c-1.1,1.1-2.3,1.4-3.1,1.4c-0.3,0-0.7,0-1-0.1
				c-1.1-0.3-2.9-1.2-2.9-4.2c0-0.8,0.6-2,1.1-2.6c1-1.1,2.2-2.4,3.5-3.8c3.9-4.2,8.4-8.9,10.4-11.2c3.6-4.2,7.6-9.4,10.3-13.5
				l0.1-0.1c0.6-0.9,2.1-3,4.6-3c2.3,0,3.9,2.1,3.9,4.1c0,1.1-0.7,2-1.2,2.8c-0.2,0.3-0.4,0.6-0.6,0.8c-0.2,0.5-0.2,2.1-0.2,3.2
				c0,2.3,0.1,4.4,0.3,6.5c0,0.7,0.1,1.4,0.1,2c0.1,1.3,0.2,2.7,0.2,4.1c0,0.9,0,1.7-0.1,2.5c3.5-2.9,7-6.4,9.3-8.9
				c0,0,0-0.1,0.1-0.1c6.2-6.8,8.2-9.6,10.1-12.9c0.8-1.5,2.3-2.5,3.8-2.5c1.1,0,2.2,0.5,3,1.3c0.7,0.8,1.1,1.8,1,3
				c-0.1,1-0.5,1.9-1,3c-0.3,0.6-0.6,1.3-0.8,1.9c0,0,0,0.1-0.1,0.1l-2,4.6c-4.1,8.9-5.4,13.3-5.7,15.4c3.5-1.3,9.5-7.8,15.6-17.1
				c0,0,0,0,0,0c1.8-4.4,3.7-7.9,4.6-9.2c0,0,0.1-0.1,0.1-0.1c0.5-0.6,1.6-2,3.8-2c2.4,0,4.1,2.1,4.1,4c0,0.8,0,2.9-5.7,11.6
				c0,0,0,0,0,0c-2.1,5.4-3.2,9.2-3.2,11.8c0,0.6,0.1,1,0.1,1.1c0,0,0.1,0,0.2,0c3.8,0,8.4-5.2,13.7-15.5c1.4-4.4,3.5-8.6,4.9-10.9
				c0,0,0-0.1,0.1-0.1c0.9-1.3,2.3-2.1,3.6-2.1c2.3,0,4.1,1.8,4.1,4.2c0,0.9-0.4,1.9-2.3,5.8c-0.5,1-1,2.2-1.5,3.2l-1.5,3.1
				c-0.3,1.2-0.6,2.4-0.6,3.2c0,0.2,0,0.3,0,0.4c0,0,0,0,0,0c0,0,0.2,0,0.3,0c1.4,0,2.9-0.8,6.3-4.9c0,0,0,0,0.1-0.1
				c3.4-8.1,10.1-16.1,17.6-16.1c4.8,0,8,3,8,7.4c0,6.4-7.8,12.6-19.5,15.5c-0.3,1.5-0.5,2.6-0.5,3.7c0,3.2,1.6,3.2,2.3,3.2
				c3.6,0,11.4-4.3,20-13.9c3.1-7.4,9.6-15.9,17.6-15.9c4.8,0,8,3,8,7.4c0,6.4-7.8,12.6-19.5,15.5c-0.3,1.5-0.5,2.6-0.5,3.7
				c0,3.2,1.6,3.2,2.3,3.2c3.7,0,11.5-4.4,20.2-14.1c0,0,0.1-0.1,0.1-0.1c2.2-2.3,4-4.6,5.8-7.1h-0.2c-2.2,0-4.1-1.8-4.1-4.1
				c0-2.2,1.8-4,4.1-4h4.7l1-2.1c4-10,5.6-13.4,5.6-13.5c0.6-1.4,2.1-2.4,3.7-2.4c2.6,0,4,2,4,4c0,0.5,0,1.2-0.4,2l-5.1,12.1h6.5
				c2.3,0,4.1,1.7,4.1,4c0,2.2-1.8,4.1-4.1,4.1H210c-3.2,8.5-5.1,15.3-5.1,18.9c0,1,0.2,1.7,0.3,2.1c0.9-0.4,4.3-2.5,14.4-13.8
				c0,0,0.1-0.1,0.1-0.1c2.7-3.1,5.1-5.9,7.3-8.3c1-1.1,1.9-2.2,2.8-3.2c6.3-15.5,11.8-27.3,14.9-32.3c2.6-3.7,6-6,8.9-6
				c4.2,0,6.8,3.9,6.8,7.6c0,0.5,0,1.9-0.4,3c-1.5,4.1-7,13.4-13.3,20.5l-3.1,3.6c1.4-0.4,2.6-0.6,3.7-0.6c4.8,0,7.9,3.2,7.9,8.1
				c0,2.3-1.1,5.7-3.8,12.1c-1.8,3.9-2.7,6.4-3.2,8.1c3.4-2.9,9-9.1,11.6-12c3.4-8.1,10.1-16.2,17.7-16.2c4.8,0,8,3,8,7.4
				c0,6.4-7.8,12.6-19.5,15.5c-0.3,1.5-0.5,2.6-0.5,3.7c0,3.2,1.6,3.2,2.3,3.2c3.6,0,11.5-4.4,20.2-14c4.7-8.1,14.7-16.3,24.9-16.3
				c4.2,0,6.8,1.3,6.9,1.4c0,0,0.1,0,0.1,0.1c0.6,0.4,2.3,1.4,2.3,3.3c0,0.7-0.2,1.2-0.4,1.6c0,0-0.1,0.2-0.1,0.2
				c-1.1,2.6-4.5,9.8-8.1,15.7c-1.1,3-1.9,5.9-1.9,7.4c0,0.3,0.1,0.5,0.1,0.7c0.8-0.3,4.1-2.2,14.2-13.7c0,0,0.3-0.4,0.4-0.4
				c0.3-0.3,0.5-0.5,0.7-0.6c3-3.4,7.1-8.3,9.7-11.4c1.4-1.7,2.1-2.6,2.5-3.1c0.4-0.5,0.6-0.8,0.9-1.1c0.6-0.6,1.9-1.5,3.2-1.5
				c2.6,0,4.1,2,4.1,3.9c0,0.6-0.1,1.3-0.4,1.9c3.3,0.1,5.9,2.7,5.9,5.9c0,3.3-2.8,8.1-5.3,12.3l-0.4,0.7l-0.3,0.5
				c-0.9,1.5-2,3.3-2.7,4.9c2.8-2.4,5.6-5.4,8.1-8.1c0.6-0.6,1.1-1.2,1.6-1.8c0.8-0.8,1.5-1.6,2.2-2.3c0,0,0.1-0.1,0.1-0.1
				c2.2-2.3,4-4.6,5.7-7h-0.2c-2.2,0-4.1-1.8-4.1-4.1c0-2.2,1.8-4,4.1-4h4.7l1-2.1c4-10,5.6-13.4,5.6-13.5c0.6-1.4,2.1-2.4,3.7-2.4
				c2.6,0,4,2,4,4c0,0.5,0,1.2-0.3,2l-5.1,12.1h6.5c2.3,0,4.1,1.7,4.1,4c0,2.2-1.8,4.1-4.1,4.1h-9.7c-3.2,8.5-5.1,15.3-5.1,18.9
				c0,1,0.2,1.7,0.3,2.1c0.9-0.4,4.3-2.5,14.4-13.8c0,0,0.1-0.1,0.1-0.1c0.8-0.8,1.8-1.2,2.9-1.2c2.2,0,4.1,1.9,4.1,4
				c0,0.9-0.5,2.1-1.1,2.8c-9.3,11.1-16,16.5-20.5,16.5c-5.5,0-8-5.1-8-10.1c0-1.1,0.1-2.3,0.2-3.6c-0.2,0.2-0.3,0.4-0.5,0.6
				c-3.5,3.9-8.4,9.2-12.3,11.9c-1.3,0.8-2.8,1.3-4.3,1.3c-3.9,0-7-3.1-7-7c0-3.5,2.6-8.3,5.5-12.9c0.1-0.2,0.3-0.5,0.5-1
				c0.8-1.3,2.1-3.6,2.9-5.2H344c-0.6,0-1.9,0-3.1-0.6c-2.4,3-5.6,6.8-8.5,10c-0.2,0.2-0.4,0.4-0.6,0.6c-10,10.9-15.3,16.1-20,16.1
				c-3.3,0-6-1.8-7.2-4.7c-3.5,3.1-7,4.7-10.5,4.7c-4.9,0-8.3-2.9-9.2-7.7c-6.2,5.1-12.1,7.8-16.8,7.8c-5.3,0-9-2.9-10.2-7.8
				c-5.4,5.4-9.2,7.7-12.2,7.7c-4,0-6.1-3.5-6.1-6.8c0-3.1,1.4-7.4,4.5-14.1c2.4-5.2,3-8,3-8.8c0-0.1,0-0.1,0-0.2
				c-0.2,0-0.7,0.1-1.2,0.3c0,0-0.1,0-0.1,0c-2.5,0.8-12.5,9.8-18.3,22.9l-0.6,1.8l-0.1,0.3c-0.9,2.3-2,5.2-4.6,5.2
				c-1.8,0-4.4-1.3-4.4-4.1c0-1,0.5-2.3,1.7-5.1c0.2-0.4,0.3-0.8,0.5-1.2l0.5-1.3c-6.7,7.3-11.8,10.8-15.5,10.8c-5.5,0-8-5.1-8-10.1
				c0-1.1,0.1-2.3,0.2-3.5c-8.3,8.7-16.9,13.8-23.3,13.8c-5.6,0-9.3-3.2-10.3-8.5c-6.5,5.5-12.7,8.5-17.6,8.5c-6,0-9.9-3.7-10.5-9.7
				c-1.4,0.6-2.8,0.9-4.1,0.9c-2,0-3.9-0.7-5.4-1.8c-4.8,7-9.8,10.4-15.5,10.4c-2.8,0-7.2-1-8-7.1c-4.8,4.9-8.9,7.3-12.5,7.3
				c-4.4,0-7.1-2.9-7.1-7.5c0-1.1,0.2-2.3,0.5-3.7C77,416.8,68.9,422.5,61,422.5z M55.4,412.2c1.8,1.4,3.8,2.1,6,2.1
				c1.1,0,4,0,4-8.1c0-1.7-0.1-3.3-0.3-5.1c-1.1,1.3-2.3,2.7-3.7,4.3l-1.6,1.9C58.8,408.5,57.8,409.7,55.4,412.2z M311.6,391.5
				c-9.4,0.9-19,11.9-19,19.8c0,0.8,0.3,2.3,1.3,2.3c3.9,0,9.2-6.1,12.6-11.7c0,0,0-0.1,0.1-0.1C308.1,398,310,394.3,311.6,391.5z
				 M277.2,391.9c-2.1,0.1-4.5,2.2-6.6,4.9C274.7,395.1,276.6,393.2,277.2,391.9z M155.2,391.9c-2.1,0.1-4.5,2.2-6.6,4.9
				C152.7,395.1,154.6,393.2,155.2,391.9z M183.1,391.9c-2.1,0.1-4.5,2.2-6.6,4.9C180.6,395.1,182.5,393.2,183.1,391.9z
				 M251.1,360.6c-0.6,1-1.3,2.2-2.1,3.6C249.9,362.8,250.6,361.6,251.1,360.6z"/>
		</g>
		<path class="st2" d="M253.7,351.7c2.9,0,4.8,2.9,4.8,5.6c0,0.8-0.1,1.8-0.3,2.4c-1.4,3.8-6.8,12.9-12.9,19.8l-6.2,7l-4.1,4.8
			l-1.2,3.5c4-4.5,8.1-7.7,10.5-8.5c1-0.3,2.1-0.5,3.2-0.5c3.7,0,5.9,2.4,5.9,6.1c0,1.9-0.9,5-3.6,11.3c-2,4.3-3.9,9.3-3.9,11.6
			c0,0.5,0.1,0.8,0.3,0.8c2.6,0,10.2-8.4,15.6-14.5c3.1-7.6,9.3-15.2,15.9-15.2c3.6,0,6,2.1,6,5.4c0,5-6.5,11-19.1,13.9
			c-0.5,2-0.8,3.6-0.8,5.4c0,3.1,1.3,5.2,4.3,5.2c4.6,0,12.9-5,21.7-14.8c0,0,0,0,0,0c4.7-8.3,14.3-15.5,23.3-15.5
			c3.3,0,5.6,0.9,6,1.1c0.5,0.3,1.3,0.8,1.3,1.6c0,0.4-0.2,0.7-0.3,1c-0.9,2.3-4.3,9.5-8.1,15.5c-1.2,3.2-2.1,6.4-2.1,8.3
			c0,1.4,0.7,2.7,2,2.7c3.2,0,13.7-11.9,16.1-14.7c0.3-0.3,0.5-0.4,0.6-0.5c3.1-3.5,7.3-8.5,9.9-11.7c2.6-3.2,2.8-3.6,3.2-4
			c0.4-0.4,1.2-0.9,1.8-0.9c1.4,0,2.1,1,2.1,1.9c0,0.5-0.2,1.2-0.6,1.9c-0.7,1.1-0.9,1.9-0.7,2.1c0.1,0.1,0.3,0.1,0.5,0.1
			c0.5,0,1.4-0.1,2.2-0.1c2.4,0,4.1,1.8,4.1,3.9c0,2.9-3.1,8.1-5.4,12c-2,3.3-4.2,7-4.2,9.2c0,0.6,0.4,0.9,0.9,0.9
			c0.2,0,0.6-0.1,0.9-0.3c3.6-2.7,7.5-6.7,10.7-10.2c1.4-1.5,2.7-3,3.8-4.1c0,0,0,0,0,0c3.5-3.7,5.9-7,8-10.5h-3.8
			c-1.1,0-2.1-0.9-2.1-2.1s0.9-2,2.1-2h6l1.6-3.3c4-10.1,5.6-13.5,5.6-13.5c0.3-0.7,1-1.2,1.9-1.2c1.3,0,2,1,2,2
			c0,0.2,0,0.7-0.2,1.2l-6.2,14.8h9.5c1.1,0,2.1,0.8,2.1,2s-0.9,2.1-2.1,2.1h-11.1c-2.4,6.1-5.7,15.6-5.7,20.9
			c0,1.7,0.4,4.1,2.1,4.1c2.7,0,10.4-8.1,16.1-14.6c0.4-0.4,0.9-0.6,1.4-0.6c1.1,0,2.1,1,2.1,2c0,0.4-0.3,1.1-0.6,1.4
			c-3.6,4.3-13.5,15.8-19,15.8c-4.2,0-6-4.1-6-8.1c0-2.7,0.5-6.2,1.7-10.2l-2.3,2.5c0,0,0,0,0,0l-1.6,1.7
			c-3.6,3.9-9.2,10.4-13.6,13.4c-0.9,0.6-2.1,0.9-3.2,0.9c-2.9,0-5-2.3-5-5c0-3.3,3.2-8.7,5.2-11.9c0.1-0.2,2.7-4.7,3.8-6.8
			c0.3-0.7,0.6-1.4,0.6-2.1c0-0.2-0.1-0.3-0.7-0.3H344c-1.3,0-2.6-0.2-3.4-1.3c-2.7,3.3-6.3,7.8-9.7,11.5c-0.1,0.1-0.3,0.2-0.4,0.3
			c-8.8,9.6-14.6,15.6-18.7,15.6c-4.1,0-6-3.3-6-6.7c-3.1,3.5-7.1,6.7-11.7,6.7c-5,0-7.5-3.7-7.5-8.5c0-0.5,0-1,0.1-1.4
			c-6.8,6.3-13.5,10-18.6,10c-6.2,0-8.6-4.5-8.6-9.4c0-0.3,0-0.6,0-0.9c-5.1,5.4-10.3,10.2-13.8,10.2c-2.8,0-4.1-2.6-4.1-4.8
			c0-3.1,1.8-7.8,4.3-13.2c2.4-5.2,3.2-8.4,3.2-9.6c0-1.4-0.6-2.2-1.9-2.2c-0.5,0-1.2,0.1-2.1,0.4c-3.3,1-13.8,10.9-19.6,24.1
			l-0.6,1.9c-0.7,1.9-1.6,4.1-2.8,4.1c-0.3,0-2.4-0.3-2.4-2.1c0-0.8,1.2-3.5,2.1-5.5l4.8-12l-2.6,2.9c0,0,0,0,0,0
			c-3.6,4.3-13.5,15.8-19,15.8c-4.2,0-6-4.1-6-8.1c0-2.7,0.5-6.2,1.7-10.2l-2.3,2.5c0,0,0,0,0,0c-8.7,9.9-17.9,16-24.4,16
			c-6.2,0-8.6-4.5-8.6-9.4c0-0.4,0-0.9,0.1-1.4c-7.1,6.8-14.1,10.8-19.4,10.8c-6.2,0-8.6-4.5-8.6-9.4c0-0.5,0-1.1,0.1-1.7
			c-2.1,1.5-4.2,2.3-6.1,2.3c-2.4,0-4.7-1.2-5.7-3.1c-4.1,6.8-9.1,11.7-15.2,11.7c-5,0-6.1-3.4-6.1-7c0-1,0-2.1,0.2-3.3
			c-5,5.9-10.1,10.6-14.6,10.6c-3.7,0-5.1-2.5-5.1-5.5c0-2.8,1.2-6.7,3.2-11.7l-1,1.1c0,0,0,0,0,0c-6.6,7.6-16.7,16.8-26.1,16.8
			c-4.3,0-8.6-2.3-11.5-5.2l-2.9,2.9c-0.5,0.5-1,0.8-1.7,0.8c-0.2,0-0.3,0-0.5-0.1c-1.1-0.3-1.3-1.3-1.3-2.3c0-0.2,0.3-0.9,0.5-1.1
			c4.1-4.5,11.3-12,14-15.1c3.8-4.5,7.8-9.6,10.5-13.7c0.5-0.7,1.6-2.3,3-2.3c1.1,0,1.9,1.1,1.9,2.1c0,0.7-0.9,1.6-1.6,2.6
			c-0.5,0.8-0.5,2.5-0.5,4.2c0,2.4,0.1,4.6,0.3,6.7c0.1,2,0.3,3.9,0.3,5.9c0,2.5-0.2,5-0.8,7.1c4.6-3.1,9.9-8.2,13.6-12.2
			c0,0,0,0,0,0c6.3-6.9,8.4-9.8,10.4-13.2c0.5-0.9,1.3-1.4,2.1-1.4c1.1,0,2.1,0.8,2,2.1c-0.1,1-1.1,2.7-1.8,4.5l-2,4.6
			c-2.7,5.9-5.9,13.6-5.9,17.1c0,0.8,0.2,1.3,0.9,1.3c5.2,0,13.2-10.4,18.4-18.2v0.1c1.9-4.6,3.7-8.1,4.6-9.2c0.4-0.5,1-1.3,2.3-1.3
			c1.2,0,2.1,1,2.1,2c0,2.2-4,8.5-5.4,10.6v-0.1c-1.8,4.3-3.5,9.4-3.5,13c0,2,0.5,3.1,2.3,3.1c6,0,11.6-9.1,15.5-16.8
			c1.3-4.5,3.5-8.6,4.8-10.6c0.5-0.7,1.3-1.2,2-1.2c1.4,0,2.1,1.1,2.1,2.2c0,0.7-2.1,4.8-3.6,8.2l-1.6,3.2c-0.4,1.6-0.7,2.9-0.7,3.9
			c0,1.6,0.8,2.4,2.4,2.4c2.3,0,4.2-1.2,7.9-5.6c0.1-0.1,0.2-0.2,0.2-0.3c3.1-7.6,9.2-15.1,15.9-15.1c3.6,0,6,2.1,6,5.4
			c0,5-6.5,11-19.1,13.9c-0.5,2-0.8,3.6-0.8,5.4c0,3.1,1.3,5.2,4.3,5.2c4.6,0,12.9-5,21.7-14.8c3.1-7.6,9.2-15,15.9-15
			c3.6,0,6,2.1,6,5.4c0,5-6.5,11-19.1,13.9c-0.5,2-0.8,3.6-0.8,5.4c0,3.1,1.3,5.2,4.3,5.2c4.5,0,12.9-5,21.7-14.8c0,0,0,0,0,0
			c3.5-3.7,5.9-7,8-10.5h-3.8c-1.1,0-2.1-0.9-2.1-2.1s0.9-2,2.1-2h6l1.6-3.3c4-10.1,5.6-13.5,5.6-13.5c0.3-0.7,1-1.2,1.9-1.2
			c1.3,0,2,1,2,2c0,0.2,0,0.7-0.2,1.2l-6.2,14.8h9.5c1.1,0,2.1,0.8,2.1,2s-0.9,2.1-2.1,2.1h-11.1c-2.4,6.1-5.7,15.6-5.7,20.9
			c0,1.7,0.4,4.1,2.1,4.1c2.7,0,10.3-8.1,16.1-14.6c0,0,0,0,0,0c4-4.8,7.5-8.5,10.4-11.8c6.9-17,12.1-27.8,14.9-32.3
			C248.8,353.4,251.7,351.7,253.7,351.7 M239.7,379.7c2.8-3.2,5.1-5.9,7-8.6c4.6-6.1,6.9-10.7,7.5-12.4c0.1-0.3,0.2-0.9,0.2-1.3
			c0-0.7-0.2-1.6-0.7-1.6c-1,0-2.3,0.9-3.8,3.2C247.4,362.4,244.1,369.2,239.7,379.7 M293.9,415.6c5.5,0,11.5-8,14.3-12.7v0.1
			c2.1-5.2,5.1-10.5,6.7-13.4c-0.6-0.1-1.4-0.2-2.2-0.2c-11,0-22.1,12.8-22.1,21.8C290.6,413.5,291.7,415.6,293.9,415.6
			 M266.1,400.5c9.8-2.6,13.4-6.8,13.4-9.3c0-0.9-1.2-1.2-2-1.2C272.8,389.9,268.2,396,266.1,400.5 M172,400.5
			c9.8-2.6,13.4-6.8,13.4-9.3c0-0.9-1.2-1.2-2-1.2C178.7,389.9,174.2,396,172,400.5 M144.1,400.5c9.8-2.6,13.4-6.8,13.4-9.3
			c0-0.9-1.2-1.2-2-1.2C150.8,389.9,146.2,396,144.1,400.5 M61.5,416.3c4.7,0,6-4.5,6-10.1c0-2.4-0.2-4.7-0.4-6.8
			c-0.1-1.1-0.3-3.7-0.3-3.7c0,0,0,0.1,0,0.2c-1.8,2.5-4.1,5.2-8.1,9.7c-1.3,1.6-2.5,2.9-6.1,6.7C54.9,414.8,57.8,416.3,61.5,416.3
			 M253.7,347.7c-3.6,0-7.6,2.6-10.5,6.8c0,0.1-0.1,0.1-0.1,0.2c-3.2,5.1-8.6,16.8-15,32.3c-0.8,0.9-1.6,1.8-2.4,2.7
			c0.1-0.4,0.1-0.9,0.1-1.3c0-3.3-2.7-6-6.1-6h-3.5l3.9-9.3c0,0,0,0,0-0.1c0.5-1.2,0.5-2.4,0.5-2.7c0-3.3-2.6-6-6-6
			c-2.4,0-4.5,1.4-5.5,3.6c-0.2,0.5-1.8,4-5.6,13.5l-0.4,0.9h-3.5c-3.4,0-6.1,2.6-6.1,6c0,2.2,1.2,4.1,2.9,5.2
			c-1.2,1.6-2.5,3.1-3.9,4.6l0,0c0,0.1-0.1,0.1-0.1,0.2c-8.7,9.8-16.1,13.4-18.7,13.4c-0.1,0-0.2,0-0.2,0c-0.1-0.2-0.1-0.6-0.1-1.2
			c0-0.7,0.1-1.3,0.2-2.1c12.1-3.3,19.8-9.9,19.8-17.1c0-5.5-4.1-9.4-10-9.4c-8.9,0-15.8,8.9-19.3,16.9c-8.6,9.4-15.7,13-18.3,13
			c-0.1,0-0.2,0-0.2,0c-0.1-0.2-0.1-0.6-0.1-1.2c0-0.7,0.1-1.3,0.2-2.1c12.1-3.3,19.8-9.9,19.8-17.1c0-5.5-4.1-9.4-10-9.4
			c-8.9,0-15.9,9-19.3,17c-0.9,1.1-1.7,1.9-2.3,2.5l1.1-2.3c0,0,0-0.1,0-0.1c0.5-1,1-2.1,1.5-3.2c2-4.2,2.5-5.3,2.5-6.7
			c0-3.5-2.6-6.2-6.1-6.2c-1.9,0-3.9,1.1-5.2,2.9c0,0.1-0.1,0.1-0.1,0.2c-1.5,2.3-3.7,6.6-5.1,11.2c-4.7,9.1-8,12.5-10,13.7
			c0.3-2.3,1.3-5.4,2.9-9.4c5.9-9.1,5.9-11.5,5.9-12.6c0-3.3-2.7-6-6.1-6c-3.1,0-4.8,2.1-5.4,2.8l0,0c0,0-0.1,0.1-0.1,0.1
			c-1.2,1.6-3.1,5.4-4.8,9.4c-4.2,6.4-7.8,10.6-10.4,13.1c0.8-2.3,2.1-5.4,4-9.6c0,0,0,0,0-0.1l2-4.6c0-0.1,0.1-0.2,0.1-0.3
			c0.2-0.6,0.5-1.2,0.8-1.8c0.6-1.2,1.1-2.3,1.2-3.6c0,0,0,0,0-0.1c0.1-1.7-0.4-3.3-1.5-4.5c-1.1-1.2-2.7-1.9-4.4-1.9
			c-2.2,0-4.3,1.3-5.5,3.5c-1.8,3.2-3.8,5.9-9.8,12.5c0,0-0.1,0.1-0.1,0.1c-1.6,1.7-3.6,3.8-5.7,5.8c0-0.8-0.1-1.6-0.1-2.3
			c0-0.6-0.1-1.3-0.1-1.9c0-0.1,0-0.1,0-0.2c-0.2-2.1-0.3-4.1-0.3-6.3c0-0.8,0-1.9,0.1-2.4c0.1-0.1,0.2-0.3,0.3-0.5
			c0.7-0.9,1.6-2.2,1.6-4c0-2.9-2.2-6.1-5.9-6.1c-3.5,0-5.4,2.8-6.2,3.9l-0.1,0.1c0,0,0,0.1-0.1,0.1c-2.7,4-6.6,9.1-10.2,13.3
			c-2,2.3-6.4,7-10.3,11.2c-1.3,1.4-2.5,2.7-3.6,3.8l0,0c-0.8,0.9-1.6,2.5-1.6,3.9c0,4.6,3.3,5.9,4.3,6.1c0,0,0.1,0,0.1,0
			c0.5,0.1,1,0.2,1.5,0.2c1.2,0,2.9-0.3,4.5-2l0.3-0.3c3.4,2.4,7.4,3.8,11.2,3.8c7,0,13.9-4,20-9.1c0.4,5.1,3.9,8.4,9,8.4
			c3.5,0,7.3-1.8,11.5-5.5c1.6,3.4,4.7,5.3,9,5.3c5.9,0,11.2-3.2,16-9.7c1.5,0.7,3.2,1.1,4.9,1.1c0.8,0,1.7-0.1,2.5-0.3
			c1.5,5.6,5.9,9.1,12.1,9.1c4.8,0,10.5-2.5,16.6-7.1c1.9,4.4,6,7.1,11.4,7.1c6.1,0,13.5-3.9,21.1-10.9c0.5,6.3,4.5,10.7,9.9,10.7
			c2.1,0,5.3-0.7,10.8-5.4c0,0.1,0,0.1,0,0.2c0,4.1,3.8,6.1,6.4,6.1c3.9,0,5.4-3.9,6.4-6.5l0.1-0.2c0-0.1,0-0.1,0.1-0.2l0.6-1.7
			c4.2-9.4,10.9-16.9,14.7-20.1c-0.4,1.2-1,2.6-1.8,4.3c-3.3,7-4.7,11.5-4.7,14.9c0,4.3,3,8.8,8.1,8.8c3.1,0,6.6-1.8,11.4-6.2
			c2,3.9,5.9,6.3,11,6.3c5.4,0,11-3,15.8-6.5c1.8,4,5.5,6.4,10.2,6.4c3.4,0,6.7-1.2,10-3.7c1.8,2.3,4.5,3.7,7.7,3.7
			c5.5,0,11-5.3,21.4-16.6c0.3-0.2,0.6-0.5,0.8-0.8c1.9-2.1,3.9-4.4,5.6-6.5c-0.3,0.6-0.5,0.8-0.6,1c-3,4.9-5.7,9.9-5.7,13.9
			c0,5,3.9,9,9,9c2,0,3.9-0.6,5.4-1.6c0,0,0,0,0.1,0c3.1-2.1,6.4-5.5,9.5-8.8c0.6,6.2,4.5,10.4,9.9,10.4c3.3,0,9.2-1.8,22.1-17.2
			c1-1.1,1.6-2.7,1.6-4.1c0-3.2-2.8-6-6.1-6c-1.6,0-3.1,0.6-4.3,1.8c-0.1,0.1-0.1,0.1-0.2,0.2c-5.6,6.3-9.1,9.7-11.1,11.4
			c0.4-3.4,2-8.8,4.3-15.2h8.3c3.3,0,6.1-2.7,6.1-6.1c0-3.3-2.7-6-6.1-6h-3.5l3.9-9.3c0,0,0,0,0-0.1c0.5-1.2,0.5-2.4,0.5-2.7
			c0-3.3-2.6-6-6-6c-2.4,0-4.5,1.4-5.5,3.6c-0.2,0.5-1.8,4-5.6,13.5l-0.4,0.9h-3.5c-3.4,0-6.1,2.6-6.1,6c0,2.2,1.2,4.1,2.9,5.2
			c-1.2,1.6-2.5,3.1-3.9,4.6c0,0,0,0,0,0c-0.5,0.5-1,1.1-1.6,1.7c1.1-2.4,1.8-4.5,1.8-6.4c0-3.5-2.3-6.5-5.5-7.5c0-0.1,0-0.2,0-0.3
			c0-2.9-2.3-5.9-6.1-5.9c-2.4,0-4.2,1.8-4.6,2.1c-0.4,0.4-0.6,0.7-1.1,1.3c-0.4,0.5-1.1,1.4-2.4,3.1c-2.5,3-6.5,7.8-9.5,11.2
			c-0.3,0.2-0.5,0.4-0.8,0.7c-0.1,0.1-0.1,0.1-0.2,0.2l-0.3,0.3c-4.8,5.5-8,8.7-10.1,10.5c0.2-0.8,0.5-1.7,0.9-2.7
			c3.8-6.2,7.2-13.4,8.2-15.8c0-0.1,0-0.1,0.1-0.2l0,0c0.2-0.4,0.5-1.2,0.5-2.3c0-2-1.1-3.7-3.3-5c-0.1-0.1-0.2-0.1-0.3-0.1
			c-0.3-0.2-3.3-1.6-7.8-1.6c-9.8,0-20.6,7-26.5,17.1c-8.7,9.6-16,13.2-18.5,13.2c-0.1,0-0.2,0-0.2,0c-0.1-0.2-0.1-0.6-0.1-1.2
			c0-0.7,0.1-1.3,0.2-2.1c12.1-3.3,19.8-9.9,19.8-17.1c0-5.5-4.1-9.4-10-9.4c-4.2,0-8.4,2.1-12.2,6c-2.8,2.9-5.4,6.9-7.2,11.1
			c-1.1,1.2-2.8,3.1-4.5,5c2.6-6.2,3.6-9.5,3.6-12c0-5.6-3.5-9.5-8.7-10.1c6.4-7.2,11.9-16.6,13.4-20.7c0,0,0-0.1,0.1-0.1
			c0.4-1.3,0.5-2.9,0.5-3.6C262.4,352.7,259.1,347.7,253.7,347.7L253.7,347.7z M211.4,394.4h8.3c0.7,0,1.4-0.1,2-0.4
			c-1.2,1.3-2.4,2.7-3.6,4.2l0,0c0,0,0,0,0,0c-5.6,6.3-9,9.6-11,11.3C207.5,406.2,209,400.8,211.4,394.4L211.4,394.4z M294.6,411.5
			c0-0.1,0-0.2,0-0.2c0-5.6,6.2-13.7,13.1-16.7c-1,2-2,4.1-2.9,6.3C301.5,406.4,297.3,410.8,294.6,411.5L294.6,411.5z M58.6,411.8
			c1.3-1.4,2-2.3,2.8-3.1l0.3-0.4l1.3-1.5c0.2-0.2,0.3-0.3,0.4-0.5c0,3.1-0.5,4.6-0.8,5.4c-0.3,0.6-0.5,0.7-1.2,0.7
			C60.4,412.3,59.5,412.1,58.6,411.8L58.6,411.8z"/>
	</g>
	<g>
		<g>
			<g>
				<path class="st1" d="M147.6,99c-2.8,0-4.7-2-4.7-5.1c0-3.2,2.4-5.7,5.4-5.7c3.1,0,4.8,2.5,4.8,5C153.1,97.2,150.3,99,147.6,99z"
					/>
				<path class="st2" d="M148.3,90.2c2,0,2.8,1.6,2.8,3c0,3.1-2.2,3.8-3.5,3.8c-2,0-2.7-1.4-2.7-3.1
					C144.9,91.8,146.5,90.2,148.3,90.2 M148.3,86.2c-4.1,0-7.4,3.5-7.4,7.7c0,4.2,2.8,7.1,6.7,7.1c3.7,0,7.5-2.7,7.5-7.8
					C155.1,89.2,152.2,86.2,148.3,86.2L148.3,86.2z"/>
			</g>
			<g>
				<path class="st1" d="M175.5,139.5c-1.8,0-4.4-1.3-4.4-4.1c0-1,0.5-2.3,1.7-5.1c0.2-0.4,0.3-0.8,0.5-1.2l0.5-1.3
					c-6.7,7.3-11.8,10.8-15.5,10.8c-5.5,0-8-5.1-8-10.1c0-1.1,0.1-2.2,0.2-3.4c-2.3,2.5-6,6.3-10.7,10.7c-2,1.9-4.6,3-6.8,3
					c-4.4,0-6.3-3.6-6.3-7.1c0-1.3,0.2-2.8,0.7-4.6c-2.6,2-5,2.9-7.5,2.9c-2,0-3.9-0.7-5.4-1.8c-4.8,7-9.8,10.4-15.5,10.4
					c-2.8,0-7.2-1-8-7.1c-4.8,4.9-8.9,7.3-12.5,7.3c-4.4,0-7.1-2.9-7.1-7.5c0-0.9,0.1-1.8,0.3-2.8l-6.8,7.9c0,0-0.1,0.1-0.1,0.1
					c-0.8,0.8-1.7,1.2-2.9,1.2c-2.5,0-4-2.1-4-4.1c0-1,0.4-2,1-2.7c2.1-2.4,4-4.6,5.7-6.7c9.2-10.7,13.9-16.1,16.3-20.1
					c0.1-0.2,0.4-0.6,0.5-1c0,0,0-0.1,0.1-0.1c0.7-1.1,2-1.8,3.5-1.8c2.3,0,4,1.8,4,4.1c0,0.6-0.2,1-0.3,1.3l0,0.1
					c-0.3,0.9-0.7,1.9-1.9,4.6l-1.6,3.7c-2,4.5-5.2,11.8-5.7,15.4c3.5-1.2,9.3-7.6,15.5-16.8c1.8-4.5,3.8-8.1,4.7-9.4
					c0,0,0.1-0.1,0.1-0.1c0.5-0.6,1.6-2,3.8-2c2.4,0,4.1,2.1,4.1,4c0,0.8,0,2.8-5.6,11.5c-2.2,5.3-3.3,9.3-3.3,12
					c0,0.6,0.1,1,0.1,1.1c0,0,0.1,0,0.2,0c3.7,0,8.3-5.2,13.7-15.6c1-4.5,4-9.4,4.9-10.8c0,0,0-0.1,0.1-0.1c0.9-1.3,2.3-2.1,3.6-2.1
					c2.3,0,4.1,1.8,4.1,4.2c0,0.9-0.5,2-2.9,7.1c-0.7,1.4-1.5,3.1-2.3,4.9c-0.3,1.2-0.6,2.4-0.6,3.2c0,0.2,0,0.3,0,0.4c0,0,0,0,0,0
					c0,0,0.2,0,0.3,0c1.1,0,3.5-1.5,6.2-4.6c0.2-0.3,0.4-0.6,0.7-1l11.7-13.6c0,0,0.1-0.1,0.1-0.1c0.3-0.4,1.4-1.4,3-1.4
					c2.3,0,4,1.5,4,3.7c0,0.7,0,1.6-0.4,2.3c0,0,0,0.1-0.1,0.1c-0.6,1-3.7,6.4-6.4,12.4l-0.5,1.1c-1.3,2.9-2.7,6.2-3.2,8.6
					c5.2-4.8,10-10.1,11.9-12.2c0.2-0.3,0.4-0.5,0.6-0.8c2.2-2.3,4-4.6,5.7-7h-0.2c-2.2,0-4.1-1.8-4.1-4.1c0-2.2,1.8-4,4.1-4h4.7
					l1-2.1c4-10,5.6-13.4,5.6-13.5c0.6-1.4,2.1-2.4,3.7-2.4c2.6,0,4,2,4,4c0,0.5,0,1.2-0.4,2l-5.1,12.1h6.5c2.3,0,4.1,1.7,4.1,4
					c0,2.2-1.8,4.1-4.1,4.1h-9.7c-3.2,8.5-5.1,15.3-5.1,18.9c0,1,0.2,1.7,0.3,2.1c0.9-0.4,4.3-2.5,14.4-13.8c0,0,0,0,0,0
					c2.7-3.2,5.2-6,7.3-8.4c1-1.1,1.9-2.2,2.8-3.2c6.3-15.5,11.8-27.3,14.9-32.3c2.6-3.7,6-6,8.9-6c4.2,0,6.8,3.9,6.8,7.6
					c0,0.5,0,1.9-0.4,3c-1.5,4.1-7,13.4-13.3,20.5l-3.1,3.6c1.4-0.4,2.6-0.6,3.7-0.6c4.8,0,7.9,3.2,7.9,8.1c0,2.3-1.1,5.7-3.8,12.1
					c-1.8,3.9-2.7,6.4-3.2,8.1c3.6-3,9.5-9.6,12.1-12.5c0,0,0-0.1,0.1-0.1c0.6-0.6,1.7-1.2,2.9-1.2c2.2,0,4,1.8,4,4.1
					c0,1-0.4,2-1.1,2.7c-7.7,8.7-15.1,16.6-20.4,16.6c-4,0-6.1-3.5-6.1-6.8c0-3.1,1.4-7.4,4.5-14.1c2.4-5.2,3-8,3-8.8
					c0-0.1,0-0.1,0-0.2c-0.2,0-0.7,0.1-1.2,0.3c0,0-0.1,0-0.1,0c-2.5,0.8-12.5,9.8-18.3,22.9l-0.6,1.8l-0.1,0.3
					C179.1,136.6,178,139.5,175.5,139.5z M204.4,77.7c-0.6,1-1.3,2.2-2.1,3.6C203.2,79.9,203.9,78.7,204.4,77.7z"/>
				<path class="st2" d="M206.9,68.8c2.9,0,4.8,2.9,4.8,5.6c0,0.8-0.1,1.8-0.3,2.4c-1.4,3.8-6.8,12.9-12.9,19.8l-6.2,7l-4.1,4.8
					l-1.2,3.5c4-4.5,8.1-7.7,10.5-8.5c1-0.3,2.1-0.5,3.2-0.5c3.7,0,5.9,2.4,5.9,6.1c0,1.9-0.9,5-3.6,11.3c-2,4.3-3.9,9.3-3.9,11.6
					c0,0.5,0.1,0.8,0.3,0.8c2.6,0,10.4-8.6,15.8-14.7c0.3-0.3,0.9-0.6,1.4-0.6c1.1,0,2,0.9,2,2.1c0,0.5-0.2,1-0.5,1.3
					c-6.3,7.1-14.3,15.9-18.9,15.9c-2.8,0-4.1-2.6-4.1-4.8c0-3.1,1.8-7.8,4.3-13.2c2.4-5.2,3.2-8.4,3.2-9.6c0-1.4-0.6-2.2-1.9-2.2
					c-0.5,0-1.2,0.1-2.1,0.4c-3.3,1-13.8,10.9-19.6,24.1l-0.6,1.9c-0.7,1.9-1.6,4.1-2.8,4.1c-0.3,0-2.4-0.3-2.4-2.1
					c0-0.8,1.2-3.5,2.1-5.5l4.8-12l-2.6,2.9c0,0,0,0,0,0c-3.6,4.3-13.5,15.8-19,15.8c-4.2,0-6-4.1-6-8.1c0-2.7,0.5-6.2,1.7-10.2
					l-2,2.2c-0.1,0.1-0.2,0.3-0.3,0.4c-0.9,1-5.7,6.5-13.2,13.5c-1.8,1.7-3.9,2.5-5.5,2.5c-3.2,0-4.3-2.7-4.3-5.1
					c0-3.3,1.8-8.1,3.6-12.3c-0.5,0.5-0.8,0.8-1,1.1c-0.1,0.2-0.2,0.4-0.3,0.5c-4.1,4.7-7.7,7-11.1,7c-2.4,0-4.7-1.2-5.7-3.1
					c-4.1,6.8-9.1,11.7-15.2,11.7c-5,0-6.1-3.4-6.1-7c0-1,0-2.1,0.2-3.3c-5,5.9-10.1,10.6-14.6,10.6c-3.7,0-5.1-2.5-5.1-5.5
					c0-2.8,1.1-6.6,3.2-11.6l-13.2,15.3c-0.4,0.4-0.8,0.6-1.4,0.6c-1.3,0-2-1.1-2-2.1c0-0.5,0.2-1,0.5-1.3
					c13.1-15.3,19.3-22.2,22.3-27c0.2-0.3,0.6-1.1,0.6-1.1c0.3-0.5,0.9-0.8,1.8-0.8c1.1,0,2,0.8,2,2.1c0,0.3-0.1,0.5-0.2,0.8
					c-0.4,1.1-1,2.5-3.5,8.2c-2.6,5.9-5.9,13.6-5.9,17.1c0,0.8,0.2,1.3,0.9,1.3c5.2,0,13.2-10.4,18.4-18.1c1.9-4.6,3.7-8.1,4.6-9.2
					c0.4-0.5,1-1.3,2.3-1.3c1.2,0,2.1,1,2.1,2c0,2.2-4,8.5-5.4,10.6c-1.8,4.2-3.5,9.3-3.5,12.9c0,2,0.5,3.1,2.3,3.1
					c6,0,11.6-9.1,15.6-16.9c0.8-3.9,3.4-8.5,4.7-10.5c0.5-0.7,1.3-1.2,2-1.2c1.4,0,2.1,1.1,2.1,2.2c0,0.7-2.1,4.8-5.2,11.4
					c-0.4,1.6-0.7,2.9-0.7,3.9c0,1.6,0.8,2.4,2.4,2.4c2.3,0,5.3-2.4,7.9-5.5c0.1-0.2,0.3-0.5,0.6-0.8L140,104
					c0.4-0.4,0.9-0.8,1.6-0.8c1.3,0,2,0.7,2,1.7c0,0.3,0,1-0.2,1.4c-0.6,1-3.7,6.5-6.5,12.6c-1.9,4.3-4.1,9.3-4.1,12.5
					c0,0.8,0,1.3,0.4,1.3c0.5,0,1.8-0.5,2.7-1.3c5.6-5.1,10.8-10.9,12.7-12.9c0.1-0.2,0.2-0.4,0.4-0.5c3.5-3.7,5.9-7,8-10.5h-3.8
					c-1.1,0-2.1-0.9-2.1-2.1c0-1.1,0.9-2,2.1-2h6l1.6-3.3c4-10.1,5.6-13.5,5.6-13.5c0.3-0.7,1-1.2,1.9-1.2c1.3,0,2,1,2,2
					c0,0.2,0,0.7-0.2,1.2l-6.2,14.8h9.5c1.1,0,2.1,0.8,2.1,2c0,1.1-0.9,2.1-2.1,2.1h-11.1c-2.4,6.1-5.7,15.6-5.7,20.9
					c0,1.7,0.4,4.1,2.1,4.1c2.7,0,10.3-8.1,16.1-14.6c0,0,0,0,0,0c4-4.8,7.5-8.5,10.4-11.8c6.9-17,12.1-27.8,14.9-32.3
					C202.1,70.5,205,68.8,206.9,68.8 M193,96.8c2.8-3.2,5.1-5.9,7-8.6c4.6-6.1,6.9-10.7,7.5-12.4c0.1-0.3,0.2-0.9,0.2-1.3
					c0-0.7-0.2-1.6-0.7-1.6c-1,0-2.3,0.9-3.8,3.2C200.7,79.5,197.4,86.3,193,96.8 M206.9,64.8c-3.6,0-7.6,2.6-10.5,6.8
					c0,0.1-0.1,0.1-0.1,0.2c-3.2,5.1-8.6,16.8-15,32.3c-0.8,0.9-1.6,1.8-2.4,2.7c0.1-0.4,0.1-0.9,0.1-1.3c0-3.3-2.7-6-6.1-6h-3.5
					l3.9-9.3c0,0,0,0,0-0.1c0.5-1.2,0.5-2.4,0.5-2.7c0-3.3-2.6-6-6-6c-2.4,0-4.5,1.4-5.5,3.6c-0.2,0.5-1.8,4-5.6,13.5l-0.4,0.9h-3.5
					c-2.6,0-4.8,1.5-5.6,3.7c-0.7-2.4-2.9-4-5.7-4c-1.6,0-3.1,0.7-4.4,2c-0.1,0.1-0.1,0.1-0.2,0.2l-11.7,13.7
					c-0.3,0.3-0.6,0.7-0.8,1.1c-0.8,0.9-1.5,1.7-2.2,2.2c0.7-1.5,1.4-2.9,2-4.1c2.6-5.4,3.1-6.6,3.1-8c0-3.5-2.6-6.2-6.1-6.2
					c-1.9,0-3.9,1.1-5.2,2.9c0,0.1-0.1,0.1-0.1,0.2c-0.9,1.5-3.9,6.4-5.1,11.2c-4.7,9-8,12.4-10,13.6c0.3-1.9,1-4.9,3-9.5
					c5.8-9,5.8-11.3,5.8-12.4c0-3.3-2.7-6-6.1-6c-3.1,0-4.8,2.1-5.4,2.8l0,0c0,0-0.1,0.1-0.1,0.1c-1.2,1.6-3.2,5.6-4.9,9.7
					c-4.1,6.2-7.6,10.3-10.2,12.8c1.2-3.4,2.9-7.2,4-9.6c0.7-1.5,1.2-2.7,1.6-3.7c1.2-2.8,1.6-3.7,2-4.7c0,0,0-0.1,0-0.1l0-0.1
					c0.1-0.4,0.4-1.1,0.4-2c0-3.4-2.6-6.1-6-6.1c-2.2,0-4.1,1-5.2,2.8c-0.1,0.1-0.1,0.2-0.1,0.3c-0.1,0.3-0.3,0.6-0.4,0.8
					c0,0,0,0,0,0.1c-2.4,3.8-7,9.2-16.1,19.8c-1.7,2-3.6,4.2-5.7,6.6c-1,1.1-1.5,2.5-1.5,4c0,3.4,2.6,6.1,6,6.1
					c1.6,0,3.1-0.6,4.3-1.8c0.1-0.1,0.1-0.1,0.2-0.2l3.3-3.8c0.9,4.3,4.2,6.9,8.8,6.9c3.5,0,7.3-1.8,11.5-5.5c1.6,3.4,4.7,5.3,9,5.3
					c5.9,0,11.2-3.2,16-9.7c1.5,0.7,3.2,1.1,4.9,1.1c1.6,0,3.2-0.3,4.8-1c0,0.2,0,0.5,0,0.7c0,5.3,3.4,9.1,8.3,9.1
					c2.7,0,5.9-1.4,8.2-3.6c2.8-2.6,5.2-5,7.2-7c0.6,6.2,4.5,10.3,9.9,10.3c2.1,0,5.3-0.7,10.8-5.4c0,0.1,0,0.1,0,0.2
					c0,4.1,3.8,6.1,6.4,6.1c3.9,0,5.4-3.9,6.4-6.5l0.1-0.2c0-0.1,0-0.1,0.1-0.2l0.6-1.7c4.2-9.4,10.9-16.9,14.7-20.1
					c-0.4,1.2-1,2.6-1.8,4.3c-3.3,7-4.7,11.5-4.7,14.9c0,4.3,3,8.8,8.1,8.8c6.1,0,13.5-7.8,21.9-17.2c1-1.1,1.6-2.5,1.6-4.1
					c0-3.4-2.6-6.1-6-6.1c-1.5,0-3.2,0.7-4.3,1.8c-0.1,0.1-0.1,0.1-0.1,0.2c-1.2,1.3-3.1,3.5-5.2,5.7c2.6-6.2,3.6-9.5,3.6-12
					c0-5.6-3.5-9.5-8.7-10.1c6.4-7.2,11.9-16.6,13.4-20.7c0-0.1,0-0.1,0.1-0.2c0.4-1.3,0.5-2.9,0.5-3.6
					C215.7,69.8,212.3,64.8,206.9,64.8L206.9,64.8z M140.4,120.6c2.7-5.9,5.7-11.2,6.3-12.2c0.1-0.1,0.1-0.2,0.1-0.3
					c0.1-0.2,0.2-0.5,0.3-0.7c0.5,1.4,1.4,2.5,2.6,3.3c-1.2,1.5-2.5,3-3.9,4.6c-0.3,0.3-0.5,0.6-0.7,0.9c-1.1,1.2-2.9,3.2-5.3,5.6
					c0,0,0-0.1,0-0.1L140.4,120.6L140.4,120.6z M164.7,111.5h8.3c0.7,0,1.4-0.1,2-0.4c-1.2,1.3-2.4,2.7-3.6,4.2l0,0c0,0,0,0,0,0
					c-5.6,6.3-9,9.6-11,11.4C160.8,123.3,162.3,117.9,164.7,111.5L164.7,111.5z"/>
			</g>
			<g>
				<path class="st1" d="M253.6,169.9c-5,0-9.1-4.2-9.1-9.5c0-6.4,5-11.6,9.4-15.4c5.6-4.8,11.8-8.7,14.7-10.5
					c0.4-0.9,0.7-1.7,1-2.5c-4.4,4.1-8.1,6.1-11.1,6.1c-4,0-6.6-2.6-6.6-6.8c0-3.9,1.7-8.3,2.9-11.3c0.2-0.4,0.3-0.8,0.4-1.1
					c1-2.6,2.2-6,2.8-8.3c-2.5,2.4-6.5,7.2-9.6,10.9l-1.4,1.7c-6.5,7.8-10.7,12.6-12.6,13.8c-0.1,0.1-0.2,0.1-0.2,0.2
					c-0.5,0.3-1.2,0.8-2.2,0.8c-2.3,0-4-1.7-4-4c0-1.1,0.6-2.3,1.2-2.9c3.9-3.7,8.2-8.7,11.9-13.1l1.5-1.8c7.8-9.2,12.8-14.8,17-15
					c0.1,0,0.3,0,0.5,0c3.8,0,6.3,3,6.3,7.4c0,3.4-1.5,7.7-3,11.8l-0.4,1.1c-1.2,3.3-2.2,6.1-2.7,8c4.6-2.9,14.1-14.2,20-24.3
					c0.7-1.2,2.2-2,3.6-2c2.2,0,4,1.8,4,4.1c0,0.7-0.3,1.9-0.6,2.4c-2.2,5.5-4.7,11.8-7.1,17.7c3.7-2.6,7.2-5.6,11.7-10.4
					c2.6-6.1,6.8-11.3,12-14.8c0.1-0.1,0.2-0.1,0.4-0.2c0.1-0.1,0.3-0.1,0.4-0.2c0.5-0.2,1-0.5,1.7-0.5c1.2,0,2.3,0.6,3.1,1.4
					c1.7-1.5,3.6-2.3,5.6-2.3c4.4,0,7.3,4,7.3,10.1c0,4.4-1.4,8.4-3,11.7c1.7-1.2,3.7-3.1,5.9-5.6c0,0,0.1-0.1,0.1-0.1
					c0.1-0.1,0.3-0.2,0.4-0.3c4.8-5.4,7.3-8.8,8.8-11.6l0.2-0.4c0.5-1.1,1.5-2.8,4-2.8c2.4,0,3.9,2.2,3.9,4.2c0,0.4-0.2,1.4-0.7,2.2
					c-0.3,0.6-0.7,1.3-1,2.3l-3.6,8.6c-1.2,2.8-3.5,8.2-4,11.4c1.2-0.5,3.3-2,6.7-5.6c5.8-6.5,11.9-16.2,14.6-21
					c0.7-1.4,2-2.3,3.5-2.3c2.6,0,4.1,2,4.1,3.9c0,0.8-0.2,1.5-0.6,2.3c-0.6,1.3-1.2,2.8-1.8,4.5c-0.6,1.6-1.2,3.2-1.9,4.8
					c-2.7,6.1-4.2,10.3-4.9,12.7c3.5-2.9,9.7-9.8,12.4-12.7c0,0,0,0,0.1-0.1c0.8-0.8,1.8-1.2,2.9-1.2c2.2,0,4.1,1.9,4.1,4
					c0,1.1-0.6,2.3-1.2,2.9c-0.9,0.9-2.1,2.1-3.3,3.5c-5.7,6.6-11.6,13-17,13c-2.2,0-3.5-1.1-4-1.5c-0.9-0.8-2.4-2.5-2.4-5.5
					c0-0.1,0-0.2,0-0.3c-2.8,2.7-7.7,6.9-12.1,7c0,0,0,0,0,0c-2.6,0-4.5-0.9-5.9-2.8c0,0,0-0.1-0.1-0.1c-0.8-1.2-1.2-2.6-1.2-4.5
					c0-1,0.1-2.1,0.4-3.4c-3.1,2.5-6.5,4.4-10.4,4.4c-0.9,0-1.6-0.1-2.4-0.2c-4.4,4.5-8.9,6.8-13.3,6.8c-5.6,0-8.7-4.1-9.6-8.7
					c-5,4.1-10.2,7.4-14.9,10.1c-4.6,11.6-5.6,14.1-6.6,16.3C266.7,159.7,262.1,169.9,253.6,169.9z M263.2,147.7
					c-1.6,1.2-3,2.3-4.2,3.4c-4.1,3.6-6.5,7-6.5,9.3c0,0.7,0.4,1.5,1.2,1.5c2.2,0,4.5-2.8,7.2-8.6
					C261.7,151.6,262.4,149.8,263.2,147.7z M303.8,112.9c-4,4.5-6.3,10.2-6.3,14.3c0,0.1,0,3.4,1.8,3.4c1.2,0,3.1-0.6,6.2-3.3
					c-1.6-2.3-2.5-5.5-2.5-9C303,116.7,303.3,114.8,303.8,112.9z M314,109.2c-1.3,1.4-3,5.4-3,9.1c0,0.6,0,1.2,0.1,1.7
					c1.9-3.4,2.9-6.7,2.9-9.3C314.1,110.1,314.1,109.6,314,109.2z"/>
				<path class="st2" d="M314.9,102.6c4.3,0,5.3,5.1,5.3,8.1c0,5.8-2.5,10.9-5.4,15.3h0.3c3.1,0,6.7-2.5,11.5-8
					c0.1-0.1,0.2-0.2,0.3-0.3c5.4-6.1,7.8-9.4,9.2-12.2c0.6-1.1,0.9-2.2,2.5-2.2c1.1,0,1.9,1.1,1.9,2.2c0,0.1-0.1,0.7-0.4,1.2
					c-0.3,0.6-0.7,1.4-1.1,2.5l-3.6,8.6c-2.3,5.4-4.2,10.5-4.2,13.2c0,0.8,0.3,1.2,0.9,1.2c2.5,0,6-3,9.3-6.5
					c5.9-6.6,12.1-16.4,14.9-21.4c0.3-0.6,0.9-1.2,1.8-1.2c1.6,0,2.1,1.1,2.1,1.9c0,0.4-0.1,0.8-0.4,1.4c-1.2,2.8-2.4,6.2-3.7,9.3
					c-2.2,5-5.6,13.2-5.6,16c0,0.5,0.1,0.8,0.4,0.8c2.5,0,9.3-7.3,15.9-14.7c0.4-0.4,0.9-0.6,1.4-0.6c1.1,0,2.1,1,2.1,2
					c0,0.5-0.3,1.1-0.6,1.4c-0.9,0.9-2.2,2.2-3.4,3.6c-4.5,5.2-10.8,12.3-15.5,12.3c-1.2,0-2.1-0.5-2.7-1c-0.7-0.6-1.7-1.9-1.7-3.9
					c0-1.9,0.9-5,2-7.9c-1.3,1.7-2.9,3.5-4.2,5c-3.7,3.9-8.4,7.5-11.9,7.6c-2.5,0-3.6-1.1-4.2-2c-0.6-0.9-0.8-2.1-0.8-3.4
					c0-2.6,0.9-5.9,2.8-10.5c-0.2,0.2-0.3,0.3-0.5,0.4c-4.3,4.8-9,9-14.3,9c-1.1,0-2.1-0.1-3-0.4c-3.4,3.7-7.9,7-12.6,7
					c-5.5,0-7.9-4.9-7.9-9.4c0-0.5,0-1,0.1-1.4c-5.8,5.3-12.1,9.3-18.3,12.9c-5,12.4-5.9,14.7-6.8,16.9c-2.6,5.7-6.6,12.3-12.8,12.3
					c-4.1,0-7.1-3.6-7.1-7.5c0-5.8,4.9-10.6,8.7-13.9c4.8-4,10.6-8,15-10.7c2.8-6.6,3.2-7.9,5.3-13.1c-5.1,6.2-12.1,13.5-17,13.5
					c-3.3,0-4.6-2.2-4.6-4.8c0-4,2.3-9.2,3.2-11.7c1.6-4.2,3.2-8.8,3.2-11.1c0-0.7-0.1-1.5-0.6-1.5c0,0-0.1,0-0.1,0
					c-2,0.1-8.1,7.6-14.2,14.8c-4.7,5.6-10.2,12.2-12.1,13.4c-0.5,0.3-0.8,0.6-1.4,0.6c-1.3,0-2-0.9-2-2c0-0.5,0.3-1.1,0.6-1.4
					c4.3-4,9-9.6,13.1-14.5c6.4-7.6,12.3-14.6,16-14.8c0.1,0,0.2,0,0.3,0c3.3,0,4.3,2.9,4.3,5.4c0,3-1.3,6.9-2.9,11.1
					c-2.1,5.7-3.5,9.5-3.5,11.5c0,0.5,0.2,1,0.5,1c5.2,0,17.9-16.5,23.5-26c0.3-0.5,1.1-1,1.9-1c1.1,0,2,0.9,2,2.1
					c0,0.3-0.2,1.1-0.4,1.7c-2.9,7.3-6.4,15.9-9.5,23.5c6.1-3.6,10.6-6.8,17.6-14.4c2.1-5.2,5.9-10.6,11.4-14.2
					c0.5-0.2,1-0.5,1.3-0.5c1.1,0,2.1,1,2.1,2c0,0.6-0.3,1.2-0.9,1.8c-7.5,5-11.8,14.1-11.8,20.1c0,2.8,1.2,5.4,3.8,5.4
					c3.2,0,6.7-2.9,9-5.1c-2.1-2-3.3-5.3-3.3-9.2C305,113,308.5,102.6,314.9,102.6 M310.9,124.3c2.7-3.9,5.2-9.1,5.2-13.6
					c0-1.2-0.1-4.1-1.2-4.1c-3.4,0-5.8,7.8-5.8,11.7C309.1,119.9,309.4,122.8,310.9,124.3 M253.7,163.8c3.4,0,6.2-3.6,9-9.7
					c1.4-3.2,2.7-6.8,4.7-11.8c-3.3,2.2-6.8,4.7-9.7,7.2c-3.4,3-7.1,7.2-7.1,10.8C250.5,162.3,251.8,163.8,253.7,163.8 M314.9,98.6
					c-2,0-3.9,0.6-5.6,1.7c-0.9-0.6-2-0.9-3.1-0.9c-1.1,0-2,0.4-2.5,0.7c-0.1,0-0.2,0.1-0.3,0.1c-0.3,0.1-0.5,0.2-0.7,0.4
					c-5.4,3.6-9.9,9-12.6,15.3c-1.9,2-3.6,3.7-5.2,5.2c1.5-3.7,2.9-7.3,4.3-10.6c0-0.1,0.7-1.8,0.7-3.1c0-3.4-2.6-6.1-6-6.1
					c-2.1,0-4.2,1.2-5.3,3c-4.1,6.9-9.6,14.1-14,18.8c0.1-0.3,0.2-0.5,0.3-0.8l0.4-1.2c1.6-4.2,3.1-8.7,3.1-12.4
					c0-5.5-3.4-9.4-8.3-9.4c-0.2,0-0.4,0-0.6,0c-5.1,0.3-10.1,5.9-18.5,15.7l-0.4,0.5l-1.1,1.3c-3.7,4.4-7.9,9.3-11.7,12.8
					c0,0-0.1,0.1-0.1,0.1c-1.1,1.1-1.8,2.7-1.8,4.3c0,3.4,2.6,6,6,6c1.7,0,2.8-0.7,3.3-1.1c0.1,0,0.1-0.1,0.2-0.1
					c1.9-1.2,5.3-4.8,13.1-14.2l1.4-1.7c1-1.1,2-2.4,3.1-3.7c0,0.1-0.1,0.2-0.1,0.3c-1.2,3.1-3,7.7-3,12c0,4.7,2.7,8,6.9,8.6
					c-1.4,1.1-2.9,2.2-4.3,3.4c-4.7,4.1-10.1,9.7-10.1,16.9c0,6.3,5,11.5,11.1,11.5c9.8,0,14.8-11,16.5-14.7c0,0,0-0.1,0-0.1
					c0.9-2.2,1.9-4.6,6.4-15.7c3.8-2.3,8.1-4.9,12.2-8.1c1.7,4.1,5.3,7.3,10.7,7.3c4.6,0,9.4-2.3,14-6.7c0.5,0,1.1,0.1,1.6,0.1
					c2.9,0,5.6-0.9,8-2.3c0.1,1.4,0.3,3.2,1.5,5c0,0.1,0.1,0.1,0.1,0.2c2.2,2.9,5.3,3.6,7.4,3.6c0,0,0.1,0,0.1,0
					c3.8-0.1,7.6-2.5,10.7-5.1c0.7,1.7,1.7,2.8,2.4,3.4c0,0,0,0,0,0c1.6,1.3,3.3,2,5.3,2c6.2,0,12.6-6.8,18.6-13.7
					c1.1-1.3,2.3-2.5,3.2-3.4c1.1-1.1,1.8-2.8,1.8-4.3c0-3.2-2.8-6-6.1-6c-1.6,0-3.1,0.6-4.3,1.8c0,0-0.1,0.1-0.1,0.1
					c-1.2,1.4-3.6,4-6,6.5c0.5-1.3,1.2-2.8,1.9-4.4c0.7-1.6,1.3-3.3,1.9-4.8c0.6-1.6,1.2-3.1,1.8-4.4c0.5-1.1,0.8-2.1,0.8-3.1
					c0-2.9-2.3-5.9-6.1-5.9c-2.2,0-4.2,1.3-5.3,3.4c-2.6,4.8-8.6,14.2-14.3,20.6c-0.5,0.6-1,1.1-1.5,1.5c0.8-2.1,1.6-4.1,2.1-5.2
					l3.6-8.6c0,0,0,0,0-0.1c0.3-0.8,0.7-1.5,1-2.1c0.6-1.1,0.9-2.3,0.9-3.1c0-3.4-2.6-6.2-5.9-6.2c-3.8,0-5.2,2.7-5.8,3.9
					c-0.1,0.1-0.1,0.2-0.2,0.3c0,0,0,0,0,0.1c-1.4,2.6-3.8,5.9-8.4,11c-0.2,0.1-0.3,0.3-0.4,0.4c0,0,0,0,0,0c0.3-1.4,0.4-3,0.4-4.5
					C324.2,103.3,320.5,98.6,314.9,98.6L314.9,98.6z M315.7,110.4L315.7,110.4L315.7,110.4L315.7,110.4z M299.7,128.5
					c-0.1-0.3-0.2-0.7-0.2-1.3c0-1.9,0.6-4.2,1.6-6.6c0.2,2.3,0.9,4.4,1.8,6.2C301.3,128.1,300.3,128.4,299.7,128.5L299.7,128.5z
					 M254.7,159.3c0.4-1.1,1.5-2.7,3.2-4.5C256.5,157.5,255.4,158.8,254.7,159.3L254.7,159.3z"/>
			</g>
		</g>
	</g>
	<g>
		<g>
			<g>
				<path class="st1" d="M161.6,239.1c-2.8,0-4.7-2-4.7-5.1c0-3.2,2.4-5.7,5.4-5.7c3.1,0,4.8,2.5,4.8,5
					C167.2,237.2,164.3,239.1,161.6,239.1z"/>
				<path class="st2" d="M162.4,230.2c2,0,2.8,1.6,2.8,3c0,3.1-2.2,3.8-3.5,3.8c-2,0-2.7-1.4-2.7-3.1
					C159,231.9,160.5,230.2,162.4,230.2 M162.4,226.2c-4.1,0-7.4,3.5-7.4,7.7c0,4.2,2.8,7.1,6.7,7.1c3.7,0,7.5-2.7,7.5-7.8
					C169.2,229.2,166.2,226.2,162.4,226.2L162.4,226.2z"/>
			</g>
			<g>
				<path class="st1" d="M189.5,279.5c-1.8,0-4.4-1.3-4.4-4.1c0-1,0.5-2.3,1.7-5.1c0.2-0.4,0.3-0.8,0.5-1.2l0.5-1.3
					c-6.7,7.2-11.8,10.8-15.5,10.8c-5.5,0-8-5.1-8-10.1c0-1.1,0.1-2.2,0.2-3.4c-2.3,2.5-6,6.3-10.7,10.7c-2,1.9-4.6,3-6.8,3
					c-4.4,0-6.3-3.6-6.3-7.1c0-1.3,0.2-2.8,0.7-4.6c-2.6,2-5,2.9-7.5,2.9c-2,0-3.9-0.7-5.4-1.8c-4.8,7-9.8,10.4-15.5,10.4
					c-2.8,0-7.2-1-8-7.1c-4.8,4.9-8.9,7.3-12.5,7.3c-4.4,0-7.1-2.9-7.1-7.5c0-0.9,0.1-1.8,0.3-2.8l-6.8,7.9c0,0-0.1,0.1-0.1,0.1
					c-0.8,0.8-1.7,1.2-2.9,1.2c-2.5,0-4-2.1-4-4.1c0-1,0.4-2,1-2.7c2.1-2.4,4-4.6,5.7-6.7c9.2-10.7,13.9-16.1,16.3-20.1
					c0.1-0.2,0.4-0.6,0.5-1c0,0,0-0.1,0.1-0.1c0.7-1.1,2-1.8,3.5-1.8c2.3,0,4,1.8,4,4.1c0,0.6-0.2,1-0.3,1.3l0,0.1
					c-0.3,0.9-0.7,1.9-2,4.6l-1.6,3.7c-2,4.5-5.2,11.8-5.7,15.4c3.5-1.2,9.3-7.6,15.5-16.8c1.8-4.5,3.8-8.1,4.7-9.4
					c0,0,0.1-0.1,0.1-0.1c0.5-0.6,1.6-2,3.8-2c2.4,0,4.1,2.1,4.1,4c0,0.8,0,2.8-5.6,11.5c-2.2,5.3-3.3,9.3-3.3,12
					c0,0.6,0.1,1,0.1,1.1c0,0,0.1,0,0.2,0c3.7,0,8.3-5.2,13.7-15.6c1-4.5,4-9.4,4.9-10.8c0,0,0-0.1,0.1-0.1c0.9-1.3,2.3-2.1,3.6-2.1
					c2.3,0,4.1,1.8,4.1,4.2c0,0.9-0.5,2-2.9,7.1c-0.7,1.4-1.5,3.1-2.3,4.9c-0.3,1.2-0.6,2.4-0.6,3.2c0,0.2,0,0.3,0,0.4c0,0,0,0,0,0
					c0,0,0.2,0,0.3,0c1.1,0,3.5-1.5,6.2-4.6c0.2-0.3,0.4-0.6,0.7-1l11.7-13.6c0,0,0.1-0.1,0.1-0.1c0.3-0.3,1.4-1.4,3-1.4
					c2.3,0,4,1.5,4,3.7c0,0.7,0,1.6-0.4,2.3c0,0,0,0.1-0.1,0.1c-0.6,1-3.7,6.4-6.4,12.4l-0.5,1.1c-1.3,2.9-2.7,6.2-3.2,8.6
					c5.2-4.8,10-10.1,11.9-12.2l0,0c0.2-0.3,0.4-0.5,0.6-0.8c2.2-2.3,4-4.6,5.7-7h-0.2c-2.2,0-4.1-1.8-4.1-4.1c0-2.2,1.8-4,4.1-4
					h4.7l1-2.1c4-10,5.6-13.4,5.6-13.5c0.6-1.4,2.1-2.4,3.7-2.4c2.6,0,4,2,4,4c0,0.5,0,1.2-0.4,2l-5.1,12.1h6.5c2.3,0,4.1,1.7,4.1,4
					c0,2.2-1.8,4.1-4.1,4.1h-9.7c-3.2,8.5-5.1,15.3-5.1,18.9c0,1,0.2,1.7,0.3,2.1c0.9-0.4,4.3-2.5,14.4-13.8c0,0,0,0,0,0
					c2.7-3.2,5.2-6,7.3-8.4c1-1.1,1.9-2.2,2.8-3.2c6.3-15.5,11.8-27.3,14.9-32.3c2.6-3.7,6-6,8.9-6c4.2,0,6.8,3.9,6.8,7.6
					c0,0.5,0,1.9-0.4,3c-1.5,4.1-7,13.4-13.3,20.5l-3.1,3.6c1.4-0.4,2.6-0.6,3.7-0.6c4.8,0,7.9,3.2,7.9,8.1c0,2.3-1.1,5.7-3.8,12.1
					c-1.8,3.9-2.7,6.4-3.2,8.1c3.6-3,9.5-9.6,12.1-12.5c0,0,0-0.1,0.1-0.1c0.6-0.6,1.7-1.2,2.9-1.2c2.2,0,4,1.8,4,4.1
					c0,1-0.4,2-1.1,2.7c-7.7,8.7-15.1,16.6-20.4,16.6c-4,0-6.1-3.5-6.1-6.8c0-3.1,1.4-7.4,4.5-14.1c2.4-5.2,3-8,3-8.8
					c0-0.1,0-0.1,0-0.2c-0.2,0-0.7,0.1-1.2,0.3c0,0-0.1,0-0.1,0c-2.5,0.8-12.5,9.8-18.3,22.9l-0.6,1.8l-0.1,0.3
					C193.2,276.6,192,279.5,189.5,279.5z M218.4,217.8c-0.6,1-1.3,2.2-2.1,3.6C217.2,220,217.9,218.8,218.4,217.8z"/>
				<path class="st2" d="M221,208.9c2.9,0,4.8,2.9,4.8,5.6c0,0.8-0.1,1.8-0.3,2.4c-1.4,3.8-6.8,12.9-12.9,19.8l-6.2,7l-4.1,4.8
					l-1.2,3.5c4-4.5,8.1-7.7,10.5-8.5c1-0.3,2.1-0.5,3.2-0.5c3.7,0,5.9,2.4,5.9,6.1c0,1.9-0.9,5-3.6,11.3c-2,4.3-3.9,9.3-3.9,11.6
					c0,0.5,0.1,0.8,0.3,0.8c2.6,0,10.4-8.6,15.8-14.7c0.3-0.3,0.9-0.6,1.4-0.6c1.1,0,2,0.9,2,2.1c0,0.5-0.2,1-0.5,1.3
					c-6.3,7.1-14.3,15.9-18.9,15.9c-2.8,0-4.1-2.6-4.1-4.8c0-3.1,1.8-7.8,4.3-13.2c2.4-5.2,3.2-8.4,3.2-9.6c0-1.4-0.6-2.2-1.9-2.2
					c-0.5,0-1.2,0.1-2.1,0.4c-3.3,1-13.8,10.9-19.6,24.1l-0.6,1.9c-0.7,1.9-1.6,4.1-2.8,4.1c-0.3,0-2.4-0.3-2.4-2.1
					c0-0.8,1.2-3.5,2.1-5.5l4.8-12l-2.6,2.9c0,0,0,0,0,0c-3.6,4.3-13.5,15.8-19,15.8c-4.2,0-6-4.1-6-8.1c0-2.7,0.5-6.2,1.7-10.2
					l-2,2.2c-0.1,0.1-0.2,0.3-0.3,0.4c-0.9,1-5.7,6.5-13.2,13.5c-1.8,1.7-3.9,2.5-5.5,2.5c-3.2,0-4.3-2.7-4.3-5.1
					c0-3.3,1.8-8.1,3.6-12.3c-0.5,0.5-0.8,0.8-1,1.1c-0.1,0.2-0.2,0.4-0.3,0.5c-4.1,4.7-7.7,7-11.1,7c-2.4,0-4.7-1.2-5.7-3.1
					c-4.1,6.8-9.1,11.7-15.2,11.7c-5,0-6.1-3.4-6.1-7c0-1,0-2.1,0.2-3.3c-5,5.9-10.1,10.6-14.6,10.6c-3.7,0-5.1-2.5-5.1-5.5
					c0-2.8,1.1-6.6,3.2-11.6l-13.2,15.3c-0.4,0.4-0.8,0.6-1.4,0.6c-1.3,0-2-1.1-2-2.1c0-0.5,0.2-1,0.5-1.3
					c13.1-15.3,19.3-22.2,22.3-27c0.2-0.3,0.6-1.1,0.6-1.1c0.3-0.5,0.9-0.8,1.8-0.8c1.1,0,2,0.8,2,2.1c0,0.3-0.1,0.5-0.2,0.8
					c-0.4,1.1-1,2.5-3.5,8.2c-2.6,5.9-5.9,13.6-5.9,17.1c0,0.8,0.2,1.3,0.9,1.3c5.2,0,13.2-10.4,18.4-18.1c1.9-4.6,3.7-8.1,4.6-9.2
					c0.4-0.5,1-1.3,2.3-1.3c1.2,0,2.1,1,2.1,2c0,2.2-4,8.5-5.4,10.6c-1.8,4.2-3.5,9.3-3.5,12.9c0,2,0.5,3.1,2.3,3.1
					c6,0,11.6-9.1,15.6-16.9c0.8-3.9,3.4-8.5,4.7-10.5c0.5-0.7,1.3-1.2,2-1.2c1.4,0,2.1,1.1,2.1,2.2c0,0.7-2.1,4.8-5.2,11.4
					c-0.4,1.6-0.7,2.9-0.7,3.9c0,1.6,0.8,2.4,2.4,2.4c2.3,0,5.3-2.4,7.9-5.5c0.1-0.2,0.3-0.5,0.6-0.8l11.7-13.7
					c0.4-0.4,0.9-0.8,1.6-0.8c1.3,0,2,0.7,2,1.7c0,0.3,0,1-0.2,1.4c-0.6,1-3.7,6.5-6.5,12.6c-1.9,4.3-4.1,9.3-4.1,12.5
					c0,0.8,0,1.3,0.4,1.3c0.5,0,1.8-0.5,2.7-1.3c5.6-5.1,10.8-10.9,12.7-12.9c0.1-0.2,0.2-0.4,0.4-0.5c3.5-3.7,5.9-7,8-10.5h-3.8
					c-1.1,0-2.1-0.9-2.1-2.1c0-1.1,0.9-2,2.1-2h6l1.6-3.3c4-10.1,5.6-13.5,5.6-13.5c0.3-0.7,1-1.2,1.9-1.2c1.3,0,2,1,2,2
					c0,0.2,0,0.7-0.2,1.2l-6.2,14.8h9.5c1.1,0,2.1,0.8,2.1,2c0,1.1-0.9,2.1-2.1,2.1h-11.1c-2.4,6.1-5.7,15.6-5.7,20.9
					c0,1.7,0.4,4.1,2.1,4.1c2.7,0,10.3-8.1,16.1-14.6c0,0,0,0,0,0c4-4.8,7.5-8.5,10.4-11.8c6.9-17,12.1-27.8,14.9-32.3
					C216.1,210.6,219,208.9,221,208.9 M207,236.8c2.8-3.2,5.1-5.9,7-8.6c4.6-6.1,6.9-10.7,7.5-12.4c0.1-0.3,0.2-0.9,0.2-1.3
					c0-0.7-0.2-1.6-0.7-1.6c-1,0-2.3,0.9-3.8,3.2C214.7,219.6,211.4,226.4,207,236.8 M221,204.9c-3.6,0-7.6,2.6-10.5,6.8
					c0,0.1-0.1,0.1-0.1,0.2c-3.2,5.1-8.6,16.8-15,32.3c-0.8,0.9-1.6,1.8-2.4,2.7c0.1-0.4,0.1-0.9,0.1-1.3c0-3.3-2.7-6-6.1-6h-3.5
					l3.9-9.3c0,0,0,0,0-0.1c0.5-1.2,0.5-2.4,0.5-2.7c0-3.3-2.6-6-6-6c-2.4,0-4.5,1.4-5.5,3.6c-0.2,0.5-1.8,4-5.6,13.5l-0.4,0.9h-3.5
					c-2.6,0-4.8,1.5-5.6,3.7c-0.7-2.4-2.9-4-5.7-4c-1.6,0-3.1,0.7-4.4,2c-0.1,0.1-0.1,0.1-0.2,0.2l-11.7,13.7
					c-0.3,0.3-0.6,0.7-0.8,1.1c-0.8,0.9-1.5,1.7-2.2,2.2c0.7-1.5,1.4-2.9,2-4.1c2.6-5.4,3.1-6.6,3.1-8c0-3.5-2.6-6.2-6.1-6.2
					c-1.9,0-3.9,1.1-5.2,2.9c0,0.1-0.1,0.1-0.1,0.2c-0.9,1.5-3.9,6.4-5.1,11.2c-4.7,9-8,12.4-10,13.6c0.3-1.9,1-4.9,3-9.5
					c5.8-9,5.8-11.3,5.8-12.4c0-3.3-2.7-6-6.1-6c-3.1,0-4.8,2.1-5.4,2.8l0,0c0,0-0.1,0.1-0.1,0.1c-1.2,1.6-3.2,5.6-4.9,9.7
					c-4.1,6.2-7.6,10.3-10.2,12.8c1.2-3.4,2.9-7.2,4-9.6c0.7-1.5,1.2-2.7,1.6-3.7c1.2-2.8,1.6-3.7,2-4.7c0,0,0-0.1,0-0.1l0-0.1
					c0.1-0.4,0.4-1.1,0.4-2c0-3.4-2.6-6.1-6-6.1c-2.2,0-4.1,1-5.2,2.8c-0.1,0.1-0.1,0.2-0.1,0.3c-0.1,0.3-0.3,0.6-0.4,0.7
					c0,0,0,0.1-0.1,0.1c-2.4,3.8-7,9.2-16.1,19.8c-1.7,2-3.6,4.2-5.7,6.6c-1,1.1-1.5,2.5-1.5,4c0,3.4,2.6,6.1,6,6.1
					c1.6,0,3.1-0.6,4.3-1.8c0.1-0.1,0.1-0.1,0.2-0.2l3.3-3.8c0.9,4.3,4.2,6.9,8.8,6.9c3.5,0,7.3-1.8,11.5-5.5c1.6,3.4,4.7,5.3,9,5.3
					c5.9,0,11.2-3.2,16-9.7c1.5,0.7,3.2,1.1,4.9,1.1c1.6,0,3.2-0.3,4.8-1c0,0.2,0,0.5,0,0.7c0,5.3,3.4,9.1,8.3,9.1
					c2.7,0,5.9-1.4,8.2-3.6c2.8-2.6,5.2-5,7.2-7c0.6,6.2,4.5,10.3,9.9,10.3c2.1,0,5.3-0.7,10.8-5.4c0,0.1,0,0.1,0,0.2
					c0,4.1,3.8,6.1,6.4,6.1c3.9,0,5.4-3.9,6.4-6.5l0.1-0.2c0-0.1,0-0.1,0.1-0.2l0.6-1.7c4.2-9.4,10.9-16.9,14.7-20.1
					c-0.4,1.2-1,2.6-1.8,4.3c-3.3,7-4.7,11.5-4.7,14.9c0,4.3,3,8.8,8.1,8.8c6.1,0,13.5-7.8,21.9-17.2c1-1.1,1.6-2.5,1.6-4.1
					c0-3.4-2.6-6.1-6-6.1c-1.5,0-3.2,0.7-4.3,1.8c-0.1,0.1-0.1,0.1-0.1,0.2c-1.2,1.3-3.1,3.5-5.2,5.7c2.6-6.2,3.6-9.5,3.6-12
					c0-5.6-3.5-9.5-8.7-10.1c6.4-7.2,11.9-16.6,13.4-20.7c0,0,0-0.1,0.1-0.2c0.4-1.3,0.5-2.9,0.5-3.6
					C229.7,209.9,226.4,204.9,221,204.9L221,204.9z M154.4,260.6c2.7-5.9,5.7-11.2,6.3-12.2c0.1-0.1,0.1-0.2,0.1-0.3
					c0.1-0.2,0.2-0.5,0.3-0.7c0.5,1.4,1.4,2.5,2.6,3.3c-1.2,1.5-2.5,3-3.9,4.6c-0.3,0.3-0.5,0.6-0.7,0.9c-1.1,1.2-2.9,3.2-5.3,5.6
					c0,0,0-0.1,0-0.1L154.4,260.6L154.4,260.6z M178.7,251.6h8.3c0.7,0,1.4-0.1,2-0.4c-1.2,1.3-2.4,2.7-3.6,4.2l0,0c0,0,0,0,0,0
					c-5.6,6.3-9,9.6-11,11.3C174.8,263.4,176.3,258,178.7,251.6L178.7,251.6z"/>
			</g>
			<g>
				<path class="st1" d="M331.2,278.9c-5.4,0-9.1-3-10.2-8c-5.6,5.3-9.5,7.7-12.4,7.7c-3.8,0-6.2-2.6-6.2-6.6c0-3.2,1.6-7.4,4.1-13
					c2.5-5.4,3.3-8.2,3.5-9.7c-3.9,1.1-10.5,8.1-17,18.2c-0.8,2.3-3.4,8.9-5.2,10.3c-0.1,0.1-0.2,0.2-0.3,0.2
					c-0.5,0.2-1.2,0.6-2.2,0.6c-2.4,0-4.2-1.8-4.2-4.2c0-1.7,1.4-4.6,4.1-9.4l0.4-0.8c2-5.8,3-10.7,3-13.7c0-0.7,0-1.2-0.1-1.5
					c-3.5,1.2-11.4,11.1-19.1,26.5c0,0,0,0.1-0.1,0.1c-0.6,1.1-2.2,2.6-3.8,2.6c-2.5,0-4-2-4-4c0-1.6,0.7-3.3,2.2-5.3
					c2.3-4.2,7.3-13.8,7.6-19.1c-2.2,2.1-14.1,16.4-21.2,25c-1.7,2-3,3.2-4.4,3.2c-2.2,0-4.1-1.8-4.1-4c0-1.1,0.3-2,1-2.8
					c1.9-2.4,20.2-24.5,23.3-27.5c1.8-1.7,4.2-2.7,6.3-2.7c3.7,0,5.8,2.4,6.7,5.3c3.7-3.7,7.1-5.6,10.2-5.6c4.7,0,7,3.9,7.4,8.2
					c5.1-5.4,9.8-8.1,14.4-8.1c4.3,0,7.2,2.9,7.2,7.2c0,3.4-1.8,7.9-3.8,12.5l-0.6,1.4c-0.6,1.3-1.9,4.3-2.7,6.8
					c2.1-1.6,5.8-4.9,12-11.9c3.4-8.1,10.1-16.2,17.7-16.2c4.8,0,8,3,8,7.4c0,6.4-7.8,12.6-19.5,15.5c-0.3,1.5-0.5,2.6-0.5,3.7
					c0,3.2,1.6,3.2,2.3,3.2c3.7,0,11.6-4.4,20.2-14.1c0,0,0-0.1,0.1-0.1c0.8-0.8,1.9-1.2,3-1.2c2.4,0,3.9,2.1,3.9,4.1
					c0,1.1-0.7,2.2-0.9,2.5c0,0.1-0.1,0.1-0.2,0.2C347.9,272.6,338.2,278.9,331.2,278.9z M340.4,249.1c-2.1,0.1-4.5,2.2-6.6,4.9
					C337.8,252.3,339.8,250.3,340.4,249.1z"/>
				<path class="st2" d="M340.6,243.1c3.6,0,6,2.1,6,5.4c0,5-6.5,11-19.1,13.9c-0.5,2-0.8,3.6-0.8,5.4c0,3.1,1.3,5.2,4.3,5.2
					c4.6,0,12.9-5,21.7-14.8c0.4-0.4,1-0.6,1.6-0.6c1.3,0,1.9,1.2,1.9,2.1c0,0.4-0.3,1-0.5,1.3c-8.7,9.9-17.9,16-24.4,16
					c-6.2,0-8.6-4.5-8.6-9.4c0-0.4,0-0.7,0-1.1c-6.7,6.9-11.3,10.2-14.1,10.2c-2.9,0-4.2-2-4.2-4.6c0-3,1.8-7.3,3.9-12.2
					c1.8-3.8,3.8-8.9,3.8-11.5c0-0.8-0.4-1.1-1.1-1.1c-5.8,0-14.6,11.4-19.8,19.5c-1.8,4.9-3.7,8.9-4.7,9.6
					c-0.4,0.2-0.8,0.4-1.3,0.4c-1.4,0-2.2-1-2.2-2.2c0-1.8,3.2-7.2,4.3-9.3c1.7-4.9,3.2-10.6,3.2-14.5c0-1.6-0.1-3.6-1.4-3.6
					c-6.3,0-17.4,19.5-21.5,27.7c-0.4,0.7-1.4,1.6-2.1,1.6c-1.3,0-2-1.1-2-2c0-1.2,0.7-2.7,1.9-4.2c3.3-6.2,7.9-15.1,7.9-20.5
					c0-1.1-0.2-2.4-1.1-2.4c-0.6,0-1.3,0.4-2.1,1.1c-2.5,2.2-18.7,21.9-21.5,25.4c-1,1.2-2.2,2.5-2.9,2.5c-1.1,0-2.1-0.9-2.1-2
					c0-0.7,0.2-1.1,0.5-1.4c1.7-2.2,20.2-24.5,23.2-27.3c1.4-1.3,3.3-2.2,5-2.2c3.6,0,5.1,3.3,5.1,6.2c0,0.7-0.1,1.4-0.2,2.2
					c3.9-5,8.3-8.7,12-8.7c4.2,0,5.5,4.3,5.5,7.6c0,1.4-0.1,2.9-0.4,4.6c5.2-6.7,11-12,16.8-12c3.4,0,5.2,2.2,5.2,5.2
					s-1.7,7.1-3.6,11.7l-0.6,1.4c-1.7,3.8-3.5,8.4-3.5,10.6c0,0.3,0,0.5,0.2,0.5c2.2,0,7.8-4.8,16.1-14.2
					C327.7,250.7,333.9,243.1,340.6,243.1 M329.2,257.6c9.8-2.6,13.4-6.8,13.4-9.3c0-0.9-1.2-1.2-2-1.2
					C335.9,247.1,331.4,253.2,329.2,257.6 M340.6,239.1c-4.2,0-8.4,2.1-12.2,6c-2.8,2.9-5.4,6.9-7.2,11.1c-2,2.2-3.7,4-5.1,5.5
					l0-0.1c2.1-4.8,3.9-9.5,3.9-13.3c0-5.4-3.8-9.2-9.2-9.2c-4.3,0-8.7,2-13.2,6.1c-1.4-3.9-4.5-6.2-8.6-6.2c-3,0-6.2,1.4-9.5,4.3
					c-1.6-2.5-4.2-4-7.3-4c-2.7,0-5.5,1.2-7.7,3.2c-3.3,3.1-21.3,24.9-23.5,27.7c-1,1.1-1.5,2.4-1.5,4.1c0,3.3,2.7,6,6.1,6
					c2.5,0,4.2-1.9,6-3.9c4.6-5.6,10.8-13.1,15.3-18.4c-1.6,3.9-3.8,7.9-4.9,10.1c-1.7,2.4-2.5,4.4-2.5,6.4c0,2.9,2.3,6,6,6
					c2.6,0,4.7-2.1,5.5-3.6c0-0.1,0.1-0.1,0.1-0.2c2.1-4.2,5.6-10.5,9.3-15.9c2.6-3.8,4.5-6.1,5.9-7.5c-0.4,2.7-1.3,6.3-2.7,10.3
					c-0.1,0.2-0.2,0.4-0.3,0.6c-2.9,5.3-4.3,8.2-4.3,10.4c0,3.5,2.7,6.2,6.2,6.2c1.5,0,2.5-0.5,3.1-0.8c0.2-0.1,0.5-0.3,0.7-0.4
					c2-1.6,4.3-6.8,5.8-11c4.5-7,8.6-11.8,11.6-14.5c-0.5,1.2-1.1,2.6-1.8,4.2c-2.7,6.1-4.3,10.3-4.3,13.9c0,5,3.4,8.6,8.2,8.6
					c3.1,0,6.6-1.9,11.5-6.2c2,4.1,5.9,6.5,11.1,6.5c7.8,0,17.8-6.3,27.4-17.4c0.1-0.1,0.2-0.3,0.3-0.4c0.4-0.5,1.2-2,1.2-3.6
					c0-3-2.2-6.1-5.9-6.1c-1.6,0-3.3,0.7-4.4,1.8c-0.1,0.1-0.1,0.1-0.2,0.2c-8.8,9.8-16.2,13.5-18.8,13.5c-0.1,0-0.2,0-0.2,0
					c-0.1-0.2-0.1-0.6-0.1-1.2c0-0.7,0.1-1.3,0.2-2.1c12.1-3.4,19.8-9.9,19.8-17.1C350.6,242.9,346.5,239.1,340.6,239.1L340.6,239.1
					z"/>
			</g>
		</g>
	</g>
	<g>
		<g>
			<g>
				<path class="st0" d="M40.4,24.4c1.1-0.3,1.9-1.1,2.2-2.2c0-0.2,0.2-0.3,0.4-0.3c0.2,0,0.3,0.1,0.4,0.3c0.3,1.1,1.1,1.9,2.2,2.2
					c0.2,0,0.3,0.2,0.3,0.4c0,0.2-0.1,0.3-0.3,0.4c-1.1,0.3-1.9,1.1-2.2,2.2c0,0.2-0.2,0.3-0.4,0.3c-0.2,0-0.3-0.1-0.4-0.3
					c-0.3-1.1-1.1-1.9-2.2-2.2c-0.2,0-0.3-0.2-0.3-0.4C40.1,24.6,40.2,24.4,40.4,24.4z"/>
				<g>
					<path class="st3" d="M52.4,9.5v1.6c0,2.3-1.8,4.1-4.1,4.1h-1.4l0,0h1.4c2.3,0,4.1,1.8,4.1,4.1v1.6v-1.6c0-2.3,1.8-4.1,4.1-4.1
						h1.4l0,0h-1.4c-2.3,0-4.1-1.8-4.1-4.1V9.5z"/>
				</g>
			</g>
		</g>
		<g>
			<g>
				<path class="st0" d="M417,395.7c-1.1-0.3-1.9-1.1-2.2-2.2c0-0.2-0.2-0.3-0.4-0.3c-0.2,0-0.3,0.1-0.4,0.3
					c-0.3,1.1-1.1,1.9-2.2,2.2c-0.2,0-0.3,0.2-0.3,0.4c0,0.2,0.1,0.3,0.3,0.4c1.1,0.3,1.9,1.1,2.2,2.2c0,0.2,0.2,0.3,0.4,0.3
					c0.2,0,0.3-0.1,0.4-0.3c0.3-1.1,1.1-1.9,2.2-2.2c0.2,0,0.3-0.2,0.3-0.4C417.3,395.9,417.2,395.8,417,395.7z"/>
				<g>
					<path class="st3" d="M405,380.9v1.6c0,2.3,1.8,4.1,4.1,4.1h1.4l0,0h-1.4c-2.3,0-4.1,1.8-4.1,4.1v1.6v-1.6
						c0-2.3-1.8-4.1-4.1-4.1h-1.4l0,0h1.4c2.3,0,4.1-1.8,4.1-4.1V380.9z"/>
				</g>
			</g>
		</g>
	</g>
</g>
</svg>
