<?xml version="1.0" encoding="utf-8"?>
<!-- Generator: Adobe Illustrator 22.0.0, SVG Export Plug-In . SVG Version: 6.00 Build 0)  -->
<svg version="1.1" id="Layer_1" xmlns="http://www.w3.org/2000/svg" xmlns:xlink="http://www.w3.org/1999/xlink" x="0px" y="0px"
	 viewBox="0 0 70 70" style="enable-background:new 0 0 70 70;" xml:space="preserve">
<style type="text/css">
	.st0{fill:#EAE7DA;stroke:#C99340;stroke-width:2;stroke-linecap:round;stroke-linejoin:round;stroke-miterlimit:10;}
</style>
<g id="giftbox_1_">
	<path class="st0" d="M5.1,15h59.8c0,0-0.9-11-8.4-11c-7.5,0-36.5,0-43,0C7,4.1,5.1,15,5.1,15z"/>
	<polygon class="st0" points="5.1,15 64.9,15 56.5,35.5 13.5,35.5 	"/>
	<polygon class="st0" points="3.9,52.3 66.1,52.3 56.5,35.5 13.5,35.5 	"/>
	<path class="st0" d="M66.1,59.9c0,3.3-2.7,6-6,6H9.9c-3.3,0-6-2.7-6-6v-7.7h62.2V59.9z"/>
	<path class="st0" d="M35,32.9c-7.2,0-13,5.8-13,13h2.9c0-5.6,4.5-10.1,10.1-10.1c5.6,0,10.1,4.5,10.1,10.1H48
		C48,38.7,42.2,32.9,35,32.9z"/>
	<line class="st0" x1="17.4" y1="28.8" x2="52.6" y2="28.8"/>
	<polygon class="st0" points="37.4,23 32.6,23 28.9,27 35,32.9 41.1,27 	"/>
	<line class="st0" x1="28.9" y1="27" x2="41.1" y2="27"/>
	<line class="st0" x1="14.9" y1="45.9" x2="54.3" y2="45.9"/>
	<path class="st0" d="M13.5,35.5L5.1,15l8.4,0.1c0,0,5,11.5,3.9,15.3C16.2,34.4,13.5,35.5,13.5,35.5z"/>
	<path class="st0" d="M56.5,35.5L64.9,15l-8.4,0.1c0,0-5,11.5-3.9,15.3C53.8,34.4,56.5,35.5,56.5,35.5z"/>
</g>
</svg>
