<?xml version="1.0" encoding="utf-8"?>
<!-- Generator: Adobe Illustrator 22.0.0, SVG Export Plug-In . SVG Version: 6.00 Build 0)  -->
<svg version="1.1" id="Layer_1" xmlns="http://www.w3.org/2000/svg" xmlns:xlink="http://www.w3.org/1999/xlink" x="0px" y="0px"
	 viewBox="0 0 130 100" style="enable-background:new 0 0 130 100;" xml:space="preserve">
<style type="text/css">
	.st0{fill:none;stroke:#C99340;stroke-width:2;stroke-linecap:round;stroke-linejoin:round;stroke-miterlimit:10;}
	.st1{fill:#FAF2E5;stroke:#C99340;stroke-width:2;stroke-linecap:round;stroke-linejoin:round;stroke-miterlimit:10;}
	.st2{fill:#C99340;}
</style>
<g>
	<path class="st0" d="M127.5,12.5V4.2h-8.3c0,2.3-1.9,4.2-4.2,4.2s-4.2-1.9-4.2-4.2h-8.3c0,2.3-1.9,4.2-4.2,4.2s-4.2-1.9-4.2-4.2
		h-8.3c0,2.3-1.9,4.2-4.2,4.2s-4.2-1.9-4.2-4.2h-8.3c0,2.3-1.9,4.2-4.2,4.2s-4.2-1.9-4.2-4.2h-8.3c0,2.3-1.9,4.2-4.2,4.2
		s-4.2-1.9-4.2-4.2h-8.3c0,2.3-1.9,4.2-4.2,4.2s-4.2-1.9-4.2-4.2h-8.3c0,2.3-1.9,4.2-4.2,4.2s-4.2-1.9-4.2-4.2H2.5v8.3
		c2.3,0,4.2,1.9,4.2,4.2s-1.9,4.2-4.2,4.2v8.3c2.3,0,4.2,1.9,4.2,4.2s-1.9,4.2-4.2,4.2v8.3c2.3,0,4.2,1.9,4.2,4.2s-1.9,4.2-4.2,4.2
		v8.3c2.3,0,4.2,1.9,4.2,4.2s-1.9,4.2-4.2,4.2v8.3c2.3,0,4.2,1.9,4.2,4.2s-1.9,4.2-4.2,4.2v8.3h8.3c0-2.3,1.9-4.2,4.2-4.2
		s4.2,1.9,4.2,4.2h8.3c0-2.3,1.9-4.2,4.2-4.2s4.2,1.9,4.2,4.2h8.3c0-2.3,1.9-4.2,4.2-4.2s4.2,1.9,4.2,4.2h8.3c0-2.3,1.9-4.2,4.2-4.2
		s4.2,1.9,4.2,4.2h8.3c0-2.3,1.9-4.2,4.2-4.2s4.2,1.9,4.2,4.2h8.3c0-2.3,1.9-4.2,4.2-4.2s4.2,1.9,4.2,4.2h8.3c0-2.3,1.9-4.2,4.2-4.2
		s4.2,1.9,4.2,4.2h8.3v-8.3c-2.3,0-4.2-1.9-4.2-4.2s1.9-4.2,4.2-4.2v-8.3c-2.3,0-4.2-1.9-4.2-4.2s1.9-4.2,4.2-4.2v-8.3
		c-2.3,0-4.2-1.9-4.2-4.2s1.9-4.2,4.2-4.2v-8.3c-2.3,0-4.2-1.9-4.2-4.2s1.9-4.2,4.2-4.2v-8.3c-2.3,0-4.2-1.9-4.2-4.2
		S125.2,12.5,127.5,12.5z"/>
	<rect x="12.5" y="14.2" class="st0" width="105" height="71.7"/>
	<g>
		<g>
			<g>
				<path class="st0" d="M22.5,52c3.9,0,3.9,2,7.7,2c3.9,0,3.9-2,7.7-2c3.9,0,3.9,2,7.7,2c3.9,0,3.9-2,7.7-2c3.9,0,3.9,2,7.7,2
					c3.9,0,3.9-2,7.7-2c3.9,0,3.9,2,7.7,2c3.9,0,3.9-2,7.7-2c3.9,0,3.9,2,7.7,2c3.9,0,3.9-2,7.7-2c3.9,0,3.9,2,7.7,2"/>
			</g>
			<g>
				<path class="st0" d="M22.5,60c3.9,0,3.9,2,7.7,2c3.9,0,3.9-2,7.7-2c3.9,0,3.9,2,7.7,2c3.9,0,3.9-2,7.7-2c3.9,0,3.9,2,7.7,2
					c3.9,0,3.9-2,7.7-2c3.9,0,3.9,2,7.7,2c3.9,0,3.9-2,7.7-2c3.9,0,3.9,2,7.7,2c3.9,0,3.9-2,7.7-2c3.9,0,3.9,2,7.7,2"/>
			</g>
			<g>
				<path class="st0" d="M22.5,68c3.9,0,3.9,2,7.7,2c3.9,0,3.9-2,7.7-2c3.9,0,3.9,2,7.7,2c3.9,0,3.9-2,7.7-2c3.9,0,3.9,2,7.7,2
					c3.9,0,3.9-2,7.7-2c3.9,0,3.9,2,7.7,2c3.9,0,3.9-2,7.7-2c3.9,0,3.9,2,7.7,2c3.9,0,3.9-2,7.7-2c3.9,0,3.9,2,7.7,2"/>
			</g>
		</g>
	</g>
	<g id="invitation_1_">
		<g>
			<path class="st1" d="M88,70c0,1.8-1.5,3.3-3.3,3.3H45.4c-1.8,0-3.3-1.5-3.3-3.3V46c0-1.8,1.5-3.3,3.3-3.3h39.2
				c1.8,0,3.3,1.5,3.3,3.3V70z"/>
			<path class="st1" d="M88,70c0,1.8-1.5,3.3-3.3,3.3H45.4c-1.8,0-3.3-1.5-3.3-3.3l0,0.1c0,0,16.1-12.9,19.2-15.4
				c3.2-2.5,5.3-1.8,7.5,0C70.9,56.5,87.9,70,88,70L88,70z"/>
			<polygon class="st1" points="72.5,57.6 71.3,56.6 59.1,56.4 57.5,57.7 47.9,50.3 47.9,26.7 82.1,26.7 82.1,50.3 			"/>
			<line class="st1" x1="52.2" y1="45.7" x2="78.5" y2="45.7"/>
			<line class="st1" x1="52.2" y1="49" x2="78.5" y2="49"/>
			<g>
				<path class="st0" d="M64.6,36c0,2.1,1.7,3.8,3.8,3.8c2.1,0,3.8-1.7,3.8-3.8c0-2.1-1.7-3.8-3.8-3.8C66.3,32.2,64.6,33.9,64.6,36z
					"/>
				<path class="st0" d="M57.8,35.5c0,2.3,1.9,4.2,4.3,4.2c2.4,0,4.3-1.9,4.3-4.2c0-2.3-1.9-4.2-4.3-4.2
					C59.7,31.2,57.8,33.1,57.8,35.5z"/>
				<path class="st0" d="M64.6,36c0,2.1,1.7,3.8,3.8,3.8"/>
			</g>
			<path class="st1" d="M71.3,55.8c0-1.9-1.5-3.4-3.4-3.4c-1.2,0-2.2,0.6-2.8,1.5c-0.6-0.9-1.7-1.5-2.8-1.5c-1.9,0-3.4,1.5-3.4,3.4
				c0,0,0,0.1,0,0.1c0,0,0,0.1,0,0.1c0,3.5,6.2,7.6,6.3,7.6c0.1,0,6.3-4.1,6.3-7.6c0,0,0-0.1,0-0.1C71.3,55.9,71.3,55.8,71.3,55.8z"
				/>
			<g>
				<polygon class="st1" points="88,70 88,46 72.5,57.6 				"/>
				<polygon class="st1" points="42,70 57.5,57.6 42,46 				"/>
			</g>
		</g>
	</g>
	<g>
		<g>
			<g>
				<path class="st2" d="M22.4,39.5c1.1-0.3,1.9-1.1,2.2-2.2c0-0.2,0.2-0.3,0.4-0.3c0.2,0,0.3,0.1,0.4,0.3c0.3,1.1,1.1,1.9,2.2,2.2
					c0.2,0,0.3,0.2,0.3,0.4c0,0.2-0.1,0.3-0.3,0.4c-1.1,0.3-1.9,1.1-2.2,2.2c0,0.2-0.2,0.3-0.4,0.3c-0.2,0-0.3-0.1-0.4-0.3
					c-0.3-1.1-1.1-1.9-2.2-2.2c-0.2,0-0.3-0.2-0.3-0.4C22.2,39.7,22.3,39.5,22.4,39.5z"/>
				<g>
					<path class="st1" d="M34.4,24.7v1.6c0,2.3-1.8,4.1-4.1,4.1h-1.4l0,0h1.4c2.3,0,4.1,1.8,4.1,4.1V36v-1.6c0-2.3,1.8-4.1,4.1-4.1
						h1.4l0,0h-1.4c-2.3,0-4.1-1.8-4.1-4.1V24.7z"/>
				</g>
			</g>
		</g>
		<g>
			<g>
				<path class="st2" d="M107.6,39.5c-1.1-0.3-1.9-1.1-2.2-2.2c0-0.2-0.2-0.3-0.4-0.3s-0.3,0.1-0.4,0.3c-0.3,1.1-1.1,1.9-2.2,2.2
					c-0.2,0-0.3,0.2-0.3,0.4c0,0.2,0.1,0.3,0.3,0.4c1.1,0.3,1.9,1.1,2.2,2.2c0,0.2,0.2,0.3,0.4,0.3c0.2,0,0.3-0.1,0.4-0.3
					c0.3-1.1,1.1-1.9,2.2-2.2c0.2,0,0.3-0.2,0.3-0.4C107.8,39.7,107.7,39.5,107.6,39.5z"/>
				<g>
					<path class="st1" d="M95.6,24.7v1.6c0,2.3,1.8,4.1,4.1,4.1h1.4l0,0h-1.4c-2.3,0-4.1,1.8-4.1,4.1V36v-1.6c0-2.3-1.8-4.1-4.1-4.1
						h-1.4l0,0h1.4c2.3,0,4.1-1.8,4.1-4.1V24.7z"/>
				</g>
			</g>
		</g>
	</g>
</g>
</svg>
