<?xml version="1.0" encoding="utf-8"?>
<!-- Generator: Adobe Illustrator 22.0.0, SVG Export Plug-In . SVG Version: 6.00 Build 0)  -->
<svg version="1.1" id="Layer_1" xmlns="http://www.w3.org/2000/svg" xmlns:xlink="http://www.w3.org/1999/xlink" x="0px" y="0px"
	 viewBox="0 0 25 25" style="enable-background:new 0 0 25 25;" xml:space="preserve">
<style type="text/css">
	.st0{fill:none;stroke:#C99340;stroke-width:2;stroke-linecap:round;stroke-linejoin:round;stroke-miterlimit:10;}
</style>
<path class="st0" d="M23.6,8.5c0-3.3-2.7-6.1-6.1-6.1c-2.1,0-3.9,1-5,2.6c-1.1-1.6-2.9-2.6-5-2.6c-3.4,0-6.1,2.7-6.1,6.1
	c0,0.1,0,0.2,0,0.3c0,0.1,0,0.2,0,0.2c0,6.2,11,13.5,11.1,13.5c0.1,0,11.1-7.3,11.1-13.5c0-0.1,0-0.2,0-0.2
	C23.6,8.7,23.6,8.6,23.6,8.5z"/>
</svg>
